M48
INCH,TZ
T1C0.0394
T2C0.0512
%
G90
G05
T1
X22350Y-38150
X22350Y-39150
X22350Y-40150
X22350Y-41150
X22350Y-42150
X22350Y-43150
X22350Y-44150
X22350Y-45150
X22350Y-46150
X22350Y-47150
X22350Y-48150
X22350Y-49150
X22350Y-50150
X22350Y-51150
X22350Y-52150
X22350Y-53150
X22350Y-54150
X22350Y-55150
X22350Y-56150
X22350Y-57150
X24350Y-38100
X24350Y-39100
X24350Y-40100
X24350Y-41100
X24350Y-42100
X24350Y-43100
X24350Y-44100
X24350Y-45100
X24350Y-46100
X24350Y-47100
X24350Y-48100
X24350Y-49100
X24350Y-50100
X24350Y-51100
X24350Y-52100
X24350Y-53100
X24350Y-54100
X24350Y-55100
X24350Y-56100
X24350Y-57100
X26800Y-44150
X26850Y-45900
X27100Y-48150
X27100Y-49150
X27100Y-50150
X27100Y-51150
X27100Y-52150
X27100Y-53150
X27100Y-54150
X27100Y-55150
X27100Y-56150
X27100Y-57150
X27800Y-44150
X27850Y-45900
X27850Y-59900
X28850Y-45900
X28850Y-59900
X28931Y-48150
X28931Y-49150
X28931Y-50150
X28931Y-51150
X28931Y-52150
X28931Y-53150
X28931Y-54150
X28931Y-55150
X28931Y-56150
X28931Y-57150
T2
X26350Y-34900
X26350Y-36869
X29600Y-41400
X29600Y-43369
X31100Y-47900
X31100Y-49869
X31271Y-34900
X31271Y-36869
X32850Y-34900
X32850Y-36869
X34100Y-54400
X34100Y-56369
X34100Y-60900
X34100Y-62869
X34521Y-41400
X34521Y-43369
X36021Y-47900
X36021Y-49869
X36100Y-41400
X36100Y-43369
X37600Y-47900
X37600Y-49869
X37771Y-34900
X37771Y-36869
X39021Y-54400
X39021Y-56369
X39021Y-60900
X39021Y-62869
X39350Y-34900
X39350Y-36869
X40600Y-54400
X40600Y-56369
X40600Y-60900
X40600Y-62869
X41021Y-41400
X41021Y-43369
X42521Y-47900
X42521Y-49869
X42600Y-41400
X42600Y-43369
X44100Y-47900
X44100Y-49869
X44271Y-34900
X44271Y-36869
X45521Y-54400
X45521Y-56369
X45521Y-60900
X45521Y-62869
X45850Y-34900
X45850Y-36869
X47100Y-54400
X47100Y-56369
X47521Y-41400
X47521Y-43369
X49021Y-47900
X49021Y-49869
X49100Y-41400
X49100Y-43369
X50600Y-47900
X50600Y-49869
X50771Y-34900
X50771Y-36869
X52021Y-54400
X52021Y-56369
X52350Y-34900
X52350Y-36869
X53600Y-54400
X53600Y-56369
X54021Y-41400
X54021Y-43369
X55521Y-47900
X55521Y-49869
X55600Y-41400
X55600Y-43369
X57100Y-47900
X57100Y-49869
X57271Y-34900
X57271Y-36869
X58521Y-54400
X58521Y-56369
X58850Y-34900
X58850Y-36869
X60100Y-54400
X60100Y-56369
X60521Y-41400
X60521Y-43369
X62021Y-47900
X62021Y-49869
X62100Y-41400
X62100Y-43369
X63600Y-47900
X63600Y-49869
X63771Y-34900
X63771Y-36869
X65021Y-54400
X65021Y-56369
X65350Y-34900
X65350Y-36869
X66600Y-54400
X66600Y-56369
X67021Y-41400
X67021Y-43369
X68521Y-47900
X68521Y-49869
X68600Y-41400
X68600Y-43369
X70100Y-47900
X70100Y-49869
X70271Y-34900
X70271Y-36869
X71521Y-54400
X71521Y-56369
X71850Y-34900
X71850Y-36869
X73100Y-54400
X73100Y-56369
X73100Y-60900
X73100Y-62869
X73521Y-41400
X73521Y-43369
X75021Y-47900
X75021Y-49869
X75100Y-41400
X75100Y-43369
X76600Y-47900
X76600Y-49869
X76771Y-34900
X76771Y-36869
X78021Y-54400
X78021Y-56369
X78021Y-60900
X78021Y-62869
X78350Y-34900
X78350Y-36869
X79600Y-54400
X79600Y-56369
X80021Y-41400
X80021Y-43369
X81521Y-47900
X81521Y-49869
X81600Y-41400
X81600Y-43369
X83100Y-47900
X83100Y-49869
X83271Y-34900
X83271Y-36869
X84521Y-54400
X84521Y-56369
X84850Y-34900
X84850Y-36869
X86100Y-54400
X86100Y-56369
X86521Y-41400
X86521Y-43369
X88021Y-47900
X88021Y-49869
X88100Y-41400
X88100Y-43369
X89600Y-47900
X89600Y-49869
X89771Y-34900
X89771Y-36869
X91021Y-54400
X91021Y-56369
X91350Y-34900
X91350Y-36869
X92600Y-54400
X92600Y-56369
X93021Y-41400
X93021Y-43369
X94521Y-47900
X94521Y-49869
X94600Y-41400
X94600Y-43369
X96100Y-47900
X96100Y-49869
X96271Y-34900
X96271Y-36869
X97521Y-54400
X97521Y-56369
X97850Y-34900
X97850Y-36869
X99100Y-54400
X99100Y-56369
X99521Y-41400
X99521Y-43369
X101021Y-47900
X101021Y-49869
X101100Y-41400
X101100Y-43369
X102600Y-47900
X102600Y-49869
X102771Y-34900
X102771Y-36869
X104021Y-54400
X104021Y-56369
X104350Y-34900
X104350Y-36869
X105600Y-54400
X105600Y-56369
X106021Y-41400
X106021Y-43369
X107521Y-47900
X107521Y-49869
X107600Y-41400
X107600Y-43369
X109100Y-47900
X109100Y-49869
X109271Y-34900
X109271Y-36869
X110521Y-54400
X110521Y-56369
X110850Y-34900
X110850Y-36869
X112100Y-54400
X112100Y-56369
X112521Y-41400
X112521Y-43369
X114021Y-47900
X114021Y-49869
X115771Y-34900
X115771Y-36869
X116350Y-44400
X116350Y-46369
X117021Y-54400
X117021Y-56369
X117350Y-34900
X117350Y-36869
X117350Y-60900
X117350Y-62869
X121271Y-44400
X121271Y-46369
X122271Y-34900
X122271Y-36869
X122271Y-60900
X122271Y-62869
X123850Y-34900
X123850Y-36869
X123850Y-41400
X123850Y-43369
X123850Y-47900
X123850Y-49869
X123850Y-54400
X123850Y-56369
X123850Y-60900
X123850Y-62869
X128771Y-34900
X128771Y-36869
X128771Y-41400
X128771Y-43369
X128771Y-47900
X128771Y-49869
X128771Y-54400
X128771Y-56369
X128771Y-60900
X128771Y-62869
X130350Y-34900
X130350Y-36869
X130350Y-41400
X130350Y-43369
X130350Y-47900
X130350Y-49869
X130350Y-54400
X130350Y-56369
X130350Y-60900
X130350Y-62869
X135271Y-34900
X135271Y-36869
X135271Y-41400
X135271Y-43369
X135271Y-47900
X135271Y-49869
X135271Y-54400
X135271Y-56369
X135271Y-60900
X135271Y-62869
X136850Y-34900
X136850Y-36869
X136850Y-41400
X136850Y-43369
X136850Y-47900
X136850Y-49869
X136850Y-54400
X136850Y-56369
X136850Y-60900
X136850Y-62869
X141771Y-34900
X141771Y-36869
X141771Y-41400
X141771Y-43369
X141771Y-47900
X141771Y-49869
X141771Y-54400
X141771Y-56369
X141771Y-60900
X141771Y-62869
T0
M30
