G04 #@! TF.GenerationSoftware,KiCad,Pcbnew,(5.1.12)-1*
G04 #@! TF.CreationDate,2023-03-25T16:13:48+00:00*
G04 #@! TF.ProjectId,Keyboard,4b657962-6f61-4726-942e-6b696361645f,rev?*
G04 #@! TF.SameCoordinates,Original*
G04 #@! TF.FileFunction,Legend,Bot*
G04 #@! TF.FilePolarity,Positive*
%FSLAX46Y46*%
G04 Gerber Fmt 4.6, Leading zero omitted, Abs format (unit mm)*
G04 Created by KiCad (PCBNEW (5.1.12)-1) date 2023-03-25 16:13:48*
%MOMM*%
%LPD*%
G01*
G04 APERTURE LIST*
%ADD10C,0.150000*%
%ADD11C,0.120000*%
G04 APERTURE END LIST*
D10*
X282874404Y-97432380D02*
X282874404Y-96432380D01*
X282636309Y-96432380D01*
X282493452Y-96480000D01*
X282398214Y-96575238D01*
X282350595Y-96670476D01*
X282302976Y-96860952D01*
X282302976Y-97003809D01*
X282350595Y-97194285D01*
X282398214Y-97289523D01*
X282493452Y-97384761D01*
X282636309Y-97432380D01*
X282874404Y-97432380D01*
X281493452Y-97384761D02*
X281588690Y-97432380D01*
X281779166Y-97432380D01*
X281874404Y-97384761D01*
X281922023Y-97289523D01*
X281922023Y-96908571D01*
X281874404Y-96813333D01*
X281779166Y-96765714D01*
X281588690Y-96765714D01*
X281493452Y-96813333D01*
X281445833Y-96908571D01*
X281445833Y-97003809D01*
X281922023Y-97099047D01*
X281064880Y-97384761D02*
X280969642Y-97432380D01*
X280779166Y-97432380D01*
X280683928Y-97384761D01*
X280636309Y-97289523D01*
X280636309Y-97241904D01*
X280683928Y-97146666D01*
X280779166Y-97099047D01*
X280922023Y-97099047D01*
X281017261Y-97051428D01*
X281064880Y-96956190D01*
X281064880Y-96908571D01*
X281017261Y-96813333D01*
X280922023Y-96765714D01*
X280779166Y-96765714D01*
X280683928Y-96813333D01*
X280207738Y-97432380D02*
X280207738Y-96765714D01*
X280207738Y-96432380D02*
X280255357Y-96480000D01*
X280207738Y-96527619D01*
X280160119Y-96480000D01*
X280207738Y-96432380D01*
X280207738Y-96527619D01*
X279302976Y-96765714D02*
X279302976Y-97575238D01*
X279350595Y-97670476D01*
X279398214Y-97718095D01*
X279493452Y-97765714D01*
X279636309Y-97765714D01*
X279731547Y-97718095D01*
X279302976Y-97384761D02*
X279398214Y-97432380D01*
X279588690Y-97432380D01*
X279683928Y-97384761D01*
X279731547Y-97337142D01*
X279779166Y-97241904D01*
X279779166Y-96956190D01*
X279731547Y-96860952D01*
X279683928Y-96813333D01*
X279588690Y-96765714D01*
X279398214Y-96765714D01*
X279302976Y-96813333D01*
X278826785Y-96765714D02*
X278826785Y-97432380D01*
X278826785Y-96860952D02*
X278779166Y-96813333D01*
X278683928Y-96765714D01*
X278541071Y-96765714D01*
X278445833Y-96813333D01*
X278398214Y-96908571D01*
X278398214Y-97432380D01*
X277541071Y-97384761D02*
X277636309Y-97432380D01*
X277826785Y-97432380D01*
X277922023Y-97384761D01*
X277969642Y-97289523D01*
X277969642Y-96908571D01*
X277922023Y-96813333D01*
X277826785Y-96765714D01*
X277636309Y-96765714D01*
X277541071Y-96813333D01*
X277493452Y-96908571D01*
X277493452Y-97003809D01*
X277969642Y-97099047D01*
X276636309Y-97432380D02*
X276636309Y-96432380D01*
X276636309Y-97384761D02*
X276731547Y-97432380D01*
X276922023Y-97432380D01*
X277017261Y-97384761D01*
X277064880Y-97337142D01*
X277112500Y-97241904D01*
X277112500Y-96956190D01*
X277064880Y-96860952D01*
X277017261Y-96813333D01*
X276922023Y-96765714D01*
X276731547Y-96765714D01*
X276636309Y-96813333D01*
X275541071Y-96765714D02*
X275160119Y-96765714D01*
X275398214Y-97432380D02*
X275398214Y-96575238D01*
X275350595Y-96480000D01*
X275255357Y-96432380D01*
X275160119Y-96432380D01*
X274683928Y-97432380D02*
X274779166Y-97384761D01*
X274826785Y-97337142D01*
X274874404Y-97241904D01*
X274874404Y-96956190D01*
X274826785Y-96860952D01*
X274779166Y-96813333D01*
X274683928Y-96765714D01*
X274541071Y-96765714D01*
X274445833Y-96813333D01*
X274398214Y-96860952D01*
X274350595Y-96956190D01*
X274350595Y-97241904D01*
X274398214Y-97337142D01*
X274445833Y-97384761D01*
X274541071Y-97432380D01*
X274683928Y-97432380D01*
X273922023Y-97432380D02*
X273922023Y-96765714D01*
X273922023Y-96956190D02*
X273874404Y-96860952D01*
X273826785Y-96813333D01*
X273731547Y-96765714D01*
X273636309Y-96765714D01*
X272017261Y-97432380D02*
X272588690Y-97432380D01*
X272302976Y-97432380D02*
X272302976Y-96432380D01*
X272398214Y-96575238D01*
X272493452Y-96670476D01*
X272588690Y-96718095D01*
X271636309Y-96527619D02*
X271588690Y-96480000D01*
X271493452Y-96432380D01*
X271255357Y-96432380D01*
X271160119Y-96480000D01*
X271112500Y-96527619D01*
X271064880Y-96622857D01*
X271064880Y-96718095D01*
X271112500Y-96860952D01*
X271683928Y-97432380D01*
X271064880Y-97432380D01*
X270636309Y-97432380D02*
X270636309Y-96765714D01*
X270636309Y-96860952D02*
X270588690Y-96813333D01*
X270493452Y-96765714D01*
X270350595Y-96765714D01*
X270255357Y-96813333D01*
X270207738Y-96908571D01*
X270207738Y-97432380D01*
X270207738Y-96908571D02*
X270160119Y-96813333D01*
X270064880Y-96765714D01*
X269922023Y-96765714D01*
X269826785Y-96813333D01*
X269779166Y-96908571D01*
X269779166Y-97432380D01*
X269302976Y-97432380D02*
X269302976Y-96765714D01*
X269302976Y-96860952D02*
X269255357Y-96813333D01*
X269160119Y-96765714D01*
X269017261Y-96765714D01*
X268922023Y-96813333D01*
X268874404Y-96908571D01*
X268874404Y-97432380D01*
X268874404Y-96908571D02*
X268826785Y-96813333D01*
X268731547Y-96765714D01*
X268588690Y-96765714D01*
X268493452Y-96813333D01*
X268445833Y-96908571D01*
X268445833Y-97432380D01*
X267350595Y-96765714D02*
X266969642Y-96765714D01*
X267207738Y-96432380D02*
X267207738Y-97289523D01*
X267160119Y-97384761D01*
X267064880Y-97432380D01*
X266969642Y-97432380D01*
X266207738Y-97432380D02*
X266207738Y-96908571D01*
X266255357Y-96813333D01*
X266350595Y-96765714D01*
X266541071Y-96765714D01*
X266636309Y-96813333D01*
X266207738Y-97384761D02*
X266302976Y-97432380D01*
X266541071Y-97432380D01*
X266636309Y-97384761D01*
X266683928Y-97289523D01*
X266683928Y-97194285D01*
X266636309Y-97099047D01*
X266541071Y-97051428D01*
X266302976Y-97051428D01*
X266207738Y-97003809D01*
X265302976Y-97384761D02*
X265398214Y-97432380D01*
X265588690Y-97432380D01*
X265683928Y-97384761D01*
X265731547Y-97337142D01*
X265779166Y-97241904D01*
X265779166Y-96956190D01*
X265731547Y-96860952D01*
X265683928Y-96813333D01*
X265588690Y-96765714D01*
X265398214Y-96765714D01*
X265302976Y-96813333D01*
X265017261Y-96765714D02*
X264636309Y-96765714D01*
X264874404Y-96432380D02*
X264874404Y-97289523D01*
X264826785Y-97384761D01*
X264731547Y-97432380D01*
X264636309Y-97432380D01*
X264302976Y-97432380D02*
X264302976Y-96765714D01*
X264302976Y-96432380D02*
X264350595Y-96480000D01*
X264302976Y-96527619D01*
X264255357Y-96480000D01*
X264302976Y-96432380D01*
X264302976Y-96527619D01*
X263683928Y-97432380D02*
X263779166Y-97384761D01*
X263826785Y-97289523D01*
X263826785Y-96432380D01*
X262922023Y-97384761D02*
X263017261Y-97432380D01*
X263207738Y-97432380D01*
X263302976Y-97384761D01*
X263350595Y-97289523D01*
X263350595Y-96908571D01*
X263302976Y-96813333D01*
X263207738Y-96765714D01*
X263017261Y-96765714D01*
X262922023Y-96813333D01*
X262874404Y-96908571D01*
X262874404Y-97003809D01*
X263350595Y-97099047D01*
X261731547Y-97384761D02*
X261636309Y-97432380D01*
X261445833Y-97432380D01*
X261350595Y-97384761D01*
X261302976Y-97289523D01*
X261302976Y-97241904D01*
X261350595Y-97146666D01*
X261445833Y-97099047D01*
X261588690Y-97099047D01*
X261683928Y-97051428D01*
X261731547Y-96956190D01*
X261731547Y-96908571D01*
X261683928Y-96813333D01*
X261588690Y-96765714D01*
X261445833Y-96765714D01*
X261350595Y-96813333D01*
X260969642Y-96765714D02*
X260779166Y-97432380D01*
X260588690Y-96956190D01*
X260398214Y-97432380D01*
X260207738Y-96765714D01*
X259826785Y-97432380D02*
X259826785Y-96765714D01*
X259826785Y-96432380D02*
X259874404Y-96480000D01*
X259826785Y-96527619D01*
X259779166Y-96480000D01*
X259826785Y-96432380D01*
X259826785Y-96527619D01*
X259493452Y-96765714D02*
X259112500Y-96765714D01*
X259350595Y-96432380D02*
X259350595Y-97289523D01*
X259302976Y-97384761D01*
X259207738Y-97432380D01*
X259112500Y-97432380D01*
X258350595Y-97384761D02*
X258445833Y-97432380D01*
X258636309Y-97432380D01*
X258731547Y-97384761D01*
X258779166Y-97337142D01*
X258826785Y-97241904D01*
X258826785Y-96956190D01*
X258779166Y-96860952D01*
X258731547Y-96813333D01*
X258636309Y-96765714D01*
X258445833Y-96765714D01*
X258350595Y-96813333D01*
X257922023Y-97432380D02*
X257922023Y-96432380D01*
X257493452Y-97432380D02*
X257493452Y-96908571D01*
X257541071Y-96813333D01*
X257636309Y-96765714D01*
X257779166Y-96765714D01*
X257874404Y-96813333D01*
X257922023Y-96860952D01*
X256636309Y-97384761D02*
X256731547Y-97432380D01*
X256922023Y-97432380D01*
X257017261Y-97384761D01*
X257064880Y-97289523D01*
X257064880Y-96908571D01*
X257017261Y-96813333D01*
X256922023Y-96765714D01*
X256731547Y-96765714D01*
X256636309Y-96813333D01*
X256588690Y-96908571D01*
X256588690Y-97003809D01*
X257064880Y-97099047D01*
X256207738Y-97384761D02*
X256112500Y-97432380D01*
X255922023Y-97432380D01*
X255826785Y-97384761D01*
X255779166Y-97289523D01*
X255779166Y-97241904D01*
X255826785Y-97146666D01*
X255922023Y-97099047D01*
X256064880Y-97099047D01*
X256160119Y-97051428D01*
X256207738Y-96956190D01*
X256207738Y-96908571D01*
X256160119Y-96813333D01*
X256064880Y-96765714D01*
X255922023Y-96765714D01*
X255826785Y-96813333D01*
X282302976Y-99082380D02*
X282636309Y-98606190D01*
X282874404Y-99082380D02*
X282874404Y-98082380D01*
X282493452Y-98082380D01*
X282398214Y-98130000D01*
X282350595Y-98177619D01*
X282302976Y-98272857D01*
X282302976Y-98415714D01*
X282350595Y-98510952D01*
X282398214Y-98558571D01*
X282493452Y-98606190D01*
X282874404Y-98606190D01*
X281493452Y-99034761D02*
X281588690Y-99082380D01*
X281779166Y-99082380D01*
X281874404Y-99034761D01*
X281922023Y-98939523D01*
X281922023Y-98558571D01*
X281874404Y-98463333D01*
X281779166Y-98415714D01*
X281588690Y-98415714D01*
X281493452Y-98463333D01*
X281445833Y-98558571D01*
X281445833Y-98653809D01*
X281922023Y-98749047D01*
X280588690Y-99034761D02*
X280683928Y-99082380D01*
X280874404Y-99082380D01*
X280969642Y-99034761D01*
X281017261Y-98987142D01*
X281064880Y-98891904D01*
X281064880Y-98606190D01*
X281017261Y-98510952D01*
X280969642Y-98463333D01*
X280874404Y-98415714D01*
X280683928Y-98415714D01*
X280588690Y-98463333D01*
X280017261Y-99082380D02*
X280112500Y-99034761D01*
X280160119Y-98987142D01*
X280207738Y-98891904D01*
X280207738Y-98606190D01*
X280160119Y-98510952D01*
X280112500Y-98463333D01*
X280017261Y-98415714D01*
X279874404Y-98415714D01*
X279779166Y-98463333D01*
X279731547Y-98510952D01*
X279683928Y-98606190D01*
X279683928Y-98891904D01*
X279731547Y-98987142D01*
X279779166Y-99034761D01*
X279874404Y-99082380D01*
X280017261Y-99082380D01*
X279255357Y-99082380D02*
X279255357Y-98415714D01*
X279255357Y-98510952D02*
X279207738Y-98463333D01*
X279112500Y-98415714D01*
X278969642Y-98415714D01*
X278874404Y-98463333D01*
X278826785Y-98558571D01*
X278826785Y-99082380D01*
X278826785Y-98558571D02*
X278779166Y-98463333D01*
X278683928Y-98415714D01*
X278541071Y-98415714D01*
X278445833Y-98463333D01*
X278398214Y-98558571D01*
X278398214Y-99082380D01*
X277922023Y-99082380D02*
X277922023Y-98415714D01*
X277922023Y-98510952D02*
X277874404Y-98463333D01*
X277779166Y-98415714D01*
X277636309Y-98415714D01*
X277541071Y-98463333D01*
X277493452Y-98558571D01*
X277493452Y-99082380D01*
X277493452Y-98558571D02*
X277445833Y-98463333D01*
X277350595Y-98415714D01*
X277207738Y-98415714D01*
X277112500Y-98463333D01*
X277064880Y-98558571D01*
X277064880Y-99082380D01*
X276207738Y-99034761D02*
X276302976Y-99082380D01*
X276493452Y-99082380D01*
X276588690Y-99034761D01*
X276636309Y-98939523D01*
X276636309Y-98558571D01*
X276588690Y-98463333D01*
X276493452Y-98415714D01*
X276302976Y-98415714D01*
X276207738Y-98463333D01*
X276160119Y-98558571D01*
X276160119Y-98653809D01*
X276636309Y-98749047D01*
X275731547Y-98415714D02*
X275731547Y-99082380D01*
X275731547Y-98510952D02*
X275683928Y-98463333D01*
X275588690Y-98415714D01*
X275445833Y-98415714D01*
X275350595Y-98463333D01*
X275302976Y-98558571D01*
X275302976Y-99082380D01*
X274398214Y-99082380D02*
X274398214Y-98082380D01*
X274398214Y-99034761D02*
X274493452Y-99082380D01*
X274683928Y-99082380D01*
X274779166Y-99034761D01*
X274826785Y-98987142D01*
X274874404Y-98891904D01*
X274874404Y-98606190D01*
X274826785Y-98510952D01*
X274779166Y-98463333D01*
X274683928Y-98415714D01*
X274493452Y-98415714D01*
X274398214Y-98463333D01*
X273541071Y-99034761D02*
X273636309Y-99082380D01*
X273826785Y-99082380D01*
X273922023Y-99034761D01*
X273969642Y-98939523D01*
X273969642Y-98558571D01*
X273922023Y-98463333D01*
X273826785Y-98415714D01*
X273636309Y-98415714D01*
X273541071Y-98463333D01*
X273493452Y-98558571D01*
X273493452Y-98653809D01*
X273969642Y-98749047D01*
X272636309Y-99082380D02*
X272636309Y-98082380D01*
X272636309Y-99034761D02*
X272731547Y-99082380D01*
X272922023Y-99082380D01*
X273017261Y-99034761D01*
X273064880Y-98987142D01*
X273112500Y-98891904D01*
X273112500Y-98606190D01*
X273064880Y-98510952D01*
X273017261Y-98463333D01*
X272922023Y-98415714D01*
X272731547Y-98415714D01*
X272636309Y-98463333D01*
X271398214Y-98415714D02*
X271398214Y-99415714D01*
X271398214Y-98463333D02*
X271302976Y-98415714D01*
X271112500Y-98415714D01*
X271017261Y-98463333D01*
X270969642Y-98510952D01*
X270922023Y-98606190D01*
X270922023Y-98891904D01*
X270969642Y-98987142D01*
X271017261Y-99034761D01*
X271112500Y-99082380D01*
X271302976Y-99082380D01*
X271398214Y-99034761D01*
X270064880Y-99082380D02*
X270064880Y-98558571D01*
X270112500Y-98463333D01*
X270207738Y-98415714D01*
X270398214Y-98415714D01*
X270493452Y-98463333D01*
X270064880Y-99034761D02*
X270160119Y-99082380D01*
X270398214Y-99082380D01*
X270493452Y-99034761D01*
X270541071Y-98939523D01*
X270541071Y-98844285D01*
X270493452Y-98749047D01*
X270398214Y-98701428D01*
X270160119Y-98701428D01*
X270064880Y-98653809D01*
X269588690Y-99082380D02*
X269588690Y-98415714D01*
X269588690Y-98606190D02*
X269541071Y-98510952D01*
X269493452Y-98463333D01*
X269398214Y-98415714D01*
X269302976Y-98415714D01*
X269112500Y-98415714D02*
X268731547Y-98415714D01*
X268969642Y-98082380D02*
X268969642Y-98939523D01*
X268922023Y-99034761D01*
X268826785Y-99082380D01*
X268731547Y-99082380D01*
X268445833Y-99034761D02*
X268350595Y-99082380D01*
X268160119Y-99082380D01*
X268064880Y-99034761D01*
X268017261Y-98939523D01*
X268017261Y-98891904D01*
X268064880Y-98796666D01*
X268160119Y-98749047D01*
X268302976Y-98749047D01*
X268398214Y-98701428D01*
X268445833Y-98606190D01*
X268445833Y-98558571D01*
X268398214Y-98463333D01*
X268302976Y-98415714D01*
X268160119Y-98415714D01*
X268064880Y-98463333D01*
X267588690Y-98987142D02*
X267541071Y-99034761D01*
X267588690Y-99082380D01*
X267636309Y-99034761D01*
X267588690Y-98987142D01*
X267588690Y-99082380D01*
X267588690Y-98463333D02*
X267541071Y-98510952D01*
X267588690Y-98558571D01*
X267636309Y-98510952D01*
X267588690Y-98463333D01*
X267588690Y-98558571D01*
X282922023Y-100684761D02*
X282779166Y-100732380D01*
X282541071Y-100732380D01*
X282445833Y-100684761D01*
X282398214Y-100637142D01*
X282350595Y-100541904D01*
X282350595Y-100446666D01*
X282398214Y-100351428D01*
X282445833Y-100303809D01*
X282541071Y-100256190D01*
X282731547Y-100208571D01*
X282826785Y-100160952D01*
X282874404Y-100113333D01*
X282922023Y-100018095D01*
X282922023Y-99922857D01*
X282874404Y-99827619D01*
X282826785Y-99780000D01*
X282731547Y-99732380D01*
X282493452Y-99732380D01*
X282350595Y-99780000D01*
X282017261Y-100065714D02*
X281826785Y-100732380D01*
X281636309Y-100256190D01*
X281445833Y-100732380D01*
X281255357Y-100065714D01*
X280874404Y-100732380D02*
X280874404Y-100065714D01*
X280874404Y-99732380D02*
X280922023Y-99780000D01*
X280874404Y-99827619D01*
X280826785Y-99780000D01*
X280874404Y-99732380D01*
X280874404Y-99827619D01*
X280541071Y-100065714D02*
X280160119Y-100065714D01*
X280398214Y-99732380D02*
X280398214Y-100589523D01*
X280350595Y-100684761D01*
X280255357Y-100732380D01*
X280160119Y-100732380D01*
X279398214Y-100684761D02*
X279493452Y-100732380D01*
X279683928Y-100732380D01*
X279779166Y-100684761D01*
X279826785Y-100637142D01*
X279874404Y-100541904D01*
X279874404Y-100256190D01*
X279826785Y-100160952D01*
X279779166Y-100113333D01*
X279683928Y-100065714D01*
X279493452Y-100065714D01*
X279398214Y-100113333D01*
X278969642Y-100732380D02*
X278969642Y-99732380D01*
X278541071Y-100732380D02*
X278541071Y-100208571D01*
X278588690Y-100113333D01*
X278683928Y-100065714D01*
X278826785Y-100065714D01*
X278922023Y-100113333D01*
X278969642Y-100160952D01*
X278064880Y-100637142D02*
X278017261Y-100684761D01*
X278064880Y-100732380D01*
X278112500Y-100684761D01*
X278064880Y-100637142D01*
X278064880Y-100732380D01*
X278064880Y-100113333D02*
X278017261Y-100160952D01*
X278064880Y-100208571D01*
X278112500Y-100160952D01*
X278064880Y-100113333D01*
X278064880Y-100208571D01*
X276874404Y-100446666D02*
X276398214Y-100446666D01*
X276969642Y-100732380D02*
X276636309Y-99732380D01*
X276302976Y-100732380D01*
X275826785Y-100732380D02*
X275922023Y-100684761D01*
X275969642Y-100589523D01*
X275969642Y-99732380D01*
X275445833Y-100065714D02*
X275445833Y-101065714D01*
X275445833Y-100113333D02*
X275350595Y-100065714D01*
X275160119Y-100065714D01*
X275064880Y-100113333D01*
X275017261Y-100160952D01*
X274969642Y-100256190D01*
X274969642Y-100541904D01*
X275017261Y-100637142D01*
X275064880Y-100684761D01*
X275160119Y-100732380D01*
X275350595Y-100732380D01*
X275445833Y-100684761D01*
X274588690Y-100684761D02*
X274493452Y-100732380D01*
X274302976Y-100732380D01*
X274207738Y-100684761D01*
X274160119Y-100589523D01*
X274160119Y-100541904D01*
X274207738Y-100446666D01*
X274302976Y-100399047D01*
X274445833Y-100399047D01*
X274541071Y-100351428D01*
X274588690Y-100256190D01*
X274588690Y-100208571D01*
X274541071Y-100113333D01*
X274445833Y-100065714D01*
X274302976Y-100065714D01*
X274207738Y-100113333D01*
X273017261Y-100446666D02*
X272541071Y-100446666D01*
X273112500Y-100732380D02*
X272779166Y-99732380D01*
X272445833Y-100732380D01*
X271969642Y-100732380D02*
X272064880Y-100684761D01*
X272112500Y-100589523D01*
X272112500Y-99732380D01*
X271588690Y-100065714D02*
X271588690Y-101065714D01*
X271588690Y-100113333D02*
X271493452Y-100065714D01*
X271302976Y-100065714D01*
X271207738Y-100113333D01*
X271160119Y-100160952D01*
X271112500Y-100256190D01*
X271112500Y-100541904D01*
X271160119Y-100637142D01*
X271207738Y-100684761D01*
X271302976Y-100732380D01*
X271493452Y-100732380D01*
X271588690Y-100684761D01*
X270683928Y-100732380D02*
X270683928Y-100065714D01*
X270683928Y-99732380D02*
X270731547Y-99780000D01*
X270683928Y-99827619D01*
X270636309Y-99780000D01*
X270683928Y-99732380D01*
X270683928Y-99827619D01*
X270207738Y-100065714D02*
X270207738Y-100732380D01*
X270207738Y-100160952D02*
X270160119Y-100113333D01*
X270064880Y-100065714D01*
X269922023Y-100065714D01*
X269826785Y-100113333D01*
X269779166Y-100208571D01*
X269779166Y-100732380D01*
X268922023Y-100684761D02*
X269017261Y-100732380D01*
X269207738Y-100732380D01*
X269302976Y-100684761D01*
X269350595Y-100589523D01*
X269350595Y-100208571D01*
X269302976Y-100113333D01*
X269207738Y-100065714D01*
X269017261Y-100065714D01*
X268922023Y-100113333D01*
X268874404Y-100208571D01*
X268874404Y-100303809D01*
X269350595Y-100399047D01*
X267731547Y-100684761D02*
X267588690Y-100732380D01*
X267350595Y-100732380D01*
X267255357Y-100684761D01*
X267207738Y-100637142D01*
X267160119Y-100541904D01*
X267160119Y-100446666D01*
X267207738Y-100351428D01*
X267255357Y-100303809D01*
X267350595Y-100256190D01*
X267541071Y-100208571D01*
X267636309Y-100160952D01*
X267683928Y-100113333D01*
X267731547Y-100018095D01*
X267731547Y-99922857D01*
X267683928Y-99827619D01*
X267636309Y-99780000D01*
X267541071Y-99732380D01*
X267302976Y-99732380D01*
X267160119Y-99780000D01*
X266731547Y-100732380D02*
X266731547Y-99732380D01*
X266160119Y-100732380D02*
X266588690Y-100160952D01*
X266160119Y-99732380D02*
X266731547Y-100303809D01*
X265731547Y-100732380D02*
X265731547Y-99732380D01*
X265731547Y-100208571D02*
X265160119Y-100208571D01*
X265160119Y-100732380D02*
X265160119Y-99732380D01*
X264112500Y-100637142D02*
X264160119Y-100684761D01*
X264302976Y-100732380D01*
X264398214Y-100732380D01*
X264541071Y-100684761D01*
X264636309Y-100589523D01*
X264683928Y-100494285D01*
X264731547Y-100303809D01*
X264731547Y-100160952D01*
X264683928Y-99970476D01*
X264636309Y-99875238D01*
X264541071Y-99780000D01*
X264398214Y-99732380D01*
X264302976Y-99732380D01*
X264160119Y-99780000D01*
X264112500Y-99827619D01*
X263350595Y-100208571D02*
X263207738Y-100256190D01*
X263160119Y-100303809D01*
X263112500Y-100399047D01*
X263112500Y-100541904D01*
X263160119Y-100637142D01*
X263207738Y-100684761D01*
X263302976Y-100732380D01*
X263683928Y-100732380D01*
X263683928Y-99732380D01*
X263350595Y-99732380D01*
X263255357Y-99780000D01*
X263207738Y-99827619D01*
X263160119Y-99922857D01*
X263160119Y-100018095D01*
X263207738Y-100113333D01*
X263255357Y-100160952D01*
X263350595Y-100208571D01*
X263683928Y-100208571D01*
X262683928Y-100208571D02*
X262350595Y-100208571D01*
X262207738Y-100732380D02*
X262683928Y-100732380D01*
X262683928Y-99732380D01*
X262207738Y-99732380D01*
X261826785Y-100446666D02*
X261350595Y-100446666D01*
X261922023Y-100732380D02*
X261588690Y-99732380D01*
X261255357Y-100732380D01*
X260731547Y-99732380D02*
X260636309Y-99732380D01*
X260541071Y-99780000D01*
X260493452Y-99827619D01*
X260445833Y-99922857D01*
X260398214Y-100113333D01*
X260398214Y-100351428D01*
X260445833Y-100541904D01*
X260493452Y-100637142D01*
X260541071Y-100684761D01*
X260636309Y-100732380D01*
X260731547Y-100732380D01*
X260826785Y-100684761D01*
X260874404Y-100637142D01*
X260922023Y-100541904D01*
X260969642Y-100351428D01*
X260969642Y-100113333D01*
X260922023Y-99922857D01*
X260874404Y-99827619D01*
X260826785Y-99780000D01*
X260731547Y-99732380D01*
X259445833Y-100732380D02*
X260017261Y-100732380D01*
X259731547Y-100732380D02*
X259731547Y-99732380D01*
X259826785Y-99875238D01*
X259922023Y-99970476D01*
X260017261Y-100018095D01*
X258826785Y-99732380D02*
X258731547Y-99732380D01*
X258636309Y-99780000D01*
X258588690Y-99827619D01*
X258541071Y-99922857D01*
X258493452Y-100113333D01*
X258493452Y-100351428D01*
X258541071Y-100541904D01*
X258588690Y-100637142D01*
X258636309Y-100684761D01*
X258731547Y-100732380D01*
X258826785Y-100732380D01*
X258922023Y-100684761D01*
X258969642Y-100637142D01*
X259017261Y-100541904D01*
X259064880Y-100351428D01*
X259064880Y-100113333D01*
X259017261Y-99922857D01*
X258969642Y-99827619D01*
X258922023Y-99780000D01*
X258826785Y-99732380D01*
X282874404Y-102382380D02*
X282874404Y-101382380D01*
X282302976Y-102382380D02*
X282731547Y-101810952D01*
X282302976Y-101382380D02*
X282874404Y-101953809D01*
X281493452Y-102334761D02*
X281588690Y-102382380D01*
X281779166Y-102382380D01*
X281874404Y-102334761D01*
X281922023Y-102239523D01*
X281922023Y-101858571D01*
X281874404Y-101763333D01*
X281779166Y-101715714D01*
X281588690Y-101715714D01*
X281493452Y-101763333D01*
X281445833Y-101858571D01*
X281445833Y-101953809D01*
X281922023Y-102049047D01*
X281112500Y-101715714D02*
X280874404Y-102382380D01*
X280636309Y-101715714D02*
X280874404Y-102382380D01*
X280969642Y-102620476D01*
X281017261Y-102668095D01*
X281112500Y-102715714D01*
X280398214Y-101715714D02*
X280017261Y-101715714D01*
X280255357Y-101382380D02*
X280255357Y-102239523D01*
X280207738Y-102334761D01*
X280112500Y-102382380D01*
X280017261Y-102382380D01*
X279541071Y-102382380D02*
X279636309Y-102334761D01*
X279683928Y-102287142D01*
X279731547Y-102191904D01*
X279731547Y-101906190D01*
X279683928Y-101810952D01*
X279636309Y-101763333D01*
X279541071Y-101715714D01*
X279398214Y-101715714D01*
X279302976Y-101763333D01*
X279255357Y-101810952D01*
X279207738Y-101906190D01*
X279207738Y-102191904D01*
X279255357Y-102287142D01*
X279302976Y-102334761D01*
X279398214Y-102382380D01*
X279541071Y-102382380D01*
X278779166Y-101715714D02*
X278779166Y-102715714D01*
X278779166Y-101763333D02*
X278683928Y-101715714D01*
X278493452Y-101715714D01*
X278398214Y-101763333D01*
X278350595Y-101810952D01*
X278302976Y-101906190D01*
X278302976Y-102191904D01*
X278350595Y-102287142D01*
X278398214Y-102334761D01*
X278493452Y-102382380D01*
X278683928Y-102382380D01*
X278779166Y-102334761D01*
X277112500Y-101715714D02*
X277112500Y-102715714D01*
X277112500Y-101763333D02*
X277017261Y-101715714D01*
X276826785Y-101715714D01*
X276731547Y-101763333D01*
X276683928Y-101810952D01*
X276636309Y-101906190D01*
X276636309Y-102191904D01*
X276683928Y-102287142D01*
X276731547Y-102334761D01*
X276826785Y-102382380D01*
X277017261Y-102382380D01*
X277112500Y-102334761D01*
X276064880Y-102382380D02*
X276160119Y-102334761D01*
X276207738Y-102239523D01*
X276207738Y-101382380D01*
X275255357Y-101715714D02*
X275255357Y-102382380D01*
X275683928Y-101715714D02*
X275683928Y-102239523D01*
X275636309Y-102334761D01*
X275541071Y-102382380D01*
X275398214Y-102382380D01*
X275302976Y-102334761D01*
X275255357Y-102287142D01*
X274826785Y-102334761D02*
X274731547Y-102382380D01*
X274541071Y-102382380D01*
X274445833Y-102334761D01*
X274398214Y-102239523D01*
X274398214Y-102191904D01*
X274445833Y-102096666D01*
X274541071Y-102049047D01*
X274683928Y-102049047D01*
X274779166Y-102001428D01*
X274826785Y-101906190D01*
X274826785Y-101858571D01*
X274779166Y-101763333D01*
X274683928Y-101715714D01*
X274541071Y-101715714D01*
X274445833Y-101763333D01*
X273207738Y-102382380D02*
X273207738Y-101382380D01*
X273112500Y-102001428D02*
X272826785Y-102382380D01*
X272826785Y-101715714D02*
X273207738Y-102096666D01*
X272017261Y-102334761D02*
X272112500Y-102382380D01*
X272302976Y-102382380D01*
X272398214Y-102334761D01*
X272445833Y-102239523D01*
X272445833Y-101858571D01*
X272398214Y-101763333D01*
X272302976Y-101715714D01*
X272112500Y-101715714D01*
X272017261Y-101763333D01*
X271969642Y-101858571D01*
X271969642Y-101953809D01*
X272445833Y-102049047D01*
X271636309Y-101715714D02*
X271398214Y-102382380D01*
X271160119Y-101715714D02*
X271398214Y-102382380D01*
X271493452Y-102620476D01*
X271541071Y-102668095D01*
X271636309Y-102715714D01*
X270350595Y-102334761D02*
X270445833Y-102382380D01*
X270636309Y-102382380D01*
X270731547Y-102334761D01*
X270779166Y-102287142D01*
X270826785Y-102191904D01*
X270826785Y-101906190D01*
X270779166Y-101810952D01*
X270731547Y-101763333D01*
X270636309Y-101715714D01*
X270445833Y-101715714D01*
X270350595Y-101763333D01*
X269493452Y-102382380D02*
X269493452Y-101858571D01*
X269541071Y-101763333D01*
X269636309Y-101715714D01*
X269826785Y-101715714D01*
X269922023Y-101763333D01*
X269493452Y-102334761D02*
X269588690Y-102382380D01*
X269826785Y-102382380D01*
X269922023Y-102334761D01*
X269969642Y-102239523D01*
X269969642Y-102144285D01*
X269922023Y-102049047D01*
X269826785Y-102001428D01*
X269588690Y-102001428D01*
X269493452Y-101953809D01*
X269017261Y-101715714D02*
X269017261Y-102715714D01*
X269017261Y-101763333D02*
X268922023Y-101715714D01*
X268731547Y-101715714D01*
X268636309Y-101763333D01*
X268588690Y-101810952D01*
X268541071Y-101906190D01*
X268541071Y-102191904D01*
X268588690Y-102287142D01*
X268636309Y-102334761D01*
X268731547Y-102382380D01*
X268922023Y-102382380D01*
X269017261Y-102334761D01*
X268112500Y-102287142D02*
X268064880Y-102334761D01*
X268112500Y-102382380D01*
X268160119Y-102334761D01*
X268112500Y-102287142D01*
X268112500Y-102382380D01*
X268112500Y-101763333D02*
X268064880Y-101810952D01*
X268112500Y-101858571D01*
X268160119Y-101810952D01*
X268112500Y-101763333D01*
X268112500Y-101858571D01*
X266922023Y-102334761D02*
X266779166Y-102382380D01*
X266541071Y-102382380D01*
X266445833Y-102334761D01*
X266398214Y-102287142D01*
X266350595Y-102191904D01*
X266350595Y-102096666D01*
X266398214Y-102001428D01*
X266445833Y-101953809D01*
X266541071Y-101906190D01*
X266731547Y-101858571D01*
X266826785Y-101810952D01*
X266874404Y-101763333D01*
X266922023Y-101668095D01*
X266922023Y-101572857D01*
X266874404Y-101477619D01*
X266826785Y-101430000D01*
X266731547Y-101382380D01*
X266493452Y-101382380D01*
X266350595Y-101430000D01*
X265922023Y-102382380D02*
X265922023Y-101382380D01*
X265350595Y-102382380D02*
X265779166Y-101810952D01*
X265350595Y-101382380D02*
X265922023Y-101953809D01*
X264969642Y-101477619D02*
X264922023Y-101430000D01*
X264826785Y-101382380D01*
X264588690Y-101382380D01*
X264493452Y-101430000D01*
X264445833Y-101477619D01*
X264398214Y-101572857D01*
X264398214Y-101668095D01*
X264445833Y-101810952D01*
X265017261Y-102382380D01*
X264398214Y-102382380D01*
X264017261Y-102096666D02*
X263541071Y-102096666D01*
X264112500Y-102382380D02*
X263779166Y-101382380D01*
X263445833Y-102382380D01*
X263160119Y-102096666D02*
X262683928Y-102096666D01*
X263255357Y-102382380D02*
X262922023Y-101382380D01*
X262588690Y-102382380D01*
X262064880Y-101382380D02*
X261969642Y-101382380D01*
X261874404Y-101430000D01*
X261826785Y-101477619D01*
X261779166Y-101572857D01*
X261731547Y-101763333D01*
X261731547Y-102001428D01*
X261779166Y-102191904D01*
X261826785Y-102287142D01*
X261874404Y-102334761D01*
X261969642Y-102382380D01*
X262064880Y-102382380D01*
X262160119Y-102334761D01*
X262207738Y-102287142D01*
X262255357Y-102191904D01*
X262302976Y-102001428D01*
X262302976Y-101763333D01*
X262255357Y-101572857D01*
X262207738Y-101477619D01*
X262160119Y-101430000D01*
X262064880Y-101382380D01*
X261112500Y-101382380D02*
X261017261Y-101382380D01*
X260922023Y-101430000D01*
X260874404Y-101477619D01*
X260826785Y-101572857D01*
X260779166Y-101763333D01*
X260779166Y-102001428D01*
X260826785Y-102191904D01*
X260874404Y-102287142D01*
X260922023Y-102334761D01*
X261017261Y-102382380D01*
X261112500Y-102382380D01*
X261207738Y-102334761D01*
X261255357Y-102287142D01*
X261302976Y-102191904D01*
X261350595Y-102001428D01*
X261350595Y-101763333D01*
X261302976Y-101572857D01*
X261255357Y-101477619D01*
X261207738Y-101430000D01*
X261112500Y-101382380D01*
X260160119Y-101382380D02*
X260064880Y-101382380D01*
X259969642Y-101430000D01*
X259922023Y-101477619D01*
X259874404Y-101572857D01*
X259826785Y-101763333D01*
X259826785Y-102001428D01*
X259874404Y-102191904D01*
X259922023Y-102287142D01*
X259969642Y-102334761D01*
X260064880Y-102382380D01*
X260160119Y-102382380D01*
X260255357Y-102334761D01*
X260302976Y-102287142D01*
X260350595Y-102191904D01*
X260398214Y-102001428D01*
X260398214Y-101763333D01*
X260350595Y-101572857D01*
X260302976Y-101477619D01*
X260255357Y-101430000D01*
X260160119Y-101382380D01*
X259493452Y-102382380D02*
X258969642Y-101715714D01*
X259493452Y-101715714D02*
X258969642Y-102382380D01*
X258398214Y-101382380D02*
X258302976Y-101382380D01*
X258207738Y-101430000D01*
X258160119Y-101477619D01*
X258112500Y-101572857D01*
X258064880Y-101763333D01*
X258064880Y-102001428D01*
X258112500Y-102191904D01*
X258160119Y-102287142D01*
X258207738Y-102334761D01*
X258302976Y-102382380D01*
X258398214Y-102382380D01*
X258493452Y-102334761D01*
X258541071Y-102287142D01*
X258588690Y-102191904D01*
X258636309Y-102001428D01*
X258636309Y-101763333D01*
X258588690Y-101572857D01*
X258541071Y-101477619D01*
X258493452Y-101430000D01*
X258398214Y-101382380D01*
X256969642Y-101715714D02*
X256779166Y-102382380D01*
X256588690Y-101906190D01*
X256398214Y-102382380D01*
X256207738Y-101715714D01*
X255826785Y-102382380D02*
X255826785Y-101382380D01*
X255398214Y-102382380D02*
X255398214Y-101858571D01*
X255445833Y-101763333D01*
X255541071Y-101715714D01*
X255683928Y-101715714D01*
X255779166Y-101763333D01*
X255826785Y-101810952D01*
X254541071Y-102334761D02*
X254636309Y-102382380D01*
X254826785Y-102382380D01*
X254922023Y-102334761D01*
X254969642Y-102239523D01*
X254969642Y-101858571D01*
X254922023Y-101763333D01*
X254826785Y-101715714D01*
X254636309Y-101715714D01*
X254541071Y-101763333D01*
X254493452Y-101858571D01*
X254493452Y-101953809D01*
X254969642Y-102049047D01*
X254064880Y-102382380D02*
X254064880Y-101715714D01*
X254064880Y-101906190D02*
X254017261Y-101810952D01*
X253969642Y-101763333D01*
X253874404Y-101715714D01*
X253779166Y-101715714D01*
X253064880Y-102334761D02*
X253160119Y-102382380D01*
X253350595Y-102382380D01*
X253445833Y-102334761D01*
X253493452Y-102239523D01*
X253493452Y-101858571D01*
X253445833Y-101763333D01*
X253350595Y-101715714D01*
X253160119Y-101715714D01*
X253064880Y-101763333D01*
X253017261Y-101858571D01*
X253017261Y-101953809D01*
X253493452Y-102049047D01*
X251922023Y-102382380D02*
X251398214Y-101715714D01*
X251922023Y-101715714D02*
X251398214Y-102382380D01*
X251017261Y-101858571D02*
X250255357Y-101858571D01*
X250255357Y-102144285D02*
X251017261Y-102144285D01*
X249350595Y-101382380D02*
X249541071Y-101382380D01*
X249636309Y-101430000D01*
X249683928Y-101477619D01*
X249779166Y-101620476D01*
X249826785Y-101810952D01*
X249826785Y-102191904D01*
X249779166Y-102287142D01*
X249731547Y-102334761D01*
X249636309Y-102382380D01*
X249445833Y-102382380D01*
X249350595Y-102334761D01*
X249302976Y-102287142D01*
X249255357Y-102191904D01*
X249255357Y-101953809D01*
X249302976Y-101858571D01*
X249350595Y-101810952D01*
X249445833Y-101763333D01*
X249636309Y-101763333D01*
X249731547Y-101810952D01*
X249779166Y-101858571D01*
X249826785Y-101953809D01*
X248779166Y-102334761D02*
X248779166Y-102382380D01*
X248826785Y-102477619D01*
X248874404Y-102525238D01*
X248445833Y-101382380D02*
X247779166Y-101382380D01*
X248207738Y-102382380D01*
X247350595Y-102334761D02*
X247350595Y-102382380D01*
X247398214Y-102477619D01*
X247445833Y-102525238D01*
X246779166Y-101810952D02*
X246874404Y-101763333D01*
X246922023Y-101715714D01*
X246969642Y-101620476D01*
X246969642Y-101572857D01*
X246922023Y-101477619D01*
X246874404Y-101430000D01*
X246779166Y-101382380D01*
X246588690Y-101382380D01*
X246493452Y-101430000D01*
X246445833Y-101477619D01*
X246398214Y-101572857D01*
X246398214Y-101620476D01*
X246445833Y-101715714D01*
X246493452Y-101763333D01*
X246588690Y-101810952D01*
X246779166Y-101810952D01*
X246874404Y-101858571D01*
X246922023Y-101906190D01*
X246969642Y-102001428D01*
X246969642Y-102191904D01*
X246922023Y-102287142D01*
X246874404Y-102334761D01*
X246779166Y-102382380D01*
X246588690Y-102382380D01*
X246493452Y-102334761D01*
X246445833Y-102287142D01*
X246398214Y-102191904D01*
X246398214Y-102001428D01*
X246445833Y-101906190D01*
X246493452Y-101858571D01*
X246588690Y-101810952D01*
X245922023Y-102334761D02*
X245922023Y-102382380D01*
X245969642Y-102477619D01*
X246017261Y-102525238D01*
X245445833Y-102382380D02*
X245255357Y-102382380D01*
X245160119Y-102334761D01*
X245112500Y-102287142D01*
X245017261Y-102144285D01*
X244969642Y-101953809D01*
X244969642Y-101572857D01*
X245017261Y-101477619D01*
X245064880Y-101430000D01*
X245160119Y-101382380D01*
X245350595Y-101382380D01*
X245445833Y-101430000D01*
X245493452Y-101477619D01*
X245541071Y-101572857D01*
X245541071Y-101810952D01*
X245493452Y-101906190D01*
X245445833Y-101953809D01*
X245350595Y-102001428D01*
X245160119Y-102001428D01*
X245064880Y-101953809D01*
X245017261Y-101906190D01*
X244969642Y-101810952D01*
X243350595Y-102382380D02*
X243350595Y-101382380D01*
X243350595Y-102334761D02*
X243445833Y-102382380D01*
X243636309Y-102382380D01*
X243731547Y-102334761D01*
X243779166Y-102287142D01*
X243826785Y-102191904D01*
X243826785Y-101906190D01*
X243779166Y-101810952D01*
X243731547Y-101763333D01*
X243636309Y-101715714D01*
X243445833Y-101715714D01*
X243350595Y-101763333D01*
X242493452Y-102334761D02*
X242588690Y-102382380D01*
X242779166Y-102382380D01*
X242874404Y-102334761D01*
X242922023Y-102239523D01*
X242922023Y-101858571D01*
X242874404Y-101763333D01*
X242779166Y-101715714D01*
X242588690Y-101715714D01*
X242493452Y-101763333D01*
X242445833Y-101858571D01*
X242445833Y-101953809D01*
X242922023Y-102049047D01*
X242017261Y-101715714D02*
X242017261Y-102715714D01*
X242017261Y-101763333D02*
X241922023Y-101715714D01*
X241731547Y-101715714D01*
X241636309Y-101763333D01*
X241588690Y-101810952D01*
X241541071Y-101906190D01*
X241541071Y-102191904D01*
X241588690Y-102287142D01*
X241636309Y-102334761D01*
X241731547Y-102382380D01*
X241922023Y-102382380D01*
X242017261Y-102334761D01*
X240731547Y-102334761D02*
X240826785Y-102382380D01*
X241017261Y-102382380D01*
X241112500Y-102334761D01*
X241160119Y-102239523D01*
X241160119Y-101858571D01*
X241112500Y-101763333D01*
X241017261Y-101715714D01*
X240826785Y-101715714D01*
X240731547Y-101763333D01*
X240683928Y-101858571D01*
X240683928Y-101953809D01*
X241160119Y-102049047D01*
X240255357Y-101715714D02*
X240255357Y-102382380D01*
X240255357Y-101810952D02*
X240207738Y-101763333D01*
X240112500Y-101715714D01*
X239969642Y-101715714D01*
X239874404Y-101763333D01*
X239826785Y-101858571D01*
X239826785Y-102382380D01*
X238922023Y-102382380D02*
X238922023Y-101382380D01*
X238922023Y-102334761D02*
X239017261Y-102382380D01*
X239207738Y-102382380D01*
X239302976Y-102334761D01*
X239350595Y-102287142D01*
X239398214Y-102191904D01*
X239398214Y-101906190D01*
X239350595Y-101810952D01*
X239302976Y-101763333D01*
X239207738Y-101715714D01*
X239017261Y-101715714D01*
X238922023Y-101763333D01*
X238445833Y-102382380D02*
X238445833Y-101715714D01*
X238445833Y-101382380D02*
X238493452Y-101430000D01*
X238445833Y-101477619D01*
X238398214Y-101430000D01*
X238445833Y-101382380D01*
X238445833Y-101477619D01*
X237969642Y-101715714D02*
X237969642Y-102382380D01*
X237969642Y-101810952D02*
X237922023Y-101763333D01*
X237826785Y-101715714D01*
X237683928Y-101715714D01*
X237588690Y-101763333D01*
X237541071Y-101858571D01*
X237541071Y-102382380D01*
X236636309Y-101715714D02*
X236636309Y-102525238D01*
X236683928Y-102620476D01*
X236731547Y-102668095D01*
X236826785Y-102715714D01*
X236969642Y-102715714D01*
X237064880Y-102668095D01*
X236636309Y-102334761D02*
X236731547Y-102382380D01*
X236922023Y-102382380D01*
X237017261Y-102334761D01*
X237064880Y-102287142D01*
X237112500Y-102191904D01*
X237112500Y-101906190D01*
X237064880Y-101810952D01*
X237017261Y-101763333D01*
X236922023Y-101715714D01*
X236731547Y-101715714D01*
X236636309Y-101763333D01*
X235255357Y-102382380D02*
X235350595Y-102334761D01*
X235398214Y-102287142D01*
X235445833Y-102191904D01*
X235445833Y-101906190D01*
X235398214Y-101810952D01*
X235350595Y-101763333D01*
X235255357Y-101715714D01*
X235112500Y-101715714D01*
X235017261Y-101763333D01*
X234969642Y-101810952D01*
X234922023Y-101906190D01*
X234922023Y-102191904D01*
X234969642Y-102287142D01*
X235017261Y-102334761D01*
X235112500Y-102382380D01*
X235255357Y-102382380D01*
X234493452Y-101715714D02*
X234493452Y-102382380D01*
X234493452Y-101810952D02*
X234445833Y-101763333D01*
X234350595Y-101715714D01*
X234207738Y-101715714D01*
X234112500Y-101763333D01*
X234064880Y-101858571D01*
X234064880Y-102382380D01*
X232398214Y-102334761D02*
X232493452Y-102382380D01*
X232683928Y-102382380D01*
X232779166Y-102334761D01*
X232826785Y-102287142D01*
X232874404Y-102191904D01*
X232874404Y-101906190D01*
X232826785Y-101810952D01*
X232779166Y-101763333D01*
X232683928Y-101715714D01*
X232493452Y-101715714D01*
X232398214Y-101763333D01*
X231826785Y-102382380D02*
X231922023Y-102334761D01*
X231969642Y-102287142D01*
X232017261Y-102191904D01*
X232017261Y-101906190D01*
X231969642Y-101810952D01*
X231922023Y-101763333D01*
X231826785Y-101715714D01*
X231683928Y-101715714D01*
X231588690Y-101763333D01*
X231541071Y-101810952D01*
X231493452Y-101906190D01*
X231493452Y-102191904D01*
X231541071Y-102287142D01*
X231588690Y-102334761D01*
X231683928Y-102382380D01*
X231826785Y-102382380D01*
X230922023Y-102382380D02*
X231017261Y-102334761D01*
X231064880Y-102239523D01*
X231064880Y-101382380D01*
X230398214Y-102382380D02*
X230493452Y-102334761D01*
X230541071Y-102287142D01*
X230588690Y-102191904D01*
X230588690Y-101906190D01*
X230541071Y-101810952D01*
X230493452Y-101763333D01*
X230398214Y-101715714D01*
X230255357Y-101715714D01*
X230160119Y-101763333D01*
X230112500Y-101810952D01*
X230064880Y-101906190D01*
X230064880Y-102191904D01*
X230112500Y-102287142D01*
X230160119Y-102334761D01*
X230255357Y-102382380D01*
X230398214Y-102382380D01*
X229207738Y-101715714D02*
X229207738Y-102382380D01*
X229636309Y-101715714D02*
X229636309Y-102239523D01*
X229588690Y-102334761D01*
X229493452Y-102382380D01*
X229350595Y-102382380D01*
X229255357Y-102334761D01*
X229207738Y-102287142D01*
X228731547Y-102382380D02*
X228731547Y-101715714D01*
X228731547Y-101906190D02*
X228683928Y-101810952D01*
X228636309Y-101763333D01*
X228541071Y-101715714D01*
X228445833Y-101715714D01*
X282588690Y-114313333D02*
X282636309Y-114265714D01*
X282731547Y-114122857D01*
X282779166Y-114027619D01*
X282826785Y-113884761D01*
X282874404Y-113646666D01*
X282874404Y-113456190D01*
X282826785Y-113218095D01*
X282779166Y-113075238D01*
X282731547Y-112980000D01*
X282636309Y-112837142D01*
X282588690Y-112789523D01*
X282064880Y-113932380D02*
X282160119Y-113884761D01*
X282207738Y-113837142D01*
X282255357Y-113741904D01*
X282255357Y-113456190D01*
X282207738Y-113360952D01*
X282160119Y-113313333D01*
X282064880Y-113265714D01*
X281922023Y-113265714D01*
X281826785Y-113313333D01*
X281779166Y-113360952D01*
X281731547Y-113456190D01*
X281731547Y-113741904D01*
X281779166Y-113837142D01*
X281826785Y-113884761D01*
X281922023Y-113932380D01*
X282064880Y-113932380D01*
X281302976Y-113932380D02*
X281302976Y-113265714D01*
X281302976Y-113456190D02*
X281255357Y-113360952D01*
X281207738Y-113313333D01*
X281112500Y-113265714D01*
X281017261Y-113265714D01*
X279969642Y-113884761D02*
X279874404Y-113932380D01*
X279683928Y-113932380D01*
X279588690Y-113884761D01*
X279541071Y-113789523D01*
X279541071Y-113741904D01*
X279588690Y-113646666D01*
X279683928Y-113599047D01*
X279826785Y-113599047D01*
X279922023Y-113551428D01*
X279969642Y-113456190D01*
X279969642Y-113408571D01*
X279922023Y-113313333D01*
X279826785Y-113265714D01*
X279683928Y-113265714D01*
X279588690Y-113313333D01*
X278731547Y-113884761D02*
X278826785Y-113932380D01*
X279017261Y-113932380D01*
X279112500Y-113884761D01*
X279160119Y-113789523D01*
X279160119Y-113408571D01*
X279112500Y-113313333D01*
X279017261Y-113265714D01*
X278826785Y-113265714D01*
X278731547Y-113313333D01*
X278683928Y-113408571D01*
X278683928Y-113503809D01*
X279160119Y-113599047D01*
X278255357Y-113265714D02*
X278255357Y-114265714D01*
X278255357Y-113313333D02*
X278160119Y-113265714D01*
X277969642Y-113265714D01*
X277874404Y-113313333D01*
X277826785Y-113360952D01*
X277779166Y-113456190D01*
X277779166Y-113741904D01*
X277826785Y-113837142D01*
X277874404Y-113884761D01*
X277969642Y-113932380D01*
X278160119Y-113932380D01*
X278255357Y-113884761D01*
X276922023Y-113932380D02*
X276922023Y-113408571D01*
X276969642Y-113313333D01*
X277064880Y-113265714D01*
X277255357Y-113265714D01*
X277350595Y-113313333D01*
X276922023Y-113884761D02*
X277017261Y-113932380D01*
X277255357Y-113932380D01*
X277350595Y-113884761D01*
X277398214Y-113789523D01*
X277398214Y-113694285D01*
X277350595Y-113599047D01*
X277255357Y-113551428D01*
X277017261Y-113551428D01*
X276922023Y-113503809D01*
X276445833Y-113932380D02*
X276445833Y-113265714D01*
X276445833Y-113456190D02*
X276398214Y-113360952D01*
X276350595Y-113313333D01*
X276255357Y-113265714D01*
X276160119Y-113265714D01*
X275398214Y-113932380D02*
X275398214Y-113408571D01*
X275445833Y-113313333D01*
X275541071Y-113265714D01*
X275731547Y-113265714D01*
X275826785Y-113313333D01*
X275398214Y-113884761D02*
X275493452Y-113932380D01*
X275731547Y-113932380D01*
X275826785Y-113884761D01*
X275874404Y-113789523D01*
X275874404Y-113694285D01*
X275826785Y-113599047D01*
X275731547Y-113551428D01*
X275493452Y-113551428D01*
X275398214Y-113503809D01*
X275064880Y-113265714D02*
X274683928Y-113265714D01*
X274922023Y-112932380D02*
X274922023Y-113789523D01*
X274874404Y-113884761D01*
X274779166Y-113932380D01*
X274683928Y-113932380D01*
X273969642Y-113884761D02*
X274064880Y-113932380D01*
X274255357Y-113932380D01*
X274350595Y-113884761D01*
X274398214Y-113789523D01*
X274398214Y-113408571D01*
X274350595Y-113313333D01*
X274255357Y-113265714D01*
X274064880Y-113265714D01*
X273969642Y-113313333D01*
X273922023Y-113408571D01*
X273922023Y-113503809D01*
X274398214Y-113599047D01*
X272731547Y-113932380D02*
X272731547Y-112932380D01*
X272636309Y-113551428D02*
X272350595Y-113932380D01*
X272350595Y-113265714D02*
X272731547Y-113646666D01*
X271541071Y-113884761D02*
X271636309Y-113932380D01*
X271826785Y-113932380D01*
X271922023Y-113884761D01*
X271969642Y-113789523D01*
X271969642Y-113408571D01*
X271922023Y-113313333D01*
X271826785Y-113265714D01*
X271636309Y-113265714D01*
X271541071Y-113313333D01*
X271493452Y-113408571D01*
X271493452Y-113503809D01*
X271969642Y-113599047D01*
X271160119Y-113265714D02*
X270922023Y-113932380D01*
X270683928Y-113265714D02*
X270922023Y-113932380D01*
X271017261Y-114170476D01*
X271064880Y-114218095D01*
X271160119Y-114265714D01*
X270445833Y-113265714D02*
X270064880Y-113265714D01*
X270302976Y-112932380D02*
X270302976Y-113789523D01*
X270255357Y-113884761D01*
X270160119Y-113932380D01*
X270064880Y-113932380D01*
X269588690Y-113932380D02*
X269683928Y-113884761D01*
X269731547Y-113837142D01*
X269779166Y-113741904D01*
X269779166Y-113456190D01*
X269731547Y-113360952D01*
X269683928Y-113313333D01*
X269588690Y-113265714D01*
X269445833Y-113265714D01*
X269350595Y-113313333D01*
X269302976Y-113360952D01*
X269255357Y-113456190D01*
X269255357Y-113741904D01*
X269302976Y-113837142D01*
X269350595Y-113884761D01*
X269445833Y-113932380D01*
X269588690Y-113932380D01*
X268826785Y-113265714D02*
X268826785Y-114265714D01*
X268826785Y-113313333D02*
X268731547Y-113265714D01*
X268541071Y-113265714D01*
X268445833Y-113313333D01*
X268398214Y-113360952D01*
X268350595Y-113456190D01*
X268350595Y-113741904D01*
X268398214Y-113837142D01*
X268445833Y-113884761D01*
X268541071Y-113932380D01*
X268731547Y-113932380D01*
X268826785Y-113884761D01*
X266731547Y-113932380D02*
X266731547Y-113408571D01*
X266779166Y-113313333D01*
X266874404Y-113265714D01*
X267064880Y-113265714D01*
X267160119Y-113313333D01*
X266731547Y-113884761D02*
X266826785Y-113932380D01*
X267064880Y-113932380D01*
X267160119Y-113884761D01*
X267207738Y-113789523D01*
X267207738Y-113694285D01*
X267160119Y-113599047D01*
X267064880Y-113551428D01*
X266826785Y-113551428D01*
X266731547Y-113503809D01*
X266255357Y-113265714D02*
X266255357Y-113932380D01*
X266255357Y-113360952D02*
X266207738Y-113313333D01*
X266112500Y-113265714D01*
X265969642Y-113265714D01*
X265874404Y-113313333D01*
X265826785Y-113408571D01*
X265826785Y-113932380D01*
X264922023Y-113932380D02*
X264922023Y-112932380D01*
X264922023Y-113884761D02*
X265017261Y-113932380D01*
X265207738Y-113932380D01*
X265302976Y-113884761D01*
X265350595Y-113837142D01*
X265398214Y-113741904D01*
X265398214Y-113456190D01*
X265350595Y-113360952D01*
X265302976Y-113313333D01*
X265207738Y-113265714D01*
X265017261Y-113265714D01*
X264922023Y-113313333D01*
X263255357Y-113884761D02*
X263350595Y-113932380D01*
X263541071Y-113932380D01*
X263636309Y-113884761D01*
X263683928Y-113837142D01*
X263731547Y-113741904D01*
X263731547Y-113456190D01*
X263683928Y-113360952D01*
X263636309Y-113313333D01*
X263541071Y-113265714D01*
X263350595Y-113265714D01*
X263255357Y-113313333D01*
X262398214Y-113932380D02*
X262398214Y-113408571D01*
X262445833Y-113313333D01*
X262541071Y-113265714D01*
X262731547Y-113265714D01*
X262826785Y-113313333D01*
X262398214Y-113884761D02*
X262493452Y-113932380D01*
X262731547Y-113932380D01*
X262826785Y-113884761D01*
X262874404Y-113789523D01*
X262874404Y-113694285D01*
X262826785Y-113599047D01*
X262731547Y-113551428D01*
X262493452Y-113551428D01*
X262398214Y-113503809D01*
X261922023Y-113265714D02*
X261922023Y-114265714D01*
X261922023Y-113313333D02*
X261826785Y-113265714D01*
X261636309Y-113265714D01*
X261541071Y-113313333D01*
X261493452Y-113360952D01*
X261445833Y-113456190D01*
X261445833Y-113741904D01*
X261493452Y-113837142D01*
X261541071Y-113884761D01*
X261636309Y-113932380D01*
X261826785Y-113932380D01*
X261922023Y-113884761D01*
X261017261Y-113837142D02*
X260969642Y-113884761D01*
X261017261Y-113932380D01*
X261064880Y-113884761D01*
X261017261Y-113837142D01*
X261017261Y-113932380D01*
X261017261Y-113313333D02*
X260969642Y-113360952D01*
X261017261Y-113408571D01*
X261064880Y-113360952D01*
X261017261Y-113313333D01*
X261017261Y-113408571D01*
X282874404Y-115582380D02*
X282874404Y-114582380D01*
X282302976Y-115582380D02*
X282731547Y-115010952D01*
X282302976Y-114582380D02*
X282874404Y-115153809D01*
X281493452Y-115534761D02*
X281588690Y-115582380D01*
X281779166Y-115582380D01*
X281874404Y-115534761D01*
X281922023Y-115439523D01*
X281922023Y-115058571D01*
X281874404Y-114963333D01*
X281779166Y-114915714D01*
X281588690Y-114915714D01*
X281493452Y-114963333D01*
X281445833Y-115058571D01*
X281445833Y-115153809D01*
X281922023Y-115249047D01*
X281112500Y-114915714D02*
X280874404Y-115582380D01*
X280636309Y-114915714D02*
X280874404Y-115582380D01*
X280969642Y-115820476D01*
X281017261Y-115868095D01*
X281112500Y-115915714D01*
X280398214Y-114915714D02*
X280017261Y-114915714D01*
X280255357Y-114582380D02*
X280255357Y-115439523D01*
X280207738Y-115534761D01*
X280112500Y-115582380D01*
X280017261Y-115582380D01*
X279541071Y-115582380D02*
X279636309Y-115534761D01*
X279683928Y-115487142D01*
X279731547Y-115391904D01*
X279731547Y-115106190D01*
X279683928Y-115010952D01*
X279636309Y-114963333D01*
X279541071Y-114915714D01*
X279398214Y-114915714D01*
X279302976Y-114963333D01*
X279255357Y-115010952D01*
X279207738Y-115106190D01*
X279207738Y-115391904D01*
X279255357Y-115487142D01*
X279302976Y-115534761D01*
X279398214Y-115582380D01*
X279541071Y-115582380D01*
X278779166Y-114915714D02*
X278779166Y-115915714D01*
X278779166Y-114963333D02*
X278683928Y-114915714D01*
X278493452Y-114915714D01*
X278398214Y-114963333D01*
X278350595Y-115010952D01*
X278302976Y-115106190D01*
X278302976Y-115391904D01*
X278350595Y-115487142D01*
X278398214Y-115534761D01*
X278493452Y-115582380D01*
X278683928Y-115582380D01*
X278779166Y-115534761D01*
X277874404Y-115487142D02*
X277826785Y-115534761D01*
X277874404Y-115582380D01*
X277922023Y-115534761D01*
X277874404Y-115487142D01*
X277874404Y-115582380D01*
X277874404Y-114963333D02*
X277826785Y-115010952D01*
X277874404Y-115058571D01*
X277922023Y-115010952D01*
X277874404Y-114963333D01*
X277874404Y-115058571D01*
X276683928Y-115534761D02*
X276541071Y-115582380D01*
X276302976Y-115582380D01*
X276207738Y-115534761D01*
X276160119Y-115487142D01*
X276112500Y-115391904D01*
X276112500Y-115296666D01*
X276160119Y-115201428D01*
X276207738Y-115153809D01*
X276302976Y-115106190D01*
X276493452Y-115058571D01*
X276588690Y-115010952D01*
X276636309Y-114963333D01*
X276683928Y-114868095D01*
X276683928Y-114772857D01*
X276636309Y-114677619D01*
X276588690Y-114630000D01*
X276493452Y-114582380D01*
X276255357Y-114582380D01*
X276112500Y-114630000D01*
X275683928Y-115582380D02*
X275683928Y-114582380D01*
X275112500Y-115582380D02*
X275541071Y-115010952D01*
X275112500Y-114582380D02*
X275683928Y-115153809D01*
X274731547Y-114677619D02*
X274683928Y-114630000D01*
X274588690Y-114582380D01*
X274350595Y-114582380D01*
X274255357Y-114630000D01*
X274207738Y-114677619D01*
X274160119Y-114772857D01*
X274160119Y-114868095D01*
X274207738Y-115010952D01*
X274779166Y-115582380D01*
X274160119Y-115582380D01*
X273779166Y-115296666D02*
X273302976Y-115296666D01*
X273874404Y-115582380D02*
X273541071Y-114582380D01*
X273207738Y-115582380D01*
X272922023Y-115296666D02*
X272445833Y-115296666D01*
X273017261Y-115582380D02*
X272683928Y-114582380D01*
X272350595Y-115582380D01*
X271826785Y-114582380D02*
X271731547Y-114582380D01*
X271636309Y-114630000D01*
X271588690Y-114677619D01*
X271541071Y-114772857D01*
X271493452Y-114963333D01*
X271493452Y-115201428D01*
X271541071Y-115391904D01*
X271588690Y-115487142D01*
X271636309Y-115534761D01*
X271731547Y-115582380D01*
X271826785Y-115582380D01*
X271922023Y-115534761D01*
X271969642Y-115487142D01*
X272017261Y-115391904D01*
X272064880Y-115201428D01*
X272064880Y-114963333D01*
X272017261Y-114772857D01*
X271969642Y-114677619D01*
X271922023Y-114630000D01*
X271826785Y-114582380D01*
X270874404Y-114582380D02*
X270779166Y-114582380D01*
X270683928Y-114630000D01*
X270636309Y-114677619D01*
X270588690Y-114772857D01*
X270541071Y-114963333D01*
X270541071Y-115201428D01*
X270588690Y-115391904D01*
X270636309Y-115487142D01*
X270683928Y-115534761D01*
X270779166Y-115582380D01*
X270874404Y-115582380D01*
X270969642Y-115534761D01*
X271017261Y-115487142D01*
X271064880Y-115391904D01*
X271112500Y-115201428D01*
X271112500Y-114963333D01*
X271064880Y-114772857D01*
X271017261Y-114677619D01*
X270969642Y-114630000D01*
X270874404Y-114582380D01*
X269922023Y-114582380D02*
X269826785Y-114582380D01*
X269731547Y-114630000D01*
X269683928Y-114677619D01*
X269636309Y-114772857D01*
X269588690Y-114963333D01*
X269588690Y-115201428D01*
X269636309Y-115391904D01*
X269683928Y-115487142D01*
X269731547Y-115534761D01*
X269826785Y-115582380D01*
X269922023Y-115582380D01*
X270017261Y-115534761D01*
X270064880Y-115487142D01*
X270112500Y-115391904D01*
X270160119Y-115201428D01*
X270160119Y-114963333D01*
X270112500Y-114772857D01*
X270064880Y-114677619D01*
X270017261Y-114630000D01*
X269922023Y-114582380D01*
X269255357Y-115582380D02*
X268731547Y-114915714D01*
X269255357Y-114915714D02*
X268731547Y-115582380D01*
X268160119Y-114582380D02*
X268064880Y-114582380D01*
X267969642Y-114630000D01*
X267922023Y-114677619D01*
X267874404Y-114772857D01*
X267826785Y-114963333D01*
X267826785Y-115201428D01*
X267874404Y-115391904D01*
X267922023Y-115487142D01*
X267969642Y-115534761D01*
X268064880Y-115582380D01*
X268160119Y-115582380D01*
X268255357Y-115534761D01*
X268302976Y-115487142D01*
X268350595Y-115391904D01*
X268398214Y-115201428D01*
X268398214Y-114963333D01*
X268350595Y-114772857D01*
X268302976Y-114677619D01*
X268255357Y-114630000D01*
X268160119Y-114582380D01*
X266731547Y-114915714D02*
X266541071Y-115582380D01*
X266350595Y-115106190D01*
X266160119Y-115582380D01*
X265969642Y-114915714D01*
X265588690Y-115582380D02*
X265588690Y-114582380D01*
X265160119Y-115582380D02*
X265160119Y-115058571D01*
X265207738Y-114963333D01*
X265302976Y-114915714D01*
X265445833Y-114915714D01*
X265541071Y-114963333D01*
X265588690Y-115010952D01*
X264302976Y-115534761D02*
X264398214Y-115582380D01*
X264588690Y-115582380D01*
X264683928Y-115534761D01*
X264731547Y-115439523D01*
X264731547Y-115058571D01*
X264683928Y-114963333D01*
X264588690Y-114915714D01*
X264398214Y-114915714D01*
X264302976Y-114963333D01*
X264255357Y-115058571D01*
X264255357Y-115153809D01*
X264731547Y-115249047D01*
X263826785Y-115582380D02*
X263826785Y-114915714D01*
X263826785Y-115106190D02*
X263779166Y-115010952D01*
X263731547Y-114963333D01*
X263636309Y-114915714D01*
X263541071Y-114915714D01*
X262826785Y-115534761D02*
X262922023Y-115582380D01*
X263112500Y-115582380D01*
X263207738Y-115534761D01*
X263255357Y-115439523D01*
X263255357Y-115058571D01*
X263207738Y-114963333D01*
X263112500Y-114915714D01*
X262922023Y-114915714D01*
X262826785Y-114963333D01*
X262779166Y-115058571D01*
X262779166Y-115153809D01*
X263255357Y-115249047D01*
X261683928Y-115582380D02*
X261160119Y-114915714D01*
X261683928Y-114915714D02*
X261160119Y-115582380D01*
X260779166Y-115058571D02*
X260017261Y-115058571D01*
X260017261Y-115344285D02*
X260779166Y-115344285D01*
X259017261Y-115582380D02*
X259588690Y-115582380D01*
X259302976Y-115582380D02*
X259302976Y-114582380D01*
X259398214Y-114725238D01*
X259493452Y-114820476D01*
X259588690Y-114868095D01*
X258541071Y-115534761D02*
X258541071Y-115582380D01*
X258588690Y-115677619D01*
X258636309Y-115725238D01*
X258160119Y-114677619D02*
X258112500Y-114630000D01*
X258017261Y-114582380D01*
X257779166Y-114582380D01*
X257683928Y-114630000D01*
X257636309Y-114677619D01*
X257588690Y-114772857D01*
X257588690Y-114868095D01*
X257636309Y-115010952D01*
X258207738Y-115582380D01*
X257588690Y-115582380D01*
X257112500Y-115534761D02*
X257112500Y-115582380D01*
X257160119Y-115677619D01*
X257207738Y-115725238D01*
X256779166Y-114582380D02*
X256160119Y-114582380D01*
X256493452Y-114963333D01*
X256350595Y-114963333D01*
X256255357Y-115010952D01*
X256207738Y-115058571D01*
X256160119Y-115153809D01*
X256160119Y-115391904D01*
X256207738Y-115487142D01*
X256255357Y-115534761D01*
X256350595Y-115582380D01*
X256636309Y-115582380D01*
X256731547Y-115534761D01*
X256779166Y-115487142D01*
X255683928Y-115534761D02*
X255683928Y-115582380D01*
X255731547Y-115677619D01*
X255779166Y-115725238D01*
X254826785Y-114915714D02*
X254826785Y-115582380D01*
X255064880Y-114534761D02*
X255302976Y-115249047D01*
X254683928Y-115249047D01*
X282874404Y-117232380D02*
X282874404Y-116232380D01*
X282302976Y-117232380D02*
X282731547Y-116660952D01*
X282302976Y-116232380D02*
X282874404Y-116803809D01*
X281493452Y-117184761D02*
X281588690Y-117232380D01*
X281779166Y-117232380D01*
X281874404Y-117184761D01*
X281922023Y-117089523D01*
X281922023Y-116708571D01*
X281874404Y-116613333D01*
X281779166Y-116565714D01*
X281588690Y-116565714D01*
X281493452Y-116613333D01*
X281445833Y-116708571D01*
X281445833Y-116803809D01*
X281922023Y-116899047D01*
X281112500Y-116565714D02*
X280874404Y-117232380D01*
X280636309Y-116565714D02*
X280874404Y-117232380D01*
X280969642Y-117470476D01*
X281017261Y-117518095D01*
X281112500Y-117565714D01*
X279826785Y-117184761D02*
X279922023Y-117232380D01*
X280112500Y-117232380D01*
X280207738Y-117184761D01*
X280255357Y-117137142D01*
X280302976Y-117041904D01*
X280302976Y-116756190D01*
X280255357Y-116660952D01*
X280207738Y-116613333D01*
X280112500Y-116565714D01*
X279922023Y-116565714D01*
X279826785Y-116613333D01*
X278969642Y-117232380D02*
X278969642Y-116708571D01*
X279017261Y-116613333D01*
X279112500Y-116565714D01*
X279302976Y-116565714D01*
X279398214Y-116613333D01*
X278969642Y-117184761D02*
X279064880Y-117232380D01*
X279302976Y-117232380D01*
X279398214Y-117184761D01*
X279445833Y-117089523D01*
X279445833Y-116994285D01*
X279398214Y-116899047D01*
X279302976Y-116851428D01*
X279064880Y-116851428D01*
X278969642Y-116803809D01*
X278493452Y-116565714D02*
X278493452Y-117565714D01*
X278493452Y-116613333D02*
X278398214Y-116565714D01*
X278207738Y-116565714D01*
X278112500Y-116613333D01*
X278064880Y-116660952D01*
X278017261Y-116756190D01*
X278017261Y-117041904D01*
X278064880Y-117137142D01*
X278112500Y-117184761D01*
X278207738Y-117232380D01*
X278398214Y-117232380D01*
X278493452Y-117184761D01*
X277588690Y-117137142D02*
X277541071Y-117184761D01*
X277588690Y-117232380D01*
X277636309Y-117184761D01*
X277588690Y-117137142D01*
X277588690Y-117232380D01*
X277588690Y-116613333D02*
X277541071Y-116660952D01*
X277588690Y-116708571D01*
X277636309Y-116660952D01*
X277588690Y-116613333D01*
X277588690Y-116708571D01*
X276398214Y-117184761D02*
X276255357Y-117232380D01*
X276017261Y-117232380D01*
X275922023Y-117184761D01*
X275874404Y-117137142D01*
X275826785Y-117041904D01*
X275826785Y-116946666D01*
X275874404Y-116851428D01*
X275922023Y-116803809D01*
X276017261Y-116756190D01*
X276207738Y-116708571D01*
X276302976Y-116660952D01*
X276350595Y-116613333D01*
X276398214Y-116518095D01*
X276398214Y-116422857D01*
X276350595Y-116327619D01*
X276302976Y-116280000D01*
X276207738Y-116232380D01*
X275969642Y-116232380D01*
X275826785Y-116280000D01*
X275398214Y-117232380D02*
X275398214Y-116232380D01*
X274826785Y-117232380D02*
X275255357Y-116660952D01*
X274826785Y-116232380D02*
X275398214Y-116803809D01*
X274445833Y-116327619D02*
X274398214Y-116280000D01*
X274302976Y-116232380D01*
X274064880Y-116232380D01*
X273969642Y-116280000D01*
X273922023Y-116327619D01*
X273874404Y-116422857D01*
X273874404Y-116518095D01*
X273922023Y-116660952D01*
X274493452Y-117232380D01*
X273874404Y-117232380D01*
X273493452Y-116946666D02*
X273017261Y-116946666D01*
X273588690Y-117232380D02*
X273255357Y-116232380D01*
X272922023Y-117232380D01*
X272636309Y-116946666D02*
X272160119Y-116946666D01*
X272731547Y-117232380D02*
X272398214Y-116232380D01*
X272064880Y-117232380D01*
X271541071Y-116232380D02*
X271445833Y-116232380D01*
X271350595Y-116280000D01*
X271302976Y-116327619D01*
X271255357Y-116422857D01*
X271207738Y-116613333D01*
X271207738Y-116851428D01*
X271255357Y-117041904D01*
X271302976Y-117137142D01*
X271350595Y-117184761D01*
X271445833Y-117232380D01*
X271541071Y-117232380D01*
X271636309Y-117184761D01*
X271683928Y-117137142D01*
X271731547Y-117041904D01*
X271779166Y-116851428D01*
X271779166Y-116613333D01*
X271731547Y-116422857D01*
X271683928Y-116327619D01*
X271636309Y-116280000D01*
X271541071Y-116232380D01*
X270588690Y-116232380D02*
X270493452Y-116232380D01*
X270398214Y-116280000D01*
X270350595Y-116327619D01*
X270302976Y-116422857D01*
X270255357Y-116613333D01*
X270255357Y-116851428D01*
X270302976Y-117041904D01*
X270350595Y-117137142D01*
X270398214Y-117184761D01*
X270493452Y-117232380D01*
X270588690Y-117232380D01*
X270683928Y-117184761D01*
X270731547Y-117137142D01*
X270779166Y-117041904D01*
X270826785Y-116851428D01*
X270826785Y-116613333D01*
X270779166Y-116422857D01*
X270731547Y-116327619D01*
X270683928Y-116280000D01*
X270588690Y-116232380D01*
X269350595Y-116232380D02*
X269826785Y-116232380D01*
X269874404Y-116708571D01*
X269826785Y-116660952D01*
X269731547Y-116613333D01*
X269493452Y-116613333D01*
X269398214Y-116660952D01*
X269350595Y-116708571D01*
X269302976Y-116803809D01*
X269302976Y-117041904D01*
X269350595Y-117137142D01*
X269398214Y-117184761D01*
X269493452Y-117232380D01*
X269731547Y-117232380D01*
X269826785Y-117184761D01*
X269874404Y-117137142D01*
X268350595Y-117232380D02*
X268922023Y-117232380D01*
X268636309Y-117232380D02*
X268636309Y-116232380D01*
X268731547Y-116375238D01*
X268826785Y-116470476D01*
X268922023Y-116518095D01*
X267731547Y-116232380D02*
X267636309Y-116232380D01*
X267541071Y-116280000D01*
X267493452Y-116327619D01*
X267445833Y-116422857D01*
X267398214Y-116613333D01*
X267398214Y-116851428D01*
X267445833Y-117041904D01*
X267493452Y-117137142D01*
X267541071Y-117184761D01*
X267636309Y-117232380D01*
X267731547Y-117232380D01*
X267826785Y-117184761D01*
X267874404Y-117137142D01*
X267922023Y-117041904D01*
X267969642Y-116851428D01*
X267969642Y-116613333D01*
X267922023Y-116422857D01*
X267874404Y-116327619D01*
X267826785Y-116280000D01*
X267731547Y-116232380D01*
X267064880Y-117613333D02*
X267017261Y-117565714D01*
X266922023Y-117422857D01*
X266874404Y-117327619D01*
X266826785Y-117184761D01*
X266779166Y-116946666D01*
X266779166Y-116756190D01*
X266826785Y-116518095D01*
X266874404Y-116375238D01*
X266922023Y-116280000D01*
X267017261Y-116137142D01*
X267064880Y-116089523D01*
X282541071Y-129908571D02*
X282874404Y-129908571D01*
X282874404Y-130432380D02*
X282874404Y-129432380D01*
X282398214Y-129432380D01*
X281874404Y-130432380D02*
X281969642Y-130384761D01*
X282017261Y-130337142D01*
X282064880Y-130241904D01*
X282064880Y-129956190D01*
X282017261Y-129860952D01*
X281969642Y-129813333D01*
X281874404Y-129765714D01*
X281731547Y-129765714D01*
X281636309Y-129813333D01*
X281588690Y-129860952D01*
X281541071Y-129956190D01*
X281541071Y-130241904D01*
X281588690Y-130337142D01*
X281636309Y-130384761D01*
X281731547Y-130432380D01*
X281874404Y-130432380D01*
X281112500Y-130432380D02*
X281112500Y-129765714D01*
X281112500Y-129956190D02*
X281064880Y-129860952D01*
X281017261Y-129813333D01*
X280922023Y-129765714D01*
X280826785Y-129765714D01*
X279731547Y-130432380D02*
X279731547Y-129432380D01*
X279636309Y-130051428D02*
X279350595Y-130432380D01*
X279350595Y-129765714D02*
X279731547Y-130146666D01*
X278541071Y-130384761D02*
X278636309Y-130432380D01*
X278826785Y-130432380D01*
X278922023Y-130384761D01*
X278969642Y-130289523D01*
X278969642Y-129908571D01*
X278922023Y-129813333D01*
X278826785Y-129765714D01*
X278636309Y-129765714D01*
X278541071Y-129813333D01*
X278493452Y-129908571D01*
X278493452Y-130003809D01*
X278969642Y-130099047D01*
X278160119Y-129765714D02*
X277922023Y-130432380D01*
X277683928Y-129765714D02*
X277922023Y-130432380D01*
X278017261Y-130670476D01*
X278064880Y-130718095D01*
X278160119Y-130765714D01*
X277350595Y-130384761D02*
X277255357Y-130432380D01*
X277064880Y-130432380D01*
X276969642Y-130384761D01*
X276922023Y-130289523D01*
X276922023Y-130241904D01*
X276969642Y-130146666D01*
X277064880Y-130099047D01*
X277207738Y-130099047D01*
X277302976Y-130051428D01*
X277350595Y-129956190D01*
X277350595Y-129908571D01*
X277302976Y-129813333D01*
X277207738Y-129765714D01*
X277064880Y-129765714D01*
X276969642Y-129813333D01*
X276588690Y-129765714D02*
X276398214Y-130432380D01*
X276207738Y-129956190D01*
X276017261Y-130432380D01*
X275826785Y-129765714D01*
X275445833Y-130432380D02*
X275445833Y-129765714D01*
X275445833Y-129432380D02*
X275493452Y-129480000D01*
X275445833Y-129527619D01*
X275398214Y-129480000D01*
X275445833Y-129432380D01*
X275445833Y-129527619D01*
X275112500Y-129765714D02*
X274731547Y-129765714D01*
X274969642Y-129432380D02*
X274969642Y-130289523D01*
X274922023Y-130384761D01*
X274826785Y-130432380D01*
X274731547Y-130432380D01*
X273969642Y-130384761D02*
X274064880Y-130432380D01*
X274255357Y-130432380D01*
X274350595Y-130384761D01*
X274398214Y-130337142D01*
X274445833Y-130241904D01*
X274445833Y-129956190D01*
X274398214Y-129860952D01*
X274350595Y-129813333D01*
X274255357Y-129765714D01*
X274064880Y-129765714D01*
X273969642Y-129813333D01*
X273541071Y-130432380D02*
X273541071Y-129432380D01*
X273112500Y-130432380D02*
X273112500Y-129908571D01*
X273160119Y-129813333D01*
X273255357Y-129765714D01*
X273398214Y-129765714D01*
X273493452Y-129813333D01*
X273541071Y-129860952D01*
X272588690Y-130384761D02*
X272588690Y-130432380D01*
X272636309Y-130527619D01*
X272683928Y-130575238D01*
X271493452Y-129765714D02*
X271255357Y-130432380D01*
X271017261Y-129765714D02*
X271255357Y-130432380D01*
X271350595Y-130670476D01*
X271398214Y-130718095D01*
X271493452Y-130765714D01*
X270493452Y-130432380D02*
X270588690Y-130384761D01*
X270636309Y-130337142D01*
X270683928Y-130241904D01*
X270683928Y-129956190D01*
X270636309Y-129860952D01*
X270588690Y-129813333D01*
X270493452Y-129765714D01*
X270350595Y-129765714D01*
X270255357Y-129813333D01*
X270207738Y-129860952D01*
X270160119Y-129956190D01*
X270160119Y-130241904D01*
X270207738Y-130337142D01*
X270255357Y-130384761D01*
X270350595Y-130432380D01*
X270493452Y-130432380D01*
X269302976Y-129765714D02*
X269302976Y-130432380D01*
X269731547Y-129765714D02*
X269731547Y-130289523D01*
X269683928Y-130384761D01*
X269588690Y-130432380D01*
X269445833Y-130432380D01*
X269350595Y-130384761D01*
X269302976Y-130337142D01*
X267636309Y-130384761D02*
X267731547Y-130432380D01*
X267922023Y-130432380D01*
X268017261Y-130384761D01*
X268064880Y-130337142D01*
X268112500Y-130241904D01*
X268112500Y-129956190D01*
X268064880Y-129860952D01*
X268017261Y-129813333D01*
X267922023Y-129765714D01*
X267731547Y-129765714D01*
X267636309Y-129813333D01*
X266779166Y-130432380D02*
X266779166Y-129908571D01*
X266826785Y-129813333D01*
X266922023Y-129765714D01*
X267112500Y-129765714D01*
X267207738Y-129813333D01*
X266779166Y-130384761D02*
X266874404Y-130432380D01*
X267112500Y-130432380D01*
X267207738Y-130384761D01*
X267255357Y-130289523D01*
X267255357Y-130194285D01*
X267207738Y-130099047D01*
X267112500Y-130051428D01*
X266874404Y-130051428D01*
X266779166Y-130003809D01*
X266302976Y-129765714D02*
X266302976Y-130432380D01*
X266302976Y-129860952D02*
X266255357Y-129813333D01*
X266160119Y-129765714D01*
X266017261Y-129765714D01*
X265922023Y-129813333D01*
X265874404Y-129908571D01*
X265874404Y-130432380D01*
X264683928Y-130384761D02*
X264588690Y-130432380D01*
X264398214Y-130432380D01*
X264302976Y-130384761D01*
X264255357Y-130289523D01*
X264255357Y-130241904D01*
X264302976Y-130146666D01*
X264398214Y-130099047D01*
X264541071Y-130099047D01*
X264636309Y-130051428D01*
X264683928Y-129956190D01*
X264683928Y-129908571D01*
X264636309Y-129813333D01*
X264541071Y-129765714D01*
X264398214Y-129765714D01*
X264302976Y-129813333D01*
X263398214Y-129765714D02*
X263398214Y-130432380D01*
X263826785Y-129765714D02*
X263826785Y-130289523D01*
X263779166Y-130384761D01*
X263683928Y-130432380D01*
X263541071Y-130432380D01*
X263445833Y-130384761D01*
X263398214Y-130337142D01*
X262922023Y-130432380D02*
X262922023Y-129432380D01*
X262922023Y-129813333D02*
X262826785Y-129765714D01*
X262636309Y-129765714D01*
X262541071Y-129813333D01*
X262493452Y-129860952D01*
X262445833Y-129956190D01*
X262445833Y-130241904D01*
X262493452Y-130337142D01*
X262541071Y-130384761D01*
X262636309Y-130432380D01*
X262826785Y-130432380D01*
X262922023Y-130384761D01*
X262064880Y-130384761D02*
X261969642Y-130432380D01*
X261779166Y-130432380D01*
X261683928Y-130384761D01*
X261636309Y-130289523D01*
X261636309Y-130241904D01*
X261683928Y-130146666D01*
X261779166Y-130099047D01*
X261922023Y-130099047D01*
X262017261Y-130051428D01*
X262064880Y-129956190D01*
X262064880Y-129908571D01*
X262017261Y-129813333D01*
X261922023Y-129765714D01*
X261779166Y-129765714D01*
X261683928Y-129813333D01*
X261350595Y-129765714D02*
X260969642Y-129765714D01*
X261207738Y-129432380D02*
X261207738Y-130289523D01*
X261160119Y-130384761D01*
X261064880Y-130432380D01*
X260969642Y-130432380D01*
X260636309Y-130432380D02*
X260636309Y-129765714D01*
X260636309Y-129432380D02*
X260683928Y-129480000D01*
X260636309Y-129527619D01*
X260588690Y-129480000D01*
X260636309Y-129432380D01*
X260636309Y-129527619D01*
X260302976Y-129765714D02*
X259922023Y-129765714D01*
X260160119Y-129432380D02*
X260160119Y-130289523D01*
X260112500Y-130384761D01*
X260017261Y-130432380D01*
X259922023Y-130432380D01*
X259160119Y-129765714D02*
X259160119Y-130432380D01*
X259588690Y-129765714D02*
X259588690Y-130289523D01*
X259541071Y-130384761D01*
X259445833Y-130432380D01*
X259302976Y-130432380D01*
X259207738Y-130384761D01*
X259160119Y-130337142D01*
X258826785Y-129765714D02*
X258445833Y-129765714D01*
X258683928Y-129432380D02*
X258683928Y-130289523D01*
X258636309Y-130384761D01*
X258541071Y-130432380D01*
X258445833Y-130432380D01*
X257731547Y-130384761D02*
X257826785Y-130432380D01*
X258017261Y-130432380D01*
X258112500Y-130384761D01*
X258160119Y-130289523D01*
X258160119Y-129908571D01*
X258112500Y-129813333D01*
X258017261Y-129765714D01*
X257826785Y-129765714D01*
X257731547Y-129813333D01*
X257683928Y-129908571D01*
X257683928Y-130003809D01*
X258160119Y-130099047D01*
X257255357Y-130337142D02*
X257207738Y-130384761D01*
X257255357Y-130432380D01*
X257302976Y-130384761D01*
X257255357Y-130337142D01*
X257255357Y-130432380D01*
X257255357Y-129813333D02*
X257207738Y-129860952D01*
X257255357Y-129908571D01*
X257302976Y-129860952D01*
X257255357Y-129813333D01*
X257255357Y-129908571D01*
X282922023Y-132034761D02*
X282779166Y-132082380D01*
X282541071Y-132082380D01*
X282445833Y-132034761D01*
X282398214Y-131987142D01*
X282350595Y-131891904D01*
X282350595Y-131796666D01*
X282398214Y-131701428D01*
X282445833Y-131653809D01*
X282541071Y-131606190D01*
X282731547Y-131558571D01*
X282826785Y-131510952D01*
X282874404Y-131463333D01*
X282922023Y-131368095D01*
X282922023Y-131272857D01*
X282874404Y-131177619D01*
X282826785Y-131130000D01*
X282731547Y-131082380D01*
X282493452Y-131082380D01*
X282350595Y-131130000D01*
X281922023Y-132082380D02*
X281922023Y-131082380D01*
X281350595Y-132082380D02*
X281779166Y-131510952D01*
X281350595Y-131082380D02*
X281922023Y-131653809D01*
X280922023Y-132082380D02*
X280922023Y-131082380D01*
X280922023Y-131558571D02*
X280350595Y-131558571D01*
X280350595Y-132082380D02*
X280350595Y-131082380D01*
X279302976Y-131987142D02*
X279350595Y-132034761D01*
X279493452Y-132082380D01*
X279588690Y-132082380D01*
X279731547Y-132034761D01*
X279826785Y-131939523D01*
X279874404Y-131844285D01*
X279922023Y-131653809D01*
X279922023Y-131510952D01*
X279874404Y-131320476D01*
X279826785Y-131225238D01*
X279731547Y-131130000D01*
X279588690Y-131082380D01*
X279493452Y-131082380D01*
X279350595Y-131130000D01*
X279302976Y-131177619D01*
X278541071Y-131558571D02*
X278398214Y-131606190D01*
X278350595Y-131653809D01*
X278302976Y-131749047D01*
X278302976Y-131891904D01*
X278350595Y-131987142D01*
X278398214Y-132034761D01*
X278493452Y-132082380D01*
X278874404Y-132082380D01*
X278874404Y-131082380D01*
X278541071Y-131082380D01*
X278445833Y-131130000D01*
X278398214Y-131177619D01*
X278350595Y-131272857D01*
X278350595Y-131368095D01*
X278398214Y-131463333D01*
X278445833Y-131510952D01*
X278541071Y-131558571D01*
X278874404Y-131558571D01*
X277588690Y-131082380D02*
X277588690Y-131796666D01*
X277636309Y-131939523D01*
X277731547Y-132034761D01*
X277874404Y-132082380D01*
X277969642Y-132082380D01*
X277160119Y-131796666D02*
X276683928Y-131796666D01*
X277255357Y-132082380D02*
X276922023Y-131082380D01*
X276588690Y-132082380D01*
X276064880Y-131082380D02*
X275969642Y-131082380D01*
X275874404Y-131130000D01*
X275826785Y-131177619D01*
X275779166Y-131272857D01*
X275731547Y-131463333D01*
X275731547Y-131701428D01*
X275779166Y-131891904D01*
X275826785Y-131987142D01*
X275874404Y-132034761D01*
X275969642Y-132082380D01*
X276064880Y-132082380D01*
X276160119Y-132034761D01*
X276207738Y-131987142D01*
X276255357Y-131891904D01*
X276302976Y-131701428D01*
X276302976Y-131463333D01*
X276255357Y-131272857D01*
X276207738Y-131177619D01*
X276160119Y-131130000D01*
X276064880Y-131082380D01*
X274779166Y-132082380D02*
X275350595Y-132082380D01*
X275064880Y-132082380D02*
X275064880Y-131082380D01*
X275160119Y-131225238D01*
X275255357Y-131320476D01*
X275350595Y-131368095D01*
X274160119Y-131082380D02*
X274064880Y-131082380D01*
X273969642Y-131130000D01*
X273922023Y-131177619D01*
X273874404Y-131272857D01*
X273826785Y-131463333D01*
X273826785Y-131701428D01*
X273874404Y-131891904D01*
X273922023Y-131987142D01*
X273969642Y-132034761D01*
X274064880Y-132082380D01*
X274160119Y-132082380D01*
X274255357Y-132034761D01*
X274302976Y-131987142D01*
X274350595Y-131891904D01*
X274398214Y-131701428D01*
X274398214Y-131463333D01*
X274350595Y-131272857D01*
X274302976Y-131177619D01*
X274255357Y-131130000D01*
X274160119Y-131082380D01*
X272350595Y-132463333D02*
X272398214Y-132415714D01*
X272493452Y-132272857D01*
X272541071Y-132177619D01*
X272588690Y-132034761D01*
X272636309Y-131796666D01*
X272636309Y-131606190D01*
X272588690Y-131368095D01*
X272541071Y-131225238D01*
X272493452Y-131130000D01*
X272398214Y-130987142D01*
X272350595Y-130939523D01*
X271826785Y-132082380D02*
X271922023Y-132034761D01*
X271969642Y-131939523D01*
X271969642Y-131082380D01*
X271302976Y-132082380D02*
X271398214Y-132034761D01*
X271445833Y-131987142D01*
X271493452Y-131891904D01*
X271493452Y-131606190D01*
X271445833Y-131510952D01*
X271398214Y-131463333D01*
X271302976Y-131415714D01*
X271160119Y-131415714D01*
X271064880Y-131463333D01*
X271017261Y-131510952D01*
X270969642Y-131606190D01*
X270969642Y-131891904D01*
X271017261Y-131987142D01*
X271064880Y-132034761D01*
X271160119Y-132082380D01*
X271302976Y-132082380D01*
X270636309Y-131415714D02*
X270445833Y-132082380D01*
X270255357Y-131606190D01*
X270064880Y-132082380D01*
X269874404Y-131415714D01*
X269112500Y-132034761D02*
X269207738Y-132082380D01*
X269398214Y-132082380D01*
X269493452Y-132034761D01*
X269541071Y-131939523D01*
X269541071Y-131558571D01*
X269493452Y-131463333D01*
X269398214Y-131415714D01*
X269207738Y-131415714D01*
X269112500Y-131463333D01*
X269064880Y-131558571D01*
X269064880Y-131653809D01*
X269541071Y-131749047D01*
X268636309Y-132082380D02*
X268636309Y-131415714D01*
X268636309Y-131606190D02*
X268588690Y-131510952D01*
X268541071Y-131463333D01*
X268445833Y-131415714D01*
X268350595Y-131415714D01*
X267398214Y-131415714D02*
X267017261Y-131415714D01*
X267255357Y-132082380D02*
X267255357Y-131225238D01*
X267207738Y-131130000D01*
X267112500Y-131082380D01*
X267017261Y-131082380D01*
X266541071Y-132082380D02*
X266636309Y-132034761D01*
X266683928Y-131987142D01*
X266731547Y-131891904D01*
X266731547Y-131606190D01*
X266683928Y-131510952D01*
X266636309Y-131463333D01*
X266541071Y-131415714D01*
X266398214Y-131415714D01*
X266302976Y-131463333D01*
X266255357Y-131510952D01*
X266207738Y-131606190D01*
X266207738Y-131891904D01*
X266255357Y-131987142D01*
X266302976Y-132034761D01*
X266398214Y-132082380D01*
X266541071Y-132082380D01*
X265779166Y-132082380D02*
X265779166Y-131415714D01*
X265779166Y-131606190D02*
X265731547Y-131510952D01*
X265683928Y-131463333D01*
X265588690Y-131415714D01*
X265493452Y-131415714D01*
X264731547Y-132034761D02*
X264826785Y-132082380D01*
X265017261Y-132082380D01*
X265112500Y-132034761D01*
X265160119Y-131987142D01*
X265207738Y-131891904D01*
X265207738Y-131606190D01*
X265160119Y-131510952D01*
X265112500Y-131463333D01*
X265017261Y-131415714D01*
X264826785Y-131415714D01*
X264731547Y-131463333D01*
X263922023Y-132034761D02*
X264017261Y-132082380D01*
X264207738Y-132082380D01*
X264302976Y-132034761D01*
X264350595Y-131939523D01*
X264350595Y-131558571D01*
X264302976Y-131463333D01*
X264207738Y-131415714D01*
X264017261Y-131415714D01*
X263922023Y-131463333D01*
X263874404Y-131558571D01*
X263874404Y-131653809D01*
X264350595Y-131749047D01*
X263445833Y-132082380D02*
X263445833Y-131415714D01*
X263445833Y-131606190D02*
X263398214Y-131510952D01*
X263350595Y-131463333D01*
X263255357Y-131415714D01*
X263160119Y-131415714D01*
X262922023Y-132463333D02*
X262874404Y-132415714D01*
X262779166Y-132272857D01*
X262731547Y-132177619D01*
X262683928Y-132034761D01*
X262636309Y-131796666D01*
X262636309Y-131606190D01*
X262683928Y-131368095D01*
X262731547Y-131225238D01*
X262779166Y-131130000D01*
X262874404Y-130987142D01*
X262922023Y-130939523D01*
X282922023Y-133684761D02*
X282779166Y-133732380D01*
X282541071Y-133732380D01*
X282445833Y-133684761D01*
X282398214Y-133637142D01*
X282350595Y-133541904D01*
X282350595Y-133446666D01*
X282398214Y-133351428D01*
X282445833Y-133303809D01*
X282541071Y-133256190D01*
X282731547Y-133208571D01*
X282826785Y-133160952D01*
X282874404Y-133113333D01*
X282922023Y-133018095D01*
X282922023Y-132922857D01*
X282874404Y-132827619D01*
X282826785Y-132780000D01*
X282731547Y-132732380D01*
X282493452Y-132732380D01*
X282350595Y-132780000D01*
X281922023Y-133732380D02*
X281922023Y-132732380D01*
X281350595Y-133732380D02*
X281779166Y-133160952D01*
X281350595Y-132732380D02*
X281922023Y-133303809D01*
X280922023Y-133732380D02*
X280922023Y-132732380D01*
X280922023Y-133208571D02*
X280350595Y-133208571D01*
X280350595Y-133732380D02*
X280350595Y-132732380D01*
X279302976Y-133637142D02*
X279350595Y-133684761D01*
X279493452Y-133732380D01*
X279588690Y-133732380D01*
X279731547Y-133684761D01*
X279826785Y-133589523D01*
X279874404Y-133494285D01*
X279922023Y-133303809D01*
X279922023Y-133160952D01*
X279874404Y-132970476D01*
X279826785Y-132875238D01*
X279731547Y-132780000D01*
X279588690Y-132732380D01*
X279493452Y-132732380D01*
X279350595Y-132780000D01*
X279302976Y-132827619D01*
X278541071Y-133208571D02*
X278398214Y-133256190D01*
X278350595Y-133303809D01*
X278302976Y-133399047D01*
X278302976Y-133541904D01*
X278350595Y-133637142D01*
X278398214Y-133684761D01*
X278493452Y-133732380D01*
X278874404Y-133732380D01*
X278874404Y-132732380D01*
X278541071Y-132732380D01*
X278445833Y-132780000D01*
X278398214Y-132827619D01*
X278350595Y-132922857D01*
X278350595Y-133018095D01*
X278398214Y-133113333D01*
X278445833Y-133160952D01*
X278541071Y-133208571D01*
X278874404Y-133208571D01*
X277350595Y-132780000D02*
X277445833Y-132732380D01*
X277588690Y-132732380D01*
X277731547Y-132780000D01*
X277826785Y-132875238D01*
X277874404Y-132970476D01*
X277922023Y-133160952D01*
X277922023Y-133303809D01*
X277874404Y-133494285D01*
X277826785Y-133589523D01*
X277731547Y-133684761D01*
X277588690Y-133732380D01*
X277493452Y-133732380D01*
X277350595Y-133684761D01*
X277302976Y-133637142D01*
X277302976Y-133303809D01*
X277493452Y-133303809D01*
X276922023Y-133446666D02*
X276445833Y-133446666D01*
X277017261Y-133732380D02*
X276683928Y-132732380D01*
X276350595Y-133732380D01*
X275826785Y-132732380D02*
X275731547Y-132732380D01*
X275636309Y-132780000D01*
X275588690Y-132827619D01*
X275541071Y-132922857D01*
X275493452Y-133113333D01*
X275493452Y-133351428D01*
X275541071Y-133541904D01*
X275588690Y-133637142D01*
X275636309Y-133684761D01*
X275731547Y-133732380D01*
X275826785Y-133732380D01*
X275922023Y-133684761D01*
X275969642Y-133637142D01*
X276017261Y-133541904D01*
X276064880Y-133351428D01*
X276064880Y-133113333D01*
X276017261Y-132922857D01*
X275969642Y-132827619D01*
X275922023Y-132780000D01*
X275826785Y-132732380D01*
X274541071Y-133732380D02*
X275112500Y-133732380D01*
X274826785Y-133732380D02*
X274826785Y-132732380D01*
X274922023Y-132875238D01*
X275017261Y-132970476D01*
X275112500Y-133018095D01*
X273922023Y-132732380D02*
X273826785Y-132732380D01*
X273731547Y-132780000D01*
X273683928Y-132827619D01*
X273636309Y-132922857D01*
X273588690Y-133113333D01*
X273588690Y-133351428D01*
X273636309Y-133541904D01*
X273683928Y-133637142D01*
X273731547Y-133684761D01*
X273826785Y-133732380D01*
X273922023Y-133732380D01*
X274017261Y-133684761D01*
X274064880Y-133637142D01*
X274112500Y-133541904D01*
X274160119Y-133351428D01*
X274160119Y-133113333D01*
X274112500Y-132922857D01*
X274064880Y-132827619D01*
X274017261Y-132780000D01*
X273922023Y-132732380D01*
X272112500Y-134113333D02*
X272160119Y-134065714D01*
X272255357Y-133922857D01*
X272302976Y-133827619D01*
X272350595Y-133684761D01*
X272398214Y-133446666D01*
X272398214Y-133256190D01*
X272350595Y-133018095D01*
X272302976Y-132875238D01*
X272255357Y-132780000D01*
X272160119Y-132637142D01*
X272112500Y-132589523D01*
X271731547Y-133732380D02*
X271731547Y-132732380D01*
X271302976Y-133732380D02*
X271302976Y-133208571D01*
X271350595Y-133113333D01*
X271445833Y-133065714D01*
X271588690Y-133065714D01*
X271683928Y-133113333D01*
X271731547Y-133160952D01*
X270826785Y-133732380D02*
X270826785Y-133065714D01*
X270826785Y-132732380D02*
X270874404Y-132780000D01*
X270826785Y-132827619D01*
X270779166Y-132780000D01*
X270826785Y-132732380D01*
X270826785Y-132827619D01*
X269922023Y-133065714D02*
X269922023Y-133875238D01*
X269969642Y-133970476D01*
X270017261Y-134018095D01*
X270112500Y-134065714D01*
X270255357Y-134065714D01*
X270350595Y-134018095D01*
X269922023Y-133684761D02*
X270017261Y-133732380D01*
X270207738Y-133732380D01*
X270302976Y-133684761D01*
X270350595Y-133637142D01*
X270398214Y-133541904D01*
X270398214Y-133256190D01*
X270350595Y-133160952D01*
X270302976Y-133113333D01*
X270207738Y-133065714D01*
X270017261Y-133065714D01*
X269922023Y-133113333D01*
X269445833Y-133732380D02*
X269445833Y-132732380D01*
X269017261Y-133732380D02*
X269017261Y-133208571D01*
X269064880Y-133113333D01*
X269160119Y-133065714D01*
X269302976Y-133065714D01*
X269398214Y-133113333D01*
X269445833Y-133160952D01*
X268160119Y-133684761D02*
X268255357Y-133732380D01*
X268445833Y-133732380D01*
X268541071Y-133684761D01*
X268588690Y-133589523D01*
X268588690Y-133208571D01*
X268541071Y-133113333D01*
X268445833Y-133065714D01*
X268255357Y-133065714D01*
X268160119Y-133113333D01*
X268112500Y-133208571D01*
X268112500Y-133303809D01*
X268588690Y-133399047D01*
X267683928Y-133732380D02*
X267683928Y-133065714D01*
X267683928Y-133256190D02*
X267636309Y-133160952D01*
X267588690Y-133113333D01*
X267493452Y-133065714D01*
X267398214Y-133065714D01*
X266445833Y-133065714D02*
X266064880Y-133065714D01*
X266302976Y-133732380D02*
X266302976Y-132875238D01*
X266255357Y-132780000D01*
X266160119Y-132732380D01*
X266064880Y-132732380D01*
X265588690Y-133732380D02*
X265683928Y-133684761D01*
X265731547Y-133637142D01*
X265779166Y-133541904D01*
X265779166Y-133256190D01*
X265731547Y-133160952D01*
X265683928Y-133113333D01*
X265588690Y-133065714D01*
X265445833Y-133065714D01*
X265350595Y-133113333D01*
X265302976Y-133160952D01*
X265255357Y-133256190D01*
X265255357Y-133541904D01*
X265302976Y-133637142D01*
X265350595Y-133684761D01*
X265445833Y-133732380D01*
X265588690Y-133732380D01*
X264826785Y-133732380D02*
X264826785Y-133065714D01*
X264826785Y-133256190D02*
X264779166Y-133160952D01*
X264731547Y-133113333D01*
X264636309Y-133065714D01*
X264541071Y-133065714D01*
X263779166Y-133684761D02*
X263874404Y-133732380D01*
X264064880Y-133732380D01*
X264160119Y-133684761D01*
X264207738Y-133637142D01*
X264255357Y-133541904D01*
X264255357Y-133256190D01*
X264207738Y-133160952D01*
X264160119Y-133113333D01*
X264064880Y-133065714D01*
X263874404Y-133065714D01*
X263779166Y-133113333D01*
X262969642Y-133684761D02*
X263064880Y-133732380D01*
X263255357Y-133732380D01*
X263350595Y-133684761D01*
X263398214Y-133589523D01*
X263398214Y-133208571D01*
X263350595Y-133113333D01*
X263255357Y-133065714D01*
X263064880Y-133065714D01*
X262969642Y-133113333D01*
X262922023Y-133208571D01*
X262922023Y-133303809D01*
X263398214Y-133399047D01*
X262588690Y-134113333D02*
X262541071Y-134065714D01*
X262445833Y-133922857D01*
X262398214Y-133827619D01*
X262350595Y-133684761D01*
X262302976Y-133446666D01*
X262302976Y-133256190D01*
X262350595Y-133018095D01*
X262398214Y-132875238D01*
X262445833Y-132780000D01*
X262541071Y-132637142D01*
X262588690Y-132589523D01*
X282874404Y-146932380D02*
X282874404Y-145932380D01*
X282302976Y-146932380D02*
X282731547Y-146360952D01*
X282302976Y-145932380D02*
X282874404Y-146503809D01*
X281493452Y-146884761D02*
X281588690Y-146932380D01*
X281779166Y-146932380D01*
X281874404Y-146884761D01*
X281922023Y-146789523D01*
X281922023Y-146408571D01*
X281874404Y-146313333D01*
X281779166Y-146265714D01*
X281588690Y-146265714D01*
X281493452Y-146313333D01*
X281445833Y-146408571D01*
X281445833Y-146503809D01*
X281922023Y-146599047D01*
X281112500Y-146265714D02*
X280874404Y-146932380D01*
X280636309Y-146265714D02*
X280874404Y-146932380D01*
X280969642Y-147170476D01*
X281017261Y-147218095D01*
X281112500Y-147265714D01*
X279826785Y-146884761D02*
X279922023Y-146932380D01*
X280112500Y-146932380D01*
X280207738Y-146884761D01*
X280255357Y-146837142D01*
X280302976Y-146741904D01*
X280302976Y-146456190D01*
X280255357Y-146360952D01*
X280207738Y-146313333D01*
X280112500Y-146265714D01*
X279922023Y-146265714D01*
X279826785Y-146313333D01*
X278969642Y-146932380D02*
X278969642Y-146408571D01*
X279017261Y-146313333D01*
X279112500Y-146265714D01*
X279302976Y-146265714D01*
X279398214Y-146313333D01*
X278969642Y-146884761D02*
X279064880Y-146932380D01*
X279302976Y-146932380D01*
X279398214Y-146884761D01*
X279445833Y-146789523D01*
X279445833Y-146694285D01*
X279398214Y-146599047D01*
X279302976Y-146551428D01*
X279064880Y-146551428D01*
X278969642Y-146503809D01*
X278493452Y-146265714D02*
X278493452Y-147265714D01*
X278493452Y-146313333D02*
X278398214Y-146265714D01*
X278207738Y-146265714D01*
X278112500Y-146313333D01*
X278064880Y-146360952D01*
X278017261Y-146456190D01*
X278017261Y-146741904D01*
X278064880Y-146837142D01*
X278112500Y-146884761D01*
X278207738Y-146932380D01*
X278398214Y-146932380D01*
X278493452Y-146884761D01*
X276683928Y-146932380D02*
X276779166Y-146884761D01*
X276826785Y-146789523D01*
X276826785Y-145932380D01*
X275874404Y-146932380D02*
X275874404Y-146408571D01*
X275922023Y-146313333D01*
X276017261Y-146265714D01*
X276207738Y-146265714D01*
X276302976Y-146313333D01*
X275874404Y-146884761D02*
X275969642Y-146932380D01*
X276207738Y-146932380D01*
X276302976Y-146884761D01*
X276350595Y-146789523D01*
X276350595Y-146694285D01*
X276302976Y-146599047D01*
X276207738Y-146551428D01*
X275969642Y-146551428D01*
X275874404Y-146503809D01*
X275398214Y-146932380D02*
X275398214Y-145932380D01*
X275398214Y-146313333D02*
X275302976Y-146265714D01*
X275112500Y-146265714D01*
X275017261Y-146313333D01*
X274969642Y-146360952D01*
X274922023Y-146456190D01*
X274922023Y-146741904D01*
X274969642Y-146837142D01*
X275017261Y-146884761D01*
X275112500Y-146932380D01*
X275302976Y-146932380D01*
X275398214Y-146884761D01*
X274112500Y-146884761D02*
X274207738Y-146932380D01*
X274398214Y-146932380D01*
X274493452Y-146884761D01*
X274541071Y-146789523D01*
X274541071Y-146408571D01*
X274493452Y-146313333D01*
X274398214Y-146265714D01*
X274207738Y-146265714D01*
X274112500Y-146313333D01*
X274064880Y-146408571D01*
X274064880Y-146503809D01*
X274541071Y-146599047D01*
X273493452Y-146932380D02*
X273588690Y-146884761D01*
X273636309Y-146789523D01*
X273636309Y-145932380D01*
X273160119Y-146884761D02*
X273064880Y-146932380D01*
X272874404Y-146932380D01*
X272779166Y-146884761D01*
X272731547Y-146789523D01*
X272731547Y-146741904D01*
X272779166Y-146646666D01*
X272874404Y-146599047D01*
X273017261Y-146599047D01*
X273112500Y-146551428D01*
X273160119Y-146456190D01*
X273160119Y-146408571D01*
X273112500Y-146313333D01*
X273017261Y-146265714D01*
X272874404Y-146265714D01*
X272779166Y-146313333D01*
X271112500Y-146932380D02*
X271112500Y-146408571D01*
X271160119Y-146313333D01*
X271255357Y-146265714D01*
X271445833Y-146265714D01*
X271541071Y-146313333D01*
X271112500Y-146884761D02*
X271207738Y-146932380D01*
X271445833Y-146932380D01*
X271541071Y-146884761D01*
X271588690Y-146789523D01*
X271588690Y-146694285D01*
X271541071Y-146599047D01*
X271445833Y-146551428D01*
X271207738Y-146551428D01*
X271112500Y-146503809D01*
X270636309Y-146932380D02*
X270636309Y-146265714D01*
X270636309Y-146456190D02*
X270588690Y-146360952D01*
X270541071Y-146313333D01*
X270445833Y-146265714D01*
X270350595Y-146265714D01*
X269636309Y-146884761D02*
X269731547Y-146932380D01*
X269922023Y-146932380D01*
X270017261Y-146884761D01*
X270064880Y-146789523D01*
X270064880Y-146408571D01*
X270017261Y-146313333D01*
X269922023Y-146265714D01*
X269731547Y-146265714D01*
X269636309Y-146313333D01*
X269588690Y-146408571D01*
X269588690Y-146503809D01*
X270064880Y-146599047D01*
X267874404Y-146932380D02*
X268445833Y-146932380D01*
X268160119Y-146932380D02*
X268160119Y-145932380D01*
X268255357Y-146075238D01*
X268350595Y-146170476D01*
X268445833Y-146218095D01*
X267255357Y-145932380D02*
X267160119Y-145932380D01*
X267064880Y-145980000D01*
X267017261Y-146027619D01*
X266969642Y-146122857D01*
X266922023Y-146313333D01*
X266922023Y-146551428D01*
X266969642Y-146741904D01*
X267017261Y-146837142D01*
X267064880Y-146884761D01*
X267160119Y-146932380D01*
X267255357Y-146932380D01*
X267350595Y-146884761D01*
X267398214Y-146837142D01*
X267445833Y-146741904D01*
X267493452Y-146551428D01*
X267493452Y-146313333D01*
X267445833Y-146122857D01*
X267398214Y-146027619D01*
X267350595Y-145980000D01*
X267255357Y-145932380D01*
X266493452Y-146932380D02*
X266493452Y-146265714D01*
X266493452Y-146360952D02*
X266445833Y-146313333D01*
X266350595Y-146265714D01*
X266207738Y-146265714D01*
X266112500Y-146313333D01*
X266064880Y-146408571D01*
X266064880Y-146932380D01*
X266064880Y-146408571D02*
X266017261Y-146313333D01*
X265922023Y-146265714D01*
X265779166Y-146265714D01*
X265683928Y-146313333D01*
X265636309Y-146408571D01*
X265636309Y-146932380D01*
X265160119Y-146932380D02*
X265160119Y-146265714D01*
X265160119Y-146360952D02*
X265112500Y-146313333D01*
X265017261Y-146265714D01*
X264874404Y-146265714D01*
X264779166Y-146313333D01*
X264731547Y-146408571D01*
X264731547Y-146932380D01*
X264731547Y-146408571D02*
X264683928Y-146313333D01*
X264588690Y-146265714D01*
X264445833Y-146265714D01*
X264350595Y-146313333D01*
X264302976Y-146408571D01*
X264302976Y-146932380D01*
X263160119Y-146932380D02*
X262636309Y-146265714D01*
X263160119Y-146265714D02*
X262636309Y-146932380D01*
X260969642Y-146932380D02*
X261541071Y-146932380D01*
X261255357Y-146932380D02*
X261255357Y-145932380D01*
X261350595Y-146075238D01*
X261445833Y-146170476D01*
X261541071Y-146218095D01*
X260350595Y-145932380D02*
X260255357Y-145932380D01*
X260160119Y-145980000D01*
X260112500Y-146027619D01*
X260064880Y-146122857D01*
X260017261Y-146313333D01*
X260017261Y-146551428D01*
X260064880Y-146741904D01*
X260112500Y-146837142D01*
X260160119Y-146884761D01*
X260255357Y-146932380D01*
X260350595Y-146932380D01*
X260445833Y-146884761D01*
X260493452Y-146837142D01*
X260541071Y-146741904D01*
X260588690Y-146551428D01*
X260588690Y-146313333D01*
X260541071Y-146122857D01*
X260493452Y-146027619D01*
X260445833Y-145980000D01*
X260350595Y-145932380D01*
X259588690Y-146932380D02*
X259588690Y-146265714D01*
X259588690Y-146360952D02*
X259541071Y-146313333D01*
X259445833Y-146265714D01*
X259302976Y-146265714D01*
X259207738Y-146313333D01*
X259160119Y-146408571D01*
X259160119Y-146932380D01*
X259160119Y-146408571D02*
X259112500Y-146313333D01*
X259017261Y-146265714D01*
X258874404Y-146265714D01*
X258779166Y-146313333D01*
X258731547Y-146408571D01*
X258731547Y-146932380D01*
X258255357Y-146932380D02*
X258255357Y-146265714D01*
X258255357Y-146360952D02*
X258207738Y-146313333D01*
X258112500Y-146265714D01*
X257969642Y-146265714D01*
X257874404Y-146313333D01*
X257826785Y-146408571D01*
X257826785Y-146932380D01*
X257826785Y-146408571D02*
X257779166Y-146313333D01*
X257683928Y-146265714D01*
X257541071Y-146265714D01*
X257445833Y-146313333D01*
X257398214Y-146408571D01*
X257398214Y-146932380D01*
X282922023Y-148534761D02*
X282779166Y-148582380D01*
X282541071Y-148582380D01*
X282445833Y-148534761D01*
X282398214Y-148487142D01*
X282350595Y-148391904D01*
X282350595Y-148296666D01*
X282398214Y-148201428D01*
X282445833Y-148153809D01*
X282541071Y-148106190D01*
X282731547Y-148058571D01*
X282826785Y-148010952D01*
X282874404Y-147963333D01*
X282922023Y-147868095D01*
X282922023Y-147772857D01*
X282874404Y-147677619D01*
X282826785Y-147630000D01*
X282731547Y-147582380D01*
X282493452Y-147582380D01*
X282350595Y-147630000D01*
X281541071Y-148534761D02*
X281636309Y-148582380D01*
X281826785Y-148582380D01*
X281922023Y-148534761D01*
X281969642Y-148439523D01*
X281969642Y-148058571D01*
X281922023Y-147963333D01*
X281826785Y-147915714D01*
X281636309Y-147915714D01*
X281541071Y-147963333D01*
X281493452Y-148058571D01*
X281493452Y-148153809D01*
X281969642Y-148249047D01*
X280683928Y-148534761D02*
X280779166Y-148582380D01*
X280969642Y-148582380D01*
X281064880Y-148534761D01*
X281112500Y-148439523D01*
X281112500Y-148058571D01*
X281064880Y-147963333D01*
X280969642Y-147915714D01*
X280779166Y-147915714D01*
X280683928Y-147963333D01*
X280636309Y-148058571D01*
X280636309Y-148153809D01*
X281112500Y-148249047D01*
X279017261Y-148582380D02*
X279017261Y-147582380D01*
X279017261Y-148534761D02*
X279112500Y-148582380D01*
X279302976Y-148582380D01*
X279398214Y-148534761D01*
X279445833Y-148487142D01*
X279493452Y-148391904D01*
X279493452Y-148106190D01*
X279445833Y-148010952D01*
X279398214Y-147963333D01*
X279302976Y-147915714D01*
X279112500Y-147915714D01*
X279017261Y-147963333D01*
X278112500Y-148582380D02*
X278112500Y-148058571D01*
X278160119Y-147963333D01*
X278255357Y-147915714D01*
X278445833Y-147915714D01*
X278541071Y-147963333D01*
X278112500Y-148534761D02*
X278207738Y-148582380D01*
X278445833Y-148582380D01*
X278541071Y-148534761D01*
X278588690Y-148439523D01*
X278588690Y-148344285D01*
X278541071Y-148249047D01*
X278445833Y-148201428D01*
X278207738Y-148201428D01*
X278112500Y-148153809D01*
X277779166Y-147915714D02*
X277398214Y-147915714D01*
X277636309Y-147582380D02*
X277636309Y-148439523D01*
X277588690Y-148534761D01*
X277493452Y-148582380D01*
X277398214Y-148582380D01*
X276636309Y-148582380D02*
X276636309Y-148058571D01*
X276683928Y-147963333D01*
X276779166Y-147915714D01*
X276969642Y-147915714D01*
X277064880Y-147963333D01*
X276636309Y-148534761D02*
X276731547Y-148582380D01*
X276969642Y-148582380D01*
X277064880Y-148534761D01*
X277112500Y-148439523D01*
X277112500Y-148344285D01*
X277064880Y-148249047D01*
X276969642Y-148201428D01*
X276731547Y-148201428D01*
X276636309Y-148153809D01*
X276207738Y-148534761D02*
X276112500Y-148582380D01*
X275922023Y-148582380D01*
X275826785Y-148534761D01*
X275779166Y-148439523D01*
X275779166Y-148391904D01*
X275826785Y-148296666D01*
X275922023Y-148249047D01*
X276064880Y-148249047D01*
X276160119Y-148201428D01*
X276207738Y-148106190D01*
X276207738Y-148058571D01*
X276160119Y-147963333D01*
X276064880Y-147915714D01*
X275922023Y-147915714D01*
X275826785Y-147963333D01*
X275350595Y-148582380D02*
X275350595Y-147582380D01*
X274922023Y-148582380D02*
X274922023Y-148058571D01*
X274969642Y-147963333D01*
X275064880Y-147915714D01*
X275207738Y-147915714D01*
X275302976Y-147963333D01*
X275350595Y-148010952D01*
X274064880Y-148534761D02*
X274160119Y-148582380D01*
X274350595Y-148582380D01*
X274445833Y-148534761D01*
X274493452Y-148439523D01*
X274493452Y-148058571D01*
X274445833Y-147963333D01*
X274350595Y-147915714D01*
X274160119Y-147915714D01*
X274064880Y-147963333D01*
X274017261Y-148058571D01*
X274017261Y-148153809D01*
X274493452Y-148249047D01*
X273207738Y-148534761D02*
X273302976Y-148582380D01*
X273493452Y-148582380D01*
X273588690Y-148534761D01*
X273636309Y-148439523D01*
X273636309Y-148058571D01*
X273588690Y-147963333D01*
X273493452Y-147915714D01*
X273302976Y-147915714D01*
X273207738Y-147963333D01*
X273160119Y-148058571D01*
X273160119Y-148153809D01*
X273636309Y-148249047D01*
X272874404Y-147915714D02*
X272493452Y-147915714D01*
X272731547Y-147582380D02*
X272731547Y-148439523D01*
X272683928Y-148534761D01*
X272588690Y-148582380D01*
X272493452Y-148582380D01*
X271541071Y-147915714D02*
X271160119Y-147915714D01*
X271398214Y-148582380D02*
X271398214Y-147725238D01*
X271350595Y-147630000D01*
X271255357Y-147582380D01*
X271160119Y-147582380D01*
X270683928Y-148582380D02*
X270779166Y-148534761D01*
X270826785Y-148487142D01*
X270874404Y-148391904D01*
X270874404Y-148106190D01*
X270826785Y-148010952D01*
X270779166Y-147963333D01*
X270683928Y-147915714D01*
X270541071Y-147915714D01*
X270445833Y-147963333D01*
X270398214Y-148010952D01*
X270350595Y-148106190D01*
X270350595Y-148391904D01*
X270398214Y-148487142D01*
X270445833Y-148534761D01*
X270541071Y-148582380D01*
X270683928Y-148582380D01*
X269922023Y-148582380D02*
X269922023Y-147915714D01*
X269922023Y-148106190D02*
X269874404Y-148010952D01*
X269826785Y-147963333D01*
X269731547Y-147915714D01*
X269636309Y-147915714D01*
X268112500Y-148534761D02*
X268207738Y-148582380D01*
X268398214Y-148582380D01*
X268493452Y-148534761D01*
X268541071Y-148487142D01*
X268588690Y-148391904D01*
X268588690Y-148106190D01*
X268541071Y-148010952D01*
X268493452Y-147963333D01*
X268398214Y-147915714D01*
X268207738Y-147915714D01*
X268112500Y-147963333D01*
X267541071Y-148582380D02*
X267636309Y-148534761D01*
X267683928Y-148487142D01*
X267731547Y-148391904D01*
X267731547Y-148106190D01*
X267683928Y-148010952D01*
X267636309Y-147963333D01*
X267541071Y-147915714D01*
X267398214Y-147915714D01*
X267302976Y-147963333D01*
X267255357Y-148010952D01*
X267207738Y-148106190D01*
X267207738Y-148391904D01*
X267255357Y-148487142D01*
X267302976Y-148534761D01*
X267398214Y-148582380D01*
X267541071Y-148582380D01*
X266779166Y-148582380D02*
X266779166Y-147915714D01*
X266779166Y-148106190D02*
X266731547Y-148010952D01*
X266683928Y-147963333D01*
X266588690Y-147915714D01*
X266493452Y-147915714D01*
X266160119Y-148582380D02*
X266160119Y-147915714D01*
X266160119Y-148106190D02*
X266112500Y-148010952D01*
X266064880Y-147963333D01*
X265969642Y-147915714D01*
X265874404Y-147915714D01*
X265160119Y-148534761D02*
X265255357Y-148582380D01*
X265445833Y-148582380D01*
X265541071Y-148534761D01*
X265588690Y-148439523D01*
X265588690Y-148058571D01*
X265541071Y-147963333D01*
X265445833Y-147915714D01*
X265255357Y-147915714D01*
X265160119Y-147963333D01*
X265112500Y-148058571D01*
X265112500Y-148153809D01*
X265588690Y-148249047D01*
X264255357Y-148534761D02*
X264350595Y-148582380D01*
X264541071Y-148582380D01*
X264636309Y-148534761D01*
X264683928Y-148487142D01*
X264731547Y-148391904D01*
X264731547Y-148106190D01*
X264683928Y-148010952D01*
X264636309Y-147963333D01*
X264541071Y-147915714D01*
X264350595Y-147915714D01*
X264255357Y-147963333D01*
X263969642Y-147915714D02*
X263588690Y-147915714D01*
X263826785Y-147582380D02*
X263826785Y-148439523D01*
X263779166Y-148534761D01*
X263683928Y-148582380D01*
X263588690Y-148582380D01*
X262350595Y-148582380D02*
X262445833Y-148534761D01*
X262493452Y-148487142D01*
X262541071Y-148391904D01*
X262541071Y-148106190D01*
X262493452Y-148010952D01*
X262445833Y-147963333D01*
X262350595Y-147915714D01*
X262207738Y-147915714D01*
X262112500Y-147963333D01*
X262064880Y-148010952D01*
X262017261Y-148106190D01*
X262017261Y-148391904D01*
X262064880Y-148487142D01*
X262112500Y-148534761D01*
X262207738Y-148582380D01*
X262350595Y-148582380D01*
X261588690Y-148582380D02*
X261588690Y-147915714D01*
X261588690Y-148106190D02*
X261541071Y-148010952D01*
X261493452Y-147963333D01*
X261398214Y-147915714D01*
X261302976Y-147915714D01*
X260969642Y-148582380D02*
X260969642Y-147915714D01*
X260969642Y-147582380D02*
X261017261Y-147630000D01*
X260969642Y-147677619D01*
X260922023Y-147630000D01*
X260969642Y-147582380D01*
X260969642Y-147677619D01*
X260112500Y-148534761D02*
X260207738Y-148582380D01*
X260398214Y-148582380D01*
X260493452Y-148534761D01*
X260541071Y-148439523D01*
X260541071Y-148058571D01*
X260493452Y-147963333D01*
X260398214Y-147915714D01*
X260207738Y-147915714D01*
X260112500Y-147963333D01*
X260064880Y-148058571D01*
X260064880Y-148153809D01*
X260541071Y-148249047D01*
X259636309Y-147915714D02*
X259636309Y-148582380D01*
X259636309Y-148010952D02*
X259588690Y-147963333D01*
X259493452Y-147915714D01*
X259350595Y-147915714D01*
X259255357Y-147963333D01*
X259207738Y-148058571D01*
X259207738Y-148582380D01*
X258874404Y-147915714D02*
X258493452Y-147915714D01*
X258731547Y-147582380D02*
X258731547Y-148439523D01*
X258683928Y-148534761D01*
X258588690Y-148582380D01*
X258493452Y-148582380D01*
X257731547Y-148582380D02*
X257731547Y-148058571D01*
X257779166Y-147963333D01*
X257874404Y-147915714D01*
X258064880Y-147915714D01*
X258160119Y-147963333D01*
X257731547Y-148534761D02*
X257826785Y-148582380D01*
X258064880Y-148582380D01*
X258160119Y-148534761D01*
X258207738Y-148439523D01*
X258207738Y-148344285D01*
X258160119Y-148249047D01*
X258064880Y-148201428D01*
X257826785Y-148201428D01*
X257731547Y-148153809D01*
X257398214Y-147915714D02*
X257017261Y-147915714D01*
X257255357Y-147582380D02*
X257255357Y-148439523D01*
X257207738Y-148534761D01*
X257112500Y-148582380D01*
X257017261Y-148582380D01*
X256683928Y-148582380D02*
X256683928Y-147915714D01*
X256683928Y-147582380D02*
X256731547Y-147630000D01*
X256683928Y-147677619D01*
X256636309Y-147630000D01*
X256683928Y-147582380D01*
X256683928Y-147677619D01*
X256064880Y-148582380D02*
X256160119Y-148534761D01*
X256207738Y-148487142D01*
X256255357Y-148391904D01*
X256255357Y-148106190D01*
X256207738Y-148010952D01*
X256160119Y-147963333D01*
X256064880Y-147915714D01*
X255922023Y-147915714D01*
X255826785Y-147963333D01*
X255779166Y-148010952D01*
X255731547Y-148106190D01*
X255731547Y-148391904D01*
X255779166Y-148487142D01*
X255826785Y-148534761D01*
X255922023Y-148582380D01*
X256064880Y-148582380D01*
X255302976Y-147915714D02*
X255302976Y-148582380D01*
X255302976Y-148010952D02*
X255255357Y-147963333D01*
X255160119Y-147915714D01*
X255017261Y-147915714D01*
X254922023Y-147963333D01*
X254874404Y-148058571D01*
X254874404Y-148582380D01*
X253731547Y-147915714D02*
X253541071Y-148582380D01*
X253350595Y-148106190D01*
X253160119Y-148582380D01*
X252969642Y-147915714D01*
X252588690Y-148582380D02*
X252588690Y-147582380D01*
X252160119Y-148582380D02*
X252160119Y-148058571D01*
X252207738Y-147963333D01*
X252302976Y-147915714D01*
X252445833Y-147915714D01*
X252541071Y-147963333D01*
X252588690Y-148010952D01*
X251302976Y-148534761D02*
X251398214Y-148582380D01*
X251588690Y-148582380D01*
X251683928Y-148534761D01*
X251731547Y-148439523D01*
X251731547Y-148058571D01*
X251683928Y-147963333D01*
X251588690Y-147915714D01*
X251398214Y-147915714D01*
X251302976Y-147963333D01*
X251255357Y-148058571D01*
X251255357Y-148153809D01*
X251731547Y-148249047D01*
X250826785Y-147915714D02*
X250826785Y-148582380D01*
X250826785Y-148010952D02*
X250779166Y-147963333D01*
X250683928Y-147915714D01*
X250541071Y-147915714D01*
X250445833Y-147963333D01*
X250398214Y-148058571D01*
X250398214Y-148582380D01*
X249160119Y-148582380D02*
X249160119Y-147915714D01*
X249160119Y-148010952D02*
X249112500Y-147963333D01*
X249017261Y-147915714D01*
X248874404Y-147915714D01*
X248779166Y-147963333D01*
X248731547Y-148058571D01*
X248731547Y-148582380D01*
X248731547Y-148058571D02*
X248683928Y-147963333D01*
X248588690Y-147915714D01*
X248445833Y-147915714D01*
X248350595Y-147963333D01*
X248302976Y-148058571D01*
X248302976Y-148582380D01*
X247683928Y-148582380D02*
X247779166Y-148534761D01*
X247826785Y-148487142D01*
X247874404Y-148391904D01*
X247874404Y-148106190D01*
X247826785Y-148010952D01*
X247779166Y-147963333D01*
X247683928Y-147915714D01*
X247541071Y-147915714D01*
X247445833Y-147963333D01*
X247398214Y-148010952D01*
X247350595Y-148106190D01*
X247350595Y-148391904D01*
X247398214Y-148487142D01*
X247445833Y-148534761D01*
X247541071Y-148582380D01*
X247683928Y-148582380D01*
X246493452Y-147915714D02*
X246493452Y-148582380D01*
X246922023Y-147915714D02*
X246922023Y-148439523D01*
X246874404Y-148534761D01*
X246779166Y-148582380D01*
X246636309Y-148582380D01*
X246541071Y-148534761D01*
X246493452Y-148487142D01*
X246017261Y-147915714D02*
X246017261Y-148582380D01*
X246017261Y-148010952D02*
X245969642Y-147963333D01*
X245874404Y-147915714D01*
X245731547Y-147915714D01*
X245636309Y-147963333D01*
X245588690Y-148058571D01*
X245588690Y-148582380D01*
X245255357Y-147915714D02*
X244874404Y-147915714D01*
X245112500Y-147582380D02*
X245112500Y-148439523D01*
X245064880Y-148534761D01*
X244969642Y-148582380D01*
X244874404Y-148582380D01*
X244541071Y-148582380D02*
X244541071Y-147915714D01*
X244541071Y-147582380D02*
X244588690Y-147630000D01*
X244541071Y-147677619D01*
X244493452Y-147630000D01*
X244541071Y-147582380D01*
X244541071Y-147677619D01*
X244064880Y-147915714D02*
X244064880Y-148582380D01*
X244064880Y-148010952D02*
X244017261Y-147963333D01*
X243922023Y-147915714D01*
X243779166Y-147915714D01*
X243683928Y-147963333D01*
X243636309Y-148058571D01*
X243636309Y-148582380D01*
X242731547Y-147915714D02*
X242731547Y-148725238D01*
X242779166Y-148820476D01*
X242826785Y-148868095D01*
X242922023Y-148915714D01*
X243064880Y-148915714D01*
X243160119Y-148868095D01*
X242731547Y-148534761D02*
X242826785Y-148582380D01*
X243017261Y-148582380D01*
X243112500Y-148534761D01*
X243160119Y-148487142D01*
X243207738Y-148391904D01*
X243207738Y-148106190D01*
X243160119Y-148010952D01*
X243112500Y-147963333D01*
X243017261Y-147915714D01*
X242826785Y-147915714D01*
X242731547Y-147963333D01*
X241493452Y-148582380D02*
X241493452Y-147582380D01*
X241398214Y-148201428D02*
X241112500Y-148582380D01*
X241112500Y-147915714D02*
X241493452Y-148296666D01*
X240302976Y-148534761D02*
X240398214Y-148582380D01*
X240588690Y-148582380D01*
X240683928Y-148534761D01*
X240731547Y-148439523D01*
X240731547Y-148058571D01*
X240683928Y-147963333D01*
X240588690Y-147915714D01*
X240398214Y-147915714D01*
X240302976Y-147963333D01*
X240255357Y-148058571D01*
X240255357Y-148153809D01*
X240731547Y-148249047D01*
X239922023Y-147915714D02*
X239683928Y-148582380D01*
X239445833Y-147915714D02*
X239683928Y-148582380D01*
X239779166Y-148820476D01*
X239826785Y-148868095D01*
X239922023Y-148915714D01*
X239207738Y-147915714D02*
X238826785Y-147915714D01*
X239064880Y-147582380D02*
X239064880Y-148439523D01*
X239017261Y-148534761D01*
X238922023Y-148582380D01*
X238826785Y-148582380D01*
X238350595Y-148582380D02*
X238445833Y-148534761D01*
X238493452Y-148487142D01*
X238541071Y-148391904D01*
X238541071Y-148106190D01*
X238493452Y-148010952D01*
X238445833Y-147963333D01*
X238350595Y-147915714D01*
X238207738Y-147915714D01*
X238112500Y-147963333D01*
X238064880Y-148010952D01*
X238017261Y-148106190D01*
X238017261Y-148391904D01*
X238064880Y-148487142D01*
X238112500Y-148534761D01*
X238207738Y-148582380D01*
X238350595Y-148582380D01*
X237588690Y-147915714D02*
X237588690Y-148915714D01*
X237588690Y-147963333D02*
X237493452Y-147915714D01*
X237302976Y-147915714D01*
X237207738Y-147963333D01*
X237160119Y-148010952D01*
X237112500Y-148106190D01*
X237112500Y-148391904D01*
X237160119Y-148487142D01*
X237207738Y-148534761D01*
X237302976Y-148582380D01*
X237493452Y-148582380D01*
X237588690Y-148534761D01*
X236731547Y-148534761D02*
X236636309Y-148582380D01*
X236445833Y-148582380D01*
X236350595Y-148534761D01*
X236302976Y-148439523D01*
X236302976Y-148391904D01*
X236350595Y-148296666D01*
X236445833Y-148249047D01*
X236588690Y-148249047D01*
X236683928Y-148201428D01*
X236731547Y-148106190D01*
X236731547Y-148058571D01*
X236683928Y-147963333D01*
X236588690Y-147915714D01*
X236445833Y-147915714D01*
X236350595Y-147963333D01*
X235255357Y-147915714D02*
X234874404Y-147915714D01*
X235112500Y-147582380D02*
X235112500Y-148439523D01*
X235064880Y-148534761D01*
X234969642Y-148582380D01*
X234874404Y-148582380D01*
X234398214Y-148582380D02*
X234493452Y-148534761D01*
X234541071Y-148487142D01*
X234588690Y-148391904D01*
X234588690Y-148106190D01*
X234541071Y-148010952D01*
X234493452Y-147963333D01*
X234398214Y-147915714D01*
X234255357Y-147915714D01*
X234160119Y-147963333D01*
X234112500Y-148010952D01*
X234064880Y-148106190D01*
X234064880Y-148391904D01*
X234112500Y-148487142D01*
X234160119Y-148534761D01*
X234255357Y-148582380D01*
X234398214Y-148582380D01*
X232922023Y-148534761D02*
X232826785Y-148582380D01*
X232636309Y-148582380D01*
X232541071Y-148534761D01*
X232493452Y-148439523D01*
X232493452Y-148391904D01*
X232541071Y-148296666D01*
X232636309Y-148249047D01*
X232779166Y-148249047D01*
X232874404Y-148201428D01*
X232922023Y-148106190D01*
X232922023Y-148058571D01*
X232874404Y-147963333D01*
X232779166Y-147915714D01*
X232636309Y-147915714D01*
X232541071Y-147963333D01*
X232160119Y-147915714D02*
X231969642Y-148582380D01*
X231779166Y-148106190D01*
X231588690Y-148582380D01*
X231398214Y-147915714D01*
X231017261Y-148582380D02*
X231017261Y-147915714D01*
X231017261Y-147582380D02*
X231064880Y-147630000D01*
X231017261Y-147677619D01*
X230969642Y-147630000D01*
X231017261Y-147582380D01*
X231017261Y-147677619D01*
X230683928Y-147915714D02*
X230302976Y-147915714D01*
X230541071Y-147582380D02*
X230541071Y-148439523D01*
X230493452Y-148534761D01*
X230398214Y-148582380D01*
X230302976Y-148582380D01*
X229541071Y-148534761D02*
X229636309Y-148582380D01*
X229826785Y-148582380D01*
X229922023Y-148534761D01*
X229969642Y-148487142D01*
X230017261Y-148391904D01*
X230017261Y-148106190D01*
X229969642Y-148010952D01*
X229922023Y-147963333D01*
X229826785Y-147915714D01*
X229636309Y-147915714D01*
X229541071Y-147963333D01*
X229112500Y-148582380D02*
X229112500Y-147582380D01*
X228683928Y-148582380D02*
X228683928Y-148058571D01*
X228731547Y-147963333D01*
X228826785Y-147915714D01*
X228969642Y-147915714D01*
X229064880Y-147963333D01*
X229112500Y-148010952D01*
X227826785Y-148534761D02*
X227922023Y-148582380D01*
X228112500Y-148582380D01*
X228207738Y-148534761D01*
X228255357Y-148439523D01*
X228255357Y-148058571D01*
X228207738Y-147963333D01*
X228112500Y-147915714D01*
X227922023Y-147915714D01*
X227826785Y-147963333D01*
X227779166Y-148058571D01*
X227779166Y-148153809D01*
X228255357Y-148249047D01*
X227398214Y-148534761D02*
X227302976Y-148582380D01*
X227112500Y-148582380D01*
X227017261Y-148534761D01*
X226969642Y-148439523D01*
X226969642Y-148391904D01*
X227017261Y-148296666D01*
X227112500Y-148249047D01*
X227255357Y-148249047D01*
X227350595Y-148201428D01*
X227398214Y-148106190D01*
X227398214Y-148058571D01*
X227350595Y-147963333D01*
X227255357Y-147915714D01*
X227112500Y-147915714D01*
X227017261Y-147963333D01*
X226541071Y-148487142D02*
X226493452Y-148534761D01*
X226541071Y-148582380D01*
X226588690Y-148534761D01*
X226541071Y-148487142D01*
X226541071Y-148582380D01*
X76610595Y-145867380D02*
X77182023Y-145867380D01*
X76896309Y-145867380D02*
X76896309Y-144867380D01*
X76991547Y-145010238D01*
X77086785Y-145105476D01*
X77182023Y-145153095D01*
X75991547Y-144867380D02*
X75896309Y-144867380D01*
X75801071Y-144915000D01*
X75753452Y-144962619D01*
X75705833Y-145057857D01*
X75658214Y-145248333D01*
X75658214Y-145486428D01*
X75705833Y-145676904D01*
X75753452Y-145772142D01*
X75801071Y-145819761D01*
X75896309Y-145867380D01*
X75991547Y-145867380D01*
X76086785Y-145819761D01*
X76134404Y-145772142D01*
X76182023Y-145676904D01*
X76229642Y-145486428D01*
X76229642Y-145248333D01*
X76182023Y-145057857D01*
X76134404Y-144962619D01*
X76086785Y-144915000D01*
X75991547Y-144867380D01*
X75975595Y-123007380D02*
X76547023Y-123007380D01*
X76261309Y-123007380D02*
X76261309Y-122007380D01*
X76356547Y-122150238D01*
X76451785Y-122245476D01*
X76547023Y-122293095D01*
X54516785Y-96702619D02*
X54469166Y-96655000D01*
X54373928Y-96607380D01*
X54135833Y-96607380D01*
X54040595Y-96655000D01*
X53992976Y-96702619D01*
X53945357Y-96797857D01*
X53945357Y-96893095D01*
X53992976Y-97035952D01*
X54564404Y-97607380D01*
X53945357Y-97607380D01*
X53326309Y-96607380D02*
X53231071Y-96607380D01*
X53135833Y-96655000D01*
X53088214Y-96702619D01*
X53040595Y-96797857D01*
X52992976Y-96988333D01*
X52992976Y-97226428D01*
X53040595Y-97416904D01*
X53088214Y-97512142D01*
X53135833Y-97559761D01*
X53231071Y-97607380D01*
X53326309Y-97607380D01*
X53421547Y-97559761D01*
X53469166Y-97512142D01*
X53516785Y-97416904D01*
X53564404Y-97226428D01*
X53564404Y-96988333D01*
X53516785Y-96797857D01*
X53469166Y-96702619D01*
X53421547Y-96655000D01*
X53326309Y-96607380D01*
X53945357Y-110307380D02*
X54516785Y-110307380D01*
X54231071Y-110307380D02*
X54231071Y-109307380D01*
X54326309Y-109450238D01*
X54421547Y-109545476D01*
X54516785Y-109593095D01*
X53040595Y-109307380D02*
X53516785Y-109307380D01*
X53564404Y-109783571D01*
X53516785Y-109735952D01*
X53421547Y-109688333D01*
X53183452Y-109688333D01*
X53088214Y-109735952D01*
X53040595Y-109783571D01*
X52992976Y-109878809D01*
X52992976Y-110116904D01*
X53040595Y-110212142D01*
X53088214Y-110259761D01*
X53183452Y-110307380D01*
X53421547Y-110307380D01*
X53516785Y-110259761D01*
X53564404Y-110212142D01*
X53945357Y-123007380D02*
X54516785Y-123007380D01*
X54231071Y-123007380D02*
X54231071Y-122007380D01*
X54326309Y-122150238D01*
X54421547Y-122245476D01*
X54516785Y-122293095D01*
X53326309Y-122007380D02*
X53231071Y-122007380D01*
X53135833Y-122055000D01*
X53088214Y-122102619D01*
X53040595Y-122197857D01*
X52992976Y-122388333D01*
X52992976Y-122626428D01*
X53040595Y-122816904D01*
X53088214Y-122912142D01*
X53135833Y-122959761D01*
X53231071Y-123007380D01*
X53326309Y-123007380D01*
X53421547Y-122959761D01*
X53469166Y-122912142D01*
X53516785Y-122816904D01*
X53564404Y-122626428D01*
X53564404Y-122388333D01*
X53516785Y-122197857D01*
X53469166Y-122102619D01*
X53421547Y-122055000D01*
X53326309Y-122007380D01*
X53675595Y-134707380D02*
X54151785Y-134707380D01*
X54199404Y-135183571D01*
X54151785Y-135135952D01*
X54056547Y-135088333D01*
X53818452Y-135088333D01*
X53723214Y-135135952D01*
X53675595Y-135183571D01*
X53627976Y-135278809D01*
X53627976Y-135516904D01*
X53675595Y-135612142D01*
X53723214Y-135659761D01*
X53818452Y-135707380D01*
X54056547Y-135707380D01*
X54151785Y-135659761D01*
X54199404Y-135612142D01*
X53627976Y-145232380D02*
X54199404Y-145232380D01*
X53913690Y-145232380D02*
X53913690Y-144232380D01*
X54008928Y-144375238D01*
X54104166Y-144470476D01*
X54199404Y-144518095D01*
X66166904Y-144327619D02*
X66119285Y-144280000D01*
X66024047Y-144232380D01*
X65785952Y-144232380D01*
X65690714Y-144280000D01*
X65643095Y-144327619D01*
X65595476Y-144422857D01*
X65595476Y-144518095D01*
X65643095Y-144660952D01*
X66214523Y-145232380D01*
X65595476Y-145232380D01*
X64976428Y-144232380D02*
X64881190Y-144232380D01*
X64785952Y-144280000D01*
X64738333Y-144327619D01*
X64690714Y-144422857D01*
X64643095Y-144613333D01*
X64643095Y-144851428D01*
X64690714Y-145041904D01*
X64738333Y-145137142D01*
X64785952Y-145184761D01*
X64881190Y-145232380D01*
X64976428Y-145232380D01*
X65071666Y-145184761D01*
X65119285Y-145137142D01*
X65166904Y-145041904D01*
X65214523Y-144851428D01*
X65214523Y-144613333D01*
X65166904Y-144422857D01*
X65119285Y-144327619D01*
X65071666Y-144280000D01*
X64976428Y-144232380D01*
X65595476Y-123007380D02*
X66166904Y-123007380D01*
X65881190Y-123007380D02*
X65881190Y-122007380D01*
X65976428Y-122150238D01*
X66071666Y-122245476D01*
X66166904Y-122293095D01*
X64643095Y-123007380D02*
X65214523Y-123007380D01*
X64928809Y-123007380D02*
X64928809Y-122007380D01*
X65024047Y-122150238D01*
X65119285Y-122245476D01*
X65214523Y-122293095D01*
X64164595Y-97607380D02*
X64736023Y-97607380D01*
X64450309Y-97607380D02*
X64450309Y-96607380D01*
X64545547Y-96750238D01*
X64640785Y-96845476D01*
X64736023Y-96893095D01*
D11*
G04 #@! TO.C,J6*
X55439000Y-95571000D02*
X58099000Y-95571000D01*
X55439000Y-143891000D02*
X55439000Y-95571000D01*
X58099000Y-143891000D02*
X58099000Y-95571000D01*
X55439000Y-143891000D02*
X58099000Y-143891000D01*
X55439000Y-145161000D02*
X55439000Y-146491000D01*
X55439000Y-146491000D02*
X56769000Y-146491000D01*
G04 #@! TO.C,J3*
X74814000Y-146491000D02*
X72154000Y-146491000D01*
X74814000Y-123571000D02*
X74814000Y-146491000D01*
X72154000Y-123571000D02*
X72154000Y-146491000D01*
X74814000Y-123571000D02*
X72154000Y-123571000D01*
X74814000Y-122301000D02*
X74814000Y-120971000D01*
X74814000Y-120971000D02*
X73484000Y-120971000D01*
G04 #@! TO.C,J2*
X70164000Y-146491000D02*
X67504000Y-146491000D01*
X70164000Y-123571000D02*
X70164000Y-146491000D01*
X67504000Y-123571000D02*
X67504000Y-146491000D01*
X70164000Y-123571000D02*
X67504000Y-123571000D01*
X70164000Y-122301000D02*
X70164000Y-120971000D01*
X70164000Y-120971000D02*
X68834000Y-120971000D01*
G04 #@! TO.C,J1*
X63179000Y-95444000D02*
X61849000Y-95444000D01*
X63179000Y-96774000D02*
X63179000Y-95444000D01*
X63179000Y-98044000D02*
X60519000Y-98044000D01*
X60519000Y-98044000D02*
X60519000Y-146364000D01*
X63179000Y-98044000D02*
X63179000Y-146364000D01*
X63179000Y-146364000D02*
X60519000Y-146364000D01*
G04 #@! TO.C,J6*
D10*
X57102333Y-146943380D02*
X57102333Y-147657666D01*
X57149952Y-147800523D01*
X57245190Y-147895761D01*
X57388047Y-147943380D01*
X57483285Y-147943380D01*
X56197571Y-146943380D02*
X56388047Y-146943380D01*
X56483285Y-146991000D01*
X56530904Y-147038619D01*
X56626142Y-147181476D01*
X56673761Y-147371952D01*
X56673761Y-147752904D01*
X56626142Y-147848142D01*
X56578523Y-147895761D01*
X56483285Y-147943380D01*
X56292809Y-147943380D01*
X56197571Y-147895761D01*
X56149952Y-147848142D01*
X56102333Y-147752904D01*
X56102333Y-147514809D01*
X56149952Y-147419571D01*
X56197571Y-147371952D01*
X56292809Y-147324333D01*
X56483285Y-147324333D01*
X56578523Y-147371952D01*
X56626142Y-147419571D01*
X56673761Y-147514809D01*
X54332142Y-102655952D02*
X54379761Y-102608333D01*
X54427380Y-102465476D01*
X54427380Y-102370238D01*
X54379761Y-102227380D01*
X54284523Y-102132142D01*
X54189285Y-102084523D01*
X53998809Y-102036904D01*
X53855952Y-102036904D01*
X53665476Y-102084523D01*
X53570238Y-102132142D01*
X53475000Y-102227380D01*
X53427380Y-102370238D01*
X53427380Y-102465476D01*
X53475000Y-102608333D01*
X53522619Y-102655952D01*
X54427380Y-103084523D02*
X53427380Y-103084523D01*
X53427380Y-103465476D01*
X53475000Y-103560714D01*
X53522619Y-103608333D01*
X53617857Y-103655952D01*
X53760714Y-103655952D01*
X53855952Y-103608333D01*
X53903571Y-103560714D01*
X53951190Y-103465476D01*
X53951190Y-103084523D01*
X54332142Y-104655952D02*
X54379761Y-104608333D01*
X54427380Y-104465476D01*
X54427380Y-104370238D01*
X54379761Y-104227380D01*
X54284523Y-104132142D01*
X54189285Y-104084523D01*
X53998809Y-104036904D01*
X53855952Y-104036904D01*
X53665476Y-104084523D01*
X53570238Y-104132142D01*
X53475000Y-104227380D01*
X53427380Y-104370238D01*
X53427380Y-104465476D01*
X53475000Y-104608333D01*
X53522619Y-104655952D01*
X53427380Y-105513095D02*
X53427380Y-105322619D01*
X53475000Y-105227380D01*
X53522619Y-105179761D01*
X53665476Y-105084523D01*
X53855952Y-105036904D01*
X54236904Y-105036904D01*
X54332142Y-105084523D01*
X54379761Y-105132142D01*
X54427380Y-105227380D01*
X54427380Y-105417857D01*
X54379761Y-105513095D01*
X54332142Y-105560714D01*
X54236904Y-105608333D01*
X53998809Y-105608333D01*
X53903571Y-105560714D01*
X53855952Y-105513095D01*
X53808333Y-105417857D01*
X53808333Y-105227380D01*
X53855952Y-105132142D01*
X53903571Y-105084523D01*
X53998809Y-105036904D01*
X53427380Y-106465476D02*
X53427380Y-106275000D01*
X53475000Y-106179761D01*
X53522619Y-106132142D01*
X53665476Y-106036904D01*
X53855952Y-105989285D01*
X54236904Y-105989285D01*
X54332142Y-106036904D01*
X54379761Y-106084523D01*
X54427380Y-106179761D01*
X54427380Y-106370238D01*
X54379761Y-106465476D01*
X54332142Y-106513095D01*
X54236904Y-106560714D01*
X53998809Y-106560714D01*
X53903571Y-106513095D01*
X53855952Y-106465476D01*
X53808333Y-106370238D01*
X53808333Y-106179761D01*
X53855952Y-106084523D01*
X53903571Y-106036904D01*
X53998809Y-105989285D01*
X53760714Y-107417857D02*
X54427380Y-107417857D01*
X53379761Y-107179761D02*
X54094047Y-106941666D01*
X54094047Y-107560714D01*
G04 #@! TO.C,J3*
X73817333Y-119423380D02*
X73817333Y-120137666D01*
X73864952Y-120280523D01*
X73960190Y-120375761D01*
X74103047Y-120423380D01*
X74198285Y-120423380D01*
X73436380Y-119423380D02*
X72817333Y-119423380D01*
X73150666Y-119804333D01*
X73007809Y-119804333D01*
X72912571Y-119851952D01*
X72864952Y-119899571D01*
X72817333Y-119994809D01*
X72817333Y-120232904D01*
X72864952Y-120328142D01*
X72912571Y-120375761D01*
X73007809Y-120423380D01*
X73293523Y-120423380D01*
X73388761Y-120375761D01*
X73436380Y-120328142D01*
X76557142Y-125627857D02*
X76604761Y-125580238D01*
X76652380Y-125437380D01*
X76652380Y-125342142D01*
X76604761Y-125199285D01*
X76509523Y-125104047D01*
X76414285Y-125056428D01*
X76223809Y-125008809D01*
X76080952Y-125008809D01*
X75890476Y-125056428D01*
X75795238Y-125104047D01*
X75700000Y-125199285D01*
X75652380Y-125342142D01*
X75652380Y-125437380D01*
X75700000Y-125580238D01*
X75747619Y-125627857D01*
X76652380Y-126056428D02*
X75652380Y-126056428D01*
X75652380Y-126437380D01*
X75700000Y-126532619D01*
X75747619Y-126580238D01*
X75842857Y-126627857D01*
X75985714Y-126627857D01*
X76080952Y-126580238D01*
X76128571Y-126532619D01*
X76176190Y-126437380D01*
X76176190Y-126056428D01*
X76557142Y-127627857D02*
X76604761Y-127580238D01*
X76652380Y-127437380D01*
X76652380Y-127342142D01*
X76604761Y-127199285D01*
X76509523Y-127104047D01*
X76414285Y-127056428D01*
X76223809Y-127008809D01*
X76080952Y-127008809D01*
X75890476Y-127056428D01*
X75795238Y-127104047D01*
X75700000Y-127199285D01*
X75652380Y-127342142D01*
X75652380Y-127437380D01*
X75700000Y-127580238D01*
X75747619Y-127627857D01*
X75985714Y-128485000D02*
X76652380Y-128485000D01*
X75604761Y-128246904D02*
X76319047Y-128008809D01*
X76319047Y-128627857D01*
X75652380Y-129437380D02*
X75652380Y-129246904D01*
X75700000Y-129151666D01*
X75747619Y-129104047D01*
X75890476Y-129008809D01*
X76080952Y-128961190D01*
X76461904Y-128961190D01*
X76557142Y-129008809D01*
X76604761Y-129056428D01*
X76652380Y-129151666D01*
X76652380Y-129342142D01*
X76604761Y-129437380D01*
X76557142Y-129485000D01*
X76461904Y-129532619D01*
X76223809Y-129532619D01*
X76128571Y-129485000D01*
X76080952Y-129437380D01*
X76033333Y-129342142D01*
X76033333Y-129151666D01*
X76080952Y-129056428D01*
X76128571Y-129008809D01*
X76223809Y-128961190D01*
X75985714Y-130389761D02*
X76652380Y-130389761D01*
X75604761Y-130151666D02*
X76319047Y-129913571D01*
X76319047Y-130532619D01*
X75604761Y-131627857D02*
X76890476Y-130770714D01*
X76557142Y-132532619D02*
X76604761Y-132485000D01*
X76652380Y-132342142D01*
X76652380Y-132246904D01*
X76604761Y-132104047D01*
X76509523Y-132008809D01*
X76414285Y-131961190D01*
X76223809Y-131913571D01*
X76080952Y-131913571D01*
X75890476Y-131961190D01*
X75795238Y-132008809D01*
X75700000Y-132104047D01*
X75652380Y-132246904D01*
X75652380Y-132342142D01*
X75700000Y-132485000D01*
X75747619Y-132532619D01*
X76652380Y-132961190D02*
X75652380Y-132961190D01*
X75652380Y-133342142D01*
X75700000Y-133437380D01*
X75747619Y-133485000D01*
X75842857Y-133532619D01*
X75985714Y-133532619D01*
X76080952Y-133485000D01*
X76128571Y-133437380D01*
X76176190Y-133342142D01*
X76176190Y-132961190D01*
X76557142Y-134532619D02*
X76604761Y-134485000D01*
X76652380Y-134342142D01*
X76652380Y-134246904D01*
X76604761Y-134104047D01*
X76509523Y-134008809D01*
X76414285Y-133961190D01*
X76223809Y-133913571D01*
X76080952Y-133913571D01*
X75890476Y-133961190D01*
X75795238Y-134008809D01*
X75700000Y-134104047D01*
X75652380Y-134246904D01*
X75652380Y-134342142D01*
X75700000Y-134485000D01*
X75747619Y-134532619D01*
X75652380Y-135389761D02*
X75652380Y-135199285D01*
X75700000Y-135104047D01*
X75747619Y-135056428D01*
X75890476Y-134961190D01*
X76080952Y-134913571D01*
X76461904Y-134913571D01*
X76557142Y-134961190D01*
X76604761Y-135008809D01*
X76652380Y-135104047D01*
X76652380Y-135294523D01*
X76604761Y-135389761D01*
X76557142Y-135437380D01*
X76461904Y-135485000D01*
X76223809Y-135485000D01*
X76128571Y-135437380D01*
X76080952Y-135389761D01*
X76033333Y-135294523D01*
X76033333Y-135104047D01*
X76080952Y-135008809D01*
X76128571Y-134961190D01*
X76223809Y-134913571D01*
X76652380Y-136437380D02*
X76652380Y-135865952D01*
X76652380Y-136151666D02*
X75652380Y-136151666D01*
X75795238Y-136056428D01*
X75890476Y-135961190D01*
X75938095Y-135865952D01*
X75747619Y-136818333D02*
X75700000Y-136865952D01*
X75652380Y-136961190D01*
X75652380Y-137199285D01*
X75700000Y-137294523D01*
X75747619Y-137342142D01*
X75842857Y-137389761D01*
X75938095Y-137389761D01*
X76080952Y-137342142D01*
X76652380Y-136770714D01*
X76652380Y-137389761D01*
X76080952Y-137961190D02*
X76033333Y-137865952D01*
X75985714Y-137818333D01*
X75890476Y-137770714D01*
X75842857Y-137770714D01*
X75747619Y-137818333D01*
X75700000Y-137865952D01*
X75652380Y-137961190D01*
X75652380Y-138151666D01*
X75700000Y-138246904D01*
X75747619Y-138294523D01*
X75842857Y-138342142D01*
X75890476Y-138342142D01*
X75985714Y-138294523D01*
X76033333Y-138246904D01*
X76080952Y-138151666D01*
X76080952Y-137961190D01*
X76128571Y-137865952D01*
X76176190Y-137818333D01*
X76271428Y-137770714D01*
X76461904Y-137770714D01*
X76557142Y-137818333D01*
X76604761Y-137865952D01*
X76652380Y-137961190D01*
X76652380Y-138151666D01*
X76604761Y-138246904D01*
X76557142Y-138294523D01*
X76461904Y-138342142D01*
X76271428Y-138342142D01*
X76176190Y-138294523D01*
X76128571Y-138246904D01*
X76080952Y-138151666D01*
X76652380Y-140104047D02*
X76176190Y-139770714D01*
X76652380Y-139532619D02*
X75652380Y-139532619D01*
X75652380Y-139913571D01*
X75700000Y-140008809D01*
X75747619Y-140056428D01*
X75842857Y-140104047D01*
X75985714Y-140104047D01*
X76080952Y-140056428D01*
X76128571Y-140008809D01*
X76176190Y-139913571D01*
X76176190Y-139532619D01*
X76652380Y-140532619D02*
X75985714Y-140532619D01*
X75652380Y-140532619D02*
X75700000Y-140485000D01*
X75747619Y-140532619D01*
X75700000Y-140580238D01*
X75652380Y-140532619D01*
X75747619Y-140532619D01*
X75985714Y-141437380D02*
X76795238Y-141437380D01*
X76890476Y-141389761D01*
X76938095Y-141342142D01*
X76985714Y-141246904D01*
X76985714Y-141104047D01*
X76938095Y-141008809D01*
X76604761Y-141437380D02*
X76652380Y-141342142D01*
X76652380Y-141151666D01*
X76604761Y-141056428D01*
X76557142Y-141008809D01*
X76461904Y-140961190D01*
X76176190Y-140961190D01*
X76080952Y-141008809D01*
X76033333Y-141056428D01*
X75985714Y-141151666D01*
X75985714Y-141342142D01*
X76033333Y-141437380D01*
X76652380Y-141913571D02*
X75652380Y-141913571D01*
X76652380Y-142342142D02*
X76128571Y-142342142D01*
X76033333Y-142294523D01*
X75985714Y-142199285D01*
X75985714Y-142056428D01*
X76033333Y-141961190D01*
X76080952Y-141913571D01*
X75985714Y-142675476D02*
X75985714Y-143056428D01*
X75652380Y-142818333D02*
X76509523Y-142818333D01*
X76604761Y-142865952D01*
X76652380Y-142961190D01*
X76652380Y-143056428D01*
G04 #@! TO.C,J2*
X69167333Y-119423380D02*
X69167333Y-120137666D01*
X69214952Y-120280523D01*
X69310190Y-120375761D01*
X69453047Y-120423380D01*
X69548285Y-120423380D01*
X68738761Y-119518619D02*
X68691142Y-119471000D01*
X68595904Y-119423380D01*
X68357809Y-119423380D01*
X68262571Y-119471000D01*
X68214952Y-119518619D01*
X68167333Y-119613857D01*
X68167333Y-119709095D01*
X68214952Y-119851952D01*
X68786380Y-120423380D01*
X68167333Y-120423380D01*
X66397142Y-125516666D02*
X66444761Y-125469047D01*
X66492380Y-125326190D01*
X66492380Y-125230952D01*
X66444761Y-125088095D01*
X66349523Y-124992857D01*
X66254285Y-124945238D01*
X66063809Y-124897619D01*
X65920952Y-124897619D01*
X65730476Y-124945238D01*
X65635238Y-124992857D01*
X65540000Y-125088095D01*
X65492380Y-125230952D01*
X65492380Y-125326190D01*
X65540000Y-125469047D01*
X65587619Y-125516666D01*
X66492380Y-125945238D02*
X65492380Y-125945238D01*
X65492380Y-126326190D01*
X65540000Y-126421428D01*
X65587619Y-126469047D01*
X65682857Y-126516666D01*
X65825714Y-126516666D01*
X65920952Y-126469047D01*
X65968571Y-126421428D01*
X66016190Y-126326190D01*
X66016190Y-125945238D01*
X66397142Y-127516666D02*
X66444761Y-127469047D01*
X66492380Y-127326190D01*
X66492380Y-127230952D01*
X66444761Y-127088095D01*
X66349523Y-126992857D01*
X66254285Y-126945238D01*
X66063809Y-126897619D01*
X65920952Y-126897619D01*
X65730476Y-126945238D01*
X65635238Y-126992857D01*
X65540000Y-127088095D01*
X65492380Y-127230952D01*
X65492380Y-127326190D01*
X65540000Y-127469047D01*
X65587619Y-127516666D01*
X65825714Y-128373809D02*
X66492380Y-128373809D01*
X65444761Y-128135714D02*
X66159047Y-127897619D01*
X66159047Y-128516666D01*
X65492380Y-129326190D02*
X65492380Y-129135714D01*
X65540000Y-129040476D01*
X65587619Y-128992857D01*
X65730476Y-128897619D01*
X65920952Y-128850000D01*
X66301904Y-128850000D01*
X66397142Y-128897619D01*
X66444761Y-128945238D01*
X66492380Y-129040476D01*
X66492380Y-129230952D01*
X66444761Y-129326190D01*
X66397142Y-129373809D01*
X66301904Y-129421428D01*
X66063809Y-129421428D01*
X65968571Y-129373809D01*
X65920952Y-129326190D01*
X65873333Y-129230952D01*
X65873333Y-129040476D01*
X65920952Y-128945238D01*
X65968571Y-128897619D01*
X66063809Y-128850000D01*
X65825714Y-130278571D02*
X66492380Y-130278571D01*
X65444761Y-130040476D02*
X66159047Y-129802380D01*
X66159047Y-130421428D01*
X65444761Y-131516666D02*
X66730476Y-130659523D01*
X66397142Y-132421428D02*
X66444761Y-132373809D01*
X66492380Y-132230952D01*
X66492380Y-132135714D01*
X66444761Y-131992857D01*
X66349523Y-131897619D01*
X66254285Y-131850000D01*
X66063809Y-131802380D01*
X65920952Y-131802380D01*
X65730476Y-131850000D01*
X65635238Y-131897619D01*
X65540000Y-131992857D01*
X65492380Y-132135714D01*
X65492380Y-132230952D01*
X65540000Y-132373809D01*
X65587619Y-132421428D01*
X66492380Y-132850000D02*
X65492380Y-132850000D01*
X65492380Y-133230952D01*
X65540000Y-133326190D01*
X65587619Y-133373809D01*
X65682857Y-133421428D01*
X65825714Y-133421428D01*
X65920952Y-133373809D01*
X65968571Y-133326190D01*
X66016190Y-133230952D01*
X66016190Y-132850000D01*
X66397142Y-134421428D02*
X66444761Y-134373809D01*
X66492380Y-134230952D01*
X66492380Y-134135714D01*
X66444761Y-133992857D01*
X66349523Y-133897619D01*
X66254285Y-133850000D01*
X66063809Y-133802380D01*
X65920952Y-133802380D01*
X65730476Y-133850000D01*
X65635238Y-133897619D01*
X65540000Y-133992857D01*
X65492380Y-134135714D01*
X65492380Y-134230952D01*
X65540000Y-134373809D01*
X65587619Y-134421428D01*
X65492380Y-135278571D02*
X65492380Y-135088095D01*
X65540000Y-134992857D01*
X65587619Y-134945238D01*
X65730476Y-134850000D01*
X65920952Y-134802380D01*
X66301904Y-134802380D01*
X66397142Y-134850000D01*
X66444761Y-134897619D01*
X66492380Y-134992857D01*
X66492380Y-135183333D01*
X66444761Y-135278571D01*
X66397142Y-135326190D01*
X66301904Y-135373809D01*
X66063809Y-135373809D01*
X65968571Y-135326190D01*
X65920952Y-135278571D01*
X65873333Y-135183333D01*
X65873333Y-134992857D01*
X65920952Y-134897619D01*
X65968571Y-134850000D01*
X66063809Y-134802380D01*
X66492380Y-136326190D02*
X66492380Y-135754761D01*
X66492380Y-136040476D02*
X65492380Y-136040476D01*
X65635238Y-135945238D01*
X65730476Y-135850000D01*
X65778095Y-135754761D01*
X65587619Y-136707142D02*
X65540000Y-136754761D01*
X65492380Y-136850000D01*
X65492380Y-137088095D01*
X65540000Y-137183333D01*
X65587619Y-137230952D01*
X65682857Y-137278571D01*
X65778095Y-137278571D01*
X65920952Y-137230952D01*
X66492380Y-136659523D01*
X66492380Y-137278571D01*
X65920952Y-137850000D02*
X65873333Y-137754761D01*
X65825714Y-137707142D01*
X65730476Y-137659523D01*
X65682857Y-137659523D01*
X65587619Y-137707142D01*
X65540000Y-137754761D01*
X65492380Y-137850000D01*
X65492380Y-138040476D01*
X65540000Y-138135714D01*
X65587619Y-138183333D01*
X65682857Y-138230952D01*
X65730476Y-138230952D01*
X65825714Y-138183333D01*
X65873333Y-138135714D01*
X65920952Y-138040476D01*
X65920952Y-137850000D01*
X65968571Y-137754761D01*
X66016190Y-137707142D01*
X66111428Y-137659523D01*
X66301904Y-137659523D01*
X66397142Y-137707142D01*
X66444761Y-137754761D01*
X66492380Y-137850000D01*
X66492380Y-138040476D01*
X66444761Y-138135714D01*
X66397142Y-138183333D01*
X66301904Y-138230952D01*
X66111428Y-138230952D01*
X66016190Y-138183333D01*
X65968571Y-138135714D01*
X65920952Y-138040476D01*
X66492380Y-139897619D02*
X66492380Y-139421428D01*
X65492380Y-139421428D01*
X66444761Y-140611904D02*
X66492380Y-140516666D01*
X66492380Y-140326190D01*
X66444761Y-140230952D01*
X66349523Y-140183333D01*
X65968571Y-140183333D01*
X65873333Y-140230952D01*
X65825714Y-140326190D01*
X65825714Y-140516666D01*
X65873333Y-140611904D01*
X65968571Y-140659523D01*
X66063809Y-140659523D01*
X66159047Y-140183333D01*
X65825714Y-140945238D02*
X65825714Y-141326190D01*
X66492380Y-141088095D02*
X65635238Y-141088095D01*
X65540000Y-141135714D01*
X65492380Y-141230952D01*
X65492380Y-141326190D01*
X65825714Y-141516666D02*
X65825714Y-141897619D01*
X65492380Y-141659523D02*
X66349523Y-141659523D01*
X66444761Y-141707142D01*
X66492380Y-141802380D01*
X66492380Y-141897619D01*
G04 #@! TO.C,J1*
X62182333Y-93896380D02*
X62182333Y-94610666D01*
X62229952Y-94753523D01*
X62325190Y-94848761D01*
X62468047Y-94896380D01*
X62563285Y-94896380D01*
X61182333Y-94896380D02*
X61753761Y-94896380D01*
X61468047Y-94896380D02*
X61468047Y-93896380D01*
X61563285Y-94039238D01*
X61658523Y-94134476D01*
X61753761Y-94182095D01*
X65127142Y-102481428D02*
X65174761Y-102433809D01*
X65222380Y-102290952D01*
X65222380Y-102195714D01*
X65174761Y-102052857D01*
X65079523Y-101957619D01*
X64984285Y-101910000D01*
X64793809Y-101862380D01*
X64650952Y-101862380D01*
X64460476Y-101910000D01*
X64365238Y-101957619D01*
X64270000Y-102052857D01*
X64222380Y-102195714D01*
X64222380Y-102290952D01*
X64270000Y-102433809D01*
X64317619Y-102481428D01*
X65222380Y-102910000D02*
X64222380Y-102910000D01*
X64222380Y-103290952D01*
X64270000Y-103386190D01*
X64317619Y-103433809D01*
X64412857Y-103481428D01*
X64555714Y-103481428D01*
X64650952Y-103433809D01*
X64698571Y-103386190D01*
X64746190Y-103290952D01*
X64746190Y-102910000D01*
X65127142Y-104481428D02*
X65174761Y-104433809D01*
X65222380Y-104290952D01*
X65222380Y-104195714D01*
X65174761Y-104052857D01*
X65079523Y-103957619D01*
X64984285Y-103910000D01*
X64793809Y-103862380D01*
X64650952Y-103862380D01*
X64460476Y-103910000D01*
X64365238Y-103957619D01*
X64270000Y-104052857D01*
X64222380Y-104195714D01*
X64222380Y-104290952D01*
X64270000Y-104433809D01*
X64317619Y-104481428D01*
X64555714Y-105338571D02*
X65222380Y-105338571D01*
X64174761Y-105100476D02*
X64889047Y-104862380D01*
X64889047Y-105481428D01*
X64222380Y-106290952D02*
X64222380Y-106100476D01*
X64270000Y-106005238D01*
X64317619Y-105957619D01*
X64460476Y-105862380D01*
X64650952Y-105814761D01*
X65031904Y-105814761D01*
X65127142Y-105862380D01*
X65174761Y-105910000D01*
X65222380Y-106005238D01*
X65222380Y-106195714D01*
X65174761Y-106290952D01*
X65127142Y-106338571D01*
X65031904Y-106386190D01*
X64793809Y-106386190D01*
X64698571Y-106338571D01*
X64650952Y-106290952D01*
X64603333Y-106195714D01*
X64603333Y-106005238D01*
X64650952Y-105910000D01*
X64698571Y-105862380D01*
X64793809Y-105814761D01*
X64555714Y-107243333D02*
X65222380Y-107243333D01*
X64174761Y-107005238D02*
X64889047Y-106767142D01*
X64889047Y-107386190D01*
X64936666Y-108481428D02*
X64936666Y-108957619D01*
X65222380Y-108386190D02*
X64222380Y-108719523D01*
X65222380Y-109052857D01*
G04 #@! TD*
M02*
