G04 #@! TF.GenerationSoftware,KiCad,Pcbnew,(5.1.12)-1*
G04 #@! TF.CreationDate,2023-03-25T16:13:48+00:00*
G04 #@! TF.ProjectId,Keyboard,4b657962-6f61-4726-942e-6b696361645f,rev?*
G04 #@! TF.SameCoordinates,Original*
G04 #@! TF.FileFunction,Copper,L2,Bot*
G04 #@! TF.FilePolarity,Positive*
%FSLAX46Y46*%
G04 Gerber Fmt 4.6, Leading zero omitted, Abs format (unit mm)*
G04 Created by KiCad (PCBNEW (5.1.12)-1) date 2023-03-25 16:13:48*
%MOMM*%
%LPD*%
G01*
G04 APERTURE LIST*
G04 #@! TA.AperFunction,ComponentPad*
%ADD10O,1.700000X1.700000*%
G04 #@! TD*
G04 #@! TA.AperFunction,ComponentPad*
%ADD11R,1.700000X1.700000*%
G04 #@! TD*
G04 #@! TA.AperFunction,ComponentPad*
%ADD12O,3.048000X1.850000*%
G04 #@! TD*
G04 #@! TA.AperFunction,Conductor*
%ADD13C,0.250000*%
G04 #@! TD*
G04 APERTURE END LIST*
D10*
G04 #@! TO.P,JP2,2*
G04 #@! TO.N,Net-(J3-Pad1)*
X70612000Y-112141000D03*
D11*
G04 #@! TO.P,JP2,1*
G04 #@! TO.N,Y10*
X68072000Y-112141000D03*
G04 #@! TD*
D10*
G04 #@! TO.P,JP1,3*
G04 #@! TO.N,Y10*
X73279000Y-116586000D03*
G04 #@! TO.P,JP1,2*
G04 #@! TO.N,Net-(J2-Pad1)*
X70739000Y-116586000D03*
D11*
G04 #@! TO.P,JP1,1*
G04 #@! TO.N,X8*
X68199000Y-116586000D03*
G04 #@! TD*
D10*
G04 #@! TO.P,JP3,2*
G04 #@! TO.N,X9*
X73279000Y-152146000D03*
D11*
G04 #@! TO.P,JP3,1*
G04 #@! TO.N,X8*
X70739000Y-152146000D03*
G04 #@! TD*
D12*
G04 #@! TO.P,SW22,2*
G04 #@! TO.N,Y3*
X268224000Y-143176000D03*
G04 #@! TO.P,SW22,1*
G04 #@! TO.N,X7*
X268224000Y-138176000D03*
G04 #@! TO.P,SW22,2*
G04 #@! TO.N,Y3*
X280724000Y-143176000D03*
G04 #@! TO.P,SW22,1*
G04 #@! TO.N,X7*
X280724000Y-138176000D03*
G04 #@! TD*
D10*
G04 #@! TO.P,J6,20*
G04 #@! TO.N,Net-(J6-Pad20)*
X56769000Y-96901000D03*
G04 #@! TO.P,J6,19*
G04 #@! TO.N,X8*
X56769000Y-99441000D03*
G04 #@! TO.P,J6,18*
G04 #@! TO.N,Y1*
X56769000Y-101981000D03*
G04 #@! TO.P,J6,17*
G04 #@! TO.N,Y2*
X56769000Y-104521000D03*
G04 #@! TO.P,J6,16*
G04 #@! TO.N,X9*
X56769000Y-107061000D03*
G04 #@! TO.P,J6,15*
G04 #@! TO.N,Y10*
X56769000Y-109601000D03*
G04 #@! TO.P,J6,14*
G04 #@! TO.N,X1*
X56769000Y-112141000D03*
G04 #@! TO.P,J6,13*
G04 #@! TO.N,X2*
X56769000Y-114681000D03*
G04 #@! TO.P,J6,12*
G04 #@! TO.N,X3*
X56769000Y-117221000D03*
G04 #@! TO.P,J6,11*
G04 #@! TO.N,X4*
X56769000Y-119761000D03*
G04 #@! TO.P,J6,10*
G04 #@! TO.N,X5*
X56769000Y-122301000D03*
G04 #@! TO.P,J6,9*
G04 #@! TO.N,X6*
X56769000Y-124841000D03*
G04 #@! TO.P,J6,8*
G04 #@! TO.N,X7*
X56769000Y-127381000D03*
G04 #@! TO.P,J6,7*
G04 #@! TO.N,Y9*
X56769000Y-129921000D03*
G04 #@! TO.P,J6,6*
G04 #@! TO.N,Y8*
X56769000Y-132461000D03*
G04 #@! TO.P,J6,5*
G04 #@! TO.N,Y7*
X56769000Y-135001000D03*
G04 #@! TO.P,J6,4*
G04 #@! TO.N,Y6*
X56769000Y-137541000D03*
G04 #@! TO.P,J6,3*
G04 #@! TO.N,Y5*
X56769000Y-140081000D03*
G04 #@! TO.P,J6,2*
G04 #@! TO.N,Y4*
X56769000Y-142621000D03*
D11*
G04 #@! TO.P,J6,1*
G04 #@! TO.N,Y3*
X56769000Y-145161000D03*
G04 #@! TD*
D10*
G04 #@! TO.P,J3,10*
G04 #@! TO.N,Net-(J3-Pad10)*
X73484000Y-145161000D03*
G04 #@! TO.P,J3,9*
G04 #@! TO.N,X9*
X73484000Y-142621000D03*
G04 #@! TO.P,J3,8*
G04 #@! TO.N,X7*
X73484000Y-140081000D03*
G04 #@! TO.P,J3,7*
G04 #@! TO.N,X6*
X73484000Y-137541000D03*
G04 #@! TO.P,J3,6*
G04 #@! TO.N,X5*
X73484000Y-135001000D03*
G04 #@! TO.P,J3,5*
G04 #@! TO.N,X4*
X73484000Y-132461000D03*
G04 #@! TO.P,J3,4*
G04 #@! TO.N,X3*
X73484000Y-129921000D03*
G04 #@! TO.P,J3,3*
G04 #@! TO.N,X2*
X73484000Y-127381000D03*
G04 #@! TO.P,J3,2*
G04 #@! TO.N,X1*
X73484000Y-124841000D03*
D11*
G04 #@! TO.P,J3,1*
G04 #@! TO.N,Net-(J3-Pad1)*
X73484000Y-122301000D03*
G04 #@! TD*
D10*
G04 #@! TO.P,J2,10*
G04 #@! TO.N,Y1*
X68834000Y-145161000D03*
G04 #@! TO.P,J2,9*
G04 #@! TO.N,Y2*
X68834000Y-142621000D03*
G04 #@! TO.P,J2,8*
G04 #@! TO.N,Y3*
X68834000Y-140081000D03*
G04 #@! TO.P,J2,7*
G04 #@! TO.N,Y4*
X68834000Y-137541000D03*
G04 #@! TO.P,J2,6*
G04 #@! TO.N,Y5*
X68834000Y-135001000D03*
G04 #@! TO.P,J2,5*
G04 #@! TO.N,Y6*
X68834000Y-132461000D03*
G04 #@! TO.P,J2,4*
G04 #@! TO.N,Y7*
X68834000Y-129921000D03*
G04 #@! TO.P,J2,3*
G04 #@! TO.N,Y8*
X68834000Y-127381000D03*
G04 #@! TO.P,J2,2*
G04 #@! TO.N,Y9*
X68834000Y-124841000D03*
D11*
G04 #@! TO.P,J2,1*
G04 #@! TO.N,Net-(J2-Pad1)*
X68834000Y-122301000D03*
G04 #@! TD*
D12*
G04 #@! TO.P,SW121,2*
G04 #@! TO.N,Y3*
X284734000Y-143176000D03*
G04 #@! TO.P,SW121,1*
G04 #@! TO.N,X6*
X284734000Y-138176000D03*
G04 #@! TO.P,SW121,2*
G04 #@! TO.N,Y3*
X297234000Y-143176000D03*
G04 #@! TO.P,SW121,1*
G04 #@! TO.N,X6*
X297234000Y-138176000D03*
G04 #@! TD*
G04 #@! TO.P,SW79,2*
G04 #@! TO.N,Y10*
X298069000Y-93646000D03*
G04 #@! TO.P,SW79,1*
G04 #@! TO.N,X9*
X298069000Y-88646000D03*
G04 #@! TO.P,SW79,2*
G04 #@! TO.N,Y10*
X310569000Y-93646000D03*
G04 #@! TO.P,SW79,1*
G04 #@! TO.N,X9*
X310569000Y-88646000D03*
G04 #@! TD*
G04 #@! TO.P,SW71,2*
G04 #@! TO.N,Y9*
X103124000Y-143176000D03*
G04 #@! TO.P,SW71,1*
G04 #@! TO.N,X8*
X103124000Y-138176000D03*
G04 #@! TO.P,SW71,2*
G04 #@! TO.N,Y9*
X115624000Y-143176000D03*
G04 #@! TO.P,SW71,1*
G04 #@! TO.N,X8*
X115624000Y-138176000D03*
G04 #@! TD*
G04 #@! TO.P,SW70,2*
G04 #@! TO.N,Y9*
X78994000Y-126666000D03*
G04 #@! TO.P,SW70,1*
G04 #@! TO.N,X7*
X78994000Y-121666000D03*
G04 #@! TO.P,SW70,2*
G04 #@! TO.N,Y9*
X91494000Y-126666000D03*
G04 #@! TO.P,SW70,1*
G04 #@! TO.N,X7*
X91494000Y-121666000D03*
G04 #@! TD*
G04 #@! TO.P,SW69,2*
G04 #@! TO.N,Y9*
X95504000Y-126666000D03*
G04 #@! TO.P,SW69,1*
G04 #@! TO.N,X6*
X95504000Y-121666000D03*
G04 #@! TO.P,SW69,2*
G04 #@! TO.N,Y9*
X108004000Y-126666000D03*
G04 #@! TO.P,SW69,1*
G04 #@! TO.N,X6*
X108004000Y-121666000D03*
G04 #@! TD*
G04 #@! TO.P,SW68,2*
G04 #@! TO.N,Y9*
X75184000Y-110156000D03*
G04 #@! TO.P,SW68,1*
G04 #@! TO.N,X5*
X75184000Y-105156000D03*
G04 #@! TO.P,SW68,2*
G04 #@! TO.N,Y9*
X87684000Y-110156000D03*
G04 #@! TO.P,SW68,1*
G04 #@! TO.N,X5*
X87684000Y-105156000D03*
G04 #@! TD*
G04 #@! TO.P,SW67,2*
G04 #@! TO.N,Y9*
X91694000Y-110156000D03*
G04 #@! TO.P,SW67,1*
G04 #@! TO.N,X4*
X91694000Y-105156000D03*
G04 #@! TO.P,SW67,2*
G04 #@! TO.N,Y9*
X104194000Y-110156000D03*
G04 #@! TO.P,SW67,1*
G04 #@! TO.N,X4*
X104194000Y-105156000D03*
G04 #@! TD*
G04 #@! TO.P,SW66,2*
G04 #@! TO.N,Y9*
X66929000Y-93646000D03*
G04 #@! TO.P,SW66,1*
G04 #@! TO.N,X3*
X66929000Y-88646000D03*
G04 #@! TO.P,SW66,2*
G04 #@! TO.N,Y9*
X79429000Y-93646000D03*
G04 #@! TO.P,SW66,1*
G04 #@! TO.N,X3*
X79429000Y-88646000D03*
G04 #@! TD*
G04 #@! TO.P,SW65,2*
G04 #@! TO.N,Y9*
X99949000Y-93646000D03*
G04 #@! TO.P,SW65,1*
G04 #@! TO.N,X2*
X99949000Y-88646000D03*
G04 #@! TO.P,SW65,2*
G04 #@! TO.N,Y9*
X112449000Y-93646000D03*
G04 #@! TO.P,SW65,1*
G04 #@! TO.N,X2*
X112449000Y-88646000D03*
G04 #@! TD*
G04 #@! TO.P,SW64,2*
G04 #@! TO.N,Y9*
X83439000Y-93646000D03*
G04 #@! TO.P,SW64,1*
G04 #@! TO.N,X1*
X83439000Y-88646000D03*
G04 #@! TO.P,SW64,2*
G04 #@! TO.N,Y9*
X95939000Y-93646000D03*
G04 #@! TO.P,SW64,1*
G04 #@! TO.N,X1*
X95939000Y-88646000D03*
G04 #@! TD*
G04 #@! TO.P,SW63,2*
G04 #@! TO.N,Y8*
X119634000Y-143176000D03*
G04 #@! TO.P,SW63,1*
G04 #@! TO.N,X8*
X119634000Y-138176000D03*
G04 #@! TO.P,SW63,2*
G04 #@! TO.N,Y8*
X132134000Y-143176000D03*
G04 #@! TO.P,SW63,1*
G04 #@! TO.N,X8*
X132134000Y-138176000D03*
G04 #@! TD*
G04 #@! TO.P,SW62,2*
G04 #@! TO.N,Y8*
X136144000Y-143176000D03*
G04 #@! TO.P,SW62,1*
G04 #@! TO.N,X7*
X136144000Y-138176000D03*
G04 #@! TO.P,SW62,2*
G04 #@! TO.N,Y8*
X148644000Y-143176000D03*
G04 #@! TO.P,SW62,1*
G04 #@! TO.N,X7*
X148644000Y-138176000D03*
G04 #@! TD*
G04 #@! TO.P,SW61,2*
G04 #@! TO.N,Y8*
X128524000Y-126666000D03*
G04 #@! TO.P,SW61,1*
G04 #@! TO.N,X6*
X128524000Y-121666000D03*
G04 #@! TO.P,SW61,2*
G04 #@! TO.N,Y8*
X141024000Y-126666000D03*
G04 #@! TO.P,SW61,1*
G04 #@! TO.N,X6*
X141024000Y-121666000D03*
G04 #@! TD*
G04 #@! TO.P,SW60,2*
G04 #@! TO.N,Y8*
X112014000Y-126666000D03*
G04 #@! TO.P,SW60,1*
G04 #@! TO.N,X5*
X112014000Y-121666000D03*
G04 #@! TO.P,SW60,2*
G04 #@! TO.N,Y8*
X124514000Y-126666000D03*
G04 #@! TO.P,SW60,1*
G04 #@! TO.N,X5*
X124514000Y-121666000D03*
G04 #@! TD*
G04 #@! TO.P,SW59,2*
G04 #@! TO.N,Y8*
X108204000Y-110156000D03*
G04 #@! TO.P,SW59,1*
G04 #@! TO.N,X4*
X108204000Y-105156000D03*
G04 #@! TO.P,SW59,2*
G04 #@! TO.N,Y8*
X120704000Y-110156000D03*
G04 #@! TO.P,SW59,1*
G04 #@! TO.N,X4*
X120704000Y-105156000D03*
G04 #@! TD*
G04 #@! TO.P,SW58,2*
G04 #@! TO.N,Y8*
X124714000Y-110156000D03*
G04 #@! TO.P,SW58,1*
G04 #@! TO.N,X3*
X124714000Y-105156000D03*
G04 #@! TO.P,SW58,2*
G04 #@! TO.N,Y8*
X137214000Y-110156000D03*
G04 #@! TO.P,SW58,1*
G04 #@! TO.N,X3*
X137214000Y-105156000D03*
G04 #@! TD*
G04 #@! TO.P,SW57,2*
G04 #@! TO.N,Y8*
X116459000Y-93646000D03*
G04 #@! TO.P,SW57,1*
G04 #@! TO.N,X2*
X116459000Y-88646000D03*
G04 #@! TO.P,SW57,2*
G04 #@! TO.N,Y8*
X128959000Y-93646000D03*
G04 #@! TO.P,SW57,1*
G04 #@! TO.N,X2*
X128959000Y-88646000D03*
G04 #@! TD*
G04 #@! TO.P,SW56,2*
G04 #@! TO.N,Y8*
X132969000Y-93646000D03*
G04 #@! TO.P,SW56,1*
G04 #@! TO.N,X1*
X132969000Y-88646000D03*
G04 #@! TO.P,SW56,2*
G04 #@! TO.N,Y8*
X145469000Y-93646000D03*
G04 #@! TO.P,SW56,1*
G04 #@! TO.N,X1*
X145469000Y-88646000D03*
G04 #@! TD*
G04 #@! TO.P,SW55,2*
G04 #@! TO.N,Y7*
X152654000Y-143176000D03*
G04 #@! TO.P,SW55,1*
G04 #@! TO.N,X8*
X152654000Y-138176000D03*
G04 #@! TO.P,SW55,2*
G04 #@! TO.N,Y7*
X165154000Y-143176000D03*
G04 #@! TO.P,SW55,1*
G04 #@! TO.N,X8*
X165154000Y-138176000D03*
G04 #@! TD*
G04 #@! TO.P,SW54,2*
G04 #@! TO.N,Y7*
X169164000Y-143176000D03*
G04 #@! TO.P,SW54,1*
G04 #@! TO.N,X7*
X169164000Y-138176000D03*
G04 #@! TO.P,SW54,2*
G04 #@! TO.N,Y7*
X181664000Y-143176000D03*
G04 #@! TO.P,SW54,1*
G04 #@! TO.N,X7*
X181664000Y-138176000D03*
G04 #@! TD*
G04 #@! TO.P,SW53,2*
G04 #@! TO.N,Y7*
X145034000Y-126666000D03*
G04 #@! TO.P,SW53,1*
G04 #@! TO.N,X6*
X145034000Y-121666000D03*
G04 #@! TO.P,SW53,2*
G04 #@! TO.N,Y7*
X157534000Y-126666000D03*
G04 #@! TO.P,SW53,1*
G04 #@! TO.N,X6*
X157534000Y-121666000D03*
G04 #@! TD*
G04 #@! TO.P,SW52,2*
G04 #@! TO.N,Y7*
X161544000Y-126666000D03*
G04 #@! TO.P,SW52,1*
G04 #@! TO.N,X5*
X161544000Y-121666000D03*
G04 #@! TO.P,SW52,2*
G04 #@! TO.N,Y7*
X174044000Y-126666000D03*
G04 #@! TO.P,SW52,1*
G04 #@! TO.N,X5*
X174044000Y-121666000D03*
G04 #@! TD*
G04 #@! TO.P,SW51,2*
G04 #@! TO.N,Y7*
X157734000Y-110156000D03*
G04 #@! TO.P,SW51,1*
G04 #@! TO.N,X4*
X157734000Y-105156000D03*
G04 #@! TO.P,SW51,2*
G04 #@! TO.N,Y7*
X170234000Y-110156000D03*
G04 #@! TO.P,SW51,1*
G04 #@! TO.N,X4*
X170234000Y-105156000D03*
G04 #@! TD*
G04 #@! TO.P,SW50,2*
G04 #@! TO.N,Y7*
X141224000Y-110156000D03*
G04 #@! TO.P,SW50,1*
G04 #@! TO.N,X3*
X141224000Y-105156000D03*
G04 #@! TO.P,SW50,2*
G04 #@! TO.N,Y7*
X153724000Y-110156000D03*
G04 #@! TO.P,SW50,1*
G04 #@! TO.N,X3*
X153724000Y-105156000D03*
G04 #@! TD*
G04 #@! TO.P,SW49,2*
G04 #@! TO.N,Y7*
X149479000Y-93646000D03*
G04 #@! TO.P,SW49,1*
G04 #@! TO.N,X2*
X149479000Y-88646000D03*
G04 #@! TO.P,SW49,2*
G04 #@! TO.N,Y7*
X161979000Y-93646000D03*
G04 #@! TO.P,SW49,1*
G04 #@! TO.N,X2*
X161979000Y-88646000D03*
G04 #@! TD*
G04 #@! TO.P,SW48,2*
G04 #@! TO.N,Y7*
X165989000Y-93646000D03*
G04 #@! TO.P,SW48,1*
G04 #@! TO.N,X1*
X165989000Y-88646000D03*
G04 #@! TO.P,SW48,2*
G04 #@! TO.N,Y7*
X178489000Y-93646000D03*
G04 #@! TO.P,SW48,1*
G04 #@! TO.N,X1*
X178489000Y-88646000D03*
G04 #@! TD*
G04 #@! TO.P,SW47,2*
G04 #@! TO.N,Y6*
X185674000Y-159686000D03*
G04 #@! TO.P,SW47,1*
G04 #@! TO.N,X8*
X185674000Y-154686000D03*
G04 #@! TO.P,SW47,2*
G04 #@! TO.N,Y6*
X198174000Y-159686000D03*
G04 #@! TO.P,SW47,1*
G04 #@! TO.N,X8*
X198174000Y-154686000D03*
G04 #@! TD*
G04 #@! TO.P,SW46,2*
G04 #@! TO.N,Y6*
X185674000Y-143176000D03*
G04 #@! TO.P,SW46,1*
G04 #@! TO.N,X7*
X185674000Y-138176000D03*
G04 #@! TO.P,SW46,2*
G04 #@! TO.N,Y6*
X198174000Y-143176000D03*
G04 #@! TO.P,SW46,1*
G04 #@! TO.N,X7*
X198174000Y-138176000D03*
G04 #@! TD*
G04 #@! TO.P,SW45,2*
G04 #@! TO.N,Y6*
X194564000Y-126666000D03*
G04 #@! TO.P,SW45,1*
G04 #@! TO.N,X6*
X194564000Y-121666000D03*
G04 #@! TO.P,SW45,2*
G04 #@! TO.N,Y6*
X207064000Y-126666000D03*
G04 #@! TO.P,SW45,1*
G04 #@! TO.N,X6*
X207064000Y-121666000D03*
G04 #@! TD*
G04 #@! TO.P,SW44,2*
G04 #@! TO.N,Y6*
X178054000Y-126666000D03*
G04 #@! TO.P,SW44,1*
G04 #@! TO.N,X5*
X178054000Y-121666000D03*
G04 #@! TO.P,SW44,2*
G04 #@! TO.N,Y6*
X190554000Y-126666000D03*
G04 #@! TO.P,SW44,1*
G04 #@! TO.N,X5*
X190554000Y-121666000D03*
G04 #@! TD*
G04 #@! TO.P,SW43,2*
G04 #@! TO.N,Y6*
X174244000Y-110156000D03*
G04 #@! TO.P,SW43,1*
G04 #@! TO.N,X4*
X174244000Y-105156000D03*
G04 #@! TO.P,SW43,2*
G04 #@! TO.N,Y6*
X186744000Y-110156000D03*
G04 #@! TO.P,SW43,1*
G04 #@! TO.N,X4*
X186744000Y-105156000D03*
G04 #@! TD*
G04 #@! TO.P,SW42,2*
G04 #@! TO.N,Y6*
X190754000Y-110156000D03*
G04 #@! TO.P,SW42,1*
G04 #@! TO.N,X3*
X190754000Y-105156000D03*
G04 #@! TO.P,SW42,2*
G04 #@! TO.N,Y6*
X203254000Y-110156000D03*
G04 #@! TO.P,SW42,1*
G04 #@! TO.N,X3*
X203254000Y-105156000D03*
G04 #@! TD*
G04 #@! TO.P,SW41,2*
G04 #@! TO.N,Y6*
X182499000Y-93646000D03*
G04 #@! TO.P,SW41,1*
G04 #@! TO.N,X2*
X182499000Y-88646000D03*
G04 #@! TO.P,SW41,2*
G04 #@! TO.N,Y6*
X194999000Y-93646000D03*
G04 #@! TO.P,SW41,1*
G04 #@! TO.N,X2*
X194999000Y-88646000D03*
G04 #@! TD*
G04 #@! TO.P,SW40,2*
G04 #@! TO.N,Y6*
X199009000Y-93646000D03*
G04 #@! TO.P,SW40,1*
G04 #@! TO.N,X1*
X199009000Y-88646000D03*
G04 #@! TO.P,SW40,2*
G04 #@! TO.N,Y6*
X211509000Y-93646000D03*
G04 #@! TO.P,SW40,1*
G04 #@! TO.N,X1*
X211509000Y-88646000D03*
G04 #@! TD*
G04 #@! TO.P,SW39,2*
G04 #@! TO.N,Y5*
X218694000Y-143176000D03*
G04 #@! TO.P,SW39,1*
G04 #@! TO.N,X8*
X218694000Y-138176000D03*
G04 #@! TO.P,SW39,2*
G04 #@! TO.N,Y5*
X231194000Y-143176000D03*
G04 #@! TO.P,SW39,1*
G04 #@! TO.N,X8*
X231194000Y-138176000D03*
G04 #@! TD*
G04 #@! TO.P,SW38,2*
G04 #@! TO.N,Y5*
X202184000Y-143176000D03*
G04 #@! TO.P,SW38,1*
G04 #@! TO.N,X7*
X202184000Y-138176000D03*
G04 #@! TO.P,SW38,2*
G04 #@! TO.N,Y5*
X214684000Y-143176000D03*
G04 #@! TO.P,SW38,1*
G04 #@! TO.N,X7*
X214684000Y-138176000D03*
G04 #@! TD*
G04 #@! TO.P,SW37,2*
G04 #@! TO.N,Y5*
X211074000Y-126666000D03*
G04 #@! TO.P,SW37,1*
G04 #@! TO.N,X6*
X211074000Y-121666000D03*
G04 #@! TO.P,SW37,2*
G04 #@! TO.N,Y5*
X223574000Y-126666000D03*
G04 #@! TO.P,SW37,1*
G04 #@! TO.N,X6*
X223574000Y-121666000D03*
G04 #@! TD*
G04 #@! TO.P,SW36,2*
G04 #@! TO.N,Y5*
X227584000Y-126666000D03*
G04 #@! TO.P,SW36,1*
G04 #@! TO.N,X5*
X227584000Y-121666000D03*
G04 #@! TO.P,SW36,2*
G04 #@! TO.N,Y5*
X240084000Y-126666000D03*
G04 #@! TO.P,SW36,1*
G04 #@! TO.N,X5*
X240084000Y-121666000D03*
G04 #@! TD*
G04 #@! TO.P,SW35,2*
G04 #@! TO.N,Y5*
X207264000Y-110156000D03*
G04 #@! TO.P,SW35,1*
G04 #@! TO.N,X4*
X207264000Y-105156000D03*
G04 #@! TO.P,SW35,2*
G04 #@! TO.N,Y5*
X219764000Y-110156000D03*
G04 #@! TO.P,SW35,1*
G04 #@! TO.N,X4*
X219764000Y-105156000D03*
G04 #@! TD*
G04 #@! TO.P,SW34,2*
G04 #@! TO.N,Y5*
X223774000Y-110156000D03*
G04 #@! TO.P,SW34,1*
G04 #@! TO.N,X3*
X223774000Y-105156000D03*
G04 #@! TO.P,SW34,2*
G04 #@! TO.N,Y5*
X236274000Y-110156000D03*
G04 #@! TO.P,SW34,1*
G04 #@! TO.N,X3*
X236274000Y-105156000D03*
G04 #@! TD*
G04 #@! TO.P,SW33,2*
G04 #@! TO.N,Y5*
X215519000Y-93646000D03*
G04 #@! TO.P,SW33,1*
G04 #@! TO.N,X2*
X215519000Y-88646000D03*
G04 #@! TO.P,SW33,2*
G04 #@! TO.N,Y5*
X228019000Y-93646000D03*
G04 #@! TO.P,SW33,1*
G04 #@! TO.N,X2*
X228019000Y-88646000D03*
G04 #@! TD*
G04 #@! TO.P,SW32,2*
G04 #@! TO.N,Y5*
X232029000Y-93646000D03*
G04 #@! TO.P,SW32,1*
G04 #@! TO.N,X1*
X232029000Y-88646000D03*
G04 #@! TO.P,SW32,2*
G04 #@! TO.N,Y5*
X244529000Y-93646000D03*
G04 #@! TO.P,SW32,1*
G04 #@! TO.N,X1*
X244529000Y-88646000D03*
G04 #@! TD*
G04 #@! TO.P,SW31,2*
G04 #@! TO.N,Y4*
X235204000Y-143176000D03*
G04 #@! TO.P,SW31,1*
G04 #@! TO.N,X8*
X235204000Y-138176000D03*
G04 #@! TO.P,SW31,2*
G04 #@! TO.N,Y4*
X247704000Y-143176000D03*
G04 #@! TO.P,SW31,1*
G04 #@! TO.N,X8*
X247704000Y-138176000D03*
G04 #@! TD*
G04 #@! TO.P,SW30,2*
G04 #@! TO.N,Y4*
X251714000Y-143176000D03*
G04 #@! TO.P,SW30,1*
G04 #@! TO.N,X7*
X251714000Y-138176000D03*
G04 #@! TO.P,SW30,2*
G04 #@! TO.N,Y4*
X264214000Y-143176000D03*
G04 #@! TO.P,SW30,1*
G04 #@! TO.N,X7*
X264214000Y-138176000D03*
G04 #@! TD*
G04 #@! TO.P,SW29,2*
G04 #@! TO.N,Y4*
X244094000Y-126666000D03*
G04 #@! TO.P,SW29,1*
G04 #@! TO.N,X6*
X244094000Y-121666000D03*
G04 #@! TO.P,SW29,2*
G04 #@! TO.N,Y4*
X256594000Y-126666000D03*
G04 #@! TO.P,SW29,1*
G04 #@! TO.N,X6*
X256594000Y-121666000D03*
G04 #@! TD*
G04 #@! TO.P,SW28,2*
G04 #@! TO.N,Y4*
X260604000Y-126666000D03*
G04 #@! TO.P,SW28,1*
G04 #@! TO.N,X5*
X260604000Y-121666000D03*
G04 #@! TO.P,SW28,2*
G04 #@! TO.N,Y4*
X273104000Y-126666000D03*
G04 #@! TO.P,SW28,1*
G04 #@! TO.N,X5*
X273104000Y-121666000D03*
G04 #@! TD*
G04 #@! TO.P,SW27,2*
G04 #@! TO.N,Y4*
X240284000Y-110156000D03*
G04 #@! TO.P,SW27,1*
G04 #@! TO.N,X4*
X240284000Y-105156000D03*
G04 #@! TO.P,SW27,2*
G04 #@! TO.N,Y4*
X252784000Y-110156000D03*
G04 #@! TO.P,SW27,1*
G04 #@! TO.N,X4*
X252784000Y-105156000D03*
G04 #@! TD*
G04 #@! TO.P,SW26,2*
G04 #@! TO.N,Y4*
X256794000Y-110156000D03*
G04 #@! TO.P,SW26,1*
G04 #@! TO.N,X3*
X256794000Y-105156000D03*
G04 #@! TO.P,SW26,2*
G04 #@! TO.N,Y4*
X269294000Y-110156000D03*
G04 #@! TO.P,SW26,1*
G04 #@! TO.N,X3*
X269294000Y-105156000D03*
G04 #@! TD*
G04 #@! TO.P,SW25,2*
G04 #@! TO.N,Y4*
X248539000Y-93646000D03*
G04 #@! TO.P,SW25,1*
G04 #@! TO.N,X2*
X248539000Y-88646000D03*
G04 #@! TO.P,SW25,2*
G04 #@! TO.N,Y4*
X261039000Y-93646000D03*
G04 #@! TO.P,SW25,1*
G04 #@! TO.N,X2*
X261039000Y-88646000D03*
G04 #@! TD*
G04 #@! TO.P,SW24,2*
G04 #@! TO.N,Y4*
X265049000Y-93646000D03*
G04 #@! TO.P,SW24,1*
G04 #@! TO.N,X1*
X265049000Y-88646000D03*
G04 #@! TO.P,SW24,2*
G04 #@! TO.N,Y4*
X277549000Y-93646000D03*
G04 #@! TO.P,SW24,1*
G04 #@! TO.N,X1*
X277549000Y-88646000D03*
G04 #@! TD*
G04 #@! TO.P,SW23,2*
G04 #@! TO.N,Y3*
X86614000Y-159686000D03*
G04 #@! TO.P,SW23,1*
G04 #@! TO.N,X8*
X86614000Y-154686000D03*
G04 #@! TO.P,SW23,2*
G04 #@! TO.N,Y3*
X99114000Y-159686000D03*
G04 #@! TO.P,SW23,1*
G04 #@! TO.N,X8*
X99114000Y-154686000D03*
G04 #@! TD*
G04 #@! TO.P,SW21,2*
G04 #@! TO.N,Y3*
X86614000Y-143176000D03*
G04 #@! TO.P,SW21,1*
G04 #@! TO.N,X6*
X86614000Y-138176000D03*
G04 #@! TO.P,SW21,2*
G04 #@! TO.N,Y3*
X99114000Y-143176000D03*
G04 #@! TO.P,SW21,1*
G04 #@! TO.N,X6*
X99114000Y-138176000D03*
G04 #@! TD*
G04 #@! TO.P,SW20,2*
G04 #@! TO.N,Y3*
X314579000Y-110156000D03*
G04 #@! TO.P,SW20,1*
G04 #@! TO.N,X5*
X314579000Y-105156000D03*
G04 #@! TO.P,SW20,2*
G04 #@! TO.N,Y3*
X327079000Y-110156000D03*
G04 #@! TO.P,SW20,1*
G04 #@! TO.N,X5*
X327079000Y-105156000D03*
G04 #@! TD*
G04 #@! TO.P,SW19,2*
G04 #@! TO.N,Y3*
X277114000Y-126666000D03*
G04 #@! TO.P,SW19,1*
G04 #@! TO.N,X4*
X277114000Y-121666000D03*
G04 #@! TO.P,SW19,2*
G04 #@! TO.N,Y3*
X289614000Y-126666000D03*
G04 #@! TO.P,SW19,1*
G04 #@! TO.N,X4*
X289614000Y-121666000D03*
G04 #@! TD*
G04 #@! TO.P,SW18,2*
G04 #@! TO.N,Y3*
X295529000Y-117776000D03*
G04 #@! TO.P,SW18,1*
G04 #@! TO.N,X3*
X295529000Y-112776000D03*
G04 #@! TO.P,SW18,2*
G04 #@! TO.N,Y3*
X308029000Y-117776000D03*
G04 #@! TO.P,SW18,1*
G04 #@! TO.N,X3*
X308029000Y-112776000D03*
G04 #@! TD*
G04 #@! TO.P,SW17,2*
G04 #@! TO.N,Y3*
X273304000Y-110156000D03*
G04 #@! TO.P,SW17,1*
G04 #@! TO.N,X2*
X273304000Y-105156000D03*
G04 #@! TO.P,SW17,2*
G04 #@! TO.N,Y3*
X285804000Y-110156000D03*
G04 #@! TO.P,SW17,1*
G04 #@! TO.N,X2*
X285804000Y-105156000D03*
G04 #@! TD*
G04 #@! TO.P,SW16,2*
G04 #@! TO.N,Y3*
X281559000Y-93646000D03*
G04 #@! TO.P,SW16,1*
G04 #@! TO.N,X1*
X281559000Y-88646000D03*
G04 #@! TO.P,SW16,2*
G04 #@! TO.N,Y3*
X294059000Y-93646000D03*
G04 #@! TO.P,SW16,1*
G04 #@! TO.N,X1*
X294059000Y-88646000D03*
G04 #@! TD*
G04 #@! TO.P,SW15,2*
G04 #@! TO.N,Y2*
X314579000Y-143176000D03*
G04 #@! TO.P,SW15,1*
G04 #@! TO.N,X8*
X314579000Y-138176000D03*
G04 #@! TO.P,SW15,2*
G04 #@! TO.N,Y2*
X327079000Y-143176000D03*
G04 #@! TO.P,SW15,1*
G04 #@! TO.N,X8*
X327079000Y-138176000D03*
G04 #@! TD*
G04 #@! TO.P,SW14,2*
G04 #@! TO.N,Y2*
X331089000Y-126666000D03*
G04 #@! TO.P,SW14,1*
G04 #@! TO.N,X7*
X331089000Y-121666000D03*
G04 #@! TO.P,SW14,2*
G04 #@! TO.N,Y2*
X343589000Y-126666000D03*
G04 #@! TO.P,SW14,1*
G04 #@! TO.N,X7*
X343589000Y-121666000D03*
G04 #@! TD*
G04 #@! TO.P,SW13,2*
G04 #@! TO.N,Y2*
X314579000Y-126666000D03*
G04 #@! TO.P,SW13,1*
G04 #@! TO.N,X6*
X314579000Y-121666000D03*
G04 #@! TO.P,SW13,2*
G04 #@! TO.N,Y2*
X327079000Y-126666000D03*
G04 #@! TO.P,SW13,1*
G04 #@! TO.N,X6*
X327079000Y-121666000D03*
G04 #@! TD*
G04 #@! TO.P,SW12,2*
G04 #@! TO.N,Y2*
X331089000Y-110156000D03*
G04 #@! TO.P,SW12,1*
G04 #@! TO.N,X5*
X331089000Y-105156000D03*
G04 #@! TO.P,SW12,2*
G04 #@! TO.N,Y2*
X343589000Y-110156000D03*
G04 #@! TO.P,SW12,1*
G04 #@! TO.N,X5*
X343589000Y-105156000D03*
G04 #@! TD*
G04 #@! TO.P,SW11,2*
G04 #@! TO.N,Y2*
X331089000Y-93646000D03*
G04 #@! TO.P,SW11,1*
G04 #@! TO.N,X4*
X331089000Y-88646000D03*
G04 #@! TO.P,SW11,2*
G04 #@! TO.N,Y2*
X343589000Y-93646000D03*
G04 #@! TO.P,SW11,1*
G04 #@! TO.N,X4*
X343589000Y-88646000D03*
G04 #@! TD*
G04 #@! TO.P,SW10,2*
G04 #@! TO.N,Y2*
X314579000Y-93646000D03*
G04 #@! TO.P,SW10,1*
G04 #@! TO.N,X3*
X314579000Y-88646000D03*
G04 #@! TO.P,SW10,2*
G04 #@! TO.N,Y2*
X327079000Y-93646000D03*
G04 #@! TO.P,SW10,1*
G04 #@! TO.N,X3*
X327079000Y-88646000D03*
G04 #@! TD*
G04 #@! TO.P,SW9,2*
G04 #@! TO.N,Y2*
X103124000Y-159686000D03*
G04 #@! TO.P,SW9,1*
G04 #@! TO.N,X2*
X103124000Y-154686000D03*
G04 #@! TO.P,SW9,2*
G04 #@! TO.N,Y2*
X115624000Y-159686000D03*
G04 #@! TO.P,SW9,1*
G04 #@! TO.N,X2*
X115624000Y-154686000D03*
G04 #@! TD*
G04 #@! TO.P,SW8,2*
G04 #@! TO.N,Y2*
X314579000Y-159686000D03*
G04 #@! TO.P,SW8,1*
G04 #@! TO.N,X1*
X314579000Y-154686000D03*
G04 #@! TO.P,SW8,2*
G04 #@! TO.N,Y2*
X327079000Y-159686000D03*
G04 #@! TO.P,SW8,1*
G04 #@! TO.N,X1*
X327079000Y-154686000D03*
G04 #@! TD*
G04 #@! TO.P,SW7,2*
G04 #@! TO.N,Y1*
X347599000Y-143176000D03*
G04 #@! TO.P,SW7,1*
G04 #@! TO.N,X8*
X347599000Y-138176000D03*
G04 #@! TO.P,SW7,2*
G04 #@! TO.N,Y1*
X360099000Y-143176000D03*
G04 #@! TO.P,SW7,1*
G04 #@! TO.N,X8*
X360099000Y-138176000D03*
G04 #@! TD*
G04 #@! TO.P,SW6,2*
G04 #@! TO.N,Y1*
X298069000Y-159686000D03*
G04 #@! TO.P,SW6,1*
G04 #@! TO.N,X7*
X298069000Y-154686000D03*
G04 #@! TO.P,SW6,2*
G04 #@! TO.N,Y1*
X310569000Y-159686000D03*
G04 #@! TO.P,SW6,1*
G04 #@! TO.N,X7*
X310569000Y-154686000D03*
G04 #@! TD*
G04 #@! TO.P,SW5,2*
G04 #@! TO.N,Y1*
X347599000Y-126666000D03*
G04 #@! TO.P,SW5,1*
G04 #@! TO.N,X6*
X347599000Y-121666000D03*
G04 #@! TO.P,SW5,2*
G04 #@! TO.N,Y1*
X360099000Y-126666000D03*
G04 #@! TO.P,SW5,1*
G04 #@! TO.N,X6*
X360099000Y-121666000D03*
G04 #@! TD*
G04 #@! TO.P,SW4,2*
G04 #@! TO.N,Y1*
X347599000Y-110156000D03*
G04 #@! TO.P,SW4,1*
G04 #@! TO.N,X5*
X347599000Y-105156000D03*
G04 #@! TO.P,SW4,2*
G04 #@! TO.N,Y1*
X360099000Y-110156000D03*
G04 #@! TO.P,SW4,1*
G04 #@! TO.N,X5*
X360099000Y-105156000D03*
G04 #@! TD*
G04 #@! TO.P,SW3,2*
G04 #@! TO.N,Y1*
X347599000Y-93646000D03*
G04 #@! TO.P,SW3,1*
G04 #@! TO.N,X4*
X347599000Y-88646000D03*
G04 #@! TO.P,SW3,2*
G04 #@! TO.N,Y1*
X360099000Y-93646000D03*
G04 #@! TO.P,SW3,1*
G04 #@! TO.N,X4*
X360099000Y-88646000D03*
G04 #@! TD*
G04 #@! TO.P,SW2,2*
G04 #@! TO.N,Y1*
X331089000Y-159686000D03*
G04 #@! TO.P,SW2,1*
G04 #@! TO.N,X3*
X331089000Y-154686000D03*
G04 #@! TO.P,SW2,2*
G04 #@! TO.N,Y1*
X343589000Y-159686000D03*
G04 #@! TO.P,SW2,1*
G04 #@! TO.N,X3*
X343589000Y-154686000D03*
G04 #@! TD*
G04 #@! TO.P,SW1,2*
G04 #@! TO.N,Y1*
X347599000Y-159686000D03*
G04 #@! TO.P,SW1,1*
G04 #@! TO.N,X2*
X347599000Y-154686000D03*
G04 #@! TO.P,SW1,2*
G04 #@! TO.N,Y1*
X360099000Y-159686000D03*
G04 #@! TO.P,SW1,1*
G04 #@! TO.N,X2*
X360099000Y-154686000D03*
G04 #@! TD*
G04 #@! TO.P,SW0,2*
G04 #@! TO.N,Y1*
X331089000Y-143176000D03*
G04 #@! TO.P,SW0,1*
G04 #@! TO.N,X1*
X331089000Y-138176000D03*
G04 #@! TO.P,SW0,2*
G04 #@! TO.N,Y1*
X343589000Y-143176000D03*
G04 #@! TO.P,SW0,1*
G04 #@! TO.N,X1*
X343589000Y-138176000D03*
G04 #@! TD*
D10*
G04 #@! TO.P,J1,20*
G04 #@! TO.N,Net-(J1-Pad20)*
X61849000Y-145034000D03*
G04 #@! TO.P,J1,19*
G04 #@! TO.N,Y1*
X61849000Y-142494000D03*
G04 #@! TO.P,J1,18*
G04 #@! TO.N,Y2*
X61849000Y-139954000D03*
G04 #@! TO.P,J1,17*
G04 #@! TO.N,Y3*
X61849000Y-137414000D03*
G04 #@! TO.P,J1,16*
G04 #@! TO.N,Y4*
X61849000Y-134874000D03*
G04 #@! TO.P,J1,15*
G04 #@! TO.N,Y5*
X61849000Y-132334000D03*
G04 #@! TO.P,J1,14*
G04 #@! TO.N,Y6*
X61849000Y-129794000D03*
G04 #@! TO.P,J1,13*
G04 #@! TO.N,Y7*
X61849000Y-127254000D03*
G04 #@! TO.P,J1,12*
G04 #@! TO.N,Y8*
X61849000Y-124714000D03*
G04 #@! TO.P,J1,11*
G04 #@! TO.N,Y9*
X61849000Y-122174000D03*
G04 #@! TO.P,J1,10*
G04 #@! TO.N,X8*
X61849000Y-119634000D03*
G04 #@! TO.P,J1,9*
G04 #@! TO.N,X7*
X61849000Y-117094000D03*
G04 #@! TO.P,J1,8*
G04 #@! TO.N,X6*
X61849000Y-114554000D03*
G04 #@! TO.P,J1,7*
G04 #@! TO.N,X5*
X61849000Y-112014000D03*
G04 #@! TO.P,J1,6*
G04 #@! TO.N,X4*
X61849000Y-109474000D03*
G04 #@! TO.P,J1,5*
G04 #@! TO.N,X3*
X61849000Y-106934000D03*
G04 #@! TO.P,J1,4*
G04 #@! TO.N,X2*
X61849000Y-104394000D03*
G04 #@! TO.P,J1,3*
G04 #@! TO.N,X1*
X61849000Y-101854000D03*
G04 #@! TO.P,J1,2*
G04 #@! TO.N,Y10*
X61849000Y-99314000D03*
D11*
G04 #@! TO.P,J1,1*
G04 #@! TO.N,X9*
X61849000Y-96774000D03*
G04 #@! TD*
D13*
G04 #@! TO.N,Y10*
X298069000Y-93646000D02*
X310569000Y-93646000D01*
X68072000Y-105537000D02*
X68072000Y-112141000D01*
X61849000Y-99314000D02*
X68072000Y-105537000D01*
X69247001Y-110965999D02*
X68072000Y-112141000D01*
X71176001Y-110965999D02*
X69247001Y-110965999D01*
X73279000Y-113068998D02*
X71176001Y-110965999D01*
X73279000Y-116586000D02*
X73279000Y-113068998D01*
G04 #@! TO.N,Y9*
X112449000Y-93646000D02*
X99949000Y-93646000D01*
X99949000Y-93646000D02*
X95939000Y-93646000D01*
X95939000Y-93646000D02*
X83439000Y-93646000D01*
X83439000Y-93646000D02*
X79429000Y-93646000D01*
X79429000Y-93646000D02*
X66929000Y-93646000D01*
X66929000Y-101901000D02*
X75184000Y-110156000D01*
X66929000Y-93646000D02*
X66929000Y-101901000D01*
X75184000Y-110156000D02*
X87684000Y-110156000D01*
X87684000Y-110156000D02*
X91694000Y-110156000D01*
X91694000Y-110156000D02*
X104194000Y-110156000D01*
X104194000Y-122856000D02*
X108004000Y-126666000D01*
X104194000Y-110156000D02*
X104194000Y-122856000D01*
X95504000Y-126666000D02*
X91494000Y-126666000D01*
X91494000Y-126666000D02*
X78994000Y-126666000D01*
X103124000Y-143176000D02*
X115624000Y-143176000D01*
X93980781Y-126666000D02*
X91494000Y-126666000D01*
X104973010Y-137658229D02*
X93980781Y-126666000D01*
X104973010Y-141326990D02*
X104973010Y-137658229D01*
X103124000Y-143176000D02*
X104973010Y-141326990D01*
G04 #@! TO.N,Y8*
X116459000Y-93646000D02*
X128959000Y-93646000D01*
X128959000Y-93646000D02*
X132969000Y-93646000D01*
X132969000Y-93646000D02*
X145469000Y-93646000D01*
X137214000Y-110156000D02*
X124714000Y-110156000D01*
X124714000Y-110156000D02*
X120704000Y-110156000D01*
X109853010Y-124505010D02*
X112014000Y-126666000D01*
X109853010Y-111805010D02*
X109853010Y-124505010D01*
X108204000Y-110156000D02*
X109853010Y-111805010D01*
X112014000Y-126666000D02*
X124514000Y-126666000D01*
X124514000Y-126666000D02*
X128524000Y-126666000D01*
X128524000Y-126666000D02*
X141024000Y-126666000D01*
X144834000Y-139366000D02*
X148644000Y-143176000D01*
X148644000Y-143176000D02*
X136144000Y-143176000D01*
X136144000Y-143176000D02*
X132134000Y-143176000D01*
X132134000Y-143176000D02*
X119634000Y-143176000D01*
X139063010Y-100051990D02*
X145469000Y-93646000D01*
X139063010Y-108306990D02*
X139063010Y-100051990D01*
X137214000Y-110156000D02*
X139063010Y-108306990D01*
X141024000Y-135556000D02*
X148644000Y-143176000D01*
X141024000Y-126666000D02*
X141024000Y-135556000D01*
G04 #@! TO.N,Y7*
X149479000Y-93646000D02*
X161979000Y-93646000D01*
X161979000Y-93646000D02*
X165989000Y-93646000D01*
X165989000Y-93646000D02*
X178489000Y-93646000D01*
X170234000Y-110156000D02*
X157734000Y-110156000D01*
X157734000Y-110156000D02*
X153724000Y-110156000D01*
X153724000Y-110156000D02*
X141224000Y-110156000D01*
X142873010Y-124505010D02*
X145034000Y-126666000D01*
X142873010Y-111805010D02*
X142873010Y-124505010D01*
X141224000Y-110156000D02*
X142873010Y-111805010D01*
X145034000Y-126666000D02*
X157534000Y-126666000D01*
X157534000Y-126666000D02*
X161544000Y-126666000D01*
X161544000Y-126666000D02*
X174044000Y-126666000D01*
X177854000Y-139366000D02*
X181664000Y-143176000D01*
X169164000Y-143176000D02*
X165154000Y-143176000D01*
X165154000Y-143176000D02*
X152654000Y-143176000D01*
X172083010Y-108306990D02*
X172083010Y-100051990D01*
X172083010Y-100051990D02*
X178489000Y-93646000D01*
X170234000Y-110156000D02*
X172083010Y-108306990D01*
X174044000Y-135556000D02*
X181664000Y-143176000D01*
X174044000Y-126666000D02*
X174044000Y-135556000D01*
G04 #@! TO.N,Y6*
X182499000Y-93646000D02*
X194999000Y-93646000D01*
X194999000Y-93646000D02*
X199009000Y-93646000D01*
X199009000Y-93646000D02*
X211509000Y-93646000D01*
X205103010Y-100051990D02*
X211509000Y-93646000D01*
X205103010Y-108306990D02*
X205103010Y-100051990D01*
X203254000Y-110156000D02*
X205103010Y-108306990D01*
X203254000Y-110156000D02*
X190754000Y-110156000D01*
X190754000Y-110156000D02*
X186744000Y-110156000D01*
X186744000Y-110156000D02*
X174244000Y-110156000D01*
X176204990Y-124816990D02*
X178054000Y-126666000D01*
X176204990Y-112116990D02*
X176204990Y-124816990D01*
X174244000Y-110156000D02*
X176204990Y-112116990D01*
X178054000Y-126666000D02*
X190554000Y-126666000D01*
X190554000Y-126666000D02*
X194564000Y-126666000D01*
X194564000Y-126666000D02*
X207064000Y-126666000D01*
X198174000Y-143176000D02*
X185674000Y-143176000D01*
X200023010Y-141326990D02*
X200023010Y-137970209D01*
X207064000Y-127119219D02*
X207064000Y-126666000D01*
X200023010Y-134160208D02*
X203223109Y-130960109D01*
X200023010Y-141326990D02*
X200023010Y-134160208D01*
X198174000Y-143176000D02*
X200023010Y-141326990D01*
X203223109Y-130960109D02*
X207064000Y-127119219D01*
X187523010Y-157836990D02*
X185674000Y-159686000D01*
X187523010Y-145025010D02*
X187523010Y-157836990D01*
X185674000Y-143176000D02*
X187523010Y-145025010D01*
X185674000Y-159686000D02*
X198174000Y-159686000D01*
G04 #@! TO.N,Y5*
X215519000Y-93646000D02*
X228019000Y-93646000D01*
X228019000Y-93646000D02*
X232029000Y-93646000D01*
X232029000Y-93646000D02*
X244529000Y-93646000D01*
X238123010Y-108306990D02*
X236274000Y-110156000D01*
X238123010Y-100051990D02*
X238123010Y-108306990D01*
X244529000Y-93646000D02*
X238123010Y-100051990D01*
X236274000Y-110156000D02*
X223774000Y-110156000D01*
X223774000Y-110156000D02*
X219764000Y-110156000D01*
X219764000Y-110156000D02*
X207264000Y-110156000D01*
X208913010Y-124505010D02*
X211074000Y-126666000D01*
X208913010Y-111805010D02*
X208913010Y-124505010D01*
X207264000Y-110156000D02*
X208913010Y-111805010D01*
X211074000Y-126666000D02*
X223574000Y-126666000D01*
X223574000Y-126666000D02*
X227584000Y-126666000D01*
X227584000Y-126666000D02*
X240084000Y-126666000D01*
X231194000Y-143176000D02*
X218694000Y-143176000D01*
X218694000Y-143176000D02*
X214684000Y-143176000D01*
X233043010Y-141326990D02*
X231194000Y-143176000D01*
X233043010Y-131932990D02*
X233043010Y-141326990D01*
X238310000Y-126666000D02*
X233043010Y-131932990D01*
X240084000Y-126666000D02*
X238310000Y-126666000D01*
G04 #@! TO.N,Y4*
X248539000Y-93646000D02*
X261039000Y-93646000D01*
X261039000Y-93646000D02*
X265049000Y-93646000D01*
X256794000Y-110156000D02*
X252784000Y-110156000D01*
X252784000Y-110156000D02*
X240284000Y-110156000D01*
X241933010Y-124505010D02*
X244094000Y-126666000D01*
X241933010Y-111805010D02*
X241933010Y-124505010D01*
X240284000Y-110156000D02*
X241933010Y-111805010D01*
X244094000Y-126666000D02*
X256594000Y-126666000D01*
X256594000Y-126666000D02*
X260604000Y-126666000D01*
X260604000Y-126666000D02*
X273104000Y-126666000D01*
X266063010Y-137516990D02*
X266063010Y-141326990D01*
X264214000Y-143176000D02*
X251714000Y-143176000D01*
X251714000Y-143176000D02*
X247704000Y-143176000D01*
X247704000Y-143176000D02*
X235204000Y-143176000D01*
X266063010Y-133706990D02*
X267957000Y-131813000D01*
X266063010Y-141326990D02*
X266063010Y-133706990D01*
X264214000Y-143176000D02*
X266063010Y-141326990D01*
X273104000Y-126666000D02*
X267957000Y-131813000D01*
X271143010Y-108306990D02*
X269294000Y-110156000D01*
X271143010Y-99740010D02*
X271143010Y-108306990D01*
X265049000Y-93646000D02*
X271143010Y-99740010D01*
G04 #@! TO.N,Y3*
X281559000Y-93646000D02*
X294059000Y-93646000D01*
X273304000Y-110156000D02*
X285804000Y-110156000D01*
X268224000Y-143176000D02*
X280724000Y-143176000D01*
X289614000Y-126666000D02*
X277114000Y-126666000D01*
X295529000Y-117776000D02*
X308029000Y-117776000D01*
X308029000Y-116706000D02*
X314579000Y-110156000D01*
X308029000Y-117776000D02*
X308029000Y-116706000D01*
X84764990Y-157836990D02*
X86614000Y-159686000D01*
X84764990Y-145025010D02*
X84764990Y-157836990D01*
X86614000Y-143176000D02*
X84764990Y-145025010D01*
X86614000Y-159686000D02*
X99114000Y-159686000D01*
X250463990Y-160936010D02*
X268224000Y-143176000D01*
X100963010Y-160936010D02*
X250463990Y-160936010D01*
X99713000Y-159686000D02*
X100963010Y-160936010D01*
X99114000Y-159686000D02*
X99713000Y-159686000D01*
X285804000Y-110156000D02*
X314579000Y-110156000D01*
X295529000Y-120751000D02*
X289614000Y-126666000D01*
X295529000Y-117776000D02*
X295529000Y-120751000D01*
X277114000Y-126866000D02*
X277114000Y-126666000D01*
X293424000Y-143176000D02*
X277114000Y-126866000D01*
X297234000Y-143176000D02*
X293424000Y-143176000D01*
X281559000Y-101901000D02*
X273304000Y-110156000D01*
X281559000Y-93646000D02*
X281559000Y-101901000D01*
G04 #@! TO.N,Y2*
X314579000Y-93646000D02*
X327079000Y-93646000D01*
X341739990Y-108306990D02*
X343589000Y-110156000D01*
X341739990Y-95495010D02*
X341739990Y-108306990D01*
X343589000Y-93646000D02*
X341739990Y-95495010D01*
X331089000Y-110156000D02*
X314579000Y-126666000D01*
X314579000Y-126666000D02*
X327079000Y-126666000D01*
X327079000Y-126666000D02*
X331089000Y-126666000D01*
X331089000Y-126666000D02*
X343589000Y-126666000D01*
X328928010Y-141326990D02*
X327079000Y-143176000D01*
X328928010Y-137970209D02*
X328928010Y-141326990D01*
X340232219Y-126666000D02*
X328928010Y-137970209D01*
X343589000Y-126666000D02*
X340232219Y-126666000D01*
X327079000Y-143176000D02*
X314579000Y-143176000D01*
X314579000Y-159686000D02*
X327079000Y-159686000D01*
X314579000Y-143176000D02*
X314579000Y-150241000D01*
X316428010Y-157836990D02*
X314579000Y-159686000D01*
X316428010Y-152090010D02*
X316428010Y-157836990D01*
X314579000Y-150241000D02*
X316428010Y-152090010D01*
X56769000Y-104521000D02*
X59505011Y-107257011D01*
X59505011Y-107257011D02*
X59505011Y-137610011D01*
X59505011Y-137610011D02*
X61849000Y-139954000D01*
X70009001Y-141445999D02*
X68834000Y-142621000D01*
X88463010Y-146401791D02*
X88463010Y-142658229D01*
X100497209Y-158435990D02*
X88463010Y-146401791D01*
X87250780Y-141445999D02*
X70009001Y-141445999D01*
X88463010Y-142658229D02*
X87250780Y-141445999D01*
X101873990Y-158435990D02*
X100497209Y-158435990D01*
X103124000Y-159686000D02*
X101873990Y-158435990D01*
G04 #@! TO.N,X9*
X72308999Y-151175999D02*
X73279000Y-152146000D01*
X72308999Y-143796001D02*
X72308999Y-151175999D01*
X73484000Y-142621000D02*
X72308999Y-143796001D01*
X72103999Y-153321001D02*
X68396999Y-153321001D01*
X73279000Y-152146000D02*
X72103999Y-153321001D01*
X58604991Y-143528993D02*
X59074499Y-143998501D01*
X58604991Y-108896991D02*
X58604991Y-143528993D01*
X56769000Y-107061000D02*
X58604991Y-108896991D01*
X68396999Y-153321001D02*
X59074499Y-143998501D01*
G04 #@! TO.N,X8*
X327079000Y-138176000D02*
X314579000Y-138176000D01*
X63270932Y-144677932D02*
X70739000Y-152146000D01*
X63270932Y-121055932D02*
X63270932Y-144677932D01*
X61849000Y-119634000D02*
X63270932Y-121055932D01*
X60198000Y-117983000D02*
X61849000Y-119634000D01*
X60198000Y-102870000D02*
X56769000Y-99441000D01*
X60198000Y-106299000D02*
X60198000Y-102870000D01*
X60198000Y-106299000D02*
X60198000Y-117983000D01*
X117473010Y-140025010D02*
X115624000Y-138176000D01*
X117473010Y-143693771D02*
X117473010Y-140025010D01*
X105230771Y-155936010D02*
X117473010Y-143693771D01*
X100364010Y-155936010D02*
X105230771Y-155936010D01*
X99114000Y-154686000D02*
X100364010Y-155936010D01*
X212271000Y-140589000D02*
X198174000Y-154686000D01*
X216281000Y-140589000D02*
X212271000Y-140589000D01*
X218694000Y-138176000D02*
X216281000Y-140589000D01*
X171196000Y-140208000D02*
X185674000Y-154686000D01*
X167186000Y-140208000D02*
X171196000Y-140208000D01*
X165154000Y-138176000D02*
X167186000Y-140208000D01*
G04 #@! TO.N,X7*
X282100781Y-138176000D02*
X298610781Y-154686000D01*
X298069000Y-154144219D02*
X298069000Y-154686000D01*
X282100781Y-138176000D02*
X298069000Y-154144219D01*
X280724000Y-138176000D02*
X282100781Y-138176000D01*
X68269999Y-138716001D02*
X63720942Y-134166944D01*
X72119001Y-138716001D02*
X68269999Y-138716001D01*
X73484000Y-140081000D02*
X72119001Y-138716001D01*
X63720942Y-118965942D02*
X61849000Y-117094000D01*
X63720942Y-134166944D02*
X63720942Y-118965942D01*
X198174000Y-138176000D02*
X185674000Y-138176000D01*
X134893990Y-136925990D02*
X136144000Y-138176000D01*
X115897209Y-136925990D02*
X134893990Y-136925990D01*
X103050219Y-124079000D02*
X115897209Y-136925990D01*
X93907000Y-124079000D02*
X103050219Y-124079000D01*
X91494000Y-121666000D02*
X93907000Y-124079000D01*
G04 #@! TO.N,X6*
X99114000Y-138176000D02*
X86614000Y-138176000D01*
X68459997Y-136365999D02*
X64170952Y-132076954D01*
X72308999Y-136365999D02*
X68459997Y-136365999D01*
X73484000Y-137541000D02*
X72308999Y-136365999D01*
X64170952Y-116875952D02*
X61849000Y-114554000D01*
X64170952Y-132076954D02*
X64170952Y-116875952D01*
G04 #@! TO.N,X5*
X87684000Y-105156000D02*
X75184000Y-105156000D01*
X68459997Y-133825999D02*
X64620961Y-129986963D01*
X72308999Y-133825999D02*
X68459997Y-133825999D01*
X73484000Y-135001000D02*
X72308999Y-133825999D01*
X64620961Y-114785961D02*
X61849000Y-112014000D01*
X64620961Y-129986963D02*
X64620961Y-114785961D01*
X90224000Y-107696000D02*
X87684000Y-105156000D01*
X108110781Y-107696000D02*
X90224000Y-107696000D01*
X112014000Y-111599219D02*
X108110781Y-107696000D01*
X112014000Y-121666000D02*
X112014000Y-111599219D01*
G04 #@! TO.N,X4*
X68269999Y-131096001D02*
X65070971Y-127896973D01*
X72119001Y-131096001D02*
X68269999Y-131096001D01*
X73484000Y-132461000D02*
X72119001Y-131096001D01*
X65070971Y-112695971D02*
X61849000Y-109474000D01*
X65070971Y-127896973D02*
X65070971Y-112695971D01*
X104194000Y-105156000D02*
X91694000Y-105156000D01*
X263017000Y-107569000D02*
X277114000Y-121666000D01*
X255197000Y-107569000D02*
X263017000Y-107569000D01*
X252784000Y-105156000D02*
X255197000Y-107569000D01*
G04 #@! TO.N,X3*
X79429000Y-88646000D02*
X66929000Y-88646000D01*
X68459997Y-128745999D02*
X65520980Y-125806982D01*
X72308999Y-128745999D02*
X68459997Y-128745999D01*
X73484000Y-129921000D02*
X72308999Y-128745999D01*
X65520980Y-110605980D02*
X61849000Y-106934000D01*
X65520980Y-125806982D02*
X65520980Y-110605980D01*
X114609990Y-95051990D02*
X124714000Y-105156000D01*
X114609990Y-93440209D02*
X114609990Y-95051990D01*
X112355781Y-91186000D02*
X114609990Y-93440209D01*
X81969000Y-91186000D02*
X112355781Y-91186000D01*
X79429000Y-88646000D02*
X81969000Y-91186000D01*
X331089000Y-148309219D02*
X331089000Y-154686000D01*
X349448010Y-120467010D02*
X349448010Y-129950209D01*
X335915000Y-106934000D02*
X349448010Y-120467010D01*
X335915000Y-96105219D02*
X335915000Y-106934000D01*
X329705791Y-89896010D02*
X335915000Y-96105219D01*
X328329010Y-89896010D02*
X329705791Y-89896010D01*
X349448010Y-129950209D02*
X331089000Y-148309219D01*
X327079000Y-88646000D02*
X328329010Y-89896010D01*
G04 #@! TO.N,X2*
X72119001Y-126016001D02*
X68269999Y-126016001D01*
X68269999Y-126016001D02*
X65970990Y-123716992D01*
X73484000Y-127381000D02*
X72119001Y-126016001D01*
X65970990Y-108515990D02*
X61849000Y-104394000D01*
X65970990Y-123716992D02*
X65970990Y-108515990D01*
X273304000Y-99534219D02*
X273304000Y-105156000D01*
X262415781Y-88646000D02*
X273304000Y-99534219D01*
X261039000Y-88646000D02*
X262415781Y-88646000D01*
X73484000Y-127412781D02*
X73484000Y-127381000D01*
X86025219Y-139954000D02*
X73484000Y-127412781D01*
X88392000Y-139954000D02*
X86025219Y-139954000D01*
X103124000Y-154686000D02*
X88392000Y-139954000D01*
G04 #@! TO.N,X1*
X328928010Y-152836990D02*
X327079000Y-154686000D01*
X328928010Y-142970209D02*
X328928010Y-152836990D01*
X331089000Y-140809219D02*
X328928010Y-142970209D01*
X331089000Y-138176000D02*
X331089000Y-140809219D01*
X295908010Y-90495010D02*
X294059000Y-88646000D01*
X295908010Y-94105010D02*
X295908010Y-90495010D01*
X296699010Y-94896010D02*
X295908010Y-94105010D01*
X301685791Y-94896010D02*
X296699010Y-94896010D01*
X316428010Y-110673771D02*
X316428010Y-109638229D01*
X316428010Y-109638229D02*
X301685791Y-94896010D01*
X312729990Y-114371791D02*
X316428010Y-110673771D01*
X312729990Y-152836990D02*
X312729990Y-114371791D01*
X314579000Y-154686000D02*
X312729990Y-152836990D01*
X67723999Y-123476001D02*
X66421000Y-122173002D01*
X72119001Y-123476001D02*
X67723999Y-123476001D01*
X73484000Y-124841000D02*
X72119001Y-123476001D01*
X66421000Y-106426000D02*
X61849000Y-101854000D01*
X66421000Y-122173002D02*
X66421000Y-106426000D01*
G04 #@! TO.N,Y1*
X331089000Y-143176000D02*
X347599000Y-126666000D01*
X347599000Y-93646000D02*
X360099000Y-93646000D01*
X360099000Y-97656000D02*
X347599000Y-110156000D01*
X360099000Y-93646000D02*
X360099000Y-97656000D01*
X347599000Y-110156000D02*
X360099000Y-110156000D01*
X343589000Y-143176000D02*
X347599000Y-143176000D01*
X347599000Y-143176000D02*
X360099000Y-143176000D01*
X360099000Y-159686000D02*
X347599000Y-159686000D01*
X347599000Y-159686000D02*
X343589000Y-159686000D01*
X343589000Y-159686000D02*
X331089000Y-159686000D01*
X311819010Y-160936010D02*
X310569000Y-159686000D01*
X329838990Y-160936010D02*
X311819010Y-160936010D01*
X331089000Y-159686000D02*
X329838990Y-160936010D01*
X310569000Y-159686000D02*
X298069000Y-159686000D01*
X59055000Y-139700000D02*
X61849000Y-142494000D01*
X59055000Y-107607998D02*
X59055000Y-139700000D01*
X57333001Y-105885999D02*
X59055000Y-107607998D01*
X56394997Y-105885999D02*
X57333001Y-105885999D01*
X55593999Y-105085001D02*
X56394997Y-105885999D01*
X55593999Y-103156001D02*
X55593999Y-105085001D01*
X56769000Y-101981000D02*
X55593999Y-103156001D01*
X358249990Y-112005010D02*
X358249990Y-124816990D01*
X358249990Y-124816990D02*
X360099000Y-126666000D01*
X360099000Y-110156000D02*
X358249990Y-112005010D01*
X358249990Y-157836990D02*
X360099000Y-159686000D01*
X358249990Y-145025010D02*
X358249990Y-157836990D01*
X360099000Y-143176000D02*
X358249990Y-145025010D01*
G04 #@! TO.N,Net-(J2-Pad1)*
X68834000Y-118491000D02*
X70739000Y-116586000D01*
X68834000Y-122301000D02*
X68834000Y-118491000D01*
G04 #@! TO.N,Net-(J3-Pad1)*
X71914001Y-113443001D02*
X70612000Y-112141000D01*
X71914001Y-120731001D02*
X71914001Y-113443001D01*
X73484000Y-122301000D02*
X71914001Y-120731001D01*
G04 #@! TD*
M02*
