G04 #@! TF.GenerationSoftware,KiCad,Pcbnew,(5.1.12)-1*
G04 #@! TF.CreationDate,2023-03-25T16:13:48+00:00*
G04 #@! TF.ProjectId,Keyboard,4b657962-6f61-4726-942e-6b696361645f,rev?*
G04 #@! TF.SameCoordinates,Original*
G04 #@! TF.FileFunction,Legend,Top*
G04 #@! TF.FilePolarity,Positive*
%FSLAX46Y46*%
G04 Gerber Fmt 4.6, Leading zero omitted, Abs format (unit mm)*
G04 Created by KiCad (PCBNEW (5.1.12)-1) date 2023-03-25 16:13:48*
%MOMM*%
%LPD*%
G01*
G04 APERTURE LIST*
%ADD10C,0.150000*%
%ADD11C,0.250000*%
%ADD12C,0.120000*%
G04 APERTURE END LIST*
D10*
X352266428Y-169997380D02*
X351933095Y-169521190D01*
X351695000Y-169997380D02*
X351695000Y-168997380D01*
X352075952Y-168997380D01*
X352171190Y-169045000D01*
X352218809Y-169092619D01*
X352266428Y-169187857D01*
X352266428Y-169330714D01*
X352218809Y-169425952D01*
X352171190Y-169473571D01*
X352075952Y-169521190D01*
X351695000Y-169521190D01*
X352695000Y-169473571D02*
X353028333Y-169473571D01*
X353171190Y-169997380D02*
X352695000Y-169997380D01*
X352695000Y-168997380D01*
X353171190Y-168997380D01*
X353456904Y-168997380D02*
X353790238Y-169997380D01*
X354123571Y-168997380D01*
X355742619Y-169997380D02*
X355171190Y-169997380D01*
X355456904Y-169997380D02*
X355456904Y-168997380D01*
X355361666Y-169140238D01*
X355266428Y-169235476D01*
X355171190Y-169283095D01*
D11*
X240555000Y-161929285D02*
X240459761Y-162024523D01*
X240174047Y-162119761D01*
X239983571Y-162119761D01*
X239697857Y-162024523D01*
X239507380Y-161834047D01*
X239412142Y-161643571D01*
X239316904Y-161262619D01*
X239316904Y-160976904D01*
X239412142Y-160595952D01*
X239507380Y-160405476D01*
X239697857Y-160215000D01*
X239983571Y-160119761D01*
X240174047Y-160119761D01*
X240459761Y-160215000D01*
X240555000Y-160310238D01*
X241412142Y-162119761D02*
X241412142Y-160119761D01*
X242174047Y-160119761D01*
X242364523Y-160215000D01*
X242459761Y-160310238D01*
X242555000Y-160500714D01*
X242555000Y-160786428D01*
X242459761Y-160976904D01*
X242364523Y-161072142D01*
X242174047Y-161167380D01*
X241412142Y-161167380D01*
X244555000Y-161929285D02*
X244459761Y-162024523D01*
X244174047Y-162119761D01*
X243983571Y-162119761D01*
X243697857Y-162024523D01*
X243507380Y-161834047D01*
X243412142Y-161643571D01*
X243316904Y-161262619D01*
X243316904Y-160976904D01*
X243412142Y-160595952D01*
X243507380Y-160405476D01*
X243697857Y-160215000D01*
X243983571Y-160119761D01*
X244174047Y-160119761D01*
X244459761Y-160215000D01*
X244555000Y-160310238D01*
X246935952Y-162119761D02*
X246935952Y-160119761D01*
X248078809Y-162119761D02*
X247221666Y-160976904D01*
X248078809Y-160119761D02*
X246935952Y-161262619D01*
X249697857Y-162024523D02*
X249507380Y-162119761D01*
X249126428Y-162119761D01*
X248935952Y-162024523D01*
X248840714Y-161834047D01*
X248840714Y-161072142D01*
X248935952Y-160881666D01*
X249126428Y-160786428D01*
X249507380Y-160786428D01*
X249697857Y-160881666D01*
X249793095Y-161072142D01*
X249793095Y-161262619D01*
X248840714Y-161453095D01*
X250459761Y-160786428D02*
X250935952Y-162119761D01*
X251412142Y-160786428D02*
X250935952Y-162119761D01*
X250745476Y-162595952D01*
X250650238Y-162691190D01*
X250459761Y-162786428D01*
X252174047Y-162119761D02*
X252174047Y-160119761D01*
X252174047Y-160881666D02*
X252364523Y-160786428D01*
X252745476Y-160786428D01*
X252935952Y-160881666D01*
X253031190Y-160976904D01*
X253126428Y-161167380D01*
X253126428Y-161738809D01*
X253031190Y-161929285D01*
X252935952Y-162024523D01*
X252745476Y-162119761D01*
X252364523Y-162119761D01*
X252174047Y-162024523D01*
X254269285Y-162119761D02*
X254078809Y-162024523D01*
X253983571Y-161929285D01*
X253888333Y-161738809D01*
X253888333Y-161167380D01*
X253983571Y-160976904D01*
X254078809Y-160881666D01*
X254269285Y-160786428D01*
X254555000Y-160786428D01*
X254745476Y-160881666D01*
X254840714Y-160976904D01*
X254935952Y-161167380D01*
X254935952Y-161738809D01*
X254840714Y-161929285D01*
X254745476Y-162024523D01*
X254555000Y-162119761D01*
X254269285Y-162119761D01*
X256650238Y-162119761D02*
X256650238Y-161072142D01*
X256555000Y-160881666D01*
X256364523Y-160786428D01*
X255983571Y-160786428D01*
X255793095Y-160881666D01*
X256650238Y-162024523D02*
X256459761Y-162119761D01*
X255983571Y-162119761D01*
X255793095Y-162024523D01*
X255697857Y-161834047D01*
X255697857Y-161643571D01*
X255793095Y-161453095D01*
X255983571Y-161357857D01*
X256459761Y-161357857D01*
X256650238Y-161262619D01*
X257602619Y-162119761D02*
X257602619Y-160786428D01*
X257602619Y-161167380D02*
X257697857Y-160976904D01*
X257793095Y-160881666D01*
X257983571Y-160786428D01*
X258174047Y-160786428D01*
X259697857Y-162119761D02*
X259697857Y-160119761D01*
X259697857Y-162024523D02*
X259507380Y-162119761D01*
X259126428Y-162119761D01*
X258935952Y-162024523D01*
X258840714Y-161929285D01*
X258745476Y-161738809D01*
X258745476Y-161167380D01*
X258840714Y-160976904D01*
X258935952Y-160881666D01*
X259126428Y-160786428D01*
X259507380Y-160786428D01*
X259697857Y-160881666D01*
X235269285Y-163845952D02*
X235078809Y-163750714D01*
X234697857Y-163750714D01*
X234507380Y-163845952D01*
X234316904Y-164036428D01*
X234221666Y-164226904D01*
X234221666Y-164607857D01*
X234316904Y-164798333D01*
X234507380Y-164988809D01*
X234697857Y-165084047D01*
X235078809Y-165084047D01*
X235269285Y-164988809D01*
X234888333Y-163084047D02*
X234412142Y-163179285D01*
X233935952Y-163465000D01*
X233650238Y-163941190D01*
X233555000Y-164417380D01*
X233650238Y-164893571D01*
X233935952Y-165369761D01*
X234412142Y-165655476D01*
X234888333Y-165750714D01*
X235364523Y-165655476D01*
X235840714Y-165369761D01*
X236126428Y-164893571D01*
X236221666Y-164417380D01*
X236126428Y-163941190D01*
X235840714Y-163465000D01*
X235364523Y-163179285D01*
X234888333Y-163084047D01*
X238602619Y-165369761D02*
X238602619Y-163369761D01*
X239269285Y-164798333D01*
X239935952Y-163369761D01*
X239935952Y-165369761D01*
X240888333Y-165369761D02*
X240888333Y-164036428D01*
X240888333Y-163369761D02*
X240793095Y-163465000D01*
X240888333Y-163560238D01*
X240983571Y-163465000D01*
X240888333Y-163369761D01*
X240888333Y-163560238D01*
X241840714Y-165369761D02*
X241840714Y-163369761D01*
X242031190Y-164607857D02*
X242602619Y-165369761D01*
X242602619Y-164036428D02*
X241840714Y-164798333D01*
X244221666Y-165274523D02*
X244031190Y-165369761D01*
X243650238Y-165369761D01*
X243459761Y-165274523D01*
X243364523Y-165084047D01*
X243364523Y-164322142D01*
X243459761Y-164131666D01*
X243650238Y-164036428D01*
X244031190Y-164036428D01*
X244221666Y-164131666D01*
X244316904Y-164322142D01*
X244316904Y-164512619D01*
X243364523Y-164703095D01*
X246602619Y-165274523D02*
X246888333Y-165369761D01*
X247364523Y-165369761D01*
X247555000Y-165274523D01*
X247650238Y-165179285D01*
X247745476Y-164988809D01*
X247745476Y-164798333D01*
X247650238Y-164607857D01*
X247555000Y-164512619D01*
X247364523Y-164417380D01*
X246983571Y-164322142D01*
X246793095Y-164226904D01*
X246697857Y-164131666D01*
X246602619Y-163941190D01*
X246602619Y-163750714D01*
X246697857Y-163560238D01*
X246793095Y-163465000D01*
X246983571Y-163369761D01*
X247459761Y-163369761D01*
X247745476Y-163465000D01*
X249459761Y-164036428D02*
X249459761Y-165369761D01*
X248602619Y-164036428D02*
X248602619Y-165084047D01*
X248697857Y-165274523D01*
X248888333Y-165369761D01*
X249174047Y-165369761D01*
X249364523Y-165274523D01*
X249459761Y-165179285D01*
X250126428Y-164036428D02*
X250888333Y-164036428D01*
X250412142Y-163369761D02*
X250412142Y-165084047D01*
X250507380Y-165274523D01*
X250697857Y-165369761D01*
X250888333Y-165369761D01*
X251269285Y-164036428D02*
X252031190Y-164036428D01*
X251555000Y-163369761D02*
X251555000Y-165084047D01*
X251650238Y-165274523D01*
X251840714Y-165369761D01*
X252031190Y-165369761D01*
X252983571Y-165369761D02*
X252793095Y-165274523D01*
X252697857Y-165179285D01*
X252602619Y-164988809D01*
X252602619Y-164417380D01*
X252697857Y-164226904D01*
X252793095Y-164131666D01*
X252983571Y-164036428D01*
X253269285Y-164036428D01*
X253459761Y-164131666D01*
X253555000Y-164226904D01*
X253650238Y-164417380D01*
X253650238Y-164988809D01*
X253555000Y-165179285D01*
X253459761Y-165274523D01*
X253269285Y-165369761D01*
X252983571Y-165369761D01*
X254507380Y-164036428D02*
X254507380Y-165369761D01*
X254507380Y-164226904D02*
X254602619Y-164131666D01*
X254793095Y-164036428D01*
X255078809Y-164036428D01*
X255269285Y-164131666D01*
X255364523Y-164322142D01*
X255364523Y-165369761D01*
X256412142Y-165274523D02*
X256412142Y-165369761D01*
X256316904Y-165560238D01*
X256221666Y-165655476D01*
X258697857Y-163560238D02*
X258793095Y-163465000D01*
X258983571Y-163369761D01*
X259459761Y-163369761D01*
X259650238Y-163465000D01*
X259745476Y-163560238D01*
X259840714Y-163750714D01*
X259840714Y-163941190D01*
X259745476Y-164226904D01*
X258602619Y-165369761D01*
X259840714Y-165369761D01*
X261078809Y-163369761D02*
X261269285Y-163369761D01*
X261459761Y-163465000D01*
X261555000Y-163560238D01*
X261650238Y-163750714D01*
X261745476Y-164131666D01*
X261745476Y-164607857D01*
X261650238Y-164988809D01*
X261555000Y-165179285D01*
X261459761Y-165274523D01*
X261269285Y-165369761D01*
X261078809Y-165369761D01*
X260888333Y-165274523D01*
X260793095Y-165179285D01*
X260697857Y-164988809D01*
X260602619Y-164607857D01*
X260602619Y-164131666D01*
X260697857Y-163750714D01*
X260793095Y-163560238D01*
X260888333Y-163465000D01*
X261078809Y-163369761D01*
X262507380Y-163560238D02*
X262602619Y-163465000D01*
X262793095Y-163369761D01*
X263269285Y-163369761D01*
X263459761Y-163465000D01*
X263555000Y-163560238D01*
X263650238Y-163750714D01*
X263650238Y-163941190D01*
X263555000Y-164226904D01*
X262412142Y-165369761D01*
X263650238Y-165369761D01*
X264316904Y-163369761D02*
X265554999Y-163369761D01*
X264888333Y-164131666D01*
X265174047Y-164131666D01*
X265364523Y-164226904D01*
X265459761Y-164322142D01*
X265554999Y-164512619D01*
X265554999Y-164988809D01*
X265459761Y-165179285D01*
X265364523Y-165274523D01*
X265174047Y-165369761D01*
X264602619Y-165369761D01*
X264412142Y-165274523D01*
X264316904Y-165179285D01*
X240935952Y-167572142D02*
X241221666Y-167667380D01*
X241316904Y-167762619D01*
X241412142Y-167953095D01*
X241412142Y-168238809D01*
X241316904Y-168429285D01*
X241221666Y-168524523D01*
X241031190Y-168619761D01*
X240269285Y-168619761D01*
X240269285Y-166619761D01*
X240935952Y-166619761D01*
X241126428Y-166715000D01*
X241221666Y-166810238D01*
X241316904Y-167000714D01*
X241316904Y-167191190D01*
X241221666Y-167381666D01*
X241126428Y-167476904D01*
X240935952Y-167572142D01*
X240269285Y-167572142D01*
X242269285Y-168619761D02*
X242269285Y-167286428D01*
X242269285Y-167667380D02*
X242364523Y-167476904D01*
X242459761Y-167381666D01*
X242650238Y-167286428D01*
X242840714Y-167286428D01*
X244269285Y-168524523D02*
X244078809Y-168619761D01*
X243697857Y-168619761D01*
X243507380Y-168524523D01*
X243412142Y-168334047D01*
X243412142Y-167572142D01*
X243507380Y-167381666D01*
X243697857Y-167286428D01*
X244078809Y-167286428D01*
X244269285Y-167381666D01*
X244364523Y-167572142D01*
X244364523Y-167762619D01*
X243412142Y-167953095D01*
X246078809Y-168619761D02*
X246078809Y-167572142D01*
X245983571Y-167381666D01*
X245793095Y-167286428D01*
X245412142Y-167286428D01*
X245221666Y-167381666D01*
X246078809Y-168524523D02*
X245888333Y-168619761D01*
X245412142Y-168619761D01*
X245221666Y-168524523D01*
X245126428Y-168334047D01*
X245126428Y-168143571D01*
X245221666Y-167953095D01*
X245412142Y-167857857D01*
X245888333Y-167857857D01*
X246078809Y-167762619D01*
X247888333Y-168619761D02*
X247888333Y-166619761D01*
X247888333Y-168524523D02*
X247697857Y-168619761D01*
X247316904Y-168619761D01*
X247126428Y-168524523D01*
X247031190Y-168429285D01*
X246935952Y-168238809D01*
X246935952Y-167667380D01*
X247031190Y-167476904D01*
X247126428Y-167381666D01*
X247316904Y-167286428D01*
X247697857Y-167286428D01*
X247888333Y-167381666D01*
X249126428Y-167476904D02*
X248935952Y-167381666D01*
X248840714Y-167286428D01*
X248745476Y-167095952D01*
X248745476Y-167000714D01*
X248840714Y-166810238D01*
X248935952Y-166715000D01*
X249126428Y-166619761D01*
X249507380Y-166619761D01*
X249697857Y-166715000D01*
X249793095Y-166810238D01*
X249888333Y-167000714D01*
X249888333Y-167095952D01*
X249793095Y-167286428D01*
X249697857Y-167381666D01*
X249507380Y-167476904D01*
X249126428Y-167476904D01*
X248935952Y-167572142D01*
X248840714Y-167667380D01*
X248745476Y-167857857D01*
X248745476Y-168238809D01*
X248840714Y-168429285D01*
X248935952Y-168524523D01*
X249126428Y-168619761D01*
X249507380Y-168619761D01*
X249697857Y-168524523D01*
X249793095Y-168429285D01*
X249888333Y-168238809D01*
X249888333Y-167857857D01*
X249793095Y-167667380D01*
X249697857Y-167572142D01*
X249507380Y-167476904D01*
X251126428Y-166619761D02*
X251316904Y-166619761D01*
X251507380Y-166715000D01*
X251602619Y-166810238D01*
X251697857Y-167000714D01*
X251793095Y-167381666D01*
X251793095Y-167857857D01*
X251697857Y-168238809D01*
X251602619Y-168429285D01*
X251507380Y-168524523D01*
X251316904Y-168619761D01*
X251126428Y-168619761D01*
X250935952Y-168524523D01*
X250840714Y-168429285D01*
X250745476Y-168238809D01*
X250650238Y-167857857D01*
X250650238Y-167381666D01*
X250745476Y-167000714D01*
X250840714Y-166810238D01*
X250935952Y-166715000D01*
X251126428Y-166619761D01*
X252650238Y-168429285D02*
X252745476Y-168524523D01*
X252650238Y-168619761D01*
X252555000Y-168524523D01*
X252650238Y-168429285D01*
X252650238Y-168619761D01*
X254459761Y-168524523D02*
X254269285Y-168619761D01*
X253888333Y-168619761D01*
X253697857Y-168524523D01*
X253602619Y-168429285D01*
X253507380Y-168238809D01*
X253507380Y-167667380D01*
X253602619Y-167476904D01*
X253697857Y-167381666D01*
X253888333Y-167286428D01*
X254269285Y-167286428D01*
X254459761Y-167381666D01*
X255602619Y-168619761D02*
X255412142Y-168524523D01*
X255316904Y-168429285D01*
X255221666Y-168238809D01*
X255221666Y-167667380D01*
X255316904Y-167476904D01*
X255412142Y-167381666D01*
X255602619Y-167286428D01*
X255888333Y-167286428D01*
X256078809Y-167381666D01*
X256174047Y-167476904D01*
X256269285Y-167667380D01*
X256269285Y-168238809D01*
X256174047Y-168429285D01*
X256078809Y-168524523D01*
X255888333Y-168619761D01*
X255602619Y-168619761D01*
X257126428Y-168619761D02*
X257126428Y-167286428D01*
X257126428Y-167476904D02*
X257221666Y-167381666D01*
X257412142Y-167286428D01*
X257697857Y-167286428D01*
X257888333Y-167381666D01*
X257983571Y-167572142D01*
X257983571Y-168619761D01*
X257983571Y-167572142D02*
X258078809Y-167381666D01*
X258269285Y-167286428D01*
X258554999Y-167286428D01*
X258745476Y-167381666D01*
X258840714Y-167572142D01*
X258840714Y-168619761D01*
D10*
X68707095Y-109386714D02*
X68707095Y-110053380D01*
X68469000Y-109005761D02*
X68230904Y-109720047D01*
X68849952Y-109720047D01*
X69659476Y-109053380D02*
X69469000Y-109053380D01*
X69373761Y-109101000D01*
X69326142Y-109148619D01*
X69230904Y-109291476D01*
X69183285Y-109481952D01*
X69183285Y-109862904D01*
X69230904Y-109958142D01*
X69278523Y-110005761D01*
X69373761Y-110053380D01*
X69564238Y-110053380D01*
X69659476Y-110005761D01*
X69707095Y-109958142D01*
X69754714Y-109862904D01*
X69754714Y-109624809D01*
X69707095Y-109529571D01*
X69659476Y-109481952D01*
X69564238Y-109434333D01*
X69373761Y-109434333D01*
X69278523Y-109481952D01*
X69230904Y-109529571D01*
X69183285Y-109624809D01*
X70611857Y-109386714D02*
X70611857Y-110053380D01*
X70373761Y-109005761D02*
X70135666Y-109720047D01*
X70754714Y-109720047D01*
X71405904Y-118578380D02*
X71215428Y-118578380D01*
X71120190Y-118626000D01*
X71072571Y-118673619D01*
X70977333Y-118816476D01*
X70929714Y-119006952D01*
X70929714Y-119387904D01*
X70977333Y-119483142D01*
X71024952Y-119530761D01*
X71120190Y-119578380D01*
X71310666Y-119578380D01*
X71405904Y-119530761D01*
X71453523Y-119483142D01*
X71501142Y-119387904D01*
X71501142Y-119149809D01*
X71453523Y-119054571D01*
X71405904Y-119006952D01*
X71310666Y-118959333D01*
X71120190Y-118959333D01*
X71024952Y-119006952D01*
X70977333Y-119054571D01*
X70929714Y-119149809D01*
X72453523Y-119578380D02*
X71882095Y-119578380D01*
X72167809Y-119578380D02*
X72167809Y-118578380D01*
X72072571Y-118721238D01*
X71977333Y-118816476D01*
X71882095Y-118864095D01*
X72834476Y-118673619D02*
X72882095Y-118626000D01*
X72977333Y-118578380D01*
X73215428Y-118578380D01*
X73310666Y-118626000D01*
X73358285Y-118673619D01*
X73405904Y-118768857D01*
X73405904Y-118864095D01*
X73358285Y-119006952D01*
X72786857Y-119578380D01*
X73405904Y-119578380D01*
X73977333Y-119006952D02*
X73882095Y-118959333D01*
X73834476Y-118911714D01*
X73786857Y-118816476D01*
X73786857Y-118768857D01*
X73834476Y-118673619D01*
X73882095Y-118626000D01*
X73977333Y-118578380D01*
X74167809Y-118578380D01*
X74263047Y-118626000D01*
X74310666Y-118673619D01*
X74358285Y-118768857D01*
X74358285Y-118816476D01*
X74310666Y-118911714D01*
X74263047Y-118959333D01*
X74167809Y-119006952D01*
X73977333Y-119006952D01*
X73882095Y-119054571D01*
X73834476Y-119102190D01*
X73786857Y-119197428D01*
X73786857Y-119387904D01*
X73834476Y-119483142D01*
X73882095Y-119530761D01*
X73977333Y-119578380D01*
X74167809Y-119578380D01*
X74263047Y-119530761D01*
X74310666Y-119483142D01*
X74358285Y-119387904D01*
X74358285Y-119197428D01*
X74310666Y-119102190D01*
X74263047Y-119054571D01*
X74167809Y-119006952D01*
X67437095Y-118911714D02*
X67437095Y-119578380D01*
X67199000Y-118530761D02*
X66960904Y-119245047D01*
X67579952Y-119245047D01*
X68389476Y-118578380D02*
X68199000Y-118578380D01*
X68103761Y-118626000D01*
X68056142Y-118673619D01*
X67960904Y-118816476D01*
X67913285Y-119006952D01*
X67913285Y-119387904D01*
X67960904Y-119483142D01*
X68008523Y-119530761D01*
X68103761Y-119578380D01*
X68294238Y-119578380D01*
X68389476Y-119530761D01*
X68437095Y-119483142D01*
X68484714Y-119387904D01*
X68484714Y-119149809D01*
X68437095Y-119054571D01*
X68389476Y-119006952D01*
X68294238Y-118959333D01*
X68103761Y-118959333D01*
X68008523Y-119006952D01*
X67960904Y-119054571D01*
X67913285Y-119149809D01*
X69341857Y-118911714D02*
X69341857Y-119578380D01*
X69103761Y-118530761D02*
X68865666Y-119245047D01*
X69484714Y-119245047D01*
X70770904Y-154138380D02*
X70580428Y-154138380D01*
X70485190Y-154186000D01*
X70437571Y-154233619D01*
X70342333Y-154376476D01*
X70294714Y-154566952D01*
X70294714Y-154947904D01*
X70342333Y-155043142D01*
X70389952Y-155090761D01*
X70485190Y-155138380D01*
X70675666Y-155138380D01*
X70770904Y-155090761D01*
X70818523Y-155043142D01*
X70866142Y-154947904D01*
X70866142Y-154709809D01*
X70818523Y-154614571D01*
X70770904Y-154566952D01*
X70675666Y-154519333D01*
X70485190Y-154519333D01*
X70389952Y-154566952D01*
X70342333Y-154614571D01*
X70294714Y-154709809D01*
X71818523Y-155138380D02*
X71247095Y-155138380D01*
X71532809Y-155138380D02*
X71532809Y-154138380D01*
X71437571Y-154281238D01*
X71342333Y-154376476D01*
X71247095Y-154424095D01*
X72199476Y-154233619D02*
X72247095Y-154186000D01*
X72342333Y-154138380D01*
X72580428Y-154138380D01*
X72675666Y-154186000D01*
X72723285Y-154233619D01*
X72770904Y-154328857D01*
X72770904Y-154424095D01*
X72723285Y-154566952D01*
X72151857Y-155138380D01*
X72770904Y-155138380D01*
X73342333Y-154566952D02*
X73247095Y-154519333D01*
X73199476Y-154471714D01*
X73151857Y-154376476D01*
X73151857Y-154328857D01*
X73199476Y-154233619D01*
X73247095Y-154186000D01*
X73342333Y-154138380D01*
X73532809Y-154138380D01*
X73628047Y-154186000D01*
X73675666Y-154233619D01*
X73723285Y-154328857D01*
X73723285Y-154376476D01*
X73675666Y-154471714D01*
X73628047Y-154519333D01*
X73532809Y-154566952D01*
X73342333Y-154566952D01*
X73247095Y-154614571D01*
X73199476Y-154662190D01*
X73151857Y-154757428D01*
X73151857Y-154947904D01*
X73199476Y-155043142D01*
X73247095Y-155090761D01*
X73342333Y-155138380D01*
X73532809Y-155138380D01*
X73628047Y-155090761D01*
X73675666Y-155043142D01*
X73723285Y-154947904D01*
X73723285Y-154757428D01*
X73675666Y-154662190D01*
X73628047Y-154614571D01*
X73532809Y-154566952D01*
D12*
G04 #@! TO.C,JP2*
X71942000Y-113471000D02*
X71942000Y-110811000D01*
X69342000Y-113471000D02*
X71942000Y-113471000D01*
X69342000Y-110811000D02*
X71942000Y-110811000D01*
X69342000Y-113471000D02*
X69342000Y-110811000D01*
X68072000Y-113471000D02*
X66742000Y-113471000D01*
X66742000Y-113471000D02*
X66742000Y-112141000D01*
G04 #@! TO.C,JP1*
X74609000Y-117916000D02*
X74609000Y-115256000D01*
X69469000Y-117916000D02*
X74609000Y-117916000D01*
X69469000Y-115256000D02*
X74609000Y-115256000D01*
X69469000Y-117916000D02*
X69469000Y-115256000D01*
X68199000Y-117916000D02*
X66869000Y-117916000D01*
X66869000Y-117916000D02*
X66869000Y-116586000D01*
G04 #@! TO.C,JP3*
X74609000Y-153476000D02*
X74609000Y-150816000D01*
X72009000Y-153476000D02*
X74609000Y-153476000D01*
X72009000Y-150816000D02*
X74609000Y-150816000D01*
X72009000Y-153476000D02*
X72009000Y-150816000D01*
X70739000Y-153476000D02*
X69409000Y-153476000D01*
X69409000Y-153476000D02*
X69409000Y-152146000D01*
G04 #@! TO.C,SW22*
X280624000Y-134526000D02*
X280624000Y-137246000D01*
X280624000Y-144106000D02*
X280624000Y-146826000D01*
X268324000Y-142246000D02*
X268324000Y-139106000D01*
X268324000Y-146826000D02*
X268324000Y-144106000D01*
X279153050Y-140716000D02*
G75*
G03*
X279153050Y-140716000I-4579050J0D01*
G01*
X268324000Y-137246000D02*
X268324000Y-134526000D01*
X280624000Y-146826000D02*
X268324000Y-146826000D01*
X280624000Y-139106000D02*
X280624000Y-142246000D01*
X268324000Y-134526000D02*
X280624000Y-134526000D01*
G04 #@! TO.C,SW121*
X297134000Y-134526000D02*
X297134000Y-137246000D01*
X297134000Y-144106000D02*
X297134000Y-146826000D01*
X284834000Y-142246000D02*
X284834000Y-139106000D01*
X284834000Y-146826000D02*
X284834000Y-144106000D01*
X295663050Y-140716000D02*
G75*
G03*
X295663050Y-140716000I-4579050J0D01*
G01*
X284834000Y-137246000D02*
X284834000Y-134526000D01*
X297134000Y-146826000D02*
X284834000Y-146826000D01*
X297134000Y-139106000D02*
X297134000Y-142246000D01*
X284834000Y-134526000D02*
X297134000Y-134526000D01*
G04 #@! TO.C,SW79*
X310469000Y-84996000D02*
X310469000Y-87716000D01*
X310469000Y-94576000D02*
X310469000Y-97296000D01*
X298169000Y-92716000D02*
X298169000Y-89576000D01*
X298169000Y-97296000D02*
X298169000Y-94576000D01*
X308998050Y-91186000D02*
G75*
G03*
X308998050Y-91186000I-4579050J0D01*
G01*
X298169000Y-87716000D02*
X298169000Y-84996000D01*
X310469000Y-97296000D02*
X298169000Y-97296000D01*
X310469000Y-89576000D02*
X310469000Y-92716000D01*
X298169000Y-84996000D02*
X310469000Y-84996000D01*
G04 #@! TO.C,SW71*
X115524000Y-134526000D02*
X115524000Y-137246000D01*
X115524000Y-144106000D02*
X115524000Y-146826000D01*
X103224000Y-142246000D02*
X103224000Y-139106000D01*
X103224000Y-146826000D02*
X103224000Y-144106000D01*
X114053050Y-140716000D02*
G75*
G03*
X114053050Y-140716000I-4579050J0D01*
G01*
X103224000Y-137246000D02*
X103224000Y-134526000D01*
X115524000Y-146826000D02*
X103224000Y-146826000D01*
X115524000Y-139106000D02*
X115524000Y-142246000D01*
X103224000Y-134526000D02*
X115524000Y-134526000D01*
G04 #@! TO.C,SW70*
X91394000Y-118016000D02*
X91394000Y-120736000D01*
X91394000Y-127596000D02*
X91394000Y-130316000D01*
X79094000Y-125736000D02*
X79094000Y-122596000D01*
X79094000Y-130316000D02*
X79094000Y-127596000D01*
X89923050Y-124206000D02*
G75*
G03*
X89923050Y-124206000I-4579050J0D01*
G01*
X79094000Y-120736000D02*
X79094000Y-118016000D01*
X91394000Y-130316000D02*
X79094000Y-130316000D01*
X91394000Y-122596000D02*
X91394000Y-125736000D01*
X79094000Y-118016000D02*
X91394000Y-118016000D01*
G04 #@! TO.C,SW69*
X107904000Y-118016000D02*
X107904000Y-120736000D01*
X107904000Y-127596000D02*
X107904000Y-130316000D01*
X95604000Y-125736000D02*
X95604000Y-122596000D01*
X95604000Y-130316000D02*
X95604000Y-127596000D01*
X106433050Y-124206000D02*
G75*
G03*
X106433050Y-124206000I-4579050J0D01*
G01*
X95604000Y-120736000D02*
X95604000Y-118016000D01*
X107904000Y-130316000D02*
X95604000Y-130316000D01*
X107904000Y-122596000D02*
X107904000Y-125736000D01*
X95604000Y-118016000D02*
X107904000Y-118016000D01*
G04 #@! TO.C,SW68*
X87584000Y-101506000D02*
X87584000Y-104226000D01*
X87584000Y-111086000D02*
X87584000Y-113806000D01*
X75284000Y-109226000D02*
X75284000Y-106086000D01*
X75284000Y-113806000D02*
X75284000Y-111086000D01*
X86113050Y-107696000D02*
G75*
G03*
X86113050Y-107696000I-4579050J0D01*
G01*
X75284000Y-104226000D02*
X75284000Y-101506000D01*
X87584000Y-113806000D02*
X75284000Y-113806000D01*
X87584000Y-106086000D02*
X87584000Y-109226000D01*
X75284000Y-101506000D02*
X87584000Y-101506000D01*
G04 #@! TO.C,SW67*
X104094000Y-101506000D02*
X104094000Y-104226000D01*
X104094000Y-111086000D02*
X104094000Y-113806000D01*
X91794000Y-109226000D02*
X91794000Y-106086000D01*
X91794000Y-113806000D02*
X91794000Y-111086000D01*
X102623050Y-107696000D02*
G75*
G03*
X102623050Y-107696000I-4579050J0D01*
G01*
X91794000Y-104226000D02*
X91794000Y-101506000D01*
X104094000Y-113806000D02*
X91794000Y-113806000D01*
X104094000Y-106086000D02*
X104094000Y-109226000D01*
X91794000Y-101506000D02*
X104094000Y-101506000D01*
G04 #@! TO.C,SW66*
X79329000Y-84996000D02*
X79329000Y-87716000D01*
X79329000Y-94576000D02*
X79329000Y-97296000D01*
X67029000Y-92716000D02*
X67029000Y-89576000D01*
X67029000Y-97296000D02*
X67029000Y-94576000D01*
X77858050Y-91186000D02*
G75*
G03*
X77858050Y-91186000I-4579050J0D01*
G01*
X67029000Y-87716000D02*
X67029000Y-84996000D01*
X79329000Y-97296000D02*
X67029000Y-97296000D01*
X79329000Y-89576000D02*
X79329000Y-92716000D01*
X67029000Y-84996000D02*
X79329000Y-84996000D01*
G04 #@! TO.C,SW65*
X112349000Y-84996000D02*
X112349000Y-87716000D01*
X112349000Y-94576000D02*
X112349000Y-97296000D01*
X100049000Y-92716000D02*
X100049000Y-89576000D01*
X100049000Y-97296000D02*
X100049000Y-94576000D01*
X110878050Y-91186000D02*
G75*
G03*
X110878050Y-91186000I-4579050J0D01*
G01*
X100049000Y-87716000D02*
X100049000Y-84996000D01*
X112349000Y-97296000D02*
X100049000Y-97296000D01*
X112349000Y-89576000D02*
X112349000Y-92716000D01*
X100049000Y-84996000D02*
X112349000Y-84996000D01*
G04 #@! TO.C,SW64*
X95839000Y-84996000D02*
X95839000Y-87716000D01*
X95839000Y-94576000D02*
X95839000Y-97296000D01*
X83539000Y-92716000D02*
X83539000Y-89576000D01*
X83539000Y-97296000D02*
X83539000Y-94576000D01*
X94368050Y-91186000D02*
G75*
G03*
X94368050Y-91186000I-4579050J0D01*
G01*
X83539000Y-87716000D02*
X83539000Y-84996000D01*
X95839000Y-97296000D02*
X83539000Y-97296000D01*
X95839000Y-89576000D02*
X95839000Y-92716000D01*
X83539000Y-84996000D02*
X95839000Y-84996000D01*
G04 #@! TO.C,SW63*
X132034000Y-134526000D02*
X132034000Y-137246000D01*
X132034000Y-144106000D02*
X132034000Y-146826000D01*
X119734000Y-142246000D02*
X119734000Y-139106000D01*
X119734000Y-146826000D02*
X119734000Y-144106000D01*
X130563050Y-140716000D02*
G75*
G03*
X130563050Y-140716000I-4579050J0D01*
G01*
X119734000Y-137246000D02*
X119734000Y-134526000D01*
X132034000Y-146826000D02*
X119734000Y-146826000D01*
X132034000Y-139106000D02*
X132034000Y-142246000D01*
X119734000Y-134526000D02*
X132034000Y-134526000D01*
G04 #@! TO.C,SW62*
X148544000Y-134526000D02*
X148544000Y-137246000D01*
X148544000Y-144106000D02*
X148544000Y-146826000D01*
X136244000Y-142246000D02*
X136244000Y-139106000D01*
X136244000Y-146826000D02*
X136244000Y-144106000D01*
X147073050Y-140716000D02*
G75*
G03*
X147073050Y-140716000I-4579050J0D01*
G01*
X136244000Y-137246000D02*
X136244000Y-134526000D01*
X148544000Y-146826000D02*
X136244000Y-146826000D01*
X148544000Y-139106000D02*
X148544000Y-142246000D01*
X136244000Y-134526000D02*
X148544000Y-134526000D01*
G04 #@! TO.C,SW61*
X140924000Y-118016000D02*
X140924000Y-120736000D01*
X140924000Y-127596000D02*
X140924000Y-130316000D01*
X128624000Y-125736000D02*
X128624000Y-122596000D01*
X128624000Y-130316000D02*
X128624000Y-127596000D01*
X139453050Y-124206000D02*
G75*
G03*
X139453050Y-124206000I-4579050J0D01*
G01*
X128624000Y-120736000D02*
X128624000Y-118016000D01*
X140924000Y-130316000D02*
X128624000Y-130316000D01*
X140924000Y-122596000D02*
X140924000Y-125736000D01*
X128624000Y-118016000D02*
X140924000Y-118016000D01*
G04 #@! TO.C,SW60*
X124414000Y-118016000D02*
X124414000Y-120736000D01*
X124414000Y-127596000D02*
X124414000Y-130316000D01*
X112114000Y-125736000D02*
X112114000Y-122596000D01*
X112114000Y-130316000D02*
X112114000Y-127596000D01*
X122943050Y-124206000D02*
G75*
G03*
X122943050Y-124206000I-4579050J0D01*
G01*
X112114000Y-120736000D02*
X112114000Y-118016000D01*
X124414000Y-130316000D02*
X112114000Y-130316000D01*
X124414000Y-122596000D02*
X124414000Y-125736000D01*
X112114000Y-118016000D02*
X124414000Y-118016000D01*
G04 #@! TO.C,SW59*
X120604000Y-101506000D02*
X120604000Y-104226000D01*
X120604000Y-111086000D02*
X120604000Y-113806000D01*
X108304000Y-109226000D02*
X108304000Y-106086000D01*
X108304000Y-113806000D02*
X108304000Y-111086000D01*
X119133050Y-107696000D02*
G75*
G03*
X119133050Y-107696000I-4579050J0D01*
G01*
X108304000Y-104226000D02*
X108304000Y-101506000D01*
X120604000Y-113806000D02*
X108304000Y-113806000D01*
X120604000Y-106086000D02*
X120604000Y-109226000D01*
X108304000Y-101506000D02*
X120604000Y-101506000D01*
G04 #@! TO.C,SW58*
X137114000Y-101506000D02*
X137114000Y-104226000D01*
X137114000Y-111086000D02*
X137114000Y-113806000D01*
X124814000Y-109226000D02*
X124814000Y-106086000D01*
X124814000Y-113806000D02*
X124814000Y-111086000D01*
X135643050Y-107696000D02*
G75*
G03*
X135643050Y-107696000I-4579050J0D01*
G01*
X124814000Y-104226000D02*
X124814000Y-101506000D01*
X137114000Y-113806000D02*
X124814000Y-113806000D01*
X137114000Y-106086000D02*
X137114000Y-109226000D01*
X124814000Y-101506000D02*
X137114000Y-101506000D01*
G04 #@! TO.C,SW57*
X128859000Y-84996000D02*
X128859000Y-87716000D01*
X128859000Y-94576000D02*
X128859000Y-97296000D01*
X116559000Y-92716000D02*
X116559000Y-89576000D01*
X116559000Y-97296000D02*
X116559000Y-94576000D01*
X127388050Y-91186000D02*
G75*
G03*
X127388050Y-91186000I-4579050J0D01*
G01*
X116559000Y-87716000D02*
X116559000Y-84996000D01*
X128859000Y-97296000D02*
X116559000Y-97296000D01*
X128859000Y-89576000D02*
X128859000Y-92716000D01*
X116559000Y-84996000D02*
X128859000Y-84996000D01*
G04 #@! TO.C,SW56*
X145369000Y-84996000D02*
X145369000Y-87716000D01*
X145369000Y-94576000D02*
X145369000Y-97296000D01*
X133069000Y-92716000D02*
X133069000Y-89576000D01*
X133069000Y-97296000D02*
X133069000Y-94576000D01*
X143898050Y-91186000D02*
G75*
G03*
X143898050Y-91186000I-4579050J0D01*
G01*
X133069000Y-87716000D02*
X133069000Y-84996000D01*
X145369000Y-97296000D02*
X133069000Y-97296000D01*
X145369000Y-89576000D02*
X145369000Y-92716000D01*
X133069000Y-84996000D02*
X145369000Y-84996000D01*
G04 #@! TO.C,SW55*
X165054000Y-134526000D02*
X165054000Y-137246000D01*
X165054000Y-144106000D02*
X165054000Y-146826000D01*
X152754000Y-142246000D02*
X152754000Y-139106000D01*
X152754000Y-146826000D02*
X152754000Y-144106000D01*
X163583050Y-140716000D02*
G75*
G03*
X163583050Y-140716000I-4579050J0D01*
G01*
X152754000Y-137246000D02*
X152754000Y-134526000D01*
X165054000Y-146826000D02*
X152754000Y-146826000D01*
X165054000Y-139106000D02*
X165054000Y-142246000D01*
X152754000Y-134526000D02*
X165054000Y-134526000D01*
G04 #@! TO.C,SW54*
X181564000Y-134526000D02*
X181564000Y-137246000D01*
X181564000Y-144106000D02*
X181564000Y-146826000D01*
X169264000Y-142246000D02*
X169264000Y-139106000D01*
X169264000Y-146826000D02*
X169264000Y-144106000D01*
X180093050Y-140716000D02*
G75*
G03*
X180093050Y-140716000I-4579050J0D01*
G01*
X169264000Y-137246000D02*
X169264000Y-134526000D01*
X181564000Y-146826000D02*
X169264000Y-146826000D01*
X181564000Y-139106000D02*
X181564000Y-142246000D01*
X169264000Y-134526000D02*
X181564000Y-134526000D01*
G04 #@! TO.C,SW53*
X157434000Y-118016000D02*
X157434000Y-120736000D01*
X157434000Y-127596000D02*
X157434000Y-130316000D01*
X145134000Y-125736000D02*
X145134000Y-122596000D01*
X145134000Y-130316000D02*
X145134000Y-127596000D01*
X155963050Y-124206000D02*
G75*
G03*
X155963050Y-124206000I-4579050J0D01*
G01*
X145134000Y-120736000D02*
X145134000Y-118016000D01*
X157434000Y-130316000D02*
X145134000Y-130316000D01*
X157434000Y-122596000D02*
X157434000Y-125736000D01*
X145134000Y-118016000D02*
X157434000Y-118016000D01*
G04 #@! TO.C,SW52*
X173944000Y-118016000D02*
X173944000Y-120736000D01*
X173944000Y-127596000D02*
X173944000Y-130316000D01*
X161644000Y-125736000D02*
X161644000Y-122596000D01*
X161644000Y-130316000D02*
X161644000Y-127596000D01*
X172473050Y-124206000D02*
G75*
G03*
X172473050Y-124206000I-4579050J0D01*
G01*
X161644000Y-120736000D02*
X161644000Y-118016000D01*
X173944000Y-130316000D02*
X161644000Y-130316000D01*
X173944000Y-122596000D02*
X173944000Y-125736000D01*
X161644000Y-118016000D02*
X173944000Y-118016000D01*
G04 #@! TO.C,SW51*
X170134000Y-101506000D02*
X170134000Y-104226000D01*
X170134000Y-111086000D02*
X170134000Y-113806000D01*
X157834000Y-109226000D02*
X157834000Y-106086000D01*
X157834000Y-113806000D02*
X157834000Y-111086000D01*
X168663050Y-107696000D02*
G75*
G03*
X168663050Y-107696000I-4579050J0D01*
G01*
X157834000Y-104226000D02*
X157834000Y-101506000D01*
X170134000Y-113806000D02*
X157834000Y-113806000D01*
X170134000Y-106086000D02*
X170134000Y-109226000D01*
X157834000Y-101506000D02*
X170134000Y-101506000D01*
G04 #@! TO.C,SW50*
X153624000Y-101506000D02*
X153624000Y-104226000D01*
X153624000Y-111086000D02*
X153624000Y-113806000D01*
X141324000Y-109226000D02*
X141324000Y-106086000D01*
X141324000Y-113806000D02*
X141324000Y-111086000D01*
X152153050Y-107696000D02*
G75*
G03*
X152153050Y-107696000I-4579050J0D01*
G01*
X141324000Y-104226000D02*
X141324000Y-101506000D01*
X153624000Y-113806000D02*
X141324000Y-113806000D01*
X153624000Y-106086000D02*
X153624000Y-109226000D01*
X141324000Y-101506000D02*
X153624000Y-101506000D01*
G04 #@! TO.C,SW49*
X161879000Y-84996000D02*
X161879000Y-87716000D01*
X161879000Y-94576000D02*
X161879000Y-97296000D01*
X149579000Y-92716000D02*
X149579000Y-89576000D01*
X149579000Y-97296000D02*
X149579000Y-94576000D01*
X160408050Y-91186000D02*
G75*
G03*
X160408050Y-91186000I-4579050J0D01*
G01*
X149579000Y-87716000D02*
X149579000Y-84996000D01*
X161879000Y-97296000D02*
X149579000Y-97296000D01*
X161879000Y-89576000D02*
X161879000Y-92716000D01*
X149579000Y-84996000D02*
X161879000Y-84996000D01*
G04 #@! TO.C,SW48*
X178389000Y-84996000D02*
X178389000Y-87716000D01*
X178389000Y-94576000D02*
X178389000Y-97296000D01*
X166089000Y-92716000D02*
X166089000Y-89576000D01*
X166089000Y-97296000D02*
X166089000Y-94576000D01*
X176918050Y-91186000D02*
G75*
G03*
X176918050Y-91186000I-4579050J0D01*
G01*
X166089000Y-87716000D02*
X166089000Y-84996000D01*
X178389000Y-97296000D02*
X166089000Y-97296000D01*
X178389000Y-89576000D02*
X178389000Y-92716000D01*
X166089000Y-84996000D02*
X178389000Y-84996000D01*
G04 #@! TO.C,SW47*
X198074000Y-151036000D02*
X198074000Y-153756000D01*
X198074000Y-160616000D02*
X198074000Y-163336000D01*
X185774000Y-158756000D02*
X185774000Y-155616000D01*
X185774000Y-163336000D02*
X185774000Y-160616000D01*
X196603050Y-157226000D02*
G75*
G03*
X196603050Y-157226000I-4579050J0D01*
G01*
X185774000Y-153756000D02*
X185774000Y-151036000D01*
X198074000Y-163336000D02*
X185774000Y-163336000D01*
X198074000Y-155616000D02*
X198074000Y-158756000D01*
X185774000Y-151036000D02*
X198074000Y-151036000D01*
G04 #@! TO.C,SW46*
X198074000Y-134526000D02*
X198074000Y-137246000D01*
X198074000Y-144106000D02*
X198074000Y-146826000D01*
X185774000Y-142246000D02*
X185774000Y-139106000D01*
X185774000Y-146826000D02*
X185774000Y-144106000D01*
X196603050Y-140716000D02*
G75*
G03*
X196603050Y-140716000I-4579050J0D01*
G01*
X185774000Y-137246000D02*
X185774000Y-134526000D01*
X198074000Y-146826000D02*
X185774000Y-146826000D01*
X198074000Y-139106000D02*
X198074000Y-142246000D01*
X185774000Y-134526000D02*
X198074000Y-134526000D01*
G04 #@! TO.C,SW45*
X206964000Y-118016000D02*
X206964000Y-120736000D01*
X206964000Y-127596000D02*
X206964000Y-130316000D01*
X194664000Y-125736000D02*
X194664000Y-122596000D01*
X194664000Y-130316000D02*
X194664000Y-127596000D01*
X205493050Y-124206000D02*
G75*
G03*
X205493050Y-124206000I-4579050J0D01*
G01*
X194664000Y-120736000D02*
X194664000Y-118016000D01*
X206964000Y-130316000D02*
X194664000Y-130316000D01*
X206964000Y-122596000D02*
X206964000Y-125736000D01*
X194664000Y-118016000D02*
X206964000Y-118016000D01*
G04 #@! TO.C,SW44*
X190454000Y-118016000D02*
X190454000Y-120736000D01*
X190454000Y-127596000D02*
X190454000Y-130316000D01*
X178154000Y-125736000D02*
X178154000Y-122596000D01*
X178154000Y-130316000D02*
X178154000Y-127596000D01*
X188983050Y-124206000D02*
G75*
G03*
X188983050Y-124206000I-4579050J0D01*
G01*
X178154000Y-120736000D02*
X178154000Y-118016000D01*
X190454000Y-130316000D02*
X178154000Y-130316000D01*
X190454000Y-122596000D02*
X190454000Y-125736000D01*
X178154000Y-118016000D02*
X190454000Y-118016000D01*
G04 #@! TO.C,SW43*
X186644000Y-101506000D02*
X186644000Y-104226000D01*
X186644000Y-111086000D02*
X186644000Y-113806000D01*
X174344000Y-109226000D02*
X174344000Y-106086000D01*
X174344000Y-113806000D02*
X174344000Y-111086000D01*
X185173050Y-107696000D02*
G75*
G03*
X185173050Y-107696000I-4579050J0D01*
G01*
X174344000Y-104226000D02*
X174344000Y-101506000D01*
X186644000Y-113806000D02*
X174344000Y-113806000D01*
X186644000Y-106086000D02*
X186644000Y-109226000D01*
X174344000Y-101506000D02*
X186644000Y-101506000D01*
G04 #@! TO.C,SW42*
X203154000Y-101506000D02*
X203154000Y-104226000D01*
X203154000Y-111086000D02*
X203154000Y-113806000D01*
X190854000Y-109226000D02*
X190854000Y-106086000D01*
X190854000Y-113806000D02*
X190854000Y-111086000D01*
X201683050Y-107696000D02*
G75*
G03*
X201683050Y-107696000I-4579050J0D01*
G01*
X190854000Y-104226000D02*
X190854000Y-101506000D01*
X203154000Y-113806000D02*
X190854000Y-113806000D01*
X203154000Y-106086000D02*
X203154000Y-109226000D01*
X190854000Y-101506000D02*
X203154000Y-101506000D01*
G04 #@! TO.C,SW41*
X194899000Y-84996000D02*
X194899000Y-87716000D01*
X194899000Y-94576000D02*
X194899000Y-97296000D01*
X182599000Y-92716000D02*
X182599000Y-89576000D01*
X182599000Y-97296000D02*
X182599000Y-94576000D01*
X193428050Y-91186000D02*
G75*
G03*
X193428050Y-91186000I-4579050J0D01*
G01*
X182599000Y-87716000D02*
X182599000Y-84996000D01*
X194899000Y-97296000D02*
X182599000Y-97296000D01*
X194899000Y-89576000D02*
X194899000Y-92716000D01*
X182599000Y-84996000D02*
X194899000Y-84996000D01*
G04 #@! TO.C,SW40*
X211409000Y-84996000D02*
X211409000Y-87716000D01*
X211409000Y-94576000D02*
X211409000Y-97296000D01*
X199109000Y-92716000D02*
X199109000Y-89576000D01*
X199109000Y-97296000D02*
X199109000Y-94576000D01*
X209938050Y-91186000D02*
G75*
G03*
X209938050Y-91186000I-4579050J0D01*
G01*
X199109000Y-87716000D02*
X199109000Y-84996000D01*
X211409000Y-97296000D02*
X199109000Y-97296000D01*
X211409000Y-89576000D02*
X211409000Y-92716000D01*
X199109000Y-84996000D02*
X211409000Y-84996000D01*
G04 #@! TO.C,SW39*
X231094000Y-134526000D02*
X231094000Y-137246000D01*
X231094000Y-144106000D02*
X231094000Y-146826000D01*
X218794000Y-142246000D02*
X218794000Y-139106000D01*
X218794000Y-146826000D02*
X218794000Y-144106000D01*
X229623050Y-140716000D02*
G75*
G03*
X229623050Y-140716000I-4579050J0D01*
G01*
X218794000Y-137246000D02*
X218794000Y-134526000D01*
X231094000Y-146826000D02*
X218794000Y-146826000D01*
X231094000Y-139106000D02*
X231094000Y-142246000D01*
X218794000Y-134526000D02*
X231094000Y-134526000D01*
G04 #@! TO.C,SW38*
X214584000Y-134526000D02*
X214584000Y-137246000D01*
X214584000Y-144106000D02*
X214584000Y-146826000D01*
X202284000Y-142246000D02*
X202284000Y-139106000D01*
X202284000Y-146826000D02*
X202284000Y-144106000D01*
X213113050Y-140716000D02*
G75*
G03*
X213113050Y-140716000I-4579050J0D01*
G01*
X202284000Y-137246000D02*
X202284000Y-134526000D01*
X214584000Y-146826000D02*
X202284000Y-146826000D01*
X214584000Y-139106000D02*
X214584000Y-142246000D01*
X202284000Y-134526000D02*
X214584000Y-134526000D01*
G04 #@! TO.C,SW37*
X223474000Y-118016000D02*
X223474000Y-120736000D01*
X223474000Y-127596000D02*
X223474000Y-130316000D01*
X211174000Y-125736000D02*
X211174000Y-122596000D01*
X211174000Y-130316000D02*
X211174000Y-127596000D01*
X222003050Y-124206000D02*
G75*
G03*
X222003050Y-124206000I-4579050J0D01*
G01*
X211174000Y-120736000D02*
X211174000Y-118016000D01*
X223474000Y-130316000D02*
X211174000Y-130316000D01*
X223474000Y-122596000D02*
X223474000Y-125736000D01*
X211174000Y-118016000D02*
X223474000Y-118016000D01*
G04 #@! TO.C,SW36*
X239984000Y-118016000D02*
X239984000Y-120736000D01*
X239984000Y-127596000D02*
X239984000Y-130316000D01*
X227684000Y-125736000D02*
X227684000Y-122596000D01*
X227684000Y-130316000D02*
X227684000Y-127596000D01*
X238513050Y-124206000D02*
G75*
G03*
X238513050Y-124206000I-4579050J0D01*
G01*
X227684000Y-120736000D02*
X227684000Y-118016000D01*
X239984000Y-130316000D02*
X227684000Y-130316000D01*
X239984000Y-122596000D02*
X239984000Y-125736000D01*
X227684000Y-118016000D02*
X239984000Y-118016000D01*
G04 #@! TO.C,SW35*
X219664000Y-101506000D02*
X219664000Y-104226000D01*
X219664000Y-111086000D02*
X219664000Y-113806000D01*
X207364000Y-109226000D02*
X207364000Y-106086000D01*
X207364000Y-113806000D02*
X207364000Y-111086000D01*
X218193050Y-107696000D02*
G75*
G03*
X218193050Y-107696000I-4579050J0D01*
G01*
X207364000Y-104226000D02*
X207364000Y-101506000D01*
X219664000Y-113806000D02*
X207364000Y-113806000D01*
X219664000Y-106086000D02*
X219664000Y-109226000D01*
X207364000Y-101506000D02*
X219664000Y-101506000D01*
G04 #@! TO.C,SW34*
X236174000Y-101506000D02*
X236174000Y-104226000D01*
X236174000Y-111086000D02*
X236174000Y-113806000D01*
X223874000Y-109226000D02*
X223874000Y-106086000D01*
X223874000Y-113806000D02*
X223874000Y-111086000D01*
X234703050Y-107696000D02*
G75*
G03*
X234703050Y-107696000I-4579050J0D01*
G01*
X223874000Y-104226000D02*
X223874000Y-101506000D01*
X236174000Y-113806000D02*
X223874000Y-113806000D01*
X236174000Y-106086000D02*
X236174000Y-109226000D01*
X223874000Y-101506000D02*
X236174000Y-101506000D01*
G04 #@! TO.C,SW33*
X227919000Y-84996000D02*
X227919000Y-87716000D01*
X227919000Y-94576000D02*
X227919000Y-97296000D01*
X215619000Y-92716000D02*
X215619000Y-89576000D01*
X215619000Y-97296000D02*
X215619000Y-94576000D01*
X226448050Y-91186000D02*
G75*
G03*
X226448050Y-91186000I-4579050J0D01*
G01*
X215619000Y-87716000D02*
X215619000Y-84996000D01*
X227919000Y-97296000D02*
X215619000Y-97296000D01*
X227919000Y-89576000D02*
X227919000Y-92716000D01*
X215619000Y-84996000D02*
X227919000Y-84996000D01*
G04 #@! TO.C,SW32*
X244429000Y-84996000D02*
X244429000Y-87716000D01*
X244429000Y-94576000D02*
X244429000Y-97296000D01*
X232129000Y-92716000D02*
X232129000Y-89576000D01*
X232129000Y-97296000D02*
X232129000Y-94576000D01*
X242958050Y-91186000D02*
G75*
G03*
X242958050Y-91186000I-4579050J0D01*
G01*
X232129000Y-87716000D02*
X232129000Y-84996000D01*
X244429000Y-97296000D02*
X232129000Y-97296000D01*
X244429000Y-89576000D02*
X244429000Y-92716000D01*
X232129000Y-84996000D02*
X244429000Y-84996000D01*
G04 #@! TO.C,SW31*
X247604000Y-134526000D02*
X247604000Y-137246000D01*
X247604000Y-144106000D02*
X247604000Y-146826000D01*
X235304000Y-142246000D02*
X235304000Y-139106000D01*
X235304000Y-146826000D02*
X235304000Y-144106000D01*
X246133050Y-140716000D02*
G75*
G03*
X246133050Y-140716000I-4579050J0D01*
G01*
X235304000Y-137246000D02*
X235304000Y-134526000D01*
X247604000Y-146826000D02*
X235304000Y-146826000D01*
X247604000Y-139106000D02*
X247604000Y-142246000D01*
X235304000Y-134526000D02*
X247604000Y-134526000D01*
G04 #@! TO.C,SW30*
X264114000Y-134526000D02*
X264114000Y-137246000D01*
X264114000Y-144106000D02*
X264114000Y-146826000D01*
X251814000Y-142246000D02*
X251814000Y-139106000D01*
X251814000Y-146826000D02*
X251814000Y-144106000D01*
X262643050Y-140716000D02*
G75*
G03*
X262643050Y-140716000I-4579050J0D01*
G01*
X251814000Y-137246000D02*
X251814000Y-134526000D01*
X264114000Y-146826000D02*
X251814000Y-146826000D01*
X264114000Y-139106000D02*
X264114000Y-142246000D01*
X251814000Y-134526000D02*
X264114000Y-134526000D01*
G04 #@! TO.C,SW29*
X256494000Y-118016000D02*
X256494000Y-120736000D01*
X256494000Y-127596000D02*
X256494000Y-130316000D01*
X244194000Y-125736000D02*
X244194000Y-122596000D01*
X244194000Y-130316000D02*
X244194000Y-127596000D01*
X255023050Y-124206000D02*
G75*
G03*
X255023050Y-124206000I-4579050J0D01*
G01*
X244194000Y-120736000D02*
X244194000Y-118016000D01*
X256494000Y-130316000D02*
X244194000Y-130316000D01*
X256494000Y-122596000D02*
X256494000Y-125736000D01*
X244194000Y-118016000D02*
X256494000Y-118016000D01*
G04 #@! TO.C,SW28*
X273004000Y-118016000D02*
X273004000Y-120736000D01*
X273004000Y-127596000D02*
X273004000Y-130316000D01*
X260704000Y-125736000D02*
X260704000Y-122596000D01*
X260704000Y-130316000D02*
X260704000Y-127596000D01*
X271533050Y-124206000D02*
G75*
G03*
X271533050Y-124206000I-4579050J0D01*
G01*
X260704000Y-120736000D02*
X260704000Y-118016000D01*
X273004000Y-130316000D02*
X260704000Y-130316000D01*
X273004000Y-122596000D02*
X273004000Y-125736000D01*
X260704000Y-118016000D02*
X273004000Y-118016000D01*
G04 #@! TO.C,SW27*
X252684000Y-101506000D02*
X252684000Y-104226000D01*
X252684000Y-111086000D02*
X252684000Y-113806000D01*
X240384000Y-109226000D02*
X240384000Y-106086000D01*
X240384000Y-113806000D02*
X240384000Y-111086000D01*
X251213050Y-107696000D02*
G75*
G03*
X251213050Y-107696000I-4579050J0D01*
G01*
X240384000Y-104226000D02*
X240384000Y-101506000D01*
X252684000Y-113806000D02*
X240384000Y-113806000D01*
X252684000Y-106086000D02*
X252684000Y-109226000D01*
X240384000Y-101506000D02*
X252684000Y-101506000D01*
G04 #@! TO.C,SW26*
X269194000Y-101506000D02*
X269194000Y-104226000D01*
X269194000Y-111086000D02*
X269194000Y-113806000D01*
X256894000Y-109226000D02*
X256894000Y-106086000D01*
X256894000Y-113806000D02*
X256894000Y-111086000D01*
X267723050Y-107696000D02*
G75*
G03*
X267723050Y-107696000I-4579050J0D01*
G01*
X256894000Y-104226000D02*
X256894000Y-101506000D01*
X269194000Y-113806000D02*
X256894000Y-113806000D01*
X269194000Y-106086000D02*
X269194000Y-109226000D01*
X256894000Y-101506000D02*
X269194000Y-101506000D01*
G04 #@! TO.C,SW25*
X260939000Y-84996000D02*
X260939000Y-87716000D01*
X260939000Y-94576000D02*
X260939000Y-97296000D01*
X248639000Y-92716000D02*
X248639000Y-89576000D01*
X248639000Y-97296000D02*
X248639000Y-94576000D01*
X259468050Y-91186000D02*
G75*
G03*
X259468050Y-91186000I-4579050J0D01*
G01*
X248639000Y-87716000D02*
X248639000Y-84996000D01*
X260939000Y-97296000D02*
X248639000Y-97296000D01*
X260939000Y-89576000D02*
X260939000Y-92716000D01*
X248639000Y-84996000D02*
X260939000Y-84996000D01*
G04 #@! TO.C,SW24*
X277449000Y-84996000D02*
X277449000Y-87716000D01*
X277449000Y-94576000D02*
X277449000Y-97296000D01*
X265149000Y-92716000D02*
X265149000Y-89576000D01*
X265149000Y-97296000D02*
X265149000Y-94576000D01*
X275978050Y-91186000D02*
G75*
G03*
X275978050Y-91186000I-4579050J0D01*
G01*
X265149000Y-87716000D02*
X265149000Y-84996000D01*
X277449000Y-97296000D02*
X265149000Y-97296000D01*
X277449000Y-89576000D02*
X277449000Y-92716000D01*
X265149000Y-84996000D02*
X277449000Y-84996000D01*
G04 #@! TO.C,SW23*
X99014000Y-151036000D02*
X99014000Y-153756000D01*
X99014000Y-160616000D02*
X99014000Y-163336000D01*
X86714000Y-158756000D02*
X86714000Y-155616000D01*
X86714000Y-163336000D02*
X86714000Y-160616000D01*
X97543050Y-157226000D02*
G75*
G03*
X97543050Y-157226000I-4579050J0D01*
G01*
X86714000Y-153756000D02*
X86714000Y-151036000D01*
X99014000Y-163336000D02*
X86714000Y-163336000D01*
X99014000Y-155616000D02*
X99014000Y-158756000D01*
X86714000Y-151036000D02*
X99014000Y-151036000D01*
G04 #@! TO.C,SW21*
X99014000Y-134526000D02*
X99014000Y-137246000D01*
X99014000Y-144106000D02*
X99014000Y-146826000D01*
X86714000Y-142246000D02*
X86714000Y-139106000D01*
X86714000Y-146826000D02*
X86714000Y-144106000D01*
X97543050Y-140716000D02*
G75*
G03*
X97543050Y-140716000I-4579050J0D01*
G01*
X86714000Y-137246000D02*
X86714000Y-134526000D01*
X99014000Y-146826000D02*
X86714000Y-146826000D01*
X99014000Y-139106000D02*
X99014000Y-142246000D01*
X86714000Y-134526000D02*
X99014000Y-134526000D01*
G04 #@! TO.C,SW20*
X326979000Y-101506000D02*
X326979000Y-104226000D01*
X326979000Y-111086000D02*
X326979000Y-113806000D01*
X314679000Y-109226000D02*
X314679000Y-106086000D01*
X314679000Y-113806000D02*
X314679000Y-111086000D01*
X325508050Y-107696000D02*
G75*
G03*
X325508050Y-107696000I-4579050J0D01*
G01*
X314679000Y-104226000D02*
X314679000Y-101506000D01*
X326979000Y-113806000D02*
X314679000Y-113806000D01*
X326979000Y-106086000D02*
X326979000Y-109226000D01*
X314679000Y-101506000D02*
X326979000Y-101506000D01*
G04 #@! TO.C,SW19*
X289514000Y-118016000D02*
X289514000Y-120736000D01*
X289514000Y-127596000D02*
X289514000Y-130316000D01*
X277214000Y-125736000D02*
X277214000Y-122596000D01*
X277214000Y-130316000D02*
X277214000Y-127596000D01*
X288043050Y-124206000D02*
G75*
G03*
X288043050Y-124206000I-4579050J0D01*
G01*
X277214000Y-120736000D02*
X277214000Y-118016000D01*
X289514000Y-130316000D02*
X277214000Y-130316000D01*
X289514000Y-122596000D02*
X289514000Y-125736000D01*
X277214000Y-118016000D02*
X289514000Y-118016000D01*
G04 #@! TO.C,SW18*
X307929000Y-109126000D02*
X307929000Y-111846000D01*
X307929000Y-118706000D02*
X307929000Y-121426000D01*
X295629000Y-116846000D02*
X295629000Y-113706000D01*
X295629000Y-121426000D02*
X295629000Y-118706000D01*
X306458050Y-115316000D02*
G75*
G03*
X306458050Y-115316000I-4579050J0D01*
G01*
X295629000Y-111846000D02*
X295629000Y-109126000D01*
X307929000Y-121426000D02*
X295629000Y-121426000D01*
X307929000Y-113706000D02*
X307929000Y-116846000D01*
X295629000Y-109126000D02*
X307929000Y-109126000D01*
G04 #@! TO.C,SW17*
X285704000Y-101506000D02*
X285704000Y-104226000D01*
X285704000Y-111086000D02*
X285704000Y-113806000D01*
X273404000Y-109226000D02*
X273404000Y-106086000D01*
X273404000Y-113806000D02*
X273404000Y-111086000D01*
X284233050Y-107696000D02*
G75*
G03*
X284233050Y-107696000I-4579050J0D01*
G01*
X273404000Y-104226000D02*
X273404000Y-101506000D01*
X285704000Y-113806000D02*
X273404000Y-113806000D01*
X285704000Y-106086000D02*
X285704000Y-109226000D01*
X273404000Y-101506000D02*
X285704000Y-101506000D01*
G04 #@! TO.C,SW16*
X293959000Y-84996000D02*
X293959000Y-87716000D01*
X293959000Y-94576000D02*
X293959000Y-97296000D01*
X281659000Y-92716000D02*
X281659000Y-89576000D01*
X281659000Y-97296000D02*
X281659000Y-94576000D01*
X292488050Y-91186000D02*
G75*
G03*
X292488050Y-91186000I-4579050J0D01*
G01*
X281659000Y-87716000D02*
X281659000Y-84996000D01*
X293959000Y-97296000D02*
X281659000Y-97296000D01*
X293959000Y-89576000D02*
X293959000Y-92716000D01*
X281659000Y-84996000D02*
X293959000Y-84996000D01*
G04 #@! TO.C,SW15*
X326979000Y-134526000D02*
X326979000Y-137246000D01*
X326979000Y-144106000D02*
X326979000Y-146826000D01*
X314679000Y-142246000D02*
X314679000Y-139106000D01*
X314679000Y-146826000D02*
X314679000Y-144106000D01*
X325508050Y-140716000D02*
G75*
G03*
X325508050Y-140716000I-4579050J0D01*
G01*
X314679000Y-137246000D02*
X314679000Y-134526000D01*
X326979000Y-146826000D02*
X314679000Y-146826000D01*
X326979000Y-139106000D02*
X326979000Y-142246000D01*
X314679000Y-134526000D02*
X326979000Y-134526000D01*
G04 #@! TO.C,SW14*
X343489000Y-118016000D02*
X343489000Y-120736000D01*
X343489000Y-127596000D02*
X343489000Y-130316000D01*
X331189000Y-125736000D02*
X331189000Y-122596000D01*
X331189000Y-130316000D02*
X331189000Y-127596000D01*
X342018050Y-124206000D02*
G75*
G03*
X342018050Y-124206000I-4579050J0D01*
G01*
X331189000Y-120736000D02*
X331189000Y-118016000D01*
X343489000Y-130316000D02*
X331189000Y-130316000D01*
X343489000Y-122596000D02*
X343489000Y-125736000D01*
X331189000Y-118016000D02*
X343489000Y-118016000D01*
G04 #@! TO.C,SW13*
X326979000Y-118016000D02*
X326979000Y-120736000D01*
X326979000Y-127596000D02*
X326979000Y-130316000D01*
X314679000Y-125736000D02*
X314679000Y-122596000D01*
X314679000Y-130316000D02*
X314679000Y-127596000D01*
X325508050Y-124206000D02*
G75*
G03*
X325508050Y-124206000I-4579050J0D01*
G01*
X314679000Y-120736000D02*
X314679000Y-118016000D01*
X326979000Y-130316000D02*
X314679000Y-130316000D01*
X326979000Y-122596000D02*
X326979000Y-125736000D01*
X314679000Y-118016000D02*
X326979000Y-118016000D01*
G04 #@! TO.C,SW12*
X343489000Y-101506000D02*
X343489000Y-104226000D01*
X343489000Y-111086000D02*
X343489000Y-113806000D01*
X331189000Y-109226000D02*
X331189000Y-106086000D01*
X331189000Y-113806000D02*
X331189000Y-111086000D01*
X342018050Y-107696000D02*
G75*
G03*
X342018050Y-107696000I-4579050J0D01*
G01*
X331189000Y-104226000D02*
X331189000Y-101506000D01*
X343489000Y-113806000D02*
X331189000Y-113806000D01*
X343489000Y-106086000D02*
X343489000Y-109226000D01*
X331189000Y-101506000D02*
X343489000Y-101506000D01*
G04 #@! TO.C,SW11*
X343489000Y-84996000D02*
X343489000Y-87716000D01*
X343489000Y-94576000D02*
X343489000Y-97296000D01*
X331189000Y-92716000D02*
X331189000Y-89576000D01*
X331189000Y-97296000D02*
X331189000Y-94576000D01*
X342018050Y-91186000D02*
G75*
G03*
X342018050Y-91186000I-4579050J0D01*
G01*
X331189000Y-87716000D02*
X331189000Y-84996000D01*
X343489000Y-97296000D02*
X331189000Y-97296000D01*
X343489000Y-89576000D02*
X343489000Y-92716000D01*
X331189000Y-84996000D02*
X343489000Y-84996000D01*
G04 #@! TO.C,SW10*
X326979000Y-84996000D02*
X326979000Y-87716000D01*
X326979000Y-94576000D02*
X326979000Y-97296000D01*
X314679000Y-92716000D02*
X314679000Y-89576000D01*
X314679000Y-97296000D02*
X314679000Y-94576000D01*
X325508050Y-91186000D02*
G75*
G03*
X325508050Y-91186000I-4579050J0D01*
G01*
X314679000Y-87716000D02*
X314679000Y-84996000D01*
X326979000Y-97296000D02*
X314679000Y-97296000D01*
X326979000Y-89576000D02*
X326979000Y-92716000D01*
X314679000Y-84996000D02*
X326979000Y-84996000D01*
G04 #@! TO.C,SW9*
X115524000Y-151036000D02*
X115524000Y-153756000D01*
X115524000Y-160616000D02*
X115524000Y-163336000D01*
X103224000Y-158756000D02*
X103224000Y-155616000D01*
X103224000Y-163336000D02*
X103224000Y-160616000D01*
X114053050Y-157226000D02*
G75*
G03*
X114053050Y-157226000I-4579050J0D01*
G01*
X103224000Y-153756000D02*
X103224000Y-151036000D01*
X115524000Y-163336000D02*
X103224000Y-163336000D01*
X115524000Y-155616000D02*
X115524000Y-158756000D01*
X103224000Y-151036000D02*
X115524000Y-151036000D01*
G04 #@! TO.C,SW8*
X326979000Y-151036000D02*
X326979000Y-153756000D01*
X326979000Y-160616000D02*
X326979000Y-163336000D01*
X314679000Y-158756000D02*
X314679000Y-155616000D01*
X314679000Y-163336000D02*
X314679000Y-160616000D01*
X325508050Y-157226000D02*
G75*
G03*
X325508050Y-157226000I-4579050J0D01*
G01*
X314679000Y-153756000D02*
X314679000Y-151036000D01*
X326979000Y-163336000D02*
X314679000Y-163336000D01*
X326979000Y-155616000D02*
X326979000Y-158756000D01*
X314679000Y-151036000D02*
X326979000Y-151036000D01*
G04 #@! TO.C,SW7*
X359999000Y-134526000D02*
X359999000Y-137246000D01*
X359999000Y-144106000D02*
X359999000Y-146826000D01*
X347699000Y-142246000D02*
X347699000Y-139106000D01*
X347699000Y-146826000D02*
X347699000Y-144106000D01*
X358528050Y-140716000D02*
G75*
G03*
X358528050Y-140716000I-4579050J0D01*
G01*
X347699000Y-137246000D02*
X347699000Y-134526000D01*
X359999000Y-146826000D02*
X347699000Y-146826000D01*
X359999000Y-139106000D02*
X359999000Y-142246000D01*
X347699000Y-134526000D02*
X359999000Y-134526000D01*
G04 #@! TO.C,SW6*
X310469000Y-151036000D02*
X310469000Y-153756000D01*
X310469000Y-160616000D02*
X310469000Y-163336000D01*
X298169000Y-158756000D02*
X298169000Y-155616000D01*
X298169000Y-163336000D02*
X298169000Y-160616000D01*
X308998050Y-157226000D02*
G75*
G03*
X308998050Y-157226000I-4579050J0D01*
G01*
X298169000Y-153756000D02*
X298169000Y-151036000D01*
X310469000Y-163336000D02*
X298169000Y-163336000D01*
X310469000Y-155616000D02*
X310469000Y-158756000D01*
X298169000Y-151036000D02*
X310469000Y-151036000D01*
G04 #@! TO.C,SW5*
X359999000Y-118016000D02*
X359999000Y-120736000D01*
X359999000Y-127596000D02*
X359999000Y-130316000D01*
X347699000Y-125736000D02*
X347699000Y-122596000D01*
X347699000Y-130316000D02*
X347699000Y-127596000D01*
X358528050Y-124206000D02*
G75*
G03*
X358528050Y-124206000I-4579050J0D01*
G01*
X347699000Y-120736000D02*
X347699000Y-118016000D01*
X359999000Y-130316000D02*
X347699000Y-130316000D01*
X359999000Y-122596000D02*
X359999000Y-125736000D01*
X347699000Y-118016000D02*
X359999000Y-118016000D01*
G04 #@! TO.C,SW4*
X359999000Y-101506000D02*
X359999000Y-104226000D01*
X359999000Y-111086000D02*
X359999000Y-113806000D01*
X347699000Y-109226000D02*
X347699000Y-106086000D01*
X347699000Y-113806000D02*
X347699000Y-111086000D01*
X358528050Y-107696000D02*
G75*
G03*
X358528050Y-107696000I-4579050J0D01*
G01*
X347699000Y-104226000D02*
X347699000Y-101506000D01*
X359999000Y-113806000D02*
X347699000Y-113806000D01*
X359999000Y-106086000D02*
X359999000Y-109226000D01*
X347699000Y-101506000D02*
X359999000Y-101506000D01*
G04 #@! TO.C,SW3*
X359999000Y-84996000D02*
X359999000Y-87716000D01*
X359999000Y-94576000D02*
X359999000Y-97296000D01*
X347699000Y-92716000D02*
X347699000Y-89576000D01*
X347699000Y-97296000D02*
X347699000Y-94576000D01*
X358528050Y-91186000D02*
G75*
G03*
X358528050Y-91186000I-4579050J0D01*
G01*
X347699000Y-87716000D02*
X347699000Y-84996000D01*
X359999000Y-97296000D02*
X347699000Y-97296000D01*
X359999000Y-89576000D02*
X359999000Y-92716000D01*
X347699000Y-84996000D02*
X359999000Y-84996000D01*
G04 #@! TO.C,SW2*
X343489000Y-151036000D02*
X343489000Y-153756000D01*
X343489000Y-160616000D02*
X343489000Y-163336000D01*
X331189000Y-158756000D02*
X331189000Y-155616000D01*
X331189000Y-163336000D02*
X331189000Y-160616000D01*
X342018050Y-157226000D02*
G75*
G03*
X342018050Y-157226000I-4579050J0D01*
G01*
X331189000Y-153756000D02*
X331189000Y-151036000D01*
X343489000Y-163336000D02*
X331189000Y-163336000D01*
X343489000Y-155616000D02*
X343489000Y-158756000D01*
X331189000Y-151036000D02*
X343489000Y-151036000D01*
G04 #@! TO.C,SW1*
X359999000Y-151036000D02*
X359999000Y-153756000D01*
X359999000Y-160616000D02*
X359999000Y-163336000D01*
X347699000Y-158756000D02*
X347699000Y-155616000D01*
X347699000Y-163336000D02*
X347699000Y-160616000D01*
X358528050Y-157226000D02*
G75*
G03*
X358528050Y-157226000I-4579050J0D01*
G01*
X347699000Y-153756000D02*
X347699000Y-151036000D01*
X359999000Y-163336000D02*
X347699000Y-163336000D01*
X359999000Y-155616000D02*
X359999000Y-158756000D01*
X347699000Y-151036000D02*
X359999000Y-151036000D01*
G04 #@! TO.C,SW0*
X343489000Y-134526000D02*
X343489000Y-137246000D01*
X343489000Y-144106000D02*
X343489000Y-146826000D01*
X331189000Y-142246000D02*
X331189000Y-139106000D01*
X331189000Y-146826000D02*
X331189000Y-144106000D01*
X342018050Y-140716000D02*
G75*
G03*
X342018050Y-140716000I-4579050J0D01*
G01*
X331189000Y-137246000D02*
X331189000Y-134526000D01*
X343489000Y-146826000D02*
X331189000Y-146826000D01*
X343489000Y-139106000D02*
X343489000Y-142246000D01*
X331189000Y-134526000D02*
X343489000Y-134526000D01*
G04 #@! TO.C,JP2*
D10*
X65194380Y-112974333D02*
X65908666Y-112974333D01*
X66051523Y-113021952D01*
X66146761Y-113117190D01*
X66194380Y-113260047D01*
X66194380Y-113355285D01*
X66194380Y-112498142D02*
X65194380Y-112498142D01*
X65194380Y-112117190D01*
X65242000Y-112021952D01*
X65289619Y-111974333D01*
X65384857Y-111926714D01*
X65527714Y-111926714D01*
X65622952Y-111974333D01*
X65670571Y-112021952D01*
X65718190Y-112117190D01*
X65718190Y-112498142D01*
X65289619Y-111545761D02*
X65242000Y-111498142D01*
X65194380Y-111402904D01*
X65194380Y-111164809D01*
X65242000Y-111069571D01*
X65289619Y-111021952D01*
X65384857Y-110974333D01*
X65480095Y-110974333D01*
X65622952Y-111021952D01*
X66194380Y-111593380D01*
X66194380Y-110974333D01*
G04 #@! TO.C,JP1*
X65321380Y-117419333D02*
X66035666Y-117419333D01*
X66178523Y-117466952D01*
X66273761Y-117562190D01*
X66321380Y-117705047D01*
X66321380Y-117800285D01*
X66321380Y-116943142D02*
X65321380Y-116943142D01*
X65321380Y-116562190D01*
X65369000Y-116466952D01*
X65416619Y-116419333D01*
X65511857Y-116371714D01*
X65654714Y-116371714D01*
X65749952Y-116419333D01*
X65797571Y-116466952D01*
X65845190Y-116562190D01*
X65845190Y-116943142D01*
X66321380Y-115419333D02*
X66321380Y-115990761D01*
X66321380Y-115705047D02*
X65321380Y-115705047D01*
X65464238Y-115800285D01*
X65559476Y-115895523D01*
X65607095Y-115990761D01*
G04 #@! TO.C,JP3*
X67861380Y-152979333D02*
X68575666Y-152979333D01*
X68718523Y-153026952D01*
X68813761Y-153122190D01*
X68861380Y-153265047D01*
X68861380Y-153360285D01*
X68861380Y-152503142D02*
X67861380Y-152503142D01*
X67861380Y-152122190D01*
X67909000Y-152026952D01*
X67956619Y-151979333D01*
X68051857Y-151931714D01*
X68194714Y-151931714D01*
X68289952Y-151979333D01*
X68337571Y-152026952D01*
X68385190Y-152122190D01*
X68385190Y-152503142D01*
X67861380Y-151598380D02*
X67861380Y-150979333D01*
X68242333Y-151312666D01*
X68242333Y-151169809D01*
X68289952Y-151074571D01*
X68337571Y-151026952D01*
X68432809Y-150979333D01*
X68670904Y-150979333D01*
X68766142Y-151026952D01*
X68813761Y-151074571D01*
X68861380Y-151169809D01*
X68861380Y-151455523D01*
X68813761Y-151550761D01*
X68766142Y-151598380D01*
G04 #@! TO.C,SW22*
X268319476Y-133920761D02*
X268462333Y-133968380D01*
X268700428Y-133968380D01*
X268795666Y-133920761D01*
X268843285Y-133873142D01*
X268890904Y-133777904D01*
X268890904Y-133682666D01*
X268843285Y-133587428D01*
X268795666Y-133539809D01*
X268700428Y-133492190D01*
X268509952Y-133444571D01*
X268414714Y-133396952D01*
X268367095Y-133349333D01*
X268319476Y-133254095D01*
X268319476Y-133158857D01*
X268367095Y-133063619D01*
X268414714Y-133016000D01*
X268509952Y-132968380D01*
X268748047Y-132968380D01*
X268890904Y-133016000D01*
X269224238Y-132968380D02*
X269462333Y-133968380D01*
X269652809Y-133254095D01*
X269843285Y-133968380D01*
X270081380Y-132968380D01*
X270414714Y-133063619D02*
X270462333Y-133016000D01*
X270557571Y-132968380D01*
X270795666Y-132968380D01*
X270890904Y-133016000D01*
X270938523Y-133063619D01*
X270986142Y-133158857D01*
X270986142Y-133254095D01*
X270938523Y-133396952D01*
X270367095Y-133968380D01*
X270986142Y-133968380D01*
X271367095Y-133063619D02*
X271414714Y-133016000D01*
X271509952Y-132968380D01*
X271748047Y-132968380D01*
X271843285Y-133016000D01*
X271890904Y-133063619D01*
X271938523Y-133158857D01*
X271938523Y-133254095D01*
X271890904Y-133396952D01*
X271319476Y-133968380D01*
X271938523Y-133968380D01*
X274415428Y-147463142D02*
X275272571Y-148748857D01*
G04 #@! TO.C,SW121*
X284988285Y-133920761D02*
X285131142Y-133968380D01*
X285369238Y-133968380D01*
X285464476Y-133920761D01*
X285512095Y-133873142D01*
X285559714Y-133777904D01*
X285559714Y-133682666D01*
X285512095Y-133587428D01*
X285464476Y-133539809D01*
X285369238Y-133492190D01*
X285178761Y-133444571D01*
X285083523Y-133396952D01*
X285035904Y-133349333D01*
X284988285Y-133254095D01*
X284988285Y-133158857D01*
X285035904Y-133063619D01*
X285083523Y-133016000D01*
X285178761Y-132968380D01*
X285416857Y-132968380D01*
X285559714Y-133016000D01*
X285893047Y-132968380D02*
X286131142Y-133968380D01*
X286321619Y-133254095D01*
X286512095Y-133968380D01*
X286750190Y-132968380D01*
X287654952Y-133968380D02*
X287083523Y-133968380D01*
X287369238Y-133968380D02*
X287369238Y-132968380D01*
X287274000Y-133111238D01*
X287178761Y-133206476D01*
X287083523Y-133254095D01*
X288035904Y-133063619D02*
X288083523Y-133016000D01*
X288178761Y-132968380D01*
X288416857Y-132968380D01*
X288512095Y-133016000D01*
X288559714Y-133063619D01*
X288607333Y-133158857D01*
X288607333Y-133254095D01*
X288559714Y-133396952D01*
X287988285Y-133968380D01*
X288607333Y-133968380D01*
X289559714Y-133968380D02*
X288988285Y-133968380D01*
X289274000Y-133968380D02*
X289274000Y-132968380D01*
X289178761Y-133111238D01*
X289083523Y-133206476D01*
X288988285Y-133254095D01*
X289496857Y-148740761D02*
X289639714Y-148788380D01*
X289877809Y-148788380D01*
X289973047Y-148740761D01*
X290020666Y-148693142D01*
X290068285Y-148597904D01*
X290068285Y-148502666D01*
X290020666Y-148407428D01*
X289973047Y-148359809D01*
X289877809Y-148312190D01*
X289687333Y-148264571D01*
X289592095Y-148216952D01*
X289544476Y-148169333D01*
X289496857Y-148074095D01*
X289496857Y-147978857D01*
X289544476Y-147883619D01*
X289592095Y-147836000D01*
X289687333Y-147788380D01*
X289925428Y-147788380D01*
X290068285Y-147836000D01*
X290496857Y-148788380D02*
X290496857Y-147788380D01*
X290496857Y-148264571D02*
X291068285Y-148264571D01*
X291068285Y-148788380D02*
X291068285Y-147788380D01*
X291544476Y-148788380D02*
X291544476Y-147788380D01*
X292354000Y-148264571D02*
X292020666Y-148264571D01*
X292020666Y-148788380D02*
X292020666Y-147788380D01*
X292496857Y-147788380D01*
X292734952Y-147788380D02*
X293306380Y-147788380D01*
X293020666Y-148788380D02*
X293020666Y-147788380D01*
G04 #@! TO.C,SW79*
X298164476Y-84390761D02*
X298307333Y-84438380D01*
X298545428Y-84438380D01*
X298640666Y-84390761D01*
X298688285Y-84343142D01*
X298735904Y-84247904D01*
X298735904Y-84152666D01*
X298688285Y-84057428D01*
X298640666Y-84009809D01*
X298545428Y-83962190D01*
X298354952Y-83914571D01*
X298259714Y-83866952D01*
X298212095Y-83819333D01*
X298164476Y-83724095D01*
X298164476Y-83628857D01*
X298212095Y-83533619D01*
X298259714Y-83486000D01*
X298354952Y-83438380D01*
X298593047Y-83438380D01*
X298735904Y-83486000D01*
X299069238Y-83438380D02*
X299307333Y-84438380D01*
X299497809Y-83724095D01*
X299688285Y-84438380D01*
X299926380Y-83438380D01*
X300212095Y-83438380D02*
X300878761Y-83438380D01*
X300450190Y-84438380D01*
X301307333Y-84438380D02*
X301497809Y-84438380D01*
X301593047Y-84390761D01*
X301640666Y-84343142D01*
X301735904Y-84200285D01*
X301783523Y-84009809D01*
X301783523Y-83628857D01*
X301735904Y-83533619D01*
X301688285Y-83486000D01*
X301593047Y-83438380D01*
X301402571Y-83438380D01*
X301307333Y-83486000D01*
X301259714Y-83533619D01*
X301212095Y-83628857D01*
X301212095Y-83866952D01*
X301259714Y-83962190D01*
X301307333Y-84009809D01*
X301402571Y-84057428D01*
X301593047Y-84057428D01*
X301688285Y-84009809D01*
X301735904Y-83962190D01*
X301783523Y-83866952D01*
X303569952Y-99004380D02*
X303569952Y-98004380D01*
X303808047Y-98004380D01*
X303950904Y-98052000D01*
X304046142Y-98147238D01*
X304093761Y-98242476D01*
X304141380Y-98432952D01*
X304141380Y-98575809D01*
X304093761Y-98766285D01*
X304046142Y-98861523D01*
X303950904Y-98956761D01*
X303808047Y-99004380D01*
X303569952Y-99004380D01*
X304569952Y-98480571D02*
X304903285Y-98480571D01*
X305046142Y-99004380D02*
X304569952Y-99004380D01*
X304569952Y-98004380D01*
X305046142Y-98004380D01*
X305950904Y-99004380D02*
X305474714Y-99004380D01*
X305474714Y-98004380D01*
G04 #@! TO.C,SW71*
X103219476Y-133920761D02*
X103362333Y-133968380D01*
X103600428Y-133968380D01*
X103695666Y-133920761D01*
X103743285Y-133873142D01*
X103790904Y-133777904D01*
X103790904Y-133682666D01*
X103743285Y-133587428D01*
X103695666Y-133539809D01*
X103600428Y-133492190D01*
X103409952Y-133444571D01*
X103314714Y-133396952D01*
X103267095Y-133349333D01*
X103219476Y-133254095D01*
X103219476Y-133158857D01*
X103267095Y-133063619D01*
X103314714Y-133016000D01*
X103409952Y-132968380D01*
X103648047Y-132968380D01*
X103790904Y-133016000D01*
X104124238Y-132968380D02*
X104362333Y-133968380D01*
X104552809Y-133254095D01*
X104743285Y-133968380D01*
X104981380Y-132968380D01*
X105267095Y-132968380D02*
X105933761Y-132968380D01*
X105505190Y-133968380D01*
X106838523Y-133968380D02*
X106267095Y-133968380D01*
X106552809Y-133968380D02*
X106552809Y-132968380D01*
X106457571Y-133111238D01*
X106362333Y-133206476D01*
X106267095Y-133254095D01*
X109410666Y-147558380D02*
X110077333Y-147558380D01*
X109410666Y-148558380D01*
X110077333Y-148558380D01*
G04 #@! TO.C,SW70*
X79089476Y-117410761D02*
X79232333Y-117458380D01*
X79470428Y-117458380D01*
X79565666Y-117410761D01*
X79613285Y-117363142D01*
X79660904Y-117267904D01*
X79660904Y-117172666D01*
X79613285Y-117077428D01*
X79565666Y-117029809D01*
X79470428Y-116982190D01*
X79279952Y-116934571D01*
X79184714Y-116886952D01*
X79137095Y-116839333D01*
X79089476Y-116744095D01*
X79089476Y-116648857D01*
X79137095Y-116553619D01*
X79184714Y-116506000D01*
X79279952Y-116458380D01*
X79518047Y-116458380D01*
X79660904Y-116506000D01*
X79994238Y-116458380D02*
X80232333Y-117458380D01*
X80422809Y-116744095D01*
X80613285Y-117458380D01*
X80851380Y-116458380D01*
X81137095Y-116458380D02*
X81803761Y-116458380D01*
X81375190Y-117458380D01*
X82375190Y-116458380D02*
X82470428Y-116458380D01*
X82565666Y-116506000D01*
X82613285Y-116553619D01*
X82660904Y-116648857D01*
X82708523Y-116839333D01*
X82708523Y-117077428D01*
X82660904Y-117267904D01*
X82613285Y-117363142D01*
X82565666Y-117410761D01*
X82470428Y-117458380D01*
X82375190Y-117458380D01*
X82279952Y-117410761D01*
X82232333Y-117363142D01*
X82184714Y-117267904D01*
X82137095Y-117077428D01*
X82137095Y-116839333D01*
X82184714Y-116648857D01*
X82232333Y-116553619D01*
X82279952Y-116506000D01*
X82375190Y-116458380D01*
X82209238Y-131953142D02*
X82161619Y-132000761D01*
X82018761Y-132048380D01*
X81923523Y-132048380D01*
X81780666Y-132000761D01*
X81685428Y-131905523D01*
X81637809Y-131810285D01*
X81590190Y-131619809D01*
X81590190Y-131476952D01*
X81637809Y-131286476D01*
X81685428Y-131191238D01*
X81780666Y-131096000D01*
X81923523Y-131048380D01*
X82018761Y-131048380D01*
X82161619Y-131096000D01*
X82209238Y-131143619D01*
X82590190Y-131762666D02*
X83066380Y-131762666D01*
X82494952Y-132048380D02*
X82828285Y-131048380D01*
X83161619Y-132048380D01*
X83494952Y-132048380D02*
X83494952Y-131048380D01*
X83875904Y-131048380D01*
X83971142Y-131096000D01*
X84018761Y-131143619D01*
X84066380Y-131238857D01*
X84066380Y-131381714D01*
X84018761Y-131476952D01*
X83971142Y-131524571D01*
X83875904Y-131572190D01*
X83494952Y-131572190D01*
X84447333Y-132000761D02*
X84590190Y-132048380D01*
X84828285Y-132048380D01*
X84923523Y-132000761D01*
X84971142Y-131953142D01*
X85018761Y-131857904D01*
X85018761Y-131762666D01*
X84971142Y-131667428D01*
X84923523Y-131619809D01*
X84828285Y-131572190D01*
X84637809Y-131524571D01*
X84542571Y-131476952D01*
X84494952Y-131429333D01*
X84447333Y-131334095D01*
X84447333Y-131238857D01*
X84494952Y-131143619D01*
X84542571Y-131096000D01*
X84637809Y-131048380D01*
X84875904Y-131048380D01*
X85018761Y-131096000D01*
X86685428Y-132048380D02*
X86209238Y-132048380D01*
X86209238Y-131048380D01*
X87209238Y-131048380D02*
X87399714Y-131048380D01*
X87494952Y-131096000D01*
X87590190Y-131191238D01*
X87637809Y-131381714D01*
X87637809Y-131715047D01*
X87590190Y-131905523D01*
X87494952Y-132000761D01*
X87399714Y-132048380D01*
X87209238Y-132048380D01*
X87114000Y-132000761D01*
X87018761Y-131905523D01*
X86971142Y-131715047D01*
X86971142Y-131381714D01*
X87018761Y-131191238D01*
X87114000Y-131096000D01*
X87209238Y-131048380D01*
X88637809Y-131953142D02*
X88590190Y-132000761D01*
X88447333Y-132048380D01*
X88352095Y-132048380D01*
X88209238Y-132000761D01*
X88114000Y-131905523D01*
X88066380Y-131810285D01*
X88018761Y-131619809D01*
X88018761Y-131476952D01*
X88066380Y-131286476D01*
X88114000Y-131191238D01*
X88209238Y-131096000D01*
X88352095Y-131048380D01*
X88447333Y-131048380D01*
X88590190Y-131096000D01*
X88637809Y-131143619D01*
X89066380Y-132048380D02*
X89066380Y-131048380D01*
X89637809Y-132048380D02*
X89209238Y-131476952D01*
X89637809Y-131048380D02*
X89066380Y-131619809D01*
G04 #@! TO.C,SW69*
X95599476Y-117410761D02*
X95742333Y-117458380D01*
X95980428Y-117458380D01*
X96075666Y-117410761D01*
X96123285Y-117363142D01*
X96170904Y-117267904D01*
X96170904Y-117172666D01*
X96123285Y-117077428D01*
X96075666Y-117029809D01*
X95980428Y-116982190D01*
X95789952Y-116934571D01*
X95694714Y-116886952D01*
X95647095Y-116839333D01*
X95599476Y-116744095D01*
X95599476Y-116648857D01*
X95647095Y-116553619D01*
X95694714Y-116506000D01*
X95789952Y-116458380D01*
X96028047Y-116458380D01*
X96170904Y-116506000D01*
X96504238Y-116458380D02*
X96742333Y-117458380D01*
X96932809Y-116744095D01*
X97123285Y-117458380D01*
X97361380Y-116458380D01*
X98170904Y-116458380D02*
X97980428Y-116458380D01*
X97885190Y-116506000D01*
X97837571Y-116553619D01*
X97742333Y-116696476D01*
X97694714Y-116886952D01*
X97694714Y-117267904D01*
X97742333Y-117363142D01*
X97789952Y-117410761D01*
X97885190Y-117458380D01*
X98075666Y-117458380D01*
X98170904Y-117410761D01*
X98218523Y-117363142D01*
X98266142Y-117267904D01*
X98266142Y-117029809D01*
X98218523Y-116934571D01*
X98170904Y-116886952D01*
X98075666Y-116839333D01*
X97885190Y-116839333D01*
X97789952Y-116886952D01*
X97742333Y-116934571D01*
X97694714Y-117029809D01*
X98742333Y-117458380D02*
X98932809Y-117458380D01*
X99028047Y-117410761D01*
X99075666Y-117363142D01*
X99170904Y-117220285D01*
X99218523Y-117029809D01*
X99218523Y-116648857D01*
X99170904Y-116553619D01*
X99123285Y-116506000D01*
X99028047Y-116458380D01*
X98837571Y-116458380D01*
X98742333Y-116506000D01*
X98694714Y-116553619D01*
X98647095Y-116648857D01*
X98647095Y-116886952D01*
X98694714Y-116982190D01*
X98742333Y-117029809D01*
X98837571Y-117077428D01*
X99028047Y-117077428D01*
X99123285Y-117029809D01*
X99170904Y-116982190D01*
X99218523Y-116886952D01*
X101885904Y-131762666D02*
X102362095Y-131762666D01*
X101790666Y-132048380D02*
X102124000Y-131048380D01*
X102457333Y-132048380D01*
G04 #@! TO.C,SW68*
X75279476Y-100900761D02*
X75422333Y-100948380D01*
X75660428Y-100948380D01*
X75755666Y-100900761D01*
X75803285Y-100853142D01*
X75850904Y-100757904D01*
X75850904Y-100662666D01*
X75803285Y-100567428D01*
X75755666Y-100519809D01*
X75660428Y-100472190D01*
X75469952Y-100424571D01*
X75374714Y-100376952D01*
X75327095Y-100329333D01*
X75279476Y-100234095D01*
X75279476Y-100138857D01*
X75327095Y-100043619D01*
X75374714Y-99996000D01*
X75469952Y-99948380D01*
X75708047Y-99948380D01*
X75850904Y-99996000D01*
X76184238Y-99948380D02*
X76422333Y-100948380D01*
X76612809Y-100234095D01*
X76803285Y-100948380D01*
X77041380Y-99948380D01*
X77850904Y-99948380D02*
X77660428Y-99948380D01*
X77565190Y-99996000D01*
X77517571Y-100043619D01*
X77422333Y-100186476D01*
X77374714Y-100376952D01*
X77374714Y-100757904D01*
X77422333Y-100853142D01*
X77469952Y-100900761D01*
X77565190Y-100948380D01*
X77755666Y-100948380D01*
X77850904Y-100900761D01*
X77898523Y-100853142D01*
X77946142Y-100757904D01*
X77946142Y-100519809D01*
X77898523Y-100424571D01*
X77850904Y-100376952D01*
X77755666Y-100329333D01*
X77565190Y-100329333D01*
X77469952Y-100376952D01*
X77422333Y-100424571D01*
X77374714Y-100519809D01*
X78517571Y-100376952D02*
X78422333Y-100329333D01*
X78374714Y-100281714D01*
X78327095Y-100186476D01*
X78327095Y-100138857D01*
X78374714Y-100043619D01*
X78422333Y-99996000D01*
X78517571Y-99948380D01*
X78708047Y-99948380D01*
X78803285Y-99996000D01*
X78850904Y-100043619D01*
X78898523Y-100138857D01*
X78898523Y-100186476D01*
X78850904Y-100281714D01*
X78803285Y-100329333D01*
X78708047Y-100376952D01*
X78517571Y-100376952D01*
X78422333Y-100424571D01*
X78374714Y-100472190D01*
X78327095Y-100567428D01*
X78327095Y-100757904D01*
X78374714Y-100853142D01*
X78422333Y-100900761D01*
X78517571Y-100948380D01*
X78708047Y-100948380D01*
X78803285Y-100900761D01*
X78850904Y-100853142D01*
X78898523Y-100757904D01*
X78898523Y-100567428D01*
X78850904Y-100472190D01*
X78803285Y-100424571D01*
X78708047Y-100376952D01*
X80589714Y-114538380D02*
X81161142Y-114538380D01*
X80875428Y-115538380D02*
X80875428Y-114538380D01*
X81446857Y-115252666D02*
X81923047Y-115252666D01*
X81351619Y-115538380D02*
X81684952Y-114538380D01*
X82018285Y-115538380D01*
X82684952Y-115014571D02*
X82827809Y-115062190D01*
X82875428Y-115109809D01*
X82923047Y-115205047D01*
X82923047Y-115347904D01*
X82875428Y-115443142D01*
X82827809Y-115490761D01*
X82732571Y-115538380D01*
X82351619Y-115538380D01*
X82351619Y-114538380D01*
X82684952Y-114538380D01*
X82780190Y-114586000D01*
X82827809Y-114633619D01*
X82875428Y-114728857D01*
X82875428Y-114824095D01*
X82827809Y-114919333D01*
X82780190Y-114966952D01*
X82684952Y-115014571D01*
X82351619Y-115014571D01*
G04 #@! TO.C,SW67*
X91789476Y-100900761D02*
X91932333Y-100948380D01*
X92170428Y-100948380D01*
X92265666Y-100900761D01*
X92313285Y-100853142D01*
X92360904Y-100757904D01*
X92360904Y-100662666D01*
X92313285Y-100567428D01*
X92265666Y-100519809D01*
X92170428Y-100472190D01*
X91979952Y-100424571D01*
X91884714Y-100376952D01*
X91837095Y-100329333D01*
X91789476Y-100234095D01*
X91789476Y-100138857D01*
X91837095Y-100043619D01*
X91884714Y-99996000D01*
X91979952Y-99948380D01*
X92218047Y-99948380D01*
X92360904Y-99996000D01*
X92694238Y-99948380D02*
X92932333Y-100948380D01*
X93122809Y-100234095D01*
X93313285Y-100948380D01*
X93551380Y-99948380D01*
X94360904Y-99948380D02*
X94170428Y-99948380D01*
X94075190Y-99996000D01*
X94027571Y-100043619D01*
X93932333Y-100186476D01*
X93884714Y-100376952D01*
X93884714Y-100757904D01*
X93932333Y-100853142D01*
X93979952Y-100900761D01*
X94075190Y-100948380D01*
X94265666Y-100948380D01*
X94360904Y-100900761D01*
X94408523Y-100853142D01*
X94456142Y-100757904D01*
X94456142Y-100519809D01*
X94408523Y-100424571D01*
X94360904Y-100376952D01*
X94265666Y-100329333D01*
X94075190Y-100329333D01*
X93979952Y-100376952D01*
X93932333Y-100424571D01*
X93884714Y-100519809D01*
X94789476Y-99948380D02*
X95456142Y-99948380D01*
X95027571Y-100948380D01*
X98694952Y-115633619D02*
X98599714Y-115586000D01*
X98504476Y-115490761D01*
X98361619Y-115347904D01*
X98266380Y-115300285D01*
X98171142Y-115300285D01*
X98218761Y-115538380D02*
X98123523Y-115490761D01*
X98028285Y-115395523D01*
X97980666Y-115205047D01*
X97980666Y-114871714D01*
X98028285Y-114681238D01*
X98123523Y-114586000D01*
X98218761Y-114538380D01*
X98409238Y-114538380D01*
X98504476Y-114586000D01*
X98599714Y-114681238D01*
X98647333Y-114871714D01*
X98647333Y-115205047D01*
X98599714Y-115395523D01*
X98504476Y-115490761D01*
X98409238Y-115538380D01*
X98218761Y-115538380D01*
G04 #@! TO.C,SW66*
X67024476Y-84390761D02*
X67167333Y-84438380D01*
X67405428Y-84438380D01*
X67500666Y-84390761D01*
X67548285Y-84343142D01*
X67595904Y-84247904D01*
X67595904Y-84152666D01*
X67548285Y-84057428D01*
X67500666Y-84009809D01*
X67405428Y-83962190D01*
X67214952Y-83914571D01*
X67119714Y-83866952D01*
X67072095Y-83819333D01*
X67024476Y-83724095D01*
X67024476Y-83628857D01*
X67072095Y-83533619D01*
X67119714Y-83486000D01*
X67214952Y-83438380D01*
X67453047Y-83438380D01*
X67595904Y-83486000D01*
X67929238Y-83438380D02*
X68167333Y-84438380D01*
X68357809Y-83724095D01*
X68548285Y-84438380D01*
X68786380Y-83438380D01*
X69595904Y-83438380D02*
X69405428Y-83438380D01*
X69310190Y-83486000D01*
X69262571Y-83533619D01*
X69167333Y-83676476D01*
X69119714Y-83866952D01*
X69119714Y-84247904D01*
X69167333Y-84343142D01*
X69214952Y-84390761D01*
X69310190Y-84438380D01*
X69500666Y-84438380D01*
X69595904Y-84390761D01*
X69643523Y-84343142D01*
X69691142Y-84247904D01*
X69691142Y-84009809D01*
X69643523Y-83914571D01*
X69595904Y-83866952D01*
X69500666Y-83819333D01*
X69310190Y-83819333D01*
X69214952Y-83866952D01*
X69167333Y-83914571D01*
X69119714Y-84009809D01*
X70548285Y-83438380D02*
X70357809Y-83438380D01*
X70262571Y-83486000D01*
X70214952Y-83533619D01*
X70119714Y-83676476D01*
X70072095Y-83866952D01*
X70072095Y-84247904D01*
X70119714Y-84343142D01*
X70167333Y-84390761D01*
X70262571Y-84438380D01*
X70453047Y-84438380D01*
X70548285Y-84390761D01*
X70595904Y-84343142D01*
X70643523Y-84247904D01*
X70643523Y-84009809D01*
X70595904Y-83914571D01*
X70548285Y-83866952D01*
X70453047Y-83819333D01*
X70262571Y-83819333D01*
X70167333Y-83866952D01*
X70119714Y-83914571D01*
X70072095Y-84009809D01*
X72358523Y-98504571D02*
X72691857Y-98504571D01*
X72834714Y-99028380D02*
X72358523Y-99028380D01*
X72358523Y-98028380D01*
X72834714Y-98028380D01*
X73215666Y-98980761D02*
X73358523Y-99028380D01*
X73596619Y-99028380D01*
X73691857Y-98980761D01*
X73739476Y-98933142D01*
X73787095Y-98837904D01*
X73787095Y-98742666D01*
X73739476Y-98647428D01*
X73691857Y-98599809D01*
X73596619Y-98552190D01*
X73406142Y-98504571D01*
X73310904Y-98456952D01*
X73263285Y-98409333D01*
X73215666Y-98314095D01*
X73215666Y-98218857D01*
X73263285Y-98123619D01*
X73310904Y-98076000D01*
X73406142Y-98028380D01*
X73644238Y-98028380D01*
X73787095Y-98076000D01*
X74787095Y-98933142D02*
X74739476Y-98980761D01*
X74596619Y-99028380D01*
X74501380Y-99028380D01*
X74358523Y-98980761D01*
X74263285Y-98885523D01*
X74215666Y-98790285D01*
X74168047Y-98599809D01*
X74168047Y-98456952D01*
X74215666Y-98266476D01*
X74263285Y-98171238D01*
X74358523Y-98076000D01*
X74501380Y-98028380D01*
X74596619Y-98028380D01*
X74739476Y-98076000D01*
X74787095Y-98123619D01*
G04 #@! TO.C,SW65*
X100044476Y-84390761D02*
X100187333Y-84438380D01*
X100425428Y-84438380D01*
X100520666Y-84390761D01*
X100568285Y-84343142D01*
X100615904Y-84247904D01*
X100615904Y-84152666D01*
X100568285Y-84057428D01*
X100520666Y-84009809D01*
X100425428Y-83962190D01*
X100234952Y-83914571D01*
X100139714Y-83866952D01*
X100092095Y-83819333D01*
X100044476Y-83724095D01*
X100044476Y-83628857D01*
X100092095Y-83533619D01*
X100139714Y-83486000D01*
X100234952Y-83438380D01*
X100473047Y-83438380D01*
X100615904Y-83486000D01*
X100949238Y-83438380D02*
X101187333Y-84438380D01*
X101377809Y-83724095D01*
X101568285Y-84438380D01*
X101806380Y-83438380D01*
X102615904Y-83438380D02*
X102425428Y-83438380D01*
X102330190Y-83486000D01*
X102282571Y-83533619D01*
X102187333Y-83676476D01*
X102139714Y-83866952D01*
X102139714Y-84247904D01*
X102187333Y-84343142D01*
X102234952Y-84390761D01*
X102330190Y-84438380D01*
X102520666Y-84438380D01*
X102615904Y-84390761D01*
X102663523Y-84343142D01*
X102711142Y-84247904D01*
X102711142Y-84009809D01*
X102663523Y-83914571D01*
X102615904Y-83866952D01*
X102520666Y-83819333D01*
X102330190Y-83819333D01*
X102234952Y-83866952D01*
X102187333Y-83914571D01*
X102139714Y-84009809D01*
X103615904Y-83438380D02*
X103139714Y-83438380D01*
X103092095Y-83914571D01*
X103139714Y-83866952D01*
X103234952Y-83819333D01*
X103473047Y-83819333D01*
X103568285Y-83866952D01*
X103615904Y-83914571D01*
X103663523Y-84009809D01*
X103663523Y-84247904D01*
X103615904Y-84343142D01*
X103568285Y-84390761D01*
X103473047Y-84438380D01*
X103234952Y-84438380D01*
X103139714Y-84390761D01*
X103092095Y-84343142D01*
X105521380Y-98123619D02*
X105569000Y-98076000D01*
X105664238Y-98028380D01*
X105902333Y-98028380D01*
X105997571Y-98076000D01*
X106045190Y-98123619D01*
X106092809Y-98218857D01*
X106092809Y-98314095D01*
X106045190Y-98456952D01*
X105473761Y-99028380D01*
X106092809Y-99028380D01*
X107235666Y-98028380D02*
X107235666Y-98218857D01*
X107616619Y-98028380D02*
X107616619Y-98218857D01*
G04 #@! TO.C,SW64*
X83534476Y-84390761D02*
X83677333Y-84438380D01*
X83915428Y-84438380D01*
X84010666Y-84390761D01*
X84058285Y-84343142D01*
X84105904Y-84247904D01*
X84105904Y-84152666D01*
X84058285Y-84057428D01*
X84010666Y-84009809D01*
X83915428Y-83962190D01*
X83724952Y-83914571D01*
X83629714Y-83866952D01*
X83582095Y-83819333D01*
X83534476Y-83724095D01*
X83534476Y-83628857D01*
X83582095Y-83533619D01*
X83629714Y-83486000D01*
X83724952Y-83438380D01*
X83963047Y-83438380D01*
X84105904Y-83486000D01*
X84439238Y-83438380D02*
X84677333Y-84438380D01*
X84867809Y-83724095D01*
X85058285Y-84438380D01*
X85296380Y-83438380D01*
X86105904Y-83438380D02*
X85915428Y-83438380D01*
X85820190Y-83486000D01*
X85772571Y-83533619D01*
X85677333Y-83676476D01*
X85629714Y-83866952D01*
X85629714Y-84247904D01*
X85677333Y-84343142D01*
X85724952Y-84390761D01*
X85820190Y-84438380D01*
X86010666Y-84438380D01*
X86105904Y-84390761D01*
X86153523Y-84343142D01*
X86201142Y-84247904D01*
X86201142Y-84009809D01*
X86153523Y-83914571D01*
X86105904Y-83866952D01*
X86010666Y-83819333D01*
X85820190Y-83819333D01*
X85724952Y-83866952D01*
X85677333Y-83914571D01*
X85629714Y-84009809D01*
X87058285Y-83771714D02*
X87058285Y-84438380D01*
X86820190Y-83390761D02*
X86582095Y-84105047D01*
X87201142Y-84105047D01*
X89725666Y-99028380D02*
X89154238Y-99028380D01*
X89439952Y-99028380D02*
X89439952Y-98028380D01*
X89344714Y-98171238D01*
X89249476Y-98266476D01*
X89154238Y-98314095D01*
X90916142Y-98933142D02*
X90963761Y-98980761D01*
X90916142Y-99028380D01*
X90868523Y-98980761D01*
X90916142Y-98933142D01*
X90916142Y-99028380D01*
X90916142Y-98647428D02*
X90868523Y-98076000D01*
X90916142Y-98028380D01*
X90963761Y-98076000D01*
X90916142Y-98647428D01*
X90916142Y-98028380D01*
G04 #@! TO.C,SW63*
X119729476Y-133920761D02*
X119872333Y-133968380D01*
X120110428Y-133968380D01*
X120205666Y-133920761D01*
X120253285Y-133873142D01*
X120300904Y-133777904D01*
X120300904Y-133682666D01*
X120253285Y-133587428D01*
X120205666Y-133539809D01*
X120110428Y-133492190D01*
X119919952Y-133444571D01*
X119824714Y-133396952D01*
X119777095Y-133349333D01*
X119729476Y-133254095D01*
X119729476Y-133158857D01*
X119777095Y-133063619D01*
X119824714Y-133016000D01*
X119919952Y-132968380D01*
X120158047Y-132968380D01*
X120300904Y-133016000D01*
X120634238Y-132968380D02*
X120872333Y-133968380D01*
X121062809Y-133254095D01*
X121253285Y-133968380D01*
X121491380Y-132968380D01*
X122300904Y-132968380D02*
X122110428Y-132968380D01*
X122015190Y-133016000D01*
X121967571Y-133063619D01*
X121872333Y-133206476D01*
X121824714Y-133396952D01*
X121824714Y-133777904D01*
X121872333Y-133873142D01*
X121919952Y-133920761D01*
X122015190Y-133968380D01*
X122205666Y-133968380D01*
X122300904Y-133920761D01*
X122348523Y-133873142D01*
X122396142Y-133777904D01*
X122396142Y-133539809D01*
X122348523Y-133444571D01*
X122300904Y-133396952D01*
X122205666Y-133349333D01*
X122015190Y-133349333D01*
X121919952Y-133396952D01*
X121872333Y-133444571D01*
X121824714Y-133539809D01*
X122729476Y-132968380D02*
X123348523Y-132968380D01*
X123015190Y-133349333D01*
X123158047Y-133349333D01*
X123253285Y-133396952D01*
X123300904Y-133444571D01*
X123348523Y-133539809D01*
X123348523Y-133777904D01*
X123300904Y-133873142D01*
X123253285Y-133920761D01*
X123158047Y-133968380D01*
X122872333Y-133968380D01*
X122777095Y-133920761D01*
X122729476Y-133873142D01*
X125920666Y-147558380D02*
X126587333Y-148558380D01*
X126587333Y-147558380D02*
X125920666Y-148558380D01*
G04 #@! TO.C,SW62*
X136239476Y-133920761D02*
X136382333Y-133968380D01*
X136620428Y-133968380D01*
X136715666Y-133920761D01*
X136763285Y-133873142D01*
X136810904Y-133777904D01*
X136810904Y-133682666D01*
X136763285Y-133587428D01*
X136715666Y-133539809D01*
X136620428Y-133492190D01*
X136429952Y-133444571D01*
X136334714Y-133396952D01*
X136287095Y-133349333D01*
X136239476Y-133254095D01*
X136239476Y-133158857D01*
X136287095Y-133063619D01*
X136334714Y-133016000D01*
X136429952Y-132968380D01*
X136668047Y-132968380D01*
X136810904Y-133016000D01*
X137144238Y-132968380D02*
X137382333Y-133968380D01*
X137572809Y-133254095D01*
X137763285Y-133968380D01*
X138001380Y-132968380D01*
X138810904Y-132968380D02*
X138620428Y-132968380D01*
X138525190Y-133016000D01*
X138477571Y-133063619D01*
X138382333Y-133206476D01*
X138334714Y-133396952D01*
X138334714Y-133777904D01*
X138382333Y-133873142D01*
X138429952Y-133920761D01*
X138525190Y-133968380D01*
X138715666Y-133968380D01*
X138810904Y-133920761D01*
X138858523Y-133873142D01*
X138906142Y-133777904D01*
X138906142Y-133539809D01*
X138858523Y-133444571D01*
X138810904Y-133396952D01*
X138715666Y-133349333D01*
X138525190Y-133349333D01*
X138429952Y-133396952D01*
X138382333Y-133444571D01*
X138334714Y-133539809D01*
X139287095Y-133063619D02*
X139334714Y-133016000D01*
X139429952Y-132968380D01*
X139668047Y-132968380D01*
X139763285Y-133016000D01*
X139810904Y-133063619D01*
X139858523Y-133158857D01*
X139858523Y-133254095D01*
X139810904Y-133396952D01*
X139239476Y-133968380D01*
X139858523Y-133968380D01*
X143073523Y-148463142D02*
X143025904Y-148510761D01*
X142883047Y-148558380D01*
X142787809Y-148558380D01*
X142644952Y-148510761D01*
X142549714Y-148415523D01*
X142502095Y-148320285D01*
X142454476Y-148129809D01*
X142454476Y-147986952D01*
X142502095Y-147796476D01*
X142549714Y-147701238D01*
X142644952Y-147606000D01*
X142787809Y-147558380D01*
X142883047Y-147558380D01*
X143025904Y-147606000D01*
X143073523Y-147653619D01*
G04 #@! TO.C,SW61*
X128619476Y-117410761D02*
X128762333Y-117458380D01*
X129000428Y-117458380D01*
X129095666Y-117410761D01*
X129143285Y-117363142D01*
X129190904Y-117267904D01*
X129190904Y-117172666D01*
X129143285Y-117077428D01*
X129095666Y-117029809D01*
X129000428Y-116982190D01*
X128809952Y-116934571D01*
X128714714Y-116886952D01*
X128667095Y-116839333D01*
X128619476Y-116744095D01*
X128619476Y-116648857D01*
X128667095Y-116553619D01*
X128714714Y-116506000D01*
X128809952Y-116458380D01*
X129048047Y-116458380D01*
X129190904Y-116506000D01*
X129524238Y-116458380D02*
X129762333Y-117458380D01*
X129952809Y-116744095D01*
X130143285Y-117458380D01*
X130381380Y-116458380D01*
X131190904Y-116458380D02*
X131000428Y-116458380D01*
X130905190Y-116506000D01*
X130857571Y-116553619D01*
X130762333Y-116696476D01*
X130714714Y-116886952D01*
X130714714Y-117267904D01*
X130762333Y-117363142D01*
X130809952Y-117410761D01*
X130905190Y-117458380D01*
X131095666Y-117458380D01*
X131190904Y-117410761D01*
X131238523Y-117363142D01*
X131286142Y-117267904D01*
X131286142Y-117029809D01*
X131238523Y-116934571D01*
X131190904Y-116886952D01*
X131095666Y-116839333D01*
X130905190Y-116839333D01*
X130809952Y-116886952D01*
X130762333Y-116934571D01*
X130714714Y-117029809D01*
X132238523Y-117458380D02*
X131667095Y-117458380D01*
X131952809Y-117458380D02*
X131952809Y-116458380D01*
X131857571Y-116601238D01*
X131762333Y-116696476D01*
X131667095Y-116744095D01*
X134882095Y-132048380D02*
X134882095Y-131048380D01*
X135120190Y-131048380D01*
X135263047Y-131096000D01*
X135358285Y-131191238D01*
X135405904Y-131286476D01*
X135453523Y-131476952D01*
X135453523Y-131619809D01*
X135405904Y-131810285D01*
X135358285Y-131905523D01*
X135263047Y-132000761D01*
X135120190Y-132048380D01*
X134882095Y-132048380D01*
G04 #@! TO.C,SW60*
X112109476Y-117410761D02*
X112252333Y-117458380D01*
X112490428Y-117458380D01*
X112585666Y-117410761D01*
X112633285Y-117363142D01*
X112680904Y-117267904D01*
X112680904Y-117172666D01*
X112633285Y-117077428D01*
X112585666Y-117029809D01*
X112490428Y-116982190D01*
X112299952Y-116934571D01*
X112204714Y-116886952D01*
X112157095Y-116839333D01*
X112109476Y-116744095D01*
X112109476Y-116648857D01*
X112157095Y-116553619D01*
X112204714Y-116506000D01*
X112299952Y-116458380D01*
X112538047Y-116458380D01*
X112680904Y-116506000D01*
X113014238Y-116458380D02*
X113252333Y-117458380D01*
X113442809Y-116744095D01*
X113633285Y-117458380D01*
X113871380Y-116458380D01*
X114680904Y-116458380D02*
X114490428Y-116458380D01*
X114395190Y-116506000D01*
X114347571Y-116553619D01*
X114252333Y-116696476D01*
X114204714Y-116886952D01*
X114204714Y-117267904D01*
X114252333Y-117363142D01*
X114299952Y-117410761D01*
X114395190Y-117458380D01*
X114585666Y-117458380D01*
X114680904Y-117410761D01*
X114728523Y-117363142D01*
X114776142Y-117267904D01*
X114776142Y-117029809D01*
X114728523Y-116934571D01*
X114680904Y-116886952D01*
X114585666Y-116839333D01*
X114395190Y-116839333D01*
X114299952Y-116886952D01*
X114252333Y-116934571D01*
X114204714Y-117029809D01*
X115395190Y-116458380D02*
X115490428Y-116458380D01*
X115585666Y-116506000D01*
X115633285Y-116553619D01*
X115680904Y-116648857D01*
X115728523Y-116839333D01*
X115728523Y-117077428D01*
X115680904Y-117267904D01*
X115633285Y-117363142D01*
X115585666Y-117410761D01*
X115490428Y-117458380D01*
X115395190Y-117458380D01*
X115299952Y-117410761D01*
X115252333Y-117363142D01*
X115204714Y-117267904D01*
X115157095Y-117077428D01*
X115157095Y-116839333D01*
X115204714Y-116648857D01*
X115252333Y-116553619D01*
X115299952Y-116506000D01*
X115395190Y-116458380D01*
X118348285Y-132000761D02*
X118491142Y-132048380D01*
X118729238Y-132048380D01*
X118824476Y-132000761D01*
X118872095Y-131953142D01*
X118919714Y-131857904D01*
X118919714Y-131762666D01*
X118872095Y-131667428D01*
X118824476Y-131619809D01*
X118729238Y-131572190D01*
X118538761Y-131524571D01*
X118443523Y-131476952D01*
X118395904Y-131429333D01*
X118348285Y-131334095D01*
X118348285Y-131238857D01*
X118395904Y-131143619D01*
X118443523Y-131096000D01*
X118538761Y-131048380D01*
X118776857Y-131048380D01*
X118919714Y-131096000D01*
G04 #@! TO.C,SW59*
X108299476Y-100900761D02*
X108442333Y-100948380D01*
X108680428Y-100948380D01*
X108775666Y-100900761D01*
X108823285Y-100853142D01*
X108870904Y-100757904D01*
X108870904Y-100662666D01*
X108823285Y-100567428D01*
X108775666Y-100519809D01*
X108680428Y-100472190D01*
X108489952Y-100424571D01*
X108394714Y-100376952D01*
X108347095Y-100329333D01*
X108299476Y-100234095D01*
X108299476Y-100138857D01*
X108347095Y-100043619D01*
X108394714Y-99996000D01*
X108489952Y-99948380D01*
X108728047Y-99948380D01*
X108870904Y-99996000D01*
X109204238Y-99948380D02*
X109442333Y-100948380D01*
X109632809Y-100234095D01*
X109823285Y-100948380D01*
X110061380Y-99948380D01*
X110918523Y-99948380D02*
X110442333Y-99948380D01*
X110394714Y-100424571D01*
X110442333Y-100376952D01*
X110537571Y-100329333D01*
X110775666Y-100329333D01*
X110870904Y-100376952D01*
X110918523Y-100424571D01*
X110966142Y-100519809D01*
X110966142Y-100757904D01*
X110918523Y-100853142D01*
X110870904Y-100900761D01*
X110775666Y-100948380D01*
X110537571Y-100948380D01*
X110442333Y-100900761D01*
X110394714Y-100853142D01*
X111442333Y-100948380D02*
X111632809Y-100948380D01*
X111728047Y-100900761D01*
X111775666Y-100853142D01*
X111870904Y-100710285D01*
X111918523Y-100519809D01*
X111918523Y-100138857D01*
X111870904Y-100043619D01*
X111823285Y-99996000D01*
X111728047Y-99948380D01*
X111537571Y-99948380D01*
X111442333Y-99996000D01*
X111394714Y-100043619D01*
X111347095Y-100138857D01*
X111347095Y-100376952D01*
X111394714Y-100472190D01*
X111442333Y-100519809D01*
X111537571Y-100567428D01*
X111728047Y-100567428D01*
X111823285Y-100519809D01*
X111870904Y-100472190D01*
X111918523Y-100376952D01*
X114395428Y-114538380D02*
X114633523Y-115538380D01*
X114824000Y-114824095D01*
X115014476Y-115538380D01*
X115252571Y-114538380D01*
G04 #@! TO.C,SW58*
X124809476Y-100900761D02*
X124952333Y-100948380D01*
X125190428Y-100948380D01*
X125285666Y-100900761D01*
X125333285Y-100853142D01*
X125380904Y-100757904D01*
X125380904Y-100662666D01*
X125333285Y-100567428D01*
X125285666Y-100519809D01*
X125190428Y-100472190D01*
X124999952Y-100424571D01*
X124904714Y-100376952D01*
X124857095Y-100329333D01*
X124809476Y-100234095D01*
X124809476Y-100138857D01*
X124857095Y-100043619D01*
X124904714Y-99996000D01*
X124999952Y-99948380D01*
X125238047Y-99948380D01*
X125380904Y-99996000D01*
X125714238Y-99948380D02*
X125952333Y-100948380D01*
X126142809Y-100234095D01*
X126333285Y-100948380D01*
X126571380Y-99948380D01*
X127428523Y-99948380D02*
X126952333Y-99948380D01*
X126904714Y-100424571D01*
X126952333Y-100376952D01*
X127047571Y-100329333D01*
X127285666Y-100329333D01*
X127380904Y-100376952D01*
X127428523Y-100424571D01*
X127476142Y-100519809D01*
X127476142Y-100757904D01*
X127428523Y-100853142D01*
X127380904Y-100900761D01*
X127285666Y-100948380D01*
X127047571Y-100948380D01*
X126952333Y-100900761D01*
X126904714Y-100853142D01*
X128047571Y-100376952D02*
X127952333Y-100329333D01*
X127904714Y-100281714D01*
X127857095Y-100186476D01*
X127857095Y-100138857D01*
X127904714Y-100043619D01*
X127952333Y-99996000D01*
X128047571Y-99948380D01*
X128238047Y-99948380D01*
X128333285Y-99996000D01*
X128380904Y-100043619D01*
X128428523Y-100138857D01*
X128428523Y-100186476D01*
X128380904Y-100281714D01*
X128333285Y-100329333D01*
X128238047Y-100376952D01*
X128047571Y-100376952D01*
X127952333Y-100424571D01*
X127904714Y-100472190D01*
X127857095Y-100567428D01*
X127857095Y-100757904D01*
X127904714Y-100853142D01*
X127952333Y-100900761D01*
X128047571Y-100948380D01*
X128238047Y-100948380D01*
X128333285Y-100900761D01*
X128380904Y-100853142D01*
X128428523Y-100757904D01*
X128428523Y-100567428D01*
X128380904Y-100472190D01*
X128333285Y-100424571D01*
X128238047Y-100376952D01*
X131119714Y-115014571D02*
X131453047Y-115014571D01*
X131595904Y-115538380D02*
X131119714Y-115538380D01*
X131119714Y-114538380D01*
X131595904Y-114538380D01*
G04 #@! TO.C,SW57*
X116554476Y-84390761D02*
X116697333Y-84438380D01*
X116935428Y-84438380D01*
X117030666Y-84390761D01*
X117078285Y-84343142D01*
X117125904Y-84247904D01*
X117125904Y-84152666D01*
X117078285Y-84057428D01*
X117030666Y-84009809D01*
X116935428Y-83962190D01*
X116744952Y-83914571D01*
X116649714Y-83866952D01*
X116602095Y-83819333D01*
X116554476Y-83724095D01*
X116554476Y-83628857D01*
X116602095Y-83533619D01*
X116649714Y-83486000D01*
X116744952Y-83438380D01*
X116983047Y-83438380D01*
X117125904Y-83486000D01*
X117459238Y-83438380D02*
X117697333Y-84438380D01*
X117887809Y-83724095D01*
X118078285Y-84438380D01*
X118316380Y-83438380D01*
X119173523Y-83438380D02*
X118697333Y-83438380D01*
X118649714Y-83914571D01*
X118697333Y-83866952D01*
X118792571Y-83819333D01*
X119030666Y-83819333D01*
X119125904Y-83866952D01*
X119173523Y-83914571D01*
X119221142Y-84009809D01*
X119221142Y-84247904D01*
X119173523Y-84343142D01*
X119125904Y-84390761D01*
X119030666Y-84438380D01*
X118792571Y-84438380D01*
X118697333Y-84390761D01*
X118649714Y-84343142D01*
X119554476Y-83438380D02*
X120221142Y-83438380D01*
X119792571Y-84438380D01*
X121864714Y-98028380D02*
X122483761Y-98028380D01*
X122150428Y-98409333D01*
X122293285Y-98409333D01*
X122388523Y-98456952D01*
X122436142Y-98504571D01*
X122483761Y-98599809D01*
X122483761Y-98837904D01*
X122436142Y-98933142D01*
X122388523Y-98980761D01*
X122293285Y-99028380D01*
X122007571Y-99028380D01*
X121912333Y-98980761D01*
X121864714Y-98933142D01*
X123626619Y-98361714D02*
X124340904Y-98361714D01*
X123912333Y-97933142D02*
X123626619Y-99218857D01*
X124245666Y-98790285D02*
X123531380Y-98790285D01*
X123959952Y-99218857D02*
X124245666Y-97933142D01*
G04 #@! TO.C,SW56*
X133064476Y-84390761D02*
X133207333Y-84438380D01*
X133445428Y-84438380D01*
X133540666Y-84390761D01*
X133588285Y-84343142D01*
X133635904Y-84247904D01*
X133635904Y-84152666D01*
X133588285Y-84057428D01*
X133540666Y-84009809D01*
X133445428Y-83962190D01*
X133254952Y-83914571D01*
X133159714Y-83866952D01*
X133112095Y-83819333D01*
X133064476Y-83724095D01*
X133064476Y-83628857D01*
X133112095Y-83533619D01*
X133159714Y-83486000D01*
X133254952Y-83438380D01*
X133493047Y-83438380D01*
X133635904Y-83486000D01*
X133969238Y-83438380D02*
X134207333Y-84438380D01*
X134397809Y-83724095D01*
X134588285Y-84438380D01*
X134826380Y-83438380D01*
X135683523Y-83438380D02*
X135207333Y-83438380D01*
X135159714Y-83914571D01*
X135207333Y-83866952D01*
X135302571Y-83819333D01*
X135540666Y-83819333D01*
X135635904Y-83866952D01*
X135683523Y-83914571D01*
X135731142Y-84009809D01*
X135731142Y-84247904D01*
X135683523Y-84343142D01*
X135635904Y-84390761D01*
X135540666Y-84438380D01*
X135302571Y-84438380D01*
X135207333Y-84390761D01*
X135159714Y-84343142D01*
X136588285Y-83438380D02*
X136397809Y-83438380D01*
X136302571Y-83486000D01*
X136254952Y-83533619D01*
X136159714Y-83676476D01*
X136112095Y-83866952D01*
X136112095Y-84247904D01*
X136159714Y-84343142D01*
X136207333Y-84390761D01*
X136302571Y-84438380D01*
X136493047Y-84438380D01*
X136588285Y-84390761D01*
X136635904Y-84343142D01*
X136683523Y-84247904D01*
X136683523Y-84009809D01*
X136635904Y-83914571D01*
X136588285Y-83866952D01*
X136493047Y-83819333D01*
X136302571Y-83819333D01*
X136207333Y-83866952D01*
X136159714Y-83914571D01*
X136112095Y-84009809D01*
X138922333Y-98361714D02*
X138922333Y-99028380D01*
X138684238Y-97980761D02*
X138446142Y-98695047D01*
X139065190Y-98695047D01*
X140160428Y-98980761D02*
X140303285Y-99028380D01*
X140541380Y-99028380D01*
X140636619Y-98980761D01*
X140684238Y-98933142D01*
X140731857Y-98837904D01*
X140731857Y-98742666D01*
X140684238Y-98647428D01*
X140636619Y-98599809D01*
X140541380Y-98552190D01*
X140350904Y-98504571D01*
X140255666Y-98456952D01*
X140208047Y-98409333D01*
X140160428Y-98314095D01*
X140160428Y-98218857D01*
X140208047Y-98123619D01*
X140255666Y-98076000D01*
X140350904Y-98028380D01*
X140589000Y-98028380D01*
X140731857Y-98076000D01*
X140446142Y-97885523D02*
X140446142Y-99171238D01*
G04 #@! TO.C,SW55*
X152749476Y-133920761D02*
X152892333Y-133968380D01*
X153130428Y-133968380D01*
X153225666Y-133920761D01*
X153273285Y-133873142D01*
X153320904Y-133777904D01*
X153320904Y-133682666D01*
X153273285Y-133587428D01*
X153225666Y-133539809D01*
X153130428Y-133492190D01*
X152939952Y-133444571D01*
X152844714Y-133396952D01*
X152797095Y-133349333D01*
X152749476Y-133254095D01*
X152749476Y-133158857D01*
X152797095Y-133063619D01*
X152844714Y-133016000D01*
X152939952Y-132968380D01*
X153178047Y-132968380D01*
X153320904Y-133016000D01*
X153654238Y-132968380D02*
X153892333Y-133968380D01*
X154082809Y-133254095D01*
X154273285Y-133968380D01*
X154511380Y-132968380D01*
X155368523Y-132968380D02*
X154892333Y-132968380D01*
X154844714Y-133444571D01*
X154892333Y-133396952D01*
X154987571Y-133349333D01*
X155225666Y-133349333D01*
X155320904Y-133396952D01*
X155368523Y-133444571D01*
X155416142Y-133539809D01*
X155416142Y-133777904D01*
X155368523Y-133873142D01*
X155320904Y-133920761D01*
X155225666Y-133968380D01*
X154987571Y-133968380D01*
X154892333Y-133920761D01*
X154844714Y-133873142D01*
X156320904Y-132968380D02*
X155844714Y-132968380D01*
X155797095Y-133444571D01*
X155844714Y-133396952D01*
X155939952Y-133349333D01*
X156178047Y-133349333D01*
X156273285Y-133396952D01*
X156320904Y-133444571D01*
X156368523Y-133539809D01*
X156368523Y-133777904D01*
X156320904Y-133873142D01*
X156273285Y-133920761D01*
X156178047Y-133968380D01*
X155939952Y-133968380D01*
X155844714Y-133920761D01*
X155797095Y-133873142D01*
X158940666Y-147558380D02*
X159274000Y-148558380D01*
X159607333Y-147558380D01*
G04 #@! TO.C,SW54*
X169259476Y-133920761D02*
X169402333Y-133968380D01*
X169640428Y-133968380D01*
X169735666Y-133920761D01*
X169783285Y-133873142D01*
X169830904Y-133777904D01*
X169830904Y-133682666D01*
X169783285Y-133587428D01*
X169735666Y-133539809D01*
X169640428Y-133492190D01*
X169449952Y-133444571D01*
X169354714Y-133396952D01*
X169307095Y-133349333D01*
X169259476Y-133254095D01*
X169259476Y-133158857D01*
X169307095Y-133063619D01*
X169354714Y-133016000D01*
X169449952Y-132968380D01*
X169688047Y-132968380D01*
X169830904Y-133016000D01*
X170164238Y-132968380D02*
X170402333Y-133968380D01*
X170592809Y-133254095D01*
X170783285Y-133968380D01*
X171021380Y-132968380D01*
X171878523Y-132968380D02*
X171402333Y-132968380D01*
X171354714Y-133444571D01*
X171402333Y-133396952D01*
X171497571Y-133349333D01*
X171735666Y-133349333D01*
X171830904Y-133396952D01*
X171878523Y-133444571D01*
X171926142Y-133539809D01*
X171926142Y-133777904D01*
X171878523Y-133873142D01*
X171830904Y-133920761D01*
X171735666Y-133968380D01*
X171497571Y-133968380D01*
X171402333Y-133920761D01*
X171354714Y-133873142D01*
X172783285Y-133301714D02*
X172783285Y-133968380D01*
X172545190Y-132920761D02*
X172307095Y-133635047D01*
X172926142Y-133635047D01*
X175855428Y-148034571D02*
X175998285Y-148082190D01*
X176045904Y-148129809D01*
X176093523Y-148225047D01*
X176093523Y-148367904D01*
X176045904Y-148463142D01*
X175998285Y-148510761D01*
X175903047Y-148558380D01*
X175522095Y-148558380D01*
X175522095Y-147558380D01*
X175855428Y-147558380D01*
X175950666Y-147606000D01*
X175998285Y-147653619D01*
X176045904Y-147748857D01*
X176045904Y-147844095D01*
X175998285Y-147939333D01*
X175950666Y-147986952D01*
X175855428Y-148034571D01*
X175522095Y-148034571D01*
G04 #@! TO.C,SW53*
X145129476Y-117410761D02*
X145272333Y-117458380D01*
X145510428Y-117458380D01*
X145605666Y-117410761D01*
X145653285Y-117363142D01*
X145700904Y-117267904D01*
X145700904Y-117172666D01*
X145653285Y-117077428D01*
X145605666Y-117029809D01*
X145510428Y-116982190D01*
X145319952Y-116934571D01*
X145224714Y-116886952D01*
X145177095Y-116839333D01*
X145129476Y-116744095D01*
X145129476Y-116648857D01*
X145177095Y-116553619D01*
X145224714Y-116506000D01*
X145319952Y-116458380D01*
X145558047Y-116458380D01*
X145700904Y-116506000D01*
X146034238Y-116458380D02*
X146272333Y-117458380D01*
X146462809Y-116744095D01*
X146653285Y-117458380D01*
X146891380Y-116458380D01*
X147748523Y-116458380D02*
X147272333Y-116458380D01*
X147224714Y-116934571D01*
X147272333Y-116886952D01*
X147367571Y-116839333D01*
X147605666Y-116839333D01*
X147700904Y-116886952D01*
X147748523Y-116934571D01*
X147796142Y-117029809D01*
X147796142Y-117267904D01*
X147748523Y-117363142D01*
X147700904Y-117410761D01*
X147605666Y-117458380D01*
X147367571Y-117458380D01*
X147272333Y-117410761D01*
X147224714Y-117363142D01*
X148129476Y-116458380D02*
X148748523Y-116458380D01*
X148415190Y-116839333D01*
X148558047Y-116839333D01*
X148653285Y-116886952D01*
X148700904Y-116934571D01*
X148748523Y-117029809D01*
X148748523Y-117267904D01*
X148700904Y-117363142D01*
X148653285Y-117410761D01*
X148558047Y-117458380D01*
X148272333Y-117458380D01*
X148177095Y-117410761D01*
X148129476Y-117363142D01*
X151796857Y-131524571D02*
X151463523Y-131524571D01*
X151463523Y-132048380D02*
X151463523Y-131048380D01*
X151939714Y-131048380D01*
G04 #@! TO.C,SW52*
X161639476Y-117410761D02*
X161782333Y-117458380D01*
X162020428Y-117458380D01*
X162115666Y-117410761D01*
X162163285Y-117363142D01*
X162210904Y-117267904D01*
X162210904Y-117172666D01*
X162163285Y-117077428D01*
X162115666Y-117029809D01*
X162020428Y-116982190D01*
X161829952Y-116934571D01*
X161734714Y-116886952D01*
X161687095Y-116839333D01*
X161639476Y-116744095D01*
X161639476Y-116648857D01*
X161687095Y-116553619D01*
X161734714Y-116506000D01*
X161829952Y-116458380D01*
X162068047Y-116458380D01*
X162210904Y-116506000D01*
X162544238Y-116458380D02*
X162782333Y-117458380D01*
X162972809Y-116744095D01*
X163163285Y-117458380D01*
X163401380Y-116458380D01*
X164258523Y-116458380D02*
X163782333Y-116458380D01*
X163734714Y-116934571D01*
X163782333Y-116886952D01*
X163877571Y-116839333D01*
X164115666Y-116839333D01*
X164210904Y-116886952D01*
X164258523Y-116934571D01*
X164306142Y-117029809D01*
X164306142Y-117267904D01*
X164258523Y-117363142D01*
X164210904Y-117410761D01*
X164115666Y-117458380D01*
X163877571Y-117458380D01*
X163782333Y-117410761D01*
X163734714Y-117363142D01*
X164687095Y-116553619D02*
X164734714Y-116506000D01*
X164829952Y-116458380D01*
X165068047Y-116458380D01*
X165163285Y-116506000D01*
X165210904Y-116553619D01*
X165258523Y-116648857D01*
X165258523Y-116744095D01*
X165210904Y-116886952D01*
X164639476Y-117458380D01*
X165258523Y-117458380D01*
X168425904Y-131096000D02*
X168330666Y-131048380D01*
X168187809Y-131048380D01*
X168044952Y-131096000D01*
X167949714Y-131191238D01*
X167902095Y-131286476D01*
X167854476Y-131476952D01*
X167854476Y-131619809D01*
X167902095Y-131810285D01*
X167949714Y-131905523D01*
X168044952Y-132000761D01*
X168187809Y-132048380D01*
X168283047Y-132048380D01*
X168425904Y-132000761D01*
X168473523Y-131953142D01*
X168473523Y-131619809D01*
X168283047Y-131619809D01*
G04 #@! TO.C,SW51*
X157829476Y-100900761D02*
X157972333Y-100948380D01*
X158210428Y-100948380D01*
X158305666Y-100900761D01*
X158353285Y-100853142D01*
X158400904Y-100757904D01*
X158400904Y-100662666D01*
X158353285Y-100567428D01*
X158305666Y-100519809D01*
X158210428Y-100472190D01*
X158019952Y-100424571D01*
X157924714Y-100376952D01*
X157877095Y-100329333D01*
X157829476Y-100234095D01*
X157829476Y-100138857D01*
X157877095Y-100043619D01*
X157924714Y-99996000D01*
X158019952Y-99948380D01*
X158258047Y-99948380D01*
X158400904Y-99996000D01*
X158734238Y-99948380D02*
X158972333Y-100948380D01*
X159162809Y-100234095D01*
X159353285Y-100948380D01*
X159591380Y-99948380D01*
X160448523Y-99948380D02*
X159972333Y-99948380D01*
X159924714Y-100424571D01*
X159972333Y-100376952D01*
X160067571Y-100329333D01*
X160305666Y-100329333D01*
X160400904Y-100376952D01*
X160448523Y-100424571D01*
X160496142Y-100519809D01*
X160496142Y-100757904D01*
X160448523Y-100853142D01*
X160400904Y-100900761D01*
X160305666Y-100948380D01*
X160067571Y-100948380D01*
X159972333Y-100900761D01*
X159924714Y-100853142D01*
X161448523Y-100948380D02*
X160877095Y-100948380D01*
X161162809Y-100948380D02*
X161162809Y-99948380D01*
X161067571Y-100091238D01*
X160972333Y-100186476D01*
X160877095Y-100234095D01*
X164068285Y-114538380D02*
X164639714Y-114538380D01*
X164354000Y-115538380D02*
X164354000Y-114538380D01*
G04 #@! TO.C,SW50*
X141319476Y-100900761D02*
X141462333Y-100948380D01*
X141700428Y-100948380D01*
X141795666Y-100900761D01*
X141843285Y-100853142D01*
X141890904Y-100757904D01*
X141890904Y-100662666D01*
X141843285Y-100567428D01*
X141795666Y-100519809D01*
X141700428Y-100472190D01*
X141509952Y-100424571D01*
X141414714Y-100376952D01*
X141367095Y-100329333D01*
X141319476Y-100234095D01*
X141319476Y-100138857D01*
X141367095Y-100043619D01*
X141414714Y-99996000D01*
X141509952Y-99948380D01*
X141748047Y-99948380D01*
X141890904Y-99996000D01*
X142224238Y-99948380D02*
X142462333Y-100948380D01*
X142652809Y-100234095D01*
X142843285Y-100948380D01*
X143081380Y-99948380D01*
X143938523Y-99948380D02*
X143462333Y-99948380D01*
X143414714Y-100424571D01*
X143462333Y-100376952D01*
X143557571Y-100329333D01*
X143795666Y-100329333D01*
X143890904Y-100376952D01*
X143938523Y-100424571D01*
X143986142Y-100519809D01*
X143986142Y-100757904D01*
X143938523Y-100853142D01*
X143890904Y-100900761D01*
X143795666Y-100948380D01*
X143557571Y-100948380D01*
X143462333Y-100900761D01*
X143414714Y-100853142D01*
X144605190Y-99948380D02*
X144700428Y-99948380D01*
X144795666Y-99996000D01*
X144843285Y-100043619D01*
X144890904Y-100138857D01*
X144938523Y-100329333D01*
X144938523Y-100567428D01*
X144890904Y-100757904D01*
X144843285Y-100853142D01*
X144795666Y-100900761D01*
X144700428Y-100948380D01*
X144605190Y-100948380D01*
X144509952Y-100900761D01*
X144462333Y-100853142D01*
X144414714Y-100757904D01*
X144367095Y-100567428D01*
X144367095Y-100329333D01*
X144414714Y-100138857D01*
X144462333Y-100043619D01*
X144509952Y-99996000D01*
X144605190Y-99948380D01*
X148153523Y-115538380D02*
X147820190Y-115062190D01*
X147582095Y-115538380D02*
X147582095Y-114538380D01*
X147963047Y-114538380D01*
X148058285Y-114586000D01*
X148105904Y-114633619D01*
X148153523Y-114728857D01*
X148153523Y-114871714D01*
X148105904Y-114966952D01*
X148058285Y-115014571D01*
X147963047Y-115062190D01*
X147582095Y-115062190D01*
G04 #@! TO.C,SW49*
X149574476Y-84390761D02*
X149717333Y-84438380D01*
X149955428Y-84438380D01*
X150050666Y-84390761D01*
X150098285Y-84343142D01*
X150145904Y-84247904D01*
X150145904Y-84152666D01*
X150098285Y-84057428D01*
X150050666Y-84009809D01*
X149955428Y-83962190D01*
X149764952Y-83914571D01*
X149669714Y-83866952D01*
X149622095Y-83819333D01*
X149574476Y-83724095D01*
X149574476Y-83628857D01*
X149622095Y-83533619D01*
X149669714Y-83486000D01*
X149764952Y-83438380D01*
X150003047Y-83438380D01*
X150145904Y-83486000D01*
X150479238Y-83438380D02*
X150717333Y-84438380D01*
X150907809Y-83724095D01*
X151098285Y-84438380D01*
X151336380Y-83438380D01*
X152145904Y-83771714D02*
X152145904Y-84438380D01*
X151907809Y-83390761D02*
X151669714Y-84105047D01*
X152288761Y-84105047D01*
X152717333Y-84438380D02*
X152907809Y-84438380D01*
X153003047Y-84390761D01*
X153050666Y-84343142D01*
X153145904Y-84200285D01*
X153193523Y-84009809D01*
X153193523Y-83628857D01*
X153145904Y-83533619D01*
X153098285Y-83486000D01*
X153003047Y-83438380D01*
X152812571Y-83438380D01*
X152717333Y-83486000D01*
X152669714Y-83533619D01*
X152622095Y-83628857D01*
X152622095Y-83866952D01*
X152669714Y-83962190D01*
X152717333Y-84009809D01*
X152812571Y-84057428D01*
X153003047Y-84057428D01*
X153098285Y-84009809D01*
X153145904Y-83962190D01*
X153193523Y-83866952D01*
X155384714Y-98028380D02*
X154908523Y-98028380D01*
X154860904Y-98504571D01*
X154908523Y-98456952D01*
X155003761Y-98409333D01*
X155241857Y-98409333D01*
X155337095Y-98456952D01*
X155384714Y-98504571D01*
X155432333Y-98599809D01*
X155432333Y-98837904D01*
X155384714Y-98933142D01*
X155337095Y-98980761D01*
X155241857Y-99028380D01*
X155003761Y-99028380D01*
X154908523Y-98980761D01*
X154860904Y-98933142D01*
X156575190Y-99028380D02*
X157337095Y-98028380D01*
X156718047Y-98028380D02*
X156813285Y-98076000D01*
X156860904Y-98171238D01*
X156813285Y-98266476D01*
X156718047Y-98314095D01*
X156622809Y-98266476D01*
X156575190Y-98171238D01*
X156622809Y-98076000D01*
X156718047Y-98028380D01*
X157289476Y-98980761D02*
X157337095Y-98885523D01*
X157289476Y-98790285D01*
X157194238Y-98742666D01*
X157099000Y-98790285D01*
X157051380Y-98885523D01*
X157099000Y-98980761D01*
X157194238Y-99028380D01*
X157289476Y-98980761D01*
G04 #@! TO.C,SW48*
X166084476Y-84390761D02*
X166227333Y-84438380D01*
X166465428Y-84438380D01*
X166560666Y-84390761D01*
X166608285Y-84343142D01*
X166655904Y-84247904D01*
X166655904Y-84152666D01*
X166608285Y-84057428D01*
X166560666Y-84009809D01*
X166465428Y-83962190D01*
X166274952Y-83914571D01*
X166179714Y-83866952D01*
X166132095Y-83819333D01*
X166084476Y-83724095D01*
X166084476Y-83628857D01*
X166132095Y-83533619D01*
X166179714Y-83486000D01*
X166274952Y-83438380D01*
X166513047Y-83438380D01*
X166655904Y-83486000D01*
X166989238Y-83438380D02*
X167227333Y-84438380D01*
X167417809Y-83724095D01*
X167608285Y-84438380D01*
X167846380Y-83438380D01*
X168655904Y-83771714D02*
X168655904Y-84438380D01*
X168417809Y-83390761D02*
X168179714Y-84105047D01*
X168798761Y-84105047D01*
X169322571Y-83866952D02*
X169227333Y-83819333D01*
X169179714Y-83771714D01*
X169132095Y-83676476D01*
X169132095Y-83628857D01*
X169179714Y-83533619D01*
X169227333Y-83486000D01*
X169322571Y-83438380D01*
X169513047Y-83438380D01*
X169608285Y-83486000D01*
X169655904Y-83533619D01*
X169703523Y-83628857D01*
X169703523Y-83676476D01*
X169655904Y-83771714D01*
X169608285Y-83819333D01*
X169513047Y-83866952D01*
X169322571Y-83866952D01*
X169227333Y-83914571D01*
X169179714Y-83962190D01*
X169132095Y-84057428D01*
X169132095Y-84247904D01*
X169179714Y-84343142D01*
X169227333Y-84390761D01*
X169322571Y-84438380D01*
X169513047Y-84438380D01*
X169608285Y-84390761D01*
X169655904Y-84343142D01*
X169703523Y-84247904D01*
X169703523Y-84057428D01*
X169655904Y-83962190D01*
X169608285Y-83914571D01*
X169513047Y-83866952D01*
X171799476Y-98028380D02*
X171609000Y-98028380D01*
X171513761Y-98076000D01*
X171466142Y-98123619D01*
X171370904Y-98266476D01*
X171323285Y-98456952D01*
X171323285Y-98837904D01*
X171370904Y-98933142D01*
X171418523Y-98980761D01*
X171513761Y-99028380D01*
X171704238Y-99028380D01*
X171799476Y-98980761D01*
X171847095Y-98933142D01*
X171894714Y-98837904D01*
X171894714Y-98599809D01*
X171847095Y-98504571D01*
X171799476Y-98456952D01*
X171704238Y-98409333D01*
X171513761Y-98409333D01*
X171418523Y-98456952D01*
X171370904Y-98504571D01*
X171323285Y-98599809D01*
X173894714Y-99028380D02*
X173847095Y-99028380D01*
X173751857Y-98980761D01*
X173609000Y-98837904D01*
X173370904Y-98552190D01*
X173275666Y-98409333D01*
X173228047Y-98266476D01*
X173228047Y-98171238D01*
X173275666Y-98076000D01*
X173370904Y-98028380D01*
X173418523Y-98028380D01*
X173513761Y-98076000D01*
X173561380Y-98171238D01*
X173561380Y-98218857D01*
X173513761Y-98314095D01*
X173466142Y-98361714D01*
X173180428Y-98552190D01*
X173132809Y-98599809D01*
X173085190Y-98695047D01*
X173085190Y-98837904D01*
X173132809Y-98933142D01*
X173180428Y-98980761D01*
X173275666Y-99028380D01*
X173418523Y-99028380D01*
X173513761Y-98980761D01*
X173561380Y-98933142D01*
X173704238Y-98742666D01*
X173751857Y-98599809D01*
X173751857Y-98504571D01*
G04 #@! TO.C,SW47*
X185769476Y-150430761D02*
X185912333Y-150478380D01*
X186150428Y-150478380D01*
X186245666Y-150430761D01*
X186293285Y-150383142D01*
X186340904Y-150287904D01*
X186340904Y-150192666D01*
X186293285Y-150097428D01*
X186245666Y-150049809D01*
X186150428Y-150002190D01*
X185959952Y-149954571D01*
X185864714Y-149906952D01*
X185817095Y-149859333D01*
X185769476Y-149764095D01*
X185769476Y-149668857D01*
X185817095Y-149573619D01*
X185864714Y-149526000D01*
X185959952Y-149478380D01*
X186198047Y-149478380D01*
X186340904Y-149526000D01*
X186674238Y-149478380D02*
X186912333Y-150478380D01*
X187102809Y-149764095D01*
X187293285Y-150478380D01*
X187531380Y-149478380D01*
X188340904Y-149811714D02*
X188340904Y-150478380D01*
X188102809Y-149430761D02*
X187864714Y-150145047D01*
X188483761Y-150145047D01*
X188769476Y-149478380D02*
X189436142Y-149478380D01*
X189007571Y-150478380D01*
X188317809Y-165020761D02*
X188460666Y-165068380D01*
X188698761Y-165068380D01*
X188794000Y-165020761D01*
X188841619Y-164973142D01*
X188889238Y-164877904D01*
X188889238Y-164782666D01*
X188841619Y-164687428D01*
X188794000Y-164639809D01*
X188698761Y-164592190D01*
X188508285Y-164544571D01*
X188413047Y-164496952D01*
X188365428Y-164449333D01*
X188317809Y-164354095D01*
X188317809Y-164258857D01*
X188365428Y-164163619D01*
X188413047Y-164116000D01*
X188508285Y-164068380D01*
X188746380Y-164068380D01*
X188889238Y-164116000D01*
X189317809Y-165068380D02*
X189317809Y-164068380D01*
X189698761Y-164068380D01*
X189794000Y-164116000D01*
X189841619Y-164163619D01*
X189889238Y-164258857D01*
X189889238Y-164401714D01*
X189841619Y-164496952D01*
X189794000Y-164544571D01*
X189698761Y-164592190D01*
X189317809Y-164592190D01*
X190270190Y-164782666D02*
X190746380Y-164782666D01*
X190174952Y-165068380D02*
X190508285Y-164068380D01*
X190841619Y-165068380D01*
X191746380Y-164973142D02*
X191698761Y-165020761D01*
X191555904Y-165068380D01*
X191460666Y-165068380D01*
X191317809Y-165020761D01*
X191222571Y-164925523D01*
X191174952Y-164830285D01*
X191127333Y-164639809D01*
X191127333Y-164496952D01*
X191174952Y-164306476D01*
X191222571Y-164211238D01*
X191317809Y-164116000D01*
X191460666Y-164068380D01*
X191555904Y-164068380D01*
X191698761Y-164116000D01*
X191746380Y-164163619D01*
X192174952Y-164544571D02*
X192508285Y-164544571D01*
X192651142Y-165068380D02*
X192174952Y-165068380D01*
X192174952Y-164068380D01*
X192651142Y-164068380D01*
X194174952Y-164544571D02*
X194317809Y-164592190D01*
X194365428Y-164639809D01*
X194413047Y-164735047D01*
X194413047Y-164877904D01*
X194365428Y-164973142D01*
X194317809Y-165020761D01*
X194222571Y-165068380D01*
X193841619Y-165068380D01*
X193841619Y-164068380D01*
X194174952Y-164068380D01*
X194270190Y-164116000D01*
X194317809Y-164163619D01*
X194365428Y-164258857D01*
X194365428Y-164354095D01*
X194317809Y-164449333D01*
X194270190Y-164496952D01*
X194174952Y-164544571D01*
X193841619Y-164544571D01*
X194794000Y-164782666D02*
X195270190Y-164782666D01*
X194698761Y-165068380D02*
X195032095Y-164068380D01*
X195365428Y-165068380D01*
X196270190Y-165068380D02*
X195936857Y-164592190D01*
X195698761Y-165068380D02*
X195698761Y-164068380D01*
X196079714Y-164068380D01*
X196174952Y-164116000D01*
X196222571Y-164163619D01*
X196270190Y-164258857D01*
X196270190Y-164401714D01*
X196222571Y-164496952D01*
X196174952Y-164544571D01*
X196079714Y-164592190D01*
X195698761Y-164592190D01*
G04 #@! TO.C,SW46*
X185769476Y-133920761D02*
X185912333Y-133968380D01*
X186150428Y-133968380D01*
X186245666Y-133920761D01*
X186293285Y-133873142D01*
X186340904Y-133777904D01*
X186340904Y-133682666D01*
X186293285Y-133587428D01*
X186245666Y-133539809D01*
X186150428Y-133492190D01*
X185959952Y-133444571D01*
X185864714Y-133396952D01*
X185817095Y-133349333D01*
X185769476Y-133254095D01*
X185769476Y-133158857D01*
X185817095Y-133063619D01*
X185864714Y-133016000D01*
X185959952Y-132968380D01*
X186198047Y-132968380D01*
X186340904Y-133016000D01*
X186674238Y-132968380D02*
X186912333Y-133968380D01*
X187102809Y-133254095D01*
X187293285Y-133968380D01*
X187531380Y-132968380D01*
X188340904Y-133301714D02*
X188340904Y-133968380D01*
X188102809Y-132920761D02*
X187864714Y-133635047D01*
X188483761Y-133635047D01*
X189293285Y-132968380D02*
X189102809Y-132968380D01*
X189007571Y-133016000D01*
X188959952Y-133063619D01*
X188864714Y-133206476D01*
X188817095Y-133396952D01*
X188817095Y-133777904D01*
X188864714Y-133873142D01*
X188912333Y-133920761D01*
X189007571Y-133968380D01*
X189198047Y-133968380D01*
X189293285Y-133920761D01*
X189340904Y-133873142D01*
X189388523Y-133777904D01*
X189388523Y-133539809D01*
X189340904Y-133444571D01*
X189293285Y-133396952D01*
X189198047Y-133349333D01*
X189007571Y-133349333D01*
X188912333Y-133396952D01*
X188864714Y-133444571D01*
X188817095Y-133539809D01*
X192008285Y-148558380D02*
X192008285Y-147558380D01*
X192579714Y-148558380D01*
X192579714Y-147558380D01*
G04 #@! TO.C,SW45*
X194659476Y-117410761D02*
X194802333Y-117458380D01*
X195040428Y-117458380D01*
X195135666Y-117410761D01*
X195183285Y-117363142D01*
X195230904Y-117267904D01*
X195230904Y-117172666D01*
X195183285Y-117077428D01*
X195135666Y-117029809D01*
X195040428Y-116982190D01*
X194849952Y-116934571D01*
X194754714Y-116886952D01*
X194707095Y-116839333D01*
X194659476Y-116744095D01*
X194659476Y-116648857D01*
X194707095Y-116553619D01*
X194754714Y-116506000D01*
X194849952Y-116458380D01*
X195088047Y-116458380D01*
X195230904Y-116506000D01*
X195564238Y-116458380D02*
X195802333Y-117458380D01*
X195992809Y-116744095D01*
X196183285Y-117458380D01*
X196421380Y-116458380D01*
X197230904Y-116791714D02*
X197230904Y-117458380D01*
X196992809Y-116410761D02*
X196754714Y-117125047D01*
X197373761Y-117125047D01*
X198230904Y-116458380D02*
X197754714Y-116458380D01*
X197707095Y-116934571D01*
X197754714Y-116886952D01*
X197849952Y-116839333D01*
X198088047Y-116839333D01*
X198183285Y-116886952D01*
X198230904Y-116934571D01*
X198278523Y-117029809D01*
X198278523Y-117267904D01*
X198230904Y-117363142D01*
X198183285Y-117410761D01*
X198088047Y-117458380D01*
X197849952Y-117458380D01*
X197754714Y-117410761D01*
X197707095Y-117363142D01*
X201326857Y-131048380D02*
X201326857Y-131762666D01*
X201279238Y-131905523D01*
X201184000Y-132000761D01*
X201041142Y-132048380D01*
X200945904Y-132048380D01*
G04 #@! TO.C,SW44*
X178149476Y-117410761D02*
X178292333Y-117458380D01*
X178530428Y-117458380D01*
X178625666Y-117410761D01*
X178673285Y-117363142D01*
X178720904Y-117267904D01*
X178720904Y-117172666D01*
X178673285Y-117077428D01*
X178625666Y-117029809D01*
X178530428Y-116982190D01*
X178339952Y-116934571D01*
X178244714Y-116886952D01*
X178197095Y-116839333D01*
X178149476Y-116744095D01*
X178149476Y-116648857D01*
X178197095Y-116553619D01*
X178244714Y-116506000D01*
X178339952Y-116458380D01*
X178578047Y-116458380D01*
X178720904Y-116506000D01*
X179054238Y-116458380D02*
X179292333Y-117458380D01*
X179482809Y-116744095D01*
X179673285Y-117458380D01*
X179911380Y-116458380D01*
X180720904Y-116791714D02*
X180720904Y-117458380D01*
X180482809Y-116410761D02*
X180244714Y-117125047D01*
X180863761Y-117125047D01*
X181673285Y-116791714D02*
X181673285Y-117458380D01*
X181435190Y-116410761D02*
X181197095Y-117125047D01*
X181816142Y-117125047D01*
X184388285Y-132048380D02*
X184388285Y-131048380D01*
X184388285Y-131524571D02*
X184959714Y-131524571D01*
X184959714Y-132048380D02*
X184959714Y-131048380D01*
G04 #@! TO.C,SW43*
X174339476Y-100900761D02*
X174482333Y-100948380D01*
X174720428Y-100948380D01*
X174815666Y-100900761D01*
X174863285Y-100853142D01*
X174910904Y-100757904D01*
X174910904Y-100662666D01*
X174863285Y-100567428D01*
X174815666Y-100519809D01*
X174720428Y-100472190D01*
X174529952Y-100424571D01*
X174434714Y-100376952D01*
X174387095Y-100329333D01*
X174339476Y-100234095D01*
X174339476Y-100138857D01*
X174387095Y-100043619D01*
X174434714Y-99996000D01*
X174529952Y-99948380D01*
X174768047Y-99948380D01*
X174910904Y-99996000D01*
X175244238Y-99948380D02*
X175482333Y-100948380D01*
X175672809Y-100234095D01*
X175863285Y-100948380D01*
X176101380Y-99948380D01*
X176910904Y-100281714D02*
X176910904Y-100948380D01*
X176672809Y-99900761D02*
X176434714Y-100615047D01*
X177053761Y-100615047D01*
X177339476Y-99948380D02*
X177958523Y-99948380D01*
X177625190Y-100329333D01*
X177768047Y-100329333D01*
X177863285Y-100376952D01*
X177910904Y-100424571D01*
X177958523Y-100519809D01*
X177958523Y-100757904D01*
X177910904Y-100853142D01*
X177863285Y-100900761D01*
X177768047Y-100948380D01*
X177482333Y-100948380D01*
X177387095Y-100900761D01*
X177339476Y-100853142D01*
X180864000Y-115062190D02*
X180864000Y-115538380D01*
X180530666Y-114538380D02*
X180864000Y-115062190D01*
X181197333Y-114538380D01*
G04 #@! TO.C,SW42*
X190849476Y-100900761D02*
X190992333Y-100948380D01*
X191230428Y-100948380D01*
X191325666Y-100900761D01*
X191373285Y-100853142D01*
X191420904Y-100757904D01*
X191420904Y-100662666D01*
X191373285Y-100567428D01*
X191325666Y-100519809D01*
X191230428Y-100472190D01*
X191039952Y-100424571D01*
X190944714Y-100376952D01*
X190897095Y-100329333D01*
X190849476Y-100234095D01*
X190849476Y-100138857D01*
X190897095Y-100043619D01*
X190944714Y-99996000D01*
X191039952Y-99948380D01*
X191278047Y-99948380D01*
X191420904Y-99996000D01*
X191754238Y-99948380D02*
X191992333Y-100948380D01*
X192182809Y-100234095D01*
X192373285Y-100948380D01*
X192611380Y-99948380D01*
X193420904Y-100281714D02*
X193420904Y-100948380D01*
X193182809Y-99900761D02*
X192944714Y-100615047D01*
X193563761Y-100615047D01*
X193897095Y-100043619D02*
X193944714Y-99996000D01*
X194039952Y-99948380D01*
X194278047Y-99948380D01*
X194373285Y-99996000D01*
X194420904Y-100043619D01*
X194468523Y-100138857D01*
X194468523Y-100234095D01*
X194420904Y-100376952D01*
X193849476Y-100948380D01*
X194468523Y-100948380D01*
X197088285Y-114538380D02*
X197088285Y-115347904D01*
X197135904Y-115443142D01*
X197183523Y-115490761D01*
X197278761Y-115538380D01*
X197469238Y-115538380D01*
X197564476Y-115490761D01*
X197612095Y-115443142D01*
X197659714Y-115347904D01*
X197659714Y-114538380D01*
G04 #@! TO.C,SW41*
X182594476Y-84390761D02*
X182737333Y-84438380D01*
X182975428Y-84438380D01*
X183070666Y-84390761D01*
X183118285Y-84343142D01*
X183165904Y-84247904D01*
X183165904Y-84152666D01*
X183118285Y-84057428D01*
X183070666Y-84009809D01*
X182975428Y-83962190D01*
X182784952Y-83914571D01*
X182689714Y-83866952D01*
X182642095Y-83819333D01*
X182594476Y-83724095D01*
X182594476Y-83628857D01*
X182642095Y-83533619D01*
X182689714Y-83486000D01*
X182784952Y-83438380D01*
X183023047Y-83438380D01*
X183165904Y-83486000D01*
X183499238Y-83438380D02*
X183737333Y-84438380D01*
X183927809Y-83724095D01*
X184118285Y-84438380D01*
X184356380Y-83438380D01*
X185165904Y-83771714D02*
X185165904Y-84438380D01*
X184927809Y-83390761D02*
X184689714Y-84105047D01*
X185308761Y-84105047D01*
X186213523Y-84438380D02*
X185642095Y-84438380D01*
X185927809Y-84438380D02*
X185927809Y-83438380D01*
X185832571Y-83581238D01*
X185737333Y-83676476D01*
X185642095Y-83724095D01*
X188166619Y-98028380D02*
X188833285Y-98028380D01*
X188404714Y-99028380D01*
X190023761Y-98028380D02*
X189928523Y-98218857D01*
G04 #@! TO.C,SW40*
X199104476Y-84390761D02*
X199247333Y-84438380D01*
X199485428Y-84438380D01*
X199580666Y-84390761D01*
X199628285Y-84343142D01*
X199675904Y-84247904D01*
X199675904Y-84152666D01*
X199628285Y-84057428D01*
X199580666Y-84009809D01*
X199485428Y-83962190D01*
X199294952Y-83914571D01*
X199199714Y-83866952D01*
X199152095Y-83819333D01*
X199104476Y-83724095D01*
X199104476Y-83628857D01*
X199152095Y-83533619D01*
X199199714Y-83486000D01*
X199294952Y-83438380D01*
X199533047Y-83438380D01*
X199675904Y-83486000D01*
X200009238Y-83438380D02*
X200247333Y-84438380D01*
X200437809Y-83724095D01*
X200628285Y-84438380D01*
X200866380Y-83438380D01*
X201675904Y-83771714D02*
X201675904Y-84438380D01*
X201437809Y-83390761D02*
X201199714Y-84105047D01*
X201818761Y-84105047D01*
X202390190Y-83438380D02*
X202485428Y-83438380D01*
X202580666Y-83486000D01*
X202628285Y-83533619D01*
X202675904Y-83628857D01*
X202723523Y-83819333D01*
X202723523Y-84057428D01*
X202675904Y-84247904D01*
X202628285Y-84343142D01*
X202580666Y-84390761D01*
X202485428Y-84438380D01*
X202390190Y-84438380D01*
X202294952Y-84390761D01*
X202247333Y-84343142D01*
X202199714Y-84247904D01*
X202152095Y-84057428D01*
X202152095Y-83819333D01*
X202199714Y-83628857D01*
X202247333Y-83533619D01*
X202294952Y-83486000D01*
X202390190Y-83438380D01*
X204819476Y-98456952D02*
X204724238Y-98409333D01*
X204676619Y-98361714D01*
X204629000Y-98266476D01*
X204629000Y-98218857D01*
X204676619Y-98123619D01*
X204724238Y-98076000D01*
X204819476Y-98028380D01*
X205009952Y-98028380D01*
X205105190Y-98076000D01*
X205152809Y-98123619D01*
X205200428Y-98218857D01*
X205200428Y-98266476D01*
X205152809Y-98361714D01*
X205105190Y-98409333D01*
X205009952Y-98456952D01*
X204819476Y-98456952D01*
X204724238Y-98504571D01*
X204676619Y-98552190D01*
X204629000Y-98647428D01*
X204629000Y-98837904D01*
X204676619Y-98933142D01*
X204724238Y-98980761D01*
X204819476Y-99028380D01*
X205009952Y-99028380D01*
X205105190Y-98980761D01*
X205152809Y-98933142D01*
X205200428Y-98837904D01*
X205200428Y-98647428D01*
X205152809Y-98552190D01*
X205105190Y-98504571D01*
X205009952Y-98456952D01*
X206676619Y-99409333D02*
X206629000Y-99361714D01*
X206533761Y-99218857D01*
X206486142Y-99123619D01*
X206438523Y-98980761D01*
X206390904Y-98742666D01*
X206390904Y-98552190D01*
X206438523Y-98314095D01*
X206486142Y-98171238D01*
X206533761Y-98076000D01*
X206629000Y-97933142D01*
X206676619Y-97885523D01*
G04 #@! TO.C,SW39*
X218789476Y-133920761D02*
X218932333Y-133968380D01*
X219170428Y-133968380D01*
X219265666Y-133920761D01*
X219313285Y-133873142D01*
X219360904Y-133777904D01*
X219360904Y-133682666D01*
X219313285Y-133587428D01*
X219265666Y-133539809D01*
X219170428Y-133492190D01*
X218979952Y-133444571D01*
X218884714Y-133396952D01*
X218837095Y-133349333D01*
X218789476Y-133254095D01*
X218789476Y-133158857D01*
X218837095Y-133063619D01*
X218884714Y-133016000D01*
X218979952Y-132968380D01*
X219218047Y-132968380D01*
X219360904Y-133016000D01*
X219694238Y-132968380D02*
X219932333Y-133968380D01*
X220122809Y-133254095D01*
X220313285Y-133968380D01*
X220551380Y-132968380D01*
X220837095Y-132968380D02*
X221456142Y-132968380D01*
X221122809Y-133349333D01*
X221265666Y-133349333D01*
X221360904Y-133396952D01*
X221408523Y-133444571D01*
X221456142Y-133539809D01*
X221456142Y-133777904D01*
X221408523Y-133873142D01*
X221360904Y-133920761D01*
X221265666Y-133968380D01*
X220979952Y-133968380D01*
X220884714Y-133920761D01*
X220837095Y-133873142D01*
X221932333Y-133968380D02*
X222122809Y-133968380D01*
X222218047Y-133920761D01*
X222265666Y-133873142D01*
X222360904Y-133730285D01*
X222408523Y-133539809D01*
X222408523Y-133158857D01*
X222360904Y-133063619D01*
X222313285Y-133016000D01*
X222218047Y-132968380D01*
X222027571Y-132968380D01*
X221932333Y-133016000D01*
X221884714Y-133063619D01*
X221837095Y-133158857D01*
X221837095Y-133396952D01*
X221884714Y-133492190D01*
X221932333Y-133539809D01*
X222027571Y-133587428D01*
X222218047Y-133587428D01*
X222313285Y-133539809D01*
X222360904Y-133492190D01*
X222408523Y-133396952D01*
X224361619Y-148510761D02*
X224361619Y-148558380D01*
X224314000Y-148653619D01*
X224266380Y-148701238D01*
X226314000Y-147891714D02*
X225552095Y-148177428D01*
X226314000Y-148463142D01*
G04 #@! TO.C,SW38*
X202279476Y-133920761D02*
X202422333Y-133968380D01*
X202660428Y-133968380D01*
X202755666Y-133920761D01*
X202803285Y-133873142D01*
X202850904Y-133777904D01*
X202850904Y-133682666D01*
X202803285Y-133587428D01*
X202755666Y-133539809D01*
X202660428Y-133492190D01*
X202469952Y-133444571D01*
X202374714Y-133396952D01*
X202327095Y-133349333D01*
X202279476Y-133254095D01*
X202279476Y-133158857D01*
X202327095Y-133063619D01*
X202374714Y-133016000D01*
X202469952Y-132968380D01*
X202708047Y-132968380D01*
X202850904Y-133016000D01*
X203184238Y-132968380D02*
X203422333Y-133968380D01*
X203612809Y-133254095D01*
X203803285Y-133968380D01*
X204041380Y-132968380D01*
X204327095Y-132968380D02*
X204946142Y-132968380D01*
X204612809Y-133349333D01*
X204755666Y-133349333D01*
X204850904Y-133396952D01*
X204898523Y-133444571D01*
X204946142Y-133539809D01*
X204946142Y-133777904D01*
X204898523Y-133873142D01*
X204850904Y-133920761D01*
X204755666Y-133968380D01*
X204469952Y-133968380D01*
X204374714Y-133920761D01*
X204327095Y-133873142D01*
X205517571Y-133396952D02*
X205422333Y-133349333D01*
X205374714Y-133301714D01*
X205327095Y-133206476D01*
X205327095Y-133158857D01*
X205374714Y-133063619D01*
X205422333Y-133016000D01*
X205517571Y-132968380D01*
X205708047Y-132968380D01*
X205803285Y-133016000D01*
X205850904Y-133063619D01*
X205898523Y-133158857D01*
X205898523Y-133206476D01*
X205850904Y-133301714D01*
X205803285Y-133349333D01*
X205708047Y-133396952D01*
X205517571Y-133396952D01*
X205422333Y-133444571D01*
X205374714Y-133492190D01*
X205327095Y-133587428D01*
X205327095Y-133777904D01*
X205374714Y-133873142D01*
X205422333Y-133920761D01*
X205517571Y-133968380D01*
X205708047Y-133968380D01*
X205803285Y-133920761D01*
X205850904Y-133873142D01*
X205898523Y-133777904D01*
X205898523Y-133587428D01*
X205850904Y-133492190D01*
X205803285Y-133444571D01*
X205708047Y-133396952D01*
X208470666Y-148558380D02*
X208470666Y-147558380D01*
X208804000Y-148272666D01*
X209137333Y-147558380D01*
X209137333Y-148558380D01*
G04 #@! TO.C,SW37*
X211169476Y-117410761D02*
X211312333Y-117458380D01*
X211550428Y-117458380D01*
X211645666Y-117410761D01*
X211693285Y-117363142D01*
X211740904Y-117267904D01*
X211740904Y-117172666D01*
X211693285Y-117077428D01*
X211645666Y-117029809D01*
X211550428Y-116982190D01*
X211359952Y-116934571D01*
X211264714Y-116886952D01*
X211217095Y-116839333D01*
X211169476Y-116744095D01*
X211169476Y-116648857D01*
X211217095Y-116553619D01*
X211264714Y-116506000D01*
X211359952Y-116458380D01*
X211598047Y-116458380D01*
X211740904Y-116506000D01*
X212074238Y-116458380D02*
X212312333Y-117458380D01*
X212502809Y-116744095D01*
X212693285Y-117458380D01*
X212931380Y-116458380D01*
X213217095Y-116458380D02*
X213836142Y-116458380D01*
X213502809Y-116839333D01*
X213645666Y-116839333D01*
X213740904Y-116886952D01*
X213788523Y-116934571D01*
X213836142Y-117029809D01*
X213836142Y-117267904D01*
X213788523Y-117363142D01*
X213740904Y-117410761D01*
X213645666Y-117458380D01*
X213359952Y-117458380D01*
X213264714Y-117410761D01*
X213217095Y-117363142D01*
X214169476Y-116458380D02*
X214836142Y-116458380D01*
X214407571Y-117458380D01*
X217432095Y-132048380D02*
X217432095Y-131048380D01*
X218003523Y-132048380D02*
X217574952Y-131476952D01*
X218003523Y-131048380D02*
X217432095Y-131619809D01*
G04 #@! TO.C,SW36*
X227679476Y-117410761D02*
X227822333Y-117458380D01*
X228060428Y-117458380D01*
X228155666Y-117410761D01*
X228203285Y-117363142D01*
X228250904Y-117267904D01*
X228250904Y-117172666D01*
X228203285Y-117077428D01*
X228155666Y-117029809D01*
X228060428Y-116982190D01*
X227869952Y-116934571D01*
X227774714Y-116886952D01*
X227727095Y-116839333D01*
X227679476Y-116744095D01*
X227679476Y-116648857D01*
X227727095Y-116553619D01*
X227774714Y-116506000D01*
X227869952Y-116458380D01*
X228108047Y-116458380D01*
X228250904Y-116506000D01*
X228584238Y-116458380D02*
X228822333Y-117458380D01*
X229012809Y-116744095D01*
X229203285Y-117458380D01*
X229441380Y-116458380D01*
X229727095Y-116458380D02*
X230346142Y-116458380D01*
X230012809Y-116839333D01*
X230155666Y-116839333D01*
X230250904Y-116886952D01*
X230298523Y-116934571D01*
X230346142Y-117029809D01*
X230346142Y-117267904D01*
X230298523Y-117363142D01*
X230250904Y-117410761D01*
X230155666Y-117458380D01*
X229869952Y-117458380D01*
X229774714Y-117410761D01*
X229727095Y-117363142D01*
X231203285Y-116458380D02*
X231012809Y-116458380D01*
X230917571Y-116506000D01*
X230869952Y-116553619D01*
X230774714Y-116696476D01*
X230727095Y-116886952D01*
X230727095Y-117267904D01*
X230774714Y-117363142D01*
X230822333Y-117410761D01*
X230917571Y-117458380D01*
X231108047Y-117458380D01*
X231203285Y-117410761D01*
X231250904Y-117363142D01*
X231298523Y-117267904D01*
X231298523Y-117029809D01*
X231250904Y-116934571D01*
X231203285Y-116886952D01*
X231108047Y-116839333D01*
X230917571Y-116839333D01*
X230822333Y-116886952D01*
X230774714Y-116934571D01*
X230727095Y-117029809D01*
X234513523Y-132048380D02*
X234037333Y-132048380D01*
X234037333Y-131048380D01*
G04 #@! TO.C,SW35*
X207359476Y-100900761D02*
X207502333Y-100948380D01*
X207740428Y-100948380D01*
X207835666Y-100900761D01*
X207883285Y-100853142D01*
X207930904Y-100757904D01*
X207930904Y-100662666D01*
X207883285Y-100567428D01*
X207835666Y-100519809D01*
X207740428Y-100472190D01*
X207549952Y-100424571D01*
X207454714Y-100376952D01*
X207407095Y-100329333D01*
X207359476Y-100234095D01*
X207359476Y-100138857D01*
X207407095Y-100043619D01*
X207454714Y-99996000D01*
X207549952Y-99948380D01*
X207788047Y-99948380D01*
X207930904Y-99996000D01*
X208264238Y-99948380D02*
X208502333Y-100948380D01*
X208692809Y-100234095D01*
X208883285Y-100948380D01*
X209121380Y-99948380D01*
X209407095Y-99948380D02*
X210026142Y-99948380D01*
X209692809Y-100329333D01*
X209835666Y-100329333D01*
X209930904Y-100376952D01*
X209978523Y-100424571D01*
X210026142Y-100519809D01*
X210026142Y-100757904D01*
X209978523Y-100853142D01*
X209930904Y-100900761D01*
X209835666Y-100948380D01*
X209549952Y-100948380D01*
X209454714Y-100900761D01*
X209407095Y-100853142D01*
X210930904Y-99948380D02*
X210454714Y-99948380D01*
X210407095Y-100424571D01*
X210454714Y-100376952D01*
X210549952Y-100329333D01*
X210788047Y-100329333D01*
X210883285Y-100376952D01*
X210930904Y-100424571D01*
X210978523Y-100519809D01*
X210978523Y-100757904D01*
X210930904Y-100853142D01*
X210883285Y-100900761D01*
X210788047Y-100948380D01*
X210549952Y-100948380D01*
X210454714Y-100900761D01*
X210407095Y-100853142D01*
X213884000Y-115538380D02*
X213884000Y-114538380D01*
G04 #@! TO.C,SW34*
X223869476Y-100900761D02*
X224012333Y-100948380D01*
X224250428Y-100948380D01*
X224345666Y-100900761D01*
X224393285Y-100853142D01*
X224440904Y-100757904D01*
X224440904Y-100662666D01*
X224393285Y-100567428D01*
X224345666Y-100519809D01*
X224250428Y-100472190D01*
X224059952Y-100424571D01*
X223964714Y-100376952D01*
X223917095Y-100329333D01*
X223869476Y-100234095D01*
X223869476Y-100138857D01*
X223917095Y-100043619D01*
X223964714Y-99996000D01*
X224059952Y-99948380D01*
X224298047Y-99948380D01*
X224440904Y-99996000D01*
X224774238Y-99948380D02*
X225012333Y-100948380D01*
X225202809Y-100234095D01*
X225393285Y-100948380D01*
X225631380Y-99948380D01*
X225917095Y-99948380D02*
X226536142Y-99948380D01*
X226202809Y-100329333D01*
X226345666Y-100329333D01*
X226440904Y-100376952D01*
X226488523Y-100424571D01*
X226536142Y-100519809D01*
X226536142Y-100757904D01*
X226488523Y-100853142D01*
X226440904Y-100900761D01*
X226345666Y-100948380D01*
X226059952Y-100948380D01*
X225964714Y-100900761D01*
X225917095Y-100853142D01*
X227393285Y-100281714D02*
X227393285Y-100948380D01*
X227155190Y-99900761D02*
X226917095Y-100615047D01*
X227536142Y-100615047D01*
X230298761Y-114538380D02*
X230489238Y-114538380D01*
X230584476Y-114586000D01*
X230679714Y-114681238D01*
X230727333Y-114871714D01*
X230727333Y-115205047D01*
X230679714Y-115395523D01*
X230584476Y-115490761D01*
X230489238Y-115538380D01*
X230298761Y-115538380D01*
X230203523Y-115490761D01*
X230108285Y-115395523D01*
X230060666Y-115205047D01*
X230060666Y-114871714D01*
X230108285Y-114681238D01*
X230203523Y-114586000D01*
X230298761Y-114538380D01*
G04 #@! TO.C,SW33*
X215614476Y-84390761D02*
X215757333Y-84438380D01*
X215995428Y-84438380D01*
X216090666Y-84390761D01*
X216138285Y-84343142D01*
X216185904Y-84247904D01*
X216185904Y-84152666D01*
X216138285Y-84057428D01*
X216090666Y-84009809D01*
X215995428Y-83962190D01*
X215804952Y-83914571D01*
X215709714Y-83866952D01*
X215662095Y-83819333D01*
X215614476Y-83724095D01*
X215614476Y-83628857D01*
X215662095Y-83533619D01*
X215709714Y-83486000D01*
X215804952Y-83438380D01*
X216043047Y-83438380D01*
X216185904Y-83486000D01*
X216519238Y-83438380D02*
X216757333Y-84438380D01*
X216947809Y-83724095D01*
X217138285Y-84438380D01*
X217376380Y-83438380D01*
X217662095Y-83438380D02*
X218281142Y-83438380D01*
X217947809Y-83819333D01*
X218090666Y-83819333D01*
X218185904Y-83866952D01*
X218233523Y-83914571D01*
X218281142Y-84009809D01*
X218281142Y-84247904D01*
X218233523Y-84343142D01*
X218185904Y-84390761D01*
X218090666Y-84438380D01*
X217804952Y-84438380D01*
X217709714Y-84390761D01*
X217662095Y-84343142D01*
X218614476Y-83438380D02*
X219233523Y-83438380D01*
X218900190Y-83819333D01*
X219043047Y-83819333D01*
X219138285Y-83866952D01*
X219185904Y-83914571D01*
X219233523Y-84009809D01*
X219233523Y-84247904D01*
X219185904Y-84343142D01*
X219138285Y-84390761D01*
X219043047Y-84438380D01*
X218757333Y-84438380D01*
X218662095Y-84390761D01*
X218614476Y-84343142D01*
X221234238Y-99028380D02*
X221424714Y-99028380D01*
X221519952Y-98980761D01*
X221567571Y-98933142D01*
X221662809Y-98790285D01*
X221710428Y-98599809D01*
X221710428Y-98218857D01*
X221662809Y-98123619D01*
X221615190Y-98076000D01*
X221519952Y-98028380D01*
X221329476Y-98028380D01*
X221234238Y-98076000D01*
X221186619Y-98123619D01*
X221139000Y-98218857D01*
X221139000Y-98456952D01*
X221186619Y-98552190D01*
X221234238Y-98599809D01*
X221329476Y-98647428D01*
X221519952Y-98647428D01*
X221615190Y-98599809D01*
X221662809Y-98552190D01*
X221710428Y-98456952D01*
X222805666Y-99409333D02*
X222853285Y-99361714D01*
X222948523Y-99218857D01*
X222996142Y-99123619D01*
X223043761Y-98980761D01*
X223091380Y-98742666D01*
X223091380Y-98552190D01*
X223043761Y-98314095D01*
X222996142Y-98171238D01*
X222948523Y-98076000D01*
X222853285Y-97933142D01*
X222805666Y-97885523D01*
G04 #@! TO.C,SW32*
X232124476Y-84390761D02*
X232267333Y-84438380D01*
X232505428Y-84438380D01*
X232600666Y-84390761D01*
X232648285Y-84343142D01*
X232695904Y-84247904D01*
X232695904Y-84152666D01*
X232648285Y-84057428D01*
X232600666Y-84009809D01*
X232505428Y-83962190D01*
X232314952Y-83914571D01*
X232219714Y-83866952D01*
X232172095Y-83819333D01*
X232124476Y-83724095D01*
X232124476Y-83628857D01*
X232172095Y-83533619D01*
X232219714Y-83486000D01*
X232314952Y-83438380D01*
X232553047Y-83438380D01*
X232695904Y-83486000D01*
X233029238Y-83438380D02*
X233267333Y-84438380D01*
X233457809Y-83724095D01*
X233648285Y-84438380D01*
X233886380Y-83438380D01*
X234172095Y-83438380D02*
X234791142Y-83438380D01*
X234457809Y-83819333D01*
X234600666Y-83819333D01*
X234695904Y-83866952D01*
X234743523Y-83914571D01*
X234791142Y-84009809D01*
X234791142Y-84247904D01*
X234743523Y-84343142D01*
X234695904Y-84390761D01*
X234600666Y-84438380D01*
X234314952Y-84438380D01*
X234219714Y-84390761D01*
X234172095Y-84343142D01*
X235172095Y-83533619D02*
X235219714Y-83486000D01*
X235314952Y-83438380D01*
X235553047Y-83438380D01*
X235648285Y-83486000D01*
X235695904Y-83533619D01*
X235743523Y-83628857D01*
X235743523Y-83724095D01*
X235695904Y-83866952D01*
X235124476Y-84438380D01*
X235743523Y-84438380D01*
X237839476Y-98028380D02*
X237934714Y-98028380D01*
X238029952Y-98076000D01*
X238077571Y-98123619D01*
X238125190Y-98218857D01*
X238172809Y-98409333D01*
X238172809Y-98647428D01*
X238125190Y-98837904D01*
X238077571Y-98933142D01*
X238029952Y-98980761D01*
X237934714Y-99028380D01*
X237839476Y-99028380D01*
X237744238Y-98980761D01*
X237696619Y-98933142D01*
X237649000Y-98837904D01*
X237601380Y-98647428D01*
X237601380Y-98409333D01*
X237649000Y-98218857D01*
X237696619Y-98123619D01*
X237744238Y-98076000D01*
X237839476Y-98028380D01*
X239125190Y-99123619D02*
X239887095Y-99123619D01*
G04 #@! TO.C,SW31*
X235299476Y-133920761D02*
X235442333Y-133968380D01*
X235680428Y-133968380D01*
X235775666Y-133920761D01*
X235823285Y-133873142D01*
X235870904Y-133777904D01*
X235870904Y-133682666D01*
X235823285Y-133587428D01*
X235775666Y-133539809D01*
X235680428Y-133492190D01*
X235489952Y-133444571D01*
X235394714Y-133396952D01*
X235347095Y-133349333D01*
X235299476Y-133254095D01*
X235299476Y-133158857D01*
X235347095Y-133063619D01*
X235394714Y-133016000D01*
X235489952Y-132968380D01*
X235728047Y-132968380D01*
X235870904Y-133016000D01*
X236204238Y-132968380D02*
X236442333Y-133968380D01*
X236632809Y-133254095D01*
X236823285Y-133968380D01*
X237061380Y-132968380D01*
X237347095Y-132968380D02*
X237966142Y-132968380D01*
X237632809Y-133349333D01*
X237775666Y-133349333D01*
X237870904Y-133396952D01*
X237918523Y-133444571D01*
X237966142Y-133539809D01*
X237966142Y-133777904D01*
X237918523Y-133873142D01*
X237870904Y-133920761D01*
X237775666Y-133968380D01*
X237489952Y-133968380D01*
X237394714Y-133920761D01*
X237347095Y-133873142D01*
X238918523Y-133968380D02*
X238347095Y-133968380D01*
X238632809Y-133968380D02*
X238632809Y-132968380D01*
X238537571Y-133111238D01*
X238442333Y-133206476D01*
X238347095Y-133254095D01*
X240824000Y-148463142D02*
X240871619Y-148510761D01*
X240824000Y-148558380D01*
X240776380Y-148510761D01*
X240824000Y-148463142D01*
X240824000Y-148558380D01*
X242062095Y-147891714D02*
X242824000Y-148177428D01*
X242062095Y-148463142D01*
G04 #@! TO.C,SW30*
X251809476Y-133920761D02*
X251952333Y-133968380D01*
X252190428Y-133968380D01*
X252285666Y-133920761D01*
X252333285Y-133873142D01*
X252380904Y-133777904D01*
X252380904Y-133682666D01*
X252333285Y-133587428D01*
X252285666Y-133539809D01*
X252190428Y-133492190D01*
X251999952Y-133444571D01*
X251904714Y-133396952D01*
X251857095Y-133349333D01*
X251809476Y-133254095D01*
X251809476Y-133158857D01*
X251857095Y-133063619D01*
X251904714Y-133016000D01*
X251999952Y-132968380D01*
X252238047Y-132968380D01*
X252380904Y-133016000D01*
X252714238Y-132968380D02*
X252952333Y-133968380D01*
X253142809Y-133254095D01*
X253333285Y-133968380D01*
X253571380Y-132968380D01*
X253857095Y-132968380D02*
X254476142Y-132968380D01*
X254142809Y-133349333D01*
X254285666Y-133349333D01*
X254380904Y-133396952D01*
X254428523Y-133444571D01*
X254476142Y-133539809D01*
X254476142Y-133777904D01*
X254428523Y-133873142D01*
X254380904Y-133920761D01*
X254285666Y-133968380D01*
X253999952Y-133968380D01*
X253904714Y-133920761D01*
X253857095Y-133873142D01*
X255095190Y-132968380D02*
X255190428Y-132968380D01*
X255285666Y-133016000D01*
X255333285Y-133063619D01*
X255380904Y-133158857D01*
X255428523Y-133349333D01*
X255428523Y-133587428D01*
X255380904Y-133777904D01*
X255333285Y-133873142D01*
X255285666Y-133920761D01*
X255190428Y-133968380D01*
X255095190Y-133968380D01*
X254999952Y-133920761D01*
X254952333Y-133873142D01*
X254904714Y-133777904D01*
X254857095Y-133587428D01*
X254857095Y-133349333D01*
X254904714Y-133158857D01*
X254952333Y-133063619D01*
X254999952Y-133016000D01*
X255095190Y-132968380D01*
X257953047Y-147510761D02*
X257095904Y-148796476D01*
X259191142Y-148463142D02*
X259238761Y-148510761D01*
X259191142Y-148558380D01*
X259143523Y-148510761D01*
X259191142Y-148463142D01*
X259191142Y-148558380D01*
X259000666Y-147606000D02*
X259095904Y-147558380D01*
X259334000Y-147558380D01*
X259429238Y-147606000D01*
X259476857Y-147701238D01*
X259476857Y-147796476D01*
X259429238Y-147891714D01*
X259381619Y-147939333D01*
X259286380Y-147986952D01*
X259238761Y-148034571D01*
X259191142Y-148129809D01*
X259191142Y-148177428D01*
G04 #@! TO.C,SW29*
X244189476Y-117410761D02*
X244332333Y-117458380D01*
X244570428Y-117458380D01*
X244665666Y-117410761D01*
X244713285Y-117363142D01*
X244760904Y-117267904D01*
X244760904Y-117172666D01*
X244713285Y-117077428D01*
X244665666Y-117029809D01*
X244570428Y-116982190D01*
X244379952Y-116934571D01*
X244284714Y-116886952D01*
X244237095Y-116839333D01*
X244189476Y-116744095D01*
X244189476Y-116648857D01*
X244237095Y-116553619D01*
X244284714Y-116506000D01*
X244379952Y-116458380D01*
X244618047Y-116458380D01*
X244760904Y-116506000D01*
X245094238Y-116458380D02*
X245332333Y-117458380D01*
X245522809Y-116744095D01*
X245713285Y-117458380D01*
X245951380Y-116458380D01*
X246284714Y-116553619D02*
X246332333Y-116506000D01*
X246427571Y-116458380D01*
X246665666Y-116458380D01*
X246760904Y-116506000D01*
X246808523Y-116553619D01*
X246856142Y-116648857D01*
X246856142Y-116744095D01*
X246808523Y-116886952D01*
X246237095Y-117458380D01*
X246856142Y-117458380D01*
X247332333Y-117458380D02*
X247522809Y-117458380D01*
X247618047Y-117410761D01*
X247665666Y-117363142D01*
X247760904Y-117220285D01*
X247808523Y-117029809D01*
X247808523Y-116648857D01*
X247760904Y-116553619D01*
X247713285Y-116506000D01*
X247618047Y-116458380D01*
X247427571Y-116458380D01*
X247332333Y-116506000D01*
X247284714Y-116553619D01*
X247237095Y-116648857D01*
X247237095Y-116886952D01*
X247284714Y-116982190D01*
X247332333Y-117029809D01*
X247427571Y-117077428D01*
X247618047Y-117077428D01*
X247713285Y-117029809D01*
X247760904Y-116982190D01*
X247808523Y-116886952D01*
X249952095Y-131953142D02*
X249999714Y-132000761D01*
X249952095Y-132048380D01*
X249904476Y-132000761D01*
X249952095Y-131953142D01*
X249952095Y-132048380D01*
X249952095Y-131429333D02*
X249999714Y-131476952D01*
X249952095Y-131524571D01*
X249904476Y-131476952D01*
X249952095Y-131429333D01*
X249952095Y-131524571D01*
X251333047Y-131048380D02*
X251333047Y-131286476D01*
X251094952Y-131191238D02*
X251333047Y-131286476D01*
X251571142Y-131191238D01*
X251190190Y-131476952D02*
X251333047Y-131286476D01*
X251475904Y-131476952D01*
G04 #@! TO.C,SW28*
X260699476Y-117410761D02*
X260842333Y-117458380D01*
X261080428Y-117458380D01*
X261175666Y-117410761D01*
X261223285Y-117363142D01*
X261270904Y-117267904D01*
X261270904Y-117172666D01*
X261223285Y-117077428D01*
X261175666Y-117029809D01*
X261080428Y-116982190D01*
X260889952Y-116934571D01*
X260794714Y-116886952D01*
X260747095Y-116839333D01*
X260699476Y-116744095D01*
X260699476Y-116648857D01*
X260747095Y-116553619D01*
X260794714Y-116506000D01*
X260889952Y-116458380D01*
X261128047Y-116458380D01*
X261270904Y-116506000D01*
X261604238Y-116458380D02*
X261842333Y-117458380D01*
X262032809Y-116744095D01*
X262223285Y-117458380D01*
X262461380Y-116458380D01*
X262794714Y-116553619D02*
X262842333Y-116506000D01*
X262937571Y-116458380D01*
X263175666Y-116458380D01*
X263270904Y-116506000D01*
X263318523Y-116553619D01*
X263366142Y-116648857D01*
X263366142Y-116744095D01*
X263318523Y-116886952D01*
X262747095Y-117458380D01*
X263366142Y-117458380D01*
X263937571Y-116886952D02*
X263842333Y-116839333D01*
X263794714Y-116791714D01*
X263747095Y-116696476D01*
X263747095Y-116648857D01*
X263794714Y-116553619D01*
X263842333Y-116506000D01*
X263937571Y-116458380D01*
X264128047Y-116458380D01*
X264223285Y-116506000D01*
X264270904Y-116553619D01*
X264318523Y-116648857D01*
X264318523Y-116696476D01*
X264270904Y-116791714D01*
X264223285Y-116839333D01*
X264128047Y-116886952D01*
X263937571Y-116886952D01*
X263842333Y-116934571D01*
X263794714Y-116982190D01*
X263747095Y-117077428D01*
X263747095Y-117267904D01*
X263794714Y-117363142D01*
X263842333Y-117410761D01*
X263937571Y-117458380D01*
X264128047Y-117458380D01*
X264223285Y-117410761D01*
X264270904Y-117363142D01*
X264318523Y-117267904D01*
X264318523Y-117077428D01*
X264270904Y-116982190D01*
X264223285Y-116934571D01*
X264128047Y-116886952D01*
X266271619Y-132000761D02*
X266271619Y-132048380D01*
X266224000Y-132143619D01*
X266176380Y-132191238D01*
X266224000Y-131429333D02*
X266271619Y-131476952D01*
X266224000Y-131524571D01*
X266176380Y-131476952D01*
X266224000Y-131429333D01*
X266224000Y-131524571D01*
X267462095Y-131667428D02*
X268224000Y-131667428D01*
X267843047Y-132048380D02*
X267843047Y-131286476D01*
G04 #@! TO.C,SW27*
X240379476Y-100900761D02*
X240522333Y-100948380D01*
X240760428Y-100948380D01*
X240855666Y-100900761D01*
X240903285Y-100853142D01*
X240950904Y-100757904D01*
X240950904Y-100662666D01*
X240903285Y-100567428D01*
X240855666Y-100519809D01*
X240760428Y-100472190D01*
X240569952Y-100424571D01*
X240474714Y-100376952D01*
X240427095Y-100329333D01*
X240379476Y-100234095D01*
X240379476Y-100138857D01*
X240427095Y-100043619D01*
X240474714Y-99996000D01*
X240569952Y-99948380D01*
X240808047Y-99948380D01*
X240950904Y-99996000D01*
X241284238Y-99948380D02*
X241522333Y-100948380D01*
X241712809Y-100234095D01*
X241903285Y-100948380D01*
X242141380Y-99948380D01*
X242474714Y-100043619D02*
X242522333Y-99996000D01*
X242617571Y-99948380D01*
X242855666Y-99948380D01*
X242950904Y-99996000D01*
X242998523Y-100043619D01*
X243046142Y-100138857D01*
X243046142Y-100234095D01*
X242998523Y-100376952D01*
X242427095Y-100948380D01*
X243046142Y-100948380D01*
X243379476Y-99948380D02*
X244046142Y-99948380D01*
X243617571Y-100948380D01*
X246642095Y-115538380D02*
X246642095Y-114538380D01*
X247023047Y-114538380D01*
X247118285Y-114586000D01*
X247165904Y-114633619D01*
X247213523Y-114728857D01*
X247213523Y-114871714D01*
X247165904Y-114966952D01*
X247118285Y-115014571D01*
X247023047Y-115062190D01*
X246642095Y-115062190D01*
G04 #@! TO.C,SW26*
X256889476Y-100900761D02*
X257032333Y-100948380D01*
X257270428Y-100948380D01*
X257365666Y-100900761D01*
X257413285Y-100853142D01*
X257460904Y-100757904D01*
X257460904Y-100662666D01*
X257413285Y-100567428D01*
X257365666Y-100519809D01*
X257270428Y-100472190D01*
X257079952Y-100424571D01*
X256984714Y-100376952D01*
X256937095Y-100329333D01*
X256889476Y-100234095D01*
X256889476Y-100138857D01*
X256937095Y-100043619D01*
X256984714Y-99996000D01*
X257079952Y-99948380D01*
X257318047Y-99948380D01*
X257460904Y-99996000D01*
X257794238Y-99948380D02*
X258032333Y-100948380D01*
X258222809Y-100234095D01*
X258413285Y-100948380D01*
X258651380Y-99948380D01*
X258984714Y-100043619D02*
X259032333Y-99996000D01*
X259127571Y-99948380D01*
X259365666Y-99948380D01*
X259460904Y-99996000D01*
X259508523Y-100043619D01*
X259556142Y-100138857D01*
X259556142Y-100234095D01*
X259508523Y-100376952D01*
X258937095Y-100948380D01*
X259556142Y-100948380D01*
X260413285Y-99948380D02*
X260222809Y-99948380D01*
X260127571Y-99996000D01*
X260079952Y-100043619D01*
X259984714Y-100186476D01*
X259937095Y-100376952D01*
X259937095Y-100757904D01*
X259984714Y-100853142D01*
X260032333Y-100900761D01*
X260127571Y-100948380D01*
X260318047Y-100948380D01*
X260413285Y-100900761D01*
X260460904Y-100853142D01*
X260508523Y-100757904D01*
X260508523Y-100519809D01*
X260460904Y-100424571D01*
X260413285Y-100376952D01*
X260318047Y-100329333D01*
X260127571Y-100329333D01*
X260032333Y-100376952D01*
X259984714Y-100424571D01*
X259937095Y-100519809D01*
X262771142Y-115062190D02*
X262723523Y-115014571D01*
X262628285Y-114966952D01*
X262533047Y-114966952D01*
X262437809Y-115014571D01*
X262390190Y-115062190D01*
X262342571Y-115157428D01*
X262342571Y-115252666D01*
X262390190Y-115347904D01*
X262437809Y-115395523D01*
X262533047Y-115443142D01*
X262628285Y-115443142D01*
X262723523Y-115395523D01*
X262771142Y-115347904D01*
X262771142Y-114966952D02*
X262771142Y-115347904D01*
X262818761Y-115395523D01*
X262866380Y-115395523D01*
X262961619Y-115347904D01*
X263009238Y-115252666D01*
X263009238Y-115014571D01*
X262914000Y-114871714D01*
X262771142Y-114776476D01*
X262580666Y-114728857D01*
X262390190Y-114776476D01*
X262247333Y-114871714D01*
X262152095Y-115014571D01*
X262104476Y-115205047D01*
X262152095Y-115395523D01*
X262247333Y-115538380D01*
X262390190Y-115633619D01*
X262580666Y-115681238D01*
X262771142Y-115633619D01*
X262914000Y-115538380D01*
X264437809Y-115871714D02*
X264437809Y-114443142D01*
G04 #@! TO.C,SW25*
X248634476Y-84390761D02*
X248777333Y-84438380D01*
X249015428Y-84438380D01*
X249110666Y-84390761D01*
X249158285Y-84343142D01*
X249205904Y-84247904D01*
X249205904Y-84152666D01*
X249158285Y-84057428D01*
X249110666Y-84009809D01*
X249015428Y-83962190D01*
X248824952Y-83914571D01*
X248729714Y-83866952D01*
X248682095Y-83819333D01*
X248634476Y-83724095D01*
X248634476Y-83628857D01*
X248682095Y-83533619D01*
X248729714Y-83486000D01*
X248824952Y-83438380D01*
X249063047Y-83438380D01*
X249205904Y-83486000D01*
X249539238Y-83438380D02*
X249777333Y-84438380D01*
X249967809Y-83724095D01*
X250158285Y-84438380D01*
X250396380Y-83438380D01*
X250729714Y-83533619D02*
X250777333Y-83486000D01*
X250872571Y-83438380D01*
X251110666Y-83438380D01*
X251205904Y-83486000D01*
X251253523Y-83533619D01*
X251301142Y-83628857D01*
X251301142Y-83724095D01*
X251253523Y-83866952D01*
X250682095Y-84438380D01*
X251301142Y-84438380D01*
X252205904Y-83438380D02*
X251729714Y-83438380D01*
X251682095Y-83914571D01*
X251729714Y-83866952D01*
X251824952Y-83819333D01*
X252063047Y-83819333D01*
X252158285Y-83866952D01*
X252205904Y-83914571D01*
X252253523Y-84009809D01*
X252253523Y-84247904D01*
X252205904Y-84343142D01*
X252158285Y-84390761D01*
X252063047Y-84438380D01*
X251824952Y-84438380D01*
X251729714Y-84390761D01*
X251682095Y-84343142D01*
X253778047Y-98647428D02*
X254539952Y-98647428D01*
X255778047Y-98504571D02*
X256539952Y-98504571D01*
X256539952Y-98790285D02*
X255778047Y-98790285D01*
G04 #@! TO.C,SW24*
X265144476Y-84390761D02*
X265287333Y-84438380D01*
X265525428Y-84438380D01*
X265620666Y-84390761D01*
X265668285Y-84343142D01*
X265715904Y-84247904D01*
X265715904Y-84152666D01*
X265668285Y-84057428D01*
X265620666Y-84009809D01*
X265525428Y-83962190D01*
X265334952Y-83914571D01*
X265239714Y-83866952D01*
X265192095Y-83819333D01*
X265144476Y-83724095D01*
X265144476Y-83628857D01*
X265192095Y-83533619D01*
X265239714Y-83486000D01*
X265334952Y-83438380D01*
X265573047Y-83438380D01*
X265715904Y-83486000D01*
X266049238Y-83438380D02*
X266287333Y-84438380D01*
X266477809Y-83724095D01*
X266668285Y-84438380D01*
X266906380Y-83438380D01*
X267239714Y-83533619D02*
X267287333Y-83486000D01*
X267382571Y-83438380D01*
X267620666Y-83438380D01*
X267715904Y-83486000D01*
X267763523Y-83533619D01*
X267811142Y-83628857D01*
X267811142Y-83724095D01*
X267763523Y-83866952D01*
X267192095Y-84438380D01*
X267811142Y-84438380D01*
X268668285Y-83771714D02*
X268668285Y-84438380D01*
X268430190Y-83390761D02*
X268192095Y-84105047D01*
X268811142Y-84105047D01*
X270645190Y-98123619D02*
X270835666Y-97980761D01*
X271026142Y-98123619D01*
X272073761Y-98361714D02*
X272454714Y-98361714D01*
X272073761Y-99028380D02*
X272597571Y-99028380D01*
X272216619Y-99028380D02*
X272216619Y-98171238D01*
X272264238Y-98076000D01*
X272359476Y-98028380D01*
X272502333Y-98028380D01*
X272597571Y-98076000D01*
G04 #@! TO.C,SW23*
X86709476Y-150430761D02*
X86852333Y-150478380D01*
X87090428Y-150478380D01*
X87185666Y-150430761D01*
X87233285Y-150383142D01*
X87280904Y-150287904D01*
X87280904Y-150192666D01*
X87233285Y-150097428D01*
X87185666Y-150049809D01*
X87090428Y-150002190D01*
X86899952Y-149954571D01*
X86804714Y-149906952D01*
X86757095Y-149859333D01*
X86709476Y-149764095D01*
X86709476Y-149668857D01*
X86757095Y-149573619D01*
X86804714Y-149526000D01*
X86899952Y-149478380D01*
X87138047Y-149478380D01*
X87280904Y-149526000D01*
X87614238Y-149478380D02*
X87852333Y-150478380D01*
X88042809Y-149764095D01*
X88233285Y-150478380D01*
X88471380Y-149478380D01*
X88804714Y-149573619D02*
X88852333Y-149526000D01*
X88947571Y-149478380D01*
X89185666Y-149478380D01*
X89280904Y-149526000D01*
X89328523Y-149573619D01*
X89376142Y-149668857D01*
X89376142Y-149764095D01*
X89328523Y-149906952D01*
X88757095Y-150478380D01*
X89376142Y-150478380D01*
X89709476Y-149478380D02*
X90328523Y-149478380D01*
X89995190Y-149859333D01*
X90138047Y-149859333D01*
X90233285Y-149906952D01*
X90280904Y-149954571D01*
X90328523Y-150049809D01*
X90328523Y-150287904D01*
X90280904Y-150383142D01*
X90233285Y-150430761D01*
X90138047Y-150478380D01*
X89852333Y-150478380D01*
X89757095Y-150430761D01*
X89709476Y-150383142D01*
X92257809Y-164973142D02*
X92210190Y-165020761D01*
X92067333Y-165068380D01*
X91972095Y-165068380D01*
X91829238Y-165020761D01*
X91734000Y-164925523D01*
X91686380Y-164830285D01*
X91638761Y-164639809D01*
X91638761Y-164496952D01*
X91686380Y-164306476D01*
X91734000Y-164211238D01*
X91829238Y-164116000D01*
X91972095Y-164068380D01*
X92067333Y-164068380D01*
X92210190Y-164116000D01*
X92257809Y-164163619D01*
X92543523Y-164068380D02*
X93114952Y-164068380D01*
X92829238Y-165068380D02*
X92829238Y-164068380D01*
X94019714Y-165068380D02*
X93686380Y-164592190D01*
X93448285Y-165068380D02*
X93448285Y-164068380D01*
X93829238Y-164068380D01*
X93924476Y-164116000D01*
X93972095Y-164163619D01*
X94019714Y-164258857D01*
X94019714Y-164401714D01*
X93972095Y-164496952D01*
X93924476Y-164544571D01*
X93829238Y-164592190D01*
X93448285Y-164592190D01*
X94924476Y-165068380D02*
X94448285Y-165068380D01*
X94448285Y-164068380D01*
G04 #@! TO.C,SW21*
X86709476Y-133920761D02*
X86852333Y-133968380D01*
X87090428Y-133968380D01*
X87185666Y-133920761D01*
X87233285Y-133873142D01*
X87280904Y-133777904D01*
X87280904Y-133682666D01*
X87233285Y-133587428D01*
X87185666Y-133539809D01*
X87090428Y-133492190D01*
X86899952Y-133444571D01*
X86804714Y-133396952D01*
X86757095Y-133349333D01*
X86709476Y-133254095D01*
X86709476Y-133158857D01*
X86757095Y-133063619D01*
X86804714Y-133016000D01*
X86899952Y-132968380D01*
X87138047Y-132968380D01*
X87280904Y-133016000D01*
X87614238Y-132968380D02*
X87852333Y-133968380D01*
X88042809Y-133254095D01*
X88233285Y-133968380D01*
X88471380Y-132968380D01*
X88804714Y-133063619D02*
X88852333Y-133016000D01*
X88947571Y-132968380D01*
X89185666Y-132968380D01*
X89280904Y-133016000D01*
X89328523Y-133063619D01*
X89376142Y-133158857D01*
X89376142Y-133254095D01*
X89328523Y-133396952D01*
X88757095Y-133968380D01*
X89376142Y-133968380D01*
X90328523Y-133968380D02*
X89757095Y-133968380D01*
X90042809Y-133968380D02*
X90042809Y-132968380D01*
X89947571Y-133111238D01*
X89852333Y-133206476D01*
X89757095Y-133254095D01*
X91376857Y-148510761D02*
X91519714Y-148558380D01*
X91757809Y-148558380D01*
X91853047Y-148510761D01*
X91900666Y-148463142D01*
X91948285Y-148367904D01*
X91948285Y-148272666D01*
X91900666Y-148177428D01*
X91853047Y-148129809D01*
X91757809Y-148082190D01*
X91567333Y-148034571D01*
X91472095Y-147986952D01*
X91424476Y-147939333D01*
X91376857Y-147844095D01*
X91376857Y-147748857D01*
X91424476Y-147653619D01*
X91472095Y-147606000D01*
X91567333Y-147558380D01*
X91805428Y-147558380D01*
X91948285Y-147606000D01*
X92376857Y-148558380D02*
X92376857Y-147558380D01*
X92376857Y-148034571D02*
X92948285Y-148034571D01*
X92948285Y-148558380D02*
X92948285Y-147558380D01*
X93424476Y-148558380D02*
X93424476Y-147558380D01*
X94234000Y-148034571D02*
X93900666Y-148034571D01*
X93900666Y-148558380D02*
X93900666Y-147558380D01*
X94376857Y-147558380D01*
X94614952Y-147558380D02*
X95186380Y-147558380D01*
X94900666Y-148558380D02*
X94900666Y-147558380D01*
G04 #@! TO.C,SW20*
X314674476Y-100900761D02*
X314817333Y-100948380D01*
X315055428Y-100948380D01*
X315150666Y-100900761D01*
X315198285Y-100853142D01*
X315245904Y-100757904D01*
X315245904Y-100662666D01*
X315198285Y-100567428D01*
X315150666Y-100519809D01*
X315055428Y-100472190D01*
X314864952Y-100424571D01*
X314769714Y-100376952D01*
X314722095Y-100329333D01*
X314674476Y-100234095D01*
X314674476Y-100138857D01*
X314722095Y-100043619D01*
X314769714Y-99996000D01*
X314864952Y-99948380D01*
X315103047Y-99948380D01*
X315245904Y-99996000D01*
X315579238Y-99948380D02*
X315817333Y-100948380D01*
X316007809Y-100234095D01*
X316198285Y-100948380D01*
X316436380Y-99948380D01*
X316769714Y-100043619D02*
X316817333Y-99996000D01*
X316912571Y-99948380D01*
X317150666Y-99948380D01*
X317245904Y-99996000D01*
X317293523Y-100043619D01*
X317341142Y-100138857D01*
X317341142Y-100234095D01*
X317293523Y-100376952D01*
X316722095Y-100948380D01*
X317341142Y-100948380D01*
X317960190Y-99948380D02*
X318055428Y-99948380D01*
X318150666Y-99996000D01*
X318198285Y-100043619D01*
X318245904Y-100138857D01*
X318293523Y-100329333D01*
X318293523Y-100567428D01*
X318245904Y-100757904D01*
X318198285Y-100853142D01*
X318150666Y-100900761D01*
X318055428Y-100948380D01*
X317960190Y-100948380D01*
X317864952Y-100900761D01*
X317817333Y-100853142D01*
X317769714Y-100757904D01*
X317722095Y-100567428D01*
X317722095Y-100329333D01*
X317769714Y-100138857D01*
X317817333Y-100043619D01*
X317864952Y-99996000D01*
X317960190Y-99948380D01*
X321389476Y-115101714D02*
X321389476Y-115768380D01*
X321151380Y-114720761D02*
X320913285Y-115435047D01*
X321532333Y-115435047D01*
G04 #@! TO.C,SW19*
X277209476Y-117410761D02*
X277352333Y-117458380D01*
X277590428Y-117458380D01*
X277685666Y-117410761D01*
X277733285Y-117363142D01*
X277780904Y-117267904D01*
X277780904Y-117172666D01*
X277733285Y-117077428D01*
X277685666Y-117029809D01*
X277590428Y-116982190D01*
X277399952Y-116934571D01*
X277304714Y-116886952D01*
X277257095Y-116839333D01*
X277209476Y-116744095D01*
X277209476Y-116648857D01*
X277257095Y-116553619D01*
X277304714Y-116506000D01*
X277399952Y-116458380D01*
X277638047Y-116458380D01*
X277780904Y-116506000D01*
X278114238Y-116458380D02*
X278352333Y-117458380D01*
X278542809Y-116744095D01*
X278733285Y-117458380D01*
X278971380Y-116458380D01*
X279876142Y-117458380D02*
X279304714Y-117458380D01*
X279590428Y-117458380D02*
X279590428Y-116458380D01*
X279495190Y-116601238D01*
X279399952Y-116696476D01*
X279304714Y-116744095D01*
X280352333Y-117458380D02*
X280542809Y-117458380D01*
X280638047Y-117410761D01*
X280685666Y-117363142D01*
X280780904Y-117220285D01*
X280828523Y-117029809D01*
X280828523Y-116648857D01*
X280780904Y-116553619D01*
X280733285Y-116506000D01*
X280638047Y-116458380D01*
X280447571Y-116458380D01*
X280352333Y-116506000D01*
X280304714Y-116553619D01*
X280257095Y-116648857D01*
X280257095Y-116886952D01*
X280304714Y-116982190D01*
X280352333Y-117029809D01*
X280447571Y-117077428D01*
X280638047Y-117077428D01*
X280733285Y-117029809D01*
X280780904Y-116982190D01*
X280828523Y-116886952D01*
X283543523Y-132381714D02*
X283781619Y-132381714D01*
X283781619Y-130953142D01*
X283543523Y-130953142D01*
G04 #@! TO.C,SW18*
X295624476Y-108520761D02*
X295767333Y-108568380D01*
X296005428Y-108568380D01*
X296100666Y-108520761D01*
X296148285Y-108473142D01*
X296195904Y-108377904D01*
X296195904Y-108282666D01*
X296148285Y-108187428D01*
X296100666Y-108139809D01*
X296005428Y-108092190D01*
X295814952Y-108044571D01*
X295719714Y-107996952D01*
X295672095Y-107949333D01*
X295624476Y-107854095D01*
X295624476Y-107758857D01*
X295672095Y-107663619D01*
X295719714Y-107616000D01*
X295814952Y-107568380D01*
X296053047Y-107568380D01*
X296195904Y-107616000D01*
X296529238Y-107568380D02*
X296767333Y-108568380D01*
X296957809Y-107854095D01*
X297148285Y-108568380D01*
X297386380Y-107568380D01*
X298291142Y-108568380D02*
X297719714Y-108568380D01*
X298005428Y-108568380D02*
X298005428Y-107568380D01*
X297910190Y-107711238D01*
X297814952Y-107806476D01*
X297719714Y-107854095D01*
X298862571Y-107996952D02*
X298767333Y-107949333D01*
X298719714Y-107901714D01*
X298672095Y-107806476D01*
X298672095Y-107758857D01*
X298719714Y-107663619D01*
X298767333Y-107616000D01*
X298862571Y-107568380D01*
X299053047Y-107568380D01*
X299148285Y-107616000D01*
X299195904Y-107663619D01*
X299243523Y-107758857D01*
X299243523Y-107806476D01*
X299195904Y-107901714D01*
X299148285Y-107949333D01*
X299053047Y-107996952D01*
X298862571Y-107996952D01*
X298767333Y-108044571D01*
X298719714Y-108092190D01*
X298672095Y-108187428D01*
X298672095Y-108377904D01*
X298719714Y-108473142D01*
X298767333Y-108520761D01*
X298862571Y-108568380D01*
X299053047Y-108568380D01*
X299148285Y-108520761D01*
X299195904Y-108473142D01*
X299243523Y-108377904D01*
X299243523Y-108187428D01*
X299195904Y-108092190D01*
X299148285Y-108044571D01*
X299053047Y-107996952D01*
X300077571Y-122356571D02*
X300410904Y-122356571D01*
X300553761Y-122880380D02*
X300077571Y-122880380D01*
X300077571Y-121880380D01*
X300553761Y-121880380D01*
X300982333Y-122880380D02*
X300982333Y-121880380D01*
X301553761Y-122880380D01*
X301553761Y-121880380D01*
X301887095Y-121880380D02*
X302458523Y-121880380D01*
X302172809Y-122880380D02*
X302172809Y-121880380D01*
X302791857Y-122356571D02*
X303125190Y-122356571D01*
X303268047Y-122880380D02*
X302791857Y-122880380D01*
X302791857Y-121880380D01*
X303268047Y-121880380D01*
X304268047Y-122880380D02*
X303934714Y-122404190D01*
X303696619Y-122880380D02*
X303696619Y-121880380D01*
X304077571Y-121880380D01*
X304172809Y-121928000D01*
X304220428Y-121975619D01*
X304268047Y-122070857D01*
X304268047Y-122213714D01*
X304220428Y-122308952D01*
X304172809Y-122356571D01*
X304077571Y-122404190D01*
X303696619Y-122404190D01*
G04 #@! TO.C,SW17*
X273399476Y-100900761D02*
X273542333Y-100948380D01*
X273780428Y-100948380D01*
X273875666Y-100900761D01*
X273923285Y-100853142D01*
X273970904Y-100757904D01*
X273970904Y-100662666D01*
X273923285Y-100567428D01*
X273875666Y-100519809D01*
X273780428Y-100472190D01*
X273589952Y-100424571D01*
X273494714Y-100376952D01*
X273447095Y-100329333D01*
X273399476Y-100234095D01*
X273399476Y-100138857D01*
X273447095Y-100043619D01*
X273494714Y-99996000D01*
X273589952Y-99948380D01*
X273828047Y-99948380D01*
X273970904Y-99996000D01*
X274304238Y-99948380D02*
X274542333Y-100948380D01*
X274732809Y-100234095D01*
X274923285Y-100948380D01*
X275161380Y-99948380D01*
X276066142Y-100948380D02*
X275494714Y-100948380D01*
X275780428Y-100948380D02*
X275780428Y-99948380D01*
X275685190Y-100091238D01*
X275589952Y-100186476D01*
X275494714Y-100234095D01*
X276399476Y-99948380D02*
X277066142Y-99948380D01*
X276637571Y-100948380D01*
X280114476Y-115871714D02*
X279876380Y-115871714D01*
X279876380Y-114443142D01*
X280114476Y-114443142D01*
G04 #@! TO.C,SW16*
X281654476Y-84390761D02*
X281797333Y-84438380D01*
X282035428Y-84438380D01*
X282130666Y-84390761D01*
X282178285Y-84343142D01*
X282225904Y-84247904D01*
X282225904Y-84152666D01*
X282178285Y-84057428D01*
X282130666Y-84009809D01*
X282035428Y-83962190D01*
X281844952Y-83914571D01*
X281749714Y-83866952D01*
X281702095Y-83819333D01*
X281654476Y-83724095D01*
X281654476Y-83628857D01*
X281702095Y-83533619D01*
X281749714Y-83486000D01*
X281844952Y-83438380D01*
X282083047Y-83438380D01*
X282225904Y-83486000D01*
X282559238Y-83438380D02*
X282797333Y-84438380D01*
X282987809Y-83724095D01*
X283178285Y-84438380D01*
X283416380Y-83438380D01*
X284321142Y-84438380D02*
X283749714Y-84438380D01*
X284035428Y-84438380D02*
X284035428Y-83438380D01*
X283940190Y-83581238D01*
X283844952Y-83676476D01*
X283749714Y-83724095D01*
X285178285Y-83438380D02*
X284987809Y-83438380D01*
X284892571Y-83486000D01*
X284844952Y-83533619D01*
X284749714Y-83676476D01*
X284702095Y-83866952D01*
X284702095Y-84247904D01*
X284749714Y-84343142D01*
X284797333Y-84390761D01*
X284892571Y-84438380D01*
X285083047Y-84438380D01*
X285178285Y-84390761D01*
X285225904Y-84343142D01*
X285273523Y-84247904D01*
X285273523Y-84009809D01*
X285225904Y-83914571D01*
X285178285Y-83866952D01*
X285083047Y-83819333D01*
X284892571Y-83819333D01*
X284797333Y-83866952D01*
X284749714Y-83914571D01*
X284702095Y-84009809D01*
X287583761Y-98933142D02*
X287536142Y-98980761D01*
X287393285Y-99028380D01*
X287298047Y-99028380D01*
X287155190Y-98980761D01*
X287059952Y-98885523D01*
X287012333Y-98790285D01*
X286964714Y-98599809D01*
X286964714Y-98456952D01*
X287012333Y-98266476D01*
X287059952Y-98171238D01*
X287155190Y-98076000D01*
X287298047Y-98028380D01*
X287393285Y-98028380D01*
X287536142Y-98076000D01*
X287583761Y-98123619D01*
X288488523Y-99028380D02*
X288012333Y-99028380D01*
X288012333Y-98028380D01*
X289393285Y-99028380D02*
X289059952Y-98552190D01*
X288821857Y-99028380D02*
X288821857Y-98028380D01*
X289202809Y-98028380D01*
X289298047Y-98076000D01*
X289345666Y-98123619D01*
X289393285Y-98218857D01*
X289393285Y-98361714D01*
X289345666Y-98456952D01*
X289298047Y-98504571D01*
X289202809Y-98552190D01*
X288821857Y-98552190D01*
G04 #@! TO.C,SW15*
X314674476Y-133920761D02*
X314817333Y-133968380D01*
X315055428Y-133968380D01*
X315150666Y-133920761D01*
X315198285Y-133873142D01*
X315245904Y-133777904D01*
X315245904Y-133682666D01*
X315198285Y-133587428D01*
X315150666Y-133539809D01*
X315055428Y-133492190D01*
X314864952Y-133444571D01*
X314769714Y-133396952D01*
X314722095Y-133349333D01*
X314674476Y-133254095D01*
X314674476Y-133158857D01*
X314722095Y-133063619D01*
X314769714Y-133016000D01*
X314864952Y-132968380D01*
X315103047Y-132968380D01*
X315245904Y-133016000D01*
X315579238Y-132968380D02*
X315817333Y-133968380D01*
X316007809Y-133254095D01*
X316198285Y-133968380D01*
X316436380Y-132968380D01*
X317341142Y-133968380D02*
X316769714Y-133968380D01*
X317055428Y-133968380D02*
X317055428Y-132968380D01*
X316960190Y-133111238D01*
X316864952Y-133206476D01*
X316769714Y-133254095D01*
X318245904Y-132968380D02*
X317769714Y-132968380D01*
X317722095Y-133444571D01*
X317769714Y-133396952D01*
X317864952Y-133349333D01*
X318103047Y-133349333D01*
X318198285Y-133396952D01*
X318245904Y-133444571D01*
X318293523Y-133539809D01*
X318293523Y-133777904D01*
X318245904Y-133873142D01*
X318198285Y-133920761D01*
X318103047Y-133968380D01*
X317864952Y-133968380D01*
X317769714Y-133920761D01*
X317722095Y-133873142D01*
X321151380Y-147788380D02*
X321246619Y-147788380D01*
X321341857Y-147836000D01*
X321389476Y-147883619D01*
X321437095Y-147978857D01*
X321484714Y-148169333D01*
X321484714Y-148407428D01*
X321437095Y-148597904D01*
X321389476Y-148693142D01*
X321341857Y-148740761D01*
X321246619Y-148788380D01*
X321151380Y-148788380D01*
X321056142Y-148740761D01*
X321008523Y-148693142D01*
X320960904Y-148597904D01*
X320913285Y-148407428D01*
X320913285Y-148169333D01*
X320960904Y-147978857D01*
X321008523Y-147883619D01*
X321056142Y-147836000D01*
X321151380Y-147788380D01*
G04 #@! TO.C,SW14*
X331184476Y-117410761D02*
X331327333Y-117458380D01*
X331565428Y-117458380D01*
X331660666Y-117410761D01*
X331708285Y-117363142D01*
X331755904Y-117267904D01*
X331755904Y-117172666D01*
X331708285Y-117077428D01*
X331660666Y-117029809D01*
X331565428Y-116982190D01*
X331374952Y-116934571D01*
X331279714Y-116886952D01*
X331232095Y-116839333D01*
X331184476Y-116744095D01*
X331184476Y-116648857D01*
X331232095Y-116553619D01*
X331279714Y-116506000D01*
X331374952Y-116458380D01*
X331613047Y-116458380D01*
X331755904Y-116506000D01*
X332089238Y-116458380D02*
X332327333Y-117458380D01*
X332517809Y-116744095D01*
X332708285Y-117458380D01*
X332946380Y-116458380D01*
X333851142Y-117458380D02*
X333279714Y-117458380D01*
X333565428Y-117458380D02*
X333565428Y-116458380D01*
X333470190Y-116601238D01*
X333374952Y-116696476D01*
X333279714Y-116744095D01*
X334708285Y-116791714D02*
X334708285Y-117458380D01*
X334470190Y-116410761D02*
X334232095Y-117125047D01*
X334851142Y-117125047D01*
X337423285Y-131373619D02*
X337470904Y-131326000D01*
X337566142Y-131278380D01*
X337804238Y-131278380D01*
X337899476Y-131326000D01*
X337947095Y-131373619D01*
X337994714Y-131468857D01*
X337994714Y-131564095D01*
X337947095Y-131706952D01*
X337375666Y-132278380D01*
X337994714Y-132278380D01*
G04 #@! TO.C,SW13*
X314674476Y-117410761D02*
X314817333Y-117458380D01*
X315055428Y-117458380D01*
X315150666Y-117410761D01*
X315198285Y-117363142D01*
X315245904Y-117267904D01*
X315245904Y-117172666D01*
X315198285Y-117077428D01*
X315150666Y-117029809D01*
X315055428Y-116982190D01*
X314864952Y-116934571D01*
X314769714Y-116886952D01*
X314722095Y-116839333D01*
X314674476Y-116744095D01*
X314674476Y-116648857D01*
X314722095Y-116553619D01*
X314769714Y-116506000D01*
X314864952Y-116458380D01*
X315103047Y-116458380D01*
X315245904Y-116506000D01*
X315579238Y-116458380D02*
X315817333Y-117458380D01*
X316007809Y-116744095D01*
X316198285Y-117458380D01*
X316436380Y-116458380D01*
X317341142Y-117458380D02*
X316769714Y-117458380D01*
X317055428Y-117458380D02*
X317055428Y-116458380D01*
X316960190Y-116601238D01*
X316864952Y-116696476D01*
X316769714Y-116744095D01*
X317674476Y-116458380D02*
X318293523Y-116458380D01*
X317960190Y-116839333D01*
X318103047Y-116839333D01*
X318198285Y-116886952D01*
X318245904Y-116934571D01*
X318293523Y-117029809D01*
X318293523Y-117267904D01*
X318245904Y-117363142D01*
X318198285Y-117410761D01*
X318103047Y-117458380D01*
X317817333Y-117458380D01*
X317722095Y-117410761D01*
X317674476Y-117363142D01*
X321484714Y-132278380D02*
X320913285Y-132278380D01*
X321199000Y-132278380D02*
X321199000Y-131278380D01*
X321103761Y-131421238D01*
X321008523Y-131516476D01*
X320913285Y-131564095D01*
G04 #@! TO.C,SW12*
X331184476Y-100900761D02*
X331327333Y-100948380D01*
X331565428Y-100948380D01*
X331660666Y-100900761D01*
X331708285Y-100853142D01*
X331755904Y-100757904D01*
X331755904Y-100662666D01*
X331708285Y-100567428D01*
X331660666Y-100519809D01*
X331565428Y-100472190D01*
X331374952Y-100424571D01*
X331279714Y-100376952D01*
X331232095Y-100329333D01*
X331184476Y-100234095D01*
X331184476Y-100138857D01*
X331232095Y-100043619D01*
X331279714Y-99996000D01*
X331374952Y-99948380D01*
X331613047Y-99948380D01*
X331755904Y-99996000D01*
X332089238Y-99948380D02*
X332327333Y-100948380D01*
X332517809Y-100234095D01*
X332708285Y-100948380D01*
X332946380Y-99948380D01*
X333851142Y-100948380D02*
X333279714Y-100948380D01*
X333565428Y-100948380D02*
X333565428Y-99948380D01*
X333470190Y-100091238D01*
X333374952Y-100186476D01*
X333279714Y-100234095D01*
X334232095Y-100043619D02*
X334279714Y-99996000D01*
X334374952Y-99948380D01*
X334613047Y-99948380D01*
X334708285Y-99996000D01*
X334755904Y-100043619D01*
X334803523Y-100138857D01*
X334803523Y-100234095D01*
X334755904Y-100376952D01*
X334184476Y-100948380D01*
X334803523Y-100948380D01*
X337947095Y-114768380D02*
X337470904Y-114768380D01*
X337423285Y-115244571D01*
X337470904Y-115196952D01*
X337566142Y-115149333D01*
X337804238Y-115149333D01*
X337899476Y-115196952D01*
X337947095Y-115244571D01*
X337994714Y-115339809D01*
X337994714Y-115577904D01*
X337947095Y-115673142D01*
X337899476Y-115720761D01*
X337804238Y-115768380D01*
X337566142Y-115768380D01*
X337470904Y-115720761D01*
X337423285Y-115673142D01*
G04 #@! TO.C,SW11*
X331184476Y-84390761D02*
X331327333Y-84438380D01*
X331565428Y-84438380D01*
X331660666Y-84390761D01*
X331708285Y-84343142D01*
X331755904Y-84247904D01*
X331755904Y-84152666D01*
X331708285Y-84057428D01*
X331660666Y-84009809D01*
X331565428Y-83962190D01*
X331374952Y-83914571D01*
X331279714Y-83866952D01*
X331232095Y-83819333D01*
X331184476Y-83724095D01*
X331184476Y-83628857D01*
X331232095Y-83533619D01*
X331279714Y-83486000D01*
X331374952Y-83438380D01*
X331613047Y-83438380D01*
X331755904Y-83486000D01*
X332089238Y-83438380D02*
X332327333Y-84438380D01*
X332517809Y-83724095D01*
X332708285Y-84438380D01*
X332946380Y-83438380D01*
X333851142Y-84438380D02*
X333279714Y-84438380D01*
X333565428Y-84438380D02*
X333565428Y-83438380D01*
X333470190Y-83581238D01*
X333374952Y-83676476D01*
X333279714Y-83724095D01*
X334803523Y-84438380D02*
X334232095Y-84438380D01*
X334517809Y-84438380D02*
X334517809Y-83438380D01*
X334422571Y-83581238D01*
X334327333Y-83676476D01*
X334232095Y-83724095D01*
X337613761Y-98432952D02*
X337518523Y-98385333D01*
X337470904Y-98337714D01*
X337423285Y-98242476D01*
X337423285Y-98194857D01*
X337470904Y-98099619D01*
X337518523Y-98052000D01*
X337613761Y-98004380D01*
X337804238Y-98004380D01*
X337899476Y-98052000D01*
X337947095Y-98099619D01*
X337994714Y-98194857D01*
X337994714Y-98242476D01*
X337947095Y-98337714D01*
X337899476Y-98385333D01*
X337804238Y-98432952D01*
X337613761Y-98432952D01*
X337518523Y-98480571D01*
X337470904Y-98528190D01*
X337423285Y-98623428D01*
X337423285Y-98813904D01*
X337470904Y-98909142D01*
X337518523Y-98956761D01*
X337613761Y-99004380D01*
X337804238Y-99004380D01*
X337899476Y-98956761D01*
X337947095Y-98909142D01*
X337994714Y-98813904D01*
X337994714Y-98623428D01*
X337947095Y-98528190D01*
X337899476Y-98480571D01*
X337804238Y-98432952D01*
G04 #@! TO.C,SW10*
X314674476Y-84390761D02*
X314817333Y-84438380D01*
X315055428Y-84438380D01*
X315150666Y-84390761D01*
X315198285Y-84343142D01*
X315245904Y-84247904D01*
X315245904Y-84152666D01*
X315198285Y-84057428D01*
X315150666Y-84009809D01*
X315055428Y-83962190D01*
X314864952Y-83914571D01*
X314769714Y-83866952D01*
X314722095Y-83819333D01*
X314674476Y-83724095D01*
X314674476Y-83628857D01*
X314722095Y-83533619D01*
X314769714Y-83486000D01*
X314864952Y-83438380D01*
X315103047Y-83438380D01*
X315245904Y-83486000D01*
X315579238Y-83438380D02*
X315817333Y-84438380D01*
X316007809Y-83724095D01*
X316198285Y-84438380D01*
X316436380Y-83438380D01*
X317341142Y-84438380D02*
X316769714Y-84438380D01*
X317055428Y-84438380D02*
X317055428Y-83438380D01*
X316960190Y-83581238D01*
X316864952Y-83676476D01*
X316769714Y-83724095D01*
X317960190Y-83438380D02*
X318055428Y-83438380D01*
X318150666Y-83486000D01*
X318198285Y-83533619D01*
X318245904Y-83628857D01*
X318293523Y-83819333D01*
X318293523Y-84057428D01*
X318245904Y-84247904D01*
X318198285Y-84343142D01*
X318150666Y-84390761D01*
X318055428Y-84438380D01*
X317960190Y-84438380D01*
X317864952Y-84390761D01*
X317817333Y-84343142D01*
X317769714Y-84247904D01*
X317722095Y-84057428D01*
X317722095Y-83819333D01*
X317769714Y-83628857D01*
X317817333Y-83533619D01*
X317864952Y-83486000D01*
X317960190Y-83438380D01*
X320865666Y-98004380D02*
X321532333Y-98004380D01*
X321103761Y-99004380D01*
G04 #@! TO.C,SW9*
X103060666Y-150430761D02*
X103203523Y-150478380D01*
X103441619Y-150478380D01*
X103536857Y-150430761D01*
X103584476Y-150383142D01*
X103632095Y-150287904D01*
X103632095Y-150192666D01*
X103584476Y-150097428D01*
X103536857Y-150049809D01*
X103441619Y-150002190D01*
X103251142Y-149954571D01*
X103155904Y-149906952D01*
X103108285Y-149859333D01*
X103060666Y-149764095D01*
X103060666Y-149668857D01*
X103108285Y-149573619D01*
X103155904Y-149526000D01*
X103251142Y-149478380D01*
X103489238Y-149478380D01*
X103632095Y-149526000D01*
X103965428Y-149478380D02*
X104203523Y-150478380D01*
X104394000Y-149764095D01*
X104584476Y-150478380D01*
X104822571Y-149478380D01*
X105251142Y-150478380D02*
X105441619Y-150478380D01*
X105536857Y-150430761D01*
X105584476Y-150383142D01*
X105679714Y-150240285D01*
X105727333Y-150049809D01*
X105727333Y-149668857D01*
X105679714Y-149573619D01*
X105632095Y-149526000D01*
X105536857Y-149478380D01*
X105346380Y-149478380D01*
X105251142Y-149526000D01*
X105203523Y-149573619D01*
X105155904Y-149668857D01*
X105155904Y-149906952D01*
X105203523Y-150002190D01*
X105251142Y-150049809D01*
X105346380Y-150097428D01*
X105536857Y-150097428D01*
X105632095Y-150049809D01*
X105679714Y-150002190D01*
X105727333Y-149906952D01*
X108601142Y-164973142D02*
X108553523Y-165020761D01*
X108410666Y-165068380D01*
X108315428Y-165068380D01*
X108172571Y-165020761D01*
X108077333Y-164925523D01*
X108029714Y-164830285D01*
X107982095Y-164639809D01*
X107982095Y-164496952D01*
X108029714Y-164306476D01*
X108077333Y-164211238D01*
X108172571Y-164116000D01*
X108315428Y-164068380D01*
X108410666Y-164068380D01*
X108553523Y-164116000D01*
X108601142Y-164163619D01*
X109220190Y-164068380D02*
X109410666Y-164068380D01*
X109505904Y-164116000D01*
X109601142Y-164211238D01*
X109648761Y-164401714D01*
X109648761Y-164735047D01*
X109601142Y-164925523D01*
X109505904Y-165020761D01*
X109410666Y-165068380D01*
X109220190Y-165068380D01*
X109124952Y-165020761D01*
X109029714Y-164925523D01*
X108982095Y-164735047D01*
X108982095Y-164401714D01*
X109029714Y-164211238D01*
X109124952Y-164116000D01*
X109220190Y-164068380D01*
X110077333Y-165068380D02*
X110077333Y-164068380D01*
X110458285Y-164068380D01*
X110553523Y-164116000D01*
X110601142Y-164163619D01*
X110648761Y-164258857D01*
X110648761Y-164401714D01*
X110601142Y-164496952D01*
X110553523Y-164544571D01*
X110458285Y-164592190D01*
X110077333Y-164592190D01*
X111267809Y-164592190D02*
X111267809Y-165068380D01*
X110934476Y-164068380D02*
X111267809Y-164592190D01*
X111601142Y-164068380D01*
G04 #@! TO.C,SW8*
X314515666Y-150430761D02*
X314658523Y-150478380D01*
X314896619Y-150478380D01*
X314991857Y-150430761D01*
X315039476Y-150383142D01*
X315087095Y-150287904D01*
X315087095Y-150192666D01*
X315039476Y-150097428D01*
X314991857Y-150049809D01*
X314896619Y-150002190D01*
X314706142Y-149954571D01*
X314610904Y-149906952D01*
X314563285Y-149859333D01*
X314515666Y-149764095D01*
X314515666Y-149668857D01*
X314563285Y-149573619D01*
X314610904Y-149526000D01*
X314706142Y-149478380D01*
X314944238Y-149478380D01*
X315087095Y-149526000D01*
X315420428Y-149478380D02*
X315658523Y-150478380D01*
X315849000Y-149764095D01*
X316039476Y-150478380D01*
X316277571Y-149478380D01*
X316801380Y-149906952D02*
X316706142Y-149859333D01*
X316658523Y-149811714D01*
X316610904Y-149716476D01*
X316610904Y-149668857D01*
X316658523Y-149573619D01*
X316706142Y-149526000D01*
X316801380Y-149478380D01*
X316991857Y-149478380D01*
X317087095Y-149526000D01*
X317134714Y-149573619D01*
X317182333Y-149668857D01*
X317182333Y-149716476D01*
X317134714Y-149811714D01*
X317087095Y-149859333D01*
X316991857Y-149906952D01*
X316801380Y-149906952D01*
X316706142Y-149954571D01*
X316658523Y-150002190D01*
X316610904Y-150097428D01*
X316610904Y-150287904D01*
X316658523Y-150383142D01*
X316706142Y-150430761D01*
X316801380Y-150478380D01*
X316991857Y-150478380D01*
X317087095Y-150430761D01*
X317134714Y-150383142D01*
X317182333Y-150287904D01*
X317182333Y-150097428D01*
X317134714Y-150002190D01*
X317087095Y-149954571D01*
X316991857Y-149906952D01*
X320246619Y-165298380D02*
X319770428Y-165298380D01*
X319770428Y-164298380D01*
X320579952Y-164774571D02*
X320913285Y-164774571D01*
X321056142Y-165298380D02*
X320579952Y-165298380D01*
X320579952Y-164298380D01*
X321056142Y-164298380D01*
X321818047Y-164774571D02*
X321484714Y-164774571D01*
X321484714Y-165298380D02*
X321484714Y-164298380D01*
X321960904Y-164298380D01*
X322199000Y-164298380D02*
X322770428Y-164298380D01*
X322484714Y-165298380D02*
X322484714Y-164298380D01*
G04 #@! TO.C,SW7*
X347535666Y-133920761D02*
X347678523Y-133968380D01*
X347916619Y-133968380D01*
X348011857Y-133920761D01*
X348059476Y-133873142D01*
X348107095Y-133777904D01*
X348107095Y-133682666D01*
X348059476Y-133587428D01*
X348011857Y-133539809D01*
X347916619Y-133492190D01*
X347726142Y-133444571D01*
X347630904Y-133396952D01*
X347583285Y-133349333D01*
X347535666Y-133254095D01*
X347535666Y-133158857D01*
X347583285Y-133063619D01*
X347630904Y-133016000D01*
X347726142Y-132968380D01*
X347964238Y-132968380D01*
X348107095Y-133016000D01*
X348440428Y-132968380D02*
X348678523Y-133968380D01*
X348869000Y-133254095D01*
X349059476Y-133968380D01*
X349297571Y-132968380D01*
X349583285Y-132968380D02*
X350249952Y-132968380D01*
X349821380Y-133968380D01*
X354219000Y-148693142D02*
X354266619Y-148740761D01*
X354219000Y-148788380D01*
X354171380Y-148740761D01*
X354219000Y-148693142D01*
X354219000Y-148788380D01*
G04 #@! TO.C,SW6*
X298005666Y-150430761D02*
X298148523Y-150478380D01*
X298386619Y-150478380D01*
X298481857Y-150430761D01*
X298529476Y-150383142D01*
X298577095Y-150287904D01*
X298577095Y-150192666D01*
X298529476Y-150097428D01*
X298481857Y-150049809D01*
X298386619Y-150002190D01*
X298196142Y-149954571D01*
X298100904Y-149906952D01*
X298053285Y-149859333D01*
X298005666Y-149764095D01*
X298005666Y-149668857D01*
X298053285Y-149573619D01*
X298100904Y-149526000D01*
X298196142Y-149478380D01*
X298434238Y-149478380D01*
X298577095Y-149526000D01*
X298910428Y-149478380D02*
X299148523Y-150478380D01*
X299339000Y-149764095D01*
X299529476Y-150478380D01*
X299767571Y-149478380D01*
X300577095Y-149478380D02*
X300386619Y-149478380D01*
X300291380Y-149526000D01*
X300243761Y-149573619D01*
X300148523Y-149716476D01*
X300100904Y-149906952D01*
X300100904Y-150287904D01*
X300148523Y-150383142D01*
X300196142Y-150430761D01*
X300291380Y-150478380D01*
X300481857Y-150478380D01*
X300577095Y-150430761D01*
X300624714Y-150383142D01*
X300672333Y-150287904D01*
X300672333Y-150049809D01*
X300624714Y-149954571D01*
X300577095Y-149906952D01*
X300481857Y-149859333D01*
X300291380Y-149859333D01*
X300196142Y-149906952D01*
X300148523Y-149954571D01*
X300100904Y-150049809D01*
X302617571Y-164774571D02*
X302950904Y-164774571D01*
X303093761Y-165298380D02*
X302617571Y-165298380D01*
X302617571Y-164298380D01*
X303093761Y-164298380D01*
X303522333Y-165298380D02*
X303522333Y-164298380D01*
X304093761Y-165298380D01*
X304093761Y-164298380D01*
X304427095Y-164298380D02*
X304998523Y-164298380D01*
X304712809Y-165298380D02*
X304712809Y-164298380D01*
X305331857Y-164774571D02*
X305665190Y-164774571D01*
X305808047Y-165298380D02*
X305331857Y-165298380D01*
X305331857Y-164298380D01*
X305808047Y-164298380D01*
X306808047Y-165298380D02*
X306474714Y-164822190D01*
X306236619Y-165298380D02*
X306236619Y-164298380D01*
X306617571Y-164298380D01*
X306712809Y-164346000D01*
X306760428Y-164393619D01*
X306808047Y-164488857D01*
X306808047Y-164631714D01*
X306760428Y-164726952D01*
X306712809Y-164774571D01*
X306617571Y-164822190D01*
X306236619Y-164822190D01*
G04 #@! TO.C,SW5*
X347535666Y-117410761D02*
X347678523Y-117458380D01*
X347916619Y-117458380D01*
X348011857Y-117410761D01*
X348059476Y-117363142D01*
X348107095Y-117267904D01*
X348107095Y-117172666D01*
X348059476Y-117077428D01*
X348011857Y-117029809D01*
X347916619Y-116982190D01*
X347726142Y-116934571D01*
X347630904Y-116886952D01*
X347583285Y-116839333D01*
X347535666Y-116744095D01*
X347535666Y-116648857D01*
X347583285Y-116553619D01*
X347630904Y-116506000D01*
X347726142Y-116458380D01*
X347964238Y-116458380D01*
X348107095Y-116506000D01*
X348440428Y-116458380D02*
X348678523Y-117458380D01*
X348869000Y-116744095D01*
X349059476Y-117458380D01*
X349297571Y-116458380D01*
X350154714Y-116458380D02*
X349678523Y-116458380D01*
X349630904Y-116934571D01*
X349678523Y-116886952D01*
X349773761Y-116839333D01*
X350011857Y-116839333D01*
X350107095Y-116886952D01*
X350154714Y-116934571D01*
X350202333Y-117029809D01*
X350202333Y-117267904D01*
X350154714Y-117363142D01*
X350107095Y-117410761D01*
X350011857Y-117458380D01*
X349773761Y-117458380D01*
X349678523Y-117410761D01*
X349630904Y-117363142D01*
X353885666Y-131532380D02*
X354504714Y-131532380D01*
X354171380Y-131913333D01*
X354314238Y-131913333D01*
X354409476Y-131960952D01*
X354457095Y-132008571D01*
X354504714Y-132103809D01*
X354504714Y-132341904D01*
X354457095Y-132437142D01*
X354409476Y-132484761D01*
X354314238Y-132532380D01*
X354028523Y-132532380D01*
X353933285Y-132484761D01*
X353885666Y-132437142D01*
G04 #@! TO.C,SW4*
X347535666Y-100900761D02*
X347678523Y-100948380D01*
X347916619Y-100948380D01*
X348011857Y-100900761D01*
X348059476Y-100853142D01*
X348107095Y-100757904D01*
X348107095Y-100662666D01*
X348059476Y-100567428D01*
X348011857Y-100519809D01*
X347916619Y-100472190D01*
X347726142Y-100424571D01*
X347630904Y-100376952D01*
X347583285Y-100329333D01*
X347535666Y-100234095D01*
X347535666Y-100138857D01*
X347583285Y-100043619D01*
X347630904Y-99996000D01*
X347726142Y-99948380D01*
X347964238Y-99948380D01*
X348107095Y-99996000D01*
X348440428Y-99948380D02*
X348678523Y-100948380D01*
X348869000Y-100234095D01*
X349059476Y-100948380D01*
X349297571Y-99948380D01*
X350107095Y-100281714D02*
X350107095Y-100948380D01*
X349869000Y-99900761D02*
X349630904Y-100615047D01*
X350249952Y-100615047D01*
X354409476Y-114768380D02*
X354219000Y-114768380D01*
X354123761Y-114816000D01*
X354076142Y-114863619D01*
X353980904Y-115006476D01*
X353933285Y-115196952D01*
X353933285Y-115577904D01*
X353980904Y-115673142D01*
X354028523Y-115720761D01*
X354123761Y-115768380D01*
X354314238Y-115768380D01*
X354409476Y-115720761D01*
X354457095Y-115673142D01*
X354504714Y-115577904D01*
X354504714Y-115339809D01*
X354457095Y-115244571D01*
X354409476Y-115196952D01*
X354314238Y-115149333D01*
X354123761Y-115149333D01*
X354028523Y-115196952D01*
X353980904Y-115244571D01*
X353933285Y-115339809D01*
G04 #@! TO.C,SW3*
X347535666Y-84390761D02*
X347678523Y-84438380D01*
X347916619Y-84438380D01*
X348011857Y-84390761D01*
X348059476Y-84343142D01*
X348107095Y-84247904D01*
X348107095Y-84152666D01*
X348059476Y-84057428D01*
X348011857Y-84009809D01*
X347916619Y-83962190D01*
X347726142Y-83914571D01*
X347630904Y-83866952D01*
X347583285Y-83819333D01*
X347535666Y-83724095D01*
X347535666Y-83628857D01*
X347583285Y-83533619D01*
X347630904Y-83486000D01*
X347726142Y-83438380D01*
X347964238Y-83438380D01*
X348107095Y-83486000D01*
X348440428Y-83438380D02*
X348678523Y-84438380D01*
X348869000Y-83724095D01*
X349059476Y-84438380D01*
X349297571Y-83438380D01*
X349583285Y-83438380D02*
X350202333Y-83438380D01*
X349869000Y-83819333D01*
X350011857Y-83819333D01*
X350107095Y-83866952D01*
X350154714Y-83914571D01*
X350202333Y-84009809D01*
X350202333Y-84247904D01*
X350154714Y-84343142D01*
X350107095Y-84390761D01*
X350011857Y-84438380D01*
X349726142Y-84438380D01*
X349630904Y-84390761D01*
X349583285Y-84343142D01*
X354028523Y-99004380D02*
X354219000Y-99004380D01*
X354314238Y-98956761D01*
X354361857Y-98909142D01*
X354457095Y-98766285D01*
X354504714Y-98575809D01*
X354504714Y-98194857D01*
X354457095Y-98099619D01*
X354409476Y-98052000D01*
X354314238Y-98004380D01*
X354123761Y-98004380D01*
X354028523Y-98052000D01*
X353980904Y-98099619D01*
X353933285Y-98194857D01*
X353933285Y-98432952D01*
X353980904Y-98528190D01*
X354028523Y-98575809D01*
X354123761Y-98623428D01*
X354314238Y-98623428D01*
X354409476Y-98575809D01*
X354457095Y-98528190D01*
X354504714Y-98432952D01*
G04 #@! TO.C,SW2*
X331025666Y-150430761D02*
X331168523Y-150478380D01*
X331406619Y-150478380D01*
X331501857Y-150430761D01*
X331549476Y-150383142D01*
X331597095Y-150287904D01*
X331597095Y-150192666D01*
X331549476Y-150097428D01*
X331501857Y-150049809D01*
X331406619Y-150002190D01*
X331216142Y-149954571D01*
X331120904Y-149906952D01*
X331073285Y-149859333D01*
X331025666Y-149764095D01*
X331025666Y-149668857D01*
X331073285Y-149573619D01*
X331120904Y-149526000D01*
X331216142Y-149478380D01*
X331454238Y-149478380D01*
X331597095Y-149526000D01*
X331930428Y-149478380D02*
X332168523Y-150478380D01*
X332359000Y-149764095D01*
X332549476Y-150478380D01*
X332787571Y-149478380D01*
X333120904Y-149573619D02*
X333168523Y-149526000D01*
X333263761Y-149478380D01*
X333501857Y-149478380D01*
X333597095Y-149526000D01*
X333644714Y-149573619D01*
X333692333Y-149668857D01*
X333692333Y-149764095D01*
X333644714Y-149906952D01*
X333073285Y-150478380D01*
X333692333Y-150478380D01*
X335828047Y-165298380D02*
X335828047Y-164298380D01*
X336066142Y-164298380D01*
X336209000Y-164346000D01*
X336304238Y-164441238D01*
X336351857Y-164536476D01*
X336399476Y-164726952D01*
X336399476Y-164869809D01*
X336351857Y-165060285D01*
X336304238Y-165155523D01*
X336209000Y-165250761D01*
X336066142Y-165298380D01*
X335828047Y-165298380D01*
X337018523Y-164298380D02*
X337209000Y-164298380D01*
X337304238Y-164346000D01*
X337399476Y-164441238D01*
X337447095Y-164631714D01*
X337447095Y-164965047D01*
X337399476Y-165155523D01*
X337304238Y-165250761D01*
X337209000Y-165298380D01*
X337018523Y-165298380D01*
X336923285Y-165250761D01*
X336828047Y-165155523D01*
X336780428Y-164965047D01*
X336780428Y-164631714D01*
X336828047Y-164441238D01*
X336923285Y-164346000D01*
X337018523Y-164298380D01*
X337780428Y-164298380D02*
X338018523Y-165298380D01*
X338209000Y-164584095D01*
X338399476Y-165298380D01*
X338637571Y-164298380D01*
X339018523Y-165298380D02*
X339018523Y-164298380D01*
X339589952Y-165298380D01*
X339589952Y-164298380D01*
G04 #@! TO.C,SW1*
X347535666Y-150430761D02*
X347678523Y-150478380D01*
X347916619Y-150478380D01*
X348011857Y-150430761D01*
X348059476Y-150383142D01*
X348107095Y-150287904D01*
X348107095Y-150192666D01*
X348059476Y-150097428D01*
X348011857Y-150049809D01*
X347916619Y-150002190D01*
X347726142Y-149954571D01*
X347630904Y-149906952D01*
X347583285Y-149859333D01*
X347535666Y-149764095D01*
X347535666Y-149668857D01*
X347583285Y-149573619D01*
X347630904Y-149526000D01*
X347726142Y-149478380D01*
X347964238Y-149478380D01*
X348107095Y-149526000D01*
X348440428Y-149478380D02*
X348678523Y-150478380D01*
X348869000Y-149764095D01*
X349059476Y-150478380D01*
X349297571Y-149478380D01*
X350202333Y-150478380D02*
X349630904Y-150478380D01*
X349916619Y-150478380D02*
X349916619Y-149478380D01*
X349821380Y-149621238D01*
X349726142Y-149716476D01*
X349630904Y-149764095D01*
X352885666Y-165298380D02*
X352552333Y-164822190D01*
X352314238Y-165298380D02*
X352314238Y-164298380D01*
X352695190Y-164298380D01*
X352790428Y-164346000D01*
X352838047Y-164393619D01*
X352885666Y-164488857D01*
X352885666Y-164631714D01*
X352838047Y-164726952D01*
X352790428Y-164774571D01*
X352695190Y-164822190D01*
X352314238Y-164822190D01*
X353314238Y-165298380D02*
X353314238Y-164298380D01*
X354314238Y-164346000D02*
X354219000Y-164298380D01*
X354076142Y-164298380D01*
X353933285Y-164346000D01*
X353838047Y-164441238D01*
X353790428Y-164536476D01*
X353742809Y-164726952D01*
X353742809Y-164869809D01*
X353790428Y-165060285D01*
X353838047Y-165155523D01*
X353933285Y-165250761D01*
X354076142Y-165298380D01*
X354171380Y-165298380D01*
X354314238Y-165250761D01*
X354361857Y-165203142D01*
X354361857Y-164869809D01*
X354171380Y-164869809D01*
X354790428Y-165298380D02*
X354790428Y-164298380D01*
X354790428Y-164774571D02*
X355361857Y-164774571D01*
X355361857Y-165298380D02*
X355361857Y-164298380D01*
X355695190Y-164298380D02*
X356266619Y-164298380D01*
X355980904Y-165298380D02*
X355980904Y-164298380D01*
G04 #@! TO.C,SW0*
X331025666Y-133920761D02*
X331168523Y-133968380D01*
X331406619Y-133968380D01*
X331501857Y-133920761D01*
X331549476Y-133873142D01*
X331597095Y-133777904D01*
X331597095Y-133682666D01*
X331549476Y-133587428D01*
X331501857Y-133539809D01*
X331406619Y-133492190D01*
X331216142Y-133444571D01*
X331120904Y-133396952D01*
X331073285Y-133349333D01*
X331025666Y-133254095D01*
X331025666Y-133158857D01*
X331073285Y-133063619D01*
X331120904Y-133016000D01*
X331216142Y-132968380D01*
X331454238Y-132968380D01*
X331597095Y-133016000D01*
X331930428Y-132968380D02*
X332168523Y-133968380D01*
X332359000Y-133254095D01*
X332549476Y-133968380D01*
X332787571Y-132968380D01*
X333359000Y-132968380D02*
X333454238Y-132968380D01*
X333549476Y-133016000D01*
X333597095Y-133063619D01*
X333644714Y-133158857D01*
X333692333Y-133349333D01*
X333692333Y-133587428D01*
X333644714Y-133777904D01*
X333597095Y-133873142D01*
X333549476Y-133920761D01*
X333454238Y-133968380D01*
X333359000Y-133968380D01*
X333263761Y-133920761D01*
X333216142Y-133873142D01*
X333168523Y-133777904D01*
X333120904Y-133587428D01*
X333120904Y-133349333D01*
X333168523Y-133158857D01*
X333216142Y-133063619D01*
X333263761Y-133016000D01*
X333359000Y-132968380D01*
X336923285Y-147788380D02*
X336923285Y-148597904D01*
X336970904Y-148693142D01*
X337018523Y-148740761D01*
X337113761Y-148788380D01*
X337304238Y-148788380D01*
X337399476Y-148740761D01*
X337447095Y-148693142D01*
X337494714Y-148597904D01*
X337494714Y-147788380D01*
X337970904Y-148788380D02*
X337970904Y-147788380D01*
X338351857Y-147788380D01*
X338447095Y-147836000D01*
X338494714Y-147883619D01*
X338542333Y-147978857D01*
X338542333Y-148121714D01*
X338494714Y-148216952D01*
X338447095Y-148264571D01*
X338351857Y-148312190D01*
X337970904Y-148312190D01*
G04 #@! TD*
M02*
